<svg width="23" height="23" viewBox="0 0 23 23" fill="none" xmlns="http://www.w3.org/2000/svg">
<circle cx="11.358" cy="5.93902" r="3.76421" fill="#F9FAFB"/>
<path fill-rule="evenodd" clip-rule="evenodd" d="M15.5925 20.9965C14.0399 20.9965 13.2635 20.9965 12.7812 20.5142C12.2988 20.0319 12.2988 19.2555 12.2988 17.7029C12.2988 16.1502 12.2988 15.3739 12.7812 14.8915C13.2635 14.4092 14.0399 14.4092 15.5925 14.4092C17.1452 14.4092 17.9215 14.4092 18.4038 14.8915C18.8862 15.3739 18.8862 16.1502 18.8862 17.7029C18.8862 19.2555 18.8862 20.0319 18.4038 20.5142C17.9215 20.9965 17.1452 20.9965 15.5925 20.9965ZM16.1415 16.239C16.1415 15.9358 15.8957 15.6901 15.5925 15.6901C15.2893 15.6901 15.0436 15.9358 15.0436 16.239V17.1539H14.1287C13.8255 17.1539 13.5797 17.3997 13.5797 17.7029C13.5797 18.006 13.8255 18.2518 14.1287 18.2518H15.0436V19.1667C15.0436 19.4699 15.2893 19.7157 15.5925 19.7157C15.8957 19.7157 16.1415 19.4699 16.1415 19.1667V18.2518H17.0564C17.3595 18.2518 17.6053 18.006 17.6053 17.7029C17.6053 17.3997 17.3595 17.1539 17.0564 17.1539H16.1415V16.239Z" fill="#F9FAFB"/>
<path d="M14.5703 13.0039C13.6198 12.6997 12.5238 12.5264 11.3569 12.5264C7.7188 12.5264 4.76953 14.2117 4.76953 16.2906C4.76953 18.305 7.53852 19.9498 11.0201 20.05C10.9946 19.9311 10.9748 19.8131 10.9593 19.6973C10.8862 19.1536 10.8863 18.4894 10.8864 17.783V17.6212C10.8863 16.9149 10.8862 16.2507 10.9593 15.707C11.0406 15.102 11.235 14.4398 11.7822 13.8927C12.3293 13.3455 12.9915 13.1511 13.5965 13.0698C13.8901 13.0303 14.2188 13.0122 14.5703 13.0039Z" fill="#F9FAFB"/>
</svg>
