<svg width="16" height="9" viewBox="0 0 16 9" fill="none" xmlns="http://www.w3.org/2000/svg">
<path fill-rule="evenodd" clip-rule="evenodd" d="M10.4454 0.666626C10.4454 0.390484 10.6693 0.166626 10.9454 0.166626H14.6668C14.943 0.166626 15.1668 0.390484 15.1668 0.666626V4.36385C15.1668 4.63999 14.943 4.86385 14.6668 4.86385C14.3907 4.86385 14.1668 4.63999 14.1668 4.36385V1.86853L10.0763 5.93416C9.76363 6.24492 9.49416 6.51278 9.24944 6.69843C8.98711 6.89744 8.69564 7.04799 8.33684 7.04794C7.97804 7.0479 7.6866 6.89729 7.42432 6.69822C7.17965 6.51252 6.91024 6.2446 6.59769 5.93377L6.41485 5.75196C6.07208 5.41113 5.84984 5.19163 5.6648 5.0512C5.49131 4.91954 5.4102 4.90485 5.35649 4.90487C5.30278 4.90489 5.22168 4.91964 5.04829 5.05143C4.86335 5.192 4.64127 5.41165 4.29875 5.75274L1.68631 8.35425C1.49064 8.5491 1.17405 8.54844 0.979202 8.35277C0.78435 8.1571 0.785014 7.84052 0.980685 7.64567L3.61638 5.02099C3.929 4.70964 4.19844 4.4413 4.44318 4.25529C4.70551 4.0559 4.99707 3.905 5.35613 3.90487C5.71519 3.90474 6.00685 4.05542 6.26933 4.25462C6.5142 4.44045 6.78383 4.7086 7.09667 5.01971L7.27952 5.20153C7.62199 5.54207 7.84402 5.76135 8.02889 5.90167C8.20221 6.03322 8.28327 6.04794 8.33696 6.04794C8.39064 6.04795 8.4717 6.03325 8.64505 5.90174C8.82996 5.76147 9.05204 5.54223 9.39459 5.20177L13.4545 1.16663H10.9454C10.6693 1.16663 10.4454 0.942768 10.4454 0.666626Z" fill="#10B981"/>
</svg>
