<svg width="24" height="24" viewBox="0 0 24 24" fill="none" xmlns="http://www.w3.org/2000/svg">
<path fill-rule="evenodd" clip-rule="evenodd" d="M11.9997 0.835449C12.5282 0.835449 12.9567 1.2639 12.9567 1.79243L12.9567 22.208C12.9567 22.7365 12.5282 23.1649 11.9997 23.1649C11.4712 23.1649 11.0427 22.7365 11.0427 22.208L11.0427 1.79243C11.0427 1.2639 11.4712 0.835449 11.9997 0.835449ZM6.89582 4.66336C7.42435 4.66336 7.8528 5.09181 7.8528 5.62034V18.38C7.8528 18.9086 7.42435 19.337 6.89582 19.337C6.3673 19.337 5.93884 18.9086 5.93884 18.38V5.62034C5.93884 5.09181 6.3673 4.66336 6.89582 4.66336ZM17.1036 4.66336C17.6321 4.66336 18.0606 5.09181 18.0606 5.62034V18.38C18.0606 18.9086 17.6321 19.337 17.1036 19.337C16.5751 19.337 16.1466 18.9086 16.1466 18.38V5.62034C16.1466 5.09181 16.5751 4.66336 17.1036 4.66336ZM1.79194 9.76724C2.32046 9.76724 2.74892 10.1957 2.74892 10.7242L2.74892 13.2762C2.74892 13.8047 2.32046 14.2331 1.79194 14.2331C1.26341 14.2331 0.834961 13.8047 0.834961 13.2762L0.834961 10.7242C0.834961 10.1957 1.26341 9.76724 1.79194 9.76724ZM22.2075 9.76724C22.736 9.76724 23.1644 10.1957 23.1644 10.7242V13.2762C23.1644 13.8047 22.736 14.2331 22.2075 14.2331C21.6789 14.2331 21.2505 13.8047 21.2505 13.2762V10.7242C21.2505 10.1957 21.6789 9.76724 22.2075 9.76724Z" fill="#10B981"/>
</svg>
