<svg width="287" height="80" viewBox="0 0 287 80" fill="none" xmlns="http://www.w3.org/2000/svg">
<rect x="0.25" y="0.25" width="286.5" height="78.6448" rx="6.14554" fill="#E9E9FD" fill-opacity="0.5"/>
<rect x="0.25" y="0.25" width="286.5" height="78.6448" rx="6.14554" stroke="#C5C1FF" stroke-width="0.5"/>
<path d="M78.4444 34.7827L80.8395 28.0996H81.8801L84.2752 34.7827H83.3333L82.7861 33.2129H79.9335L79.3863 34.7827H78.4444ZM80.2116 32.4055H82.508L81.2342 28.7366H81.4854L80.2116 32.4055ZM86.6445 34.8904C86.2976 34.8904 85.9836 34.8096 85.7025 34.6482C85.4274 34.4867 85.2122 34.2624 85.0567 33.9754C84.9072 33.6823 84.8324 33.3474 84.8324 32.9707V29.9476H85.6667V32.881C85.6667 33.1202 85.7145 33.3295 85.8102 33.5089C85.9119 33.6883 86.0494 33.8288 86.2228 33.9305C86.4022 34.0322 86.6056 34.083 86.8328 34.083C87.0601 34.083 87.2604 34.0322 87.4339 33.9305C87.6133 33.8288 87.7508 33.6823 87.8465 33.491C87.9482 33.2996 87.999 33.0723 87.999 32.8092V29.9476H88.8422V34.7827H88.0259V33.8408L88.1605 33.9215C88.0468 34.2265 87.8525 34.4658 87.5774 34.6392C87.3083 34.8066 86.9973 34.8904 86.6445 34.8904ZM92.3325 34.8904C91.878 34.8904 91.4683 34.7797 91.1035 34.5585C90.7447 34.3372 90.4606 34.0352 90.2513 33.6524C90.042 33.2697 89.9373 32.8421 89.9373 32.3696C89.9373 31.8852 90.042 31.4546 90.2513 31.0779C90.4606 30.6951 90.7447 30.3931 91.1035 30.1718C91.4683 29.9506 91.878 29.8399 92.3325 29.8399C92.7332 29.8399 93.089 29.9267 93.4 30.1001C93.711 30.2675 93.9562 30.4948 94.1356 30.7818L94.001 30.9882V27.992H94.8442V34.7827H94.0279V33.7511L94.1356 33.8946C93.9681 34.2116 93.7229 34.4568 93.4 34.6302C93.083 34.8036 92.7272 34.8904 92.3325 34.8904ZM92.4043 34.083C92.7093 34.083 92.9814 34.0083 93.2206 33.8587C93.4598 33.7092 93.6482 33.5059 93.7857 33.2487C93.9292 32.9856 94.001 32.6926 94.001 32.3696C94.001 32.0407 93.9292 31.7477 93.7857 31.4905C93.6482 31.2274 93.4598 31.0211 93.2206 30.8716C92.9814 30.722 92.7093 30.6473 92.4043 30.6473C92.1052 30.6473 91.8331 30.725 91.5879 30.8805C91.3487 31.03 91.1603 31.2334 91.0228 31.4905C90.8852 31.7417 90.8165 32.0347 90.8165 32.3696C90.8165 32.6926 90.8852 32.9856 91.0228 33.2487C91.1603 33.5059 91.3487 33.7092 91.5879 33.8587C91.8271 34.0083 92.0993 34.083 92.4043 34.083ZM96.1355 34.7827V29.9476H96.9698V34.7827H96.1355ZM96.1355 29.1761V28.0996H96.9698V29.1761H96.1355ZM100.561 34.8904C100.094 34.8904 99.6726 34.7827 99.2959 34.5674C98.9191 34.3461 98.6201 34.0441 98.3988 33.6614C98.1776 33.2787 98.0669 32.8451 98.0669 32.3607C98.0669 31.8763 98.1746 31.4457 98.3899 31.0689C98.6111 30.6921 98.9102 30.3931 99.2869 30.1718C99.6637 29.9506 100.088 29.8399 100.561 29.8399C101.027 29.8399 101.449 29.9506 101.826 30.1718C102.202 30.3871 102.498 30.6832 102.714 31.0599C102.935 31.4367 103.046 31.8703 103.046 32.3607C103.046 32.8511 102.932 33.2876 102.705 33.6704C102.477 34.0471 102.175 34.3461 101.799 34.5674C101.428 34.7827 101.015 34.8904 100.561 34.8904ZM100.561 34.083C100.86 34.083 101.129 34.0083 101.368 33.8587C101.613 33.7092 101.805 33.5029 101.942 33.2398C102.086 32.9766 102.157 32.6836 102.157 32.3607C102.157 32.0317 102.086 31.7417 101.942 31.4905C101.805 31.2334 101.613 31.03 101.368 30.8805C101.129 30.725 100.86 30.6473 100.561 30.6473C100.256 30.6473 99.9806 30.725 99.7354 30.8805C99.4962 31.03 99.3049 31.2334 99.1613 31.4905C99.0178 31.7417 98.946 32.0317 98.946 32.3607C98.946 32.6836 99.0178 32.9766 99.1613 33.2398C99.3049 33.5029 99.4962 33.7092 99.7354 33.8587C99.9806 34.0083 100.256 34.083 100.561 34.083ZM105.783 34.7827V28.0996H110.017V28.907H106.662V31.0689H109.703V31.8763H106.662V34.7827H105.783ZM110.914 34.7827V29.9476H111.748V34.7827H110.914ZM110.914 29.1761V28.0996H111.748V29.1761H110.914ZM113.043 34.7827V27.992H113.877V34.7827H113.043ZM117.396 34.8904C116.93 34.8904 116.514 34.7797 116.149 34.5585C115.785 34.3372 115.498 34.0352 115.288 33.6524C115.079 33.2637 114.974 32.8301 114.974 32.3517C114.974 31.8673 115.076 31.4367 115.279 31.0599C115.489 30.6832 115.77 30.3871 116.123 30.1718C116.481 29.9506 116.882 29.8399 117.325 29.8399C117.683 29.8399 118 29.9057 118.275 30.0373C118.557 30.1629 118.793 30.3363 118.984 30.5576C119.182 30.7729 119.331 31.0211 119.433 31.3021C119.54 31.5772 119.594 31.8643 119.594 32.1633C119.594 32.2291 119.588 32.3038 119.576 32.3876C119.57 32.4653 119.561 32.5401 119.549 32.6118H115.584V31.8942H119.065L118.67 32.2171C118.724 31.9062 118.694 31.6281 118.58 31.3829C118.467 31.1377 118.299 30.9433 118.078 30.7998C117.857 30.6563 117.606 30.5845 117.325 30.5845C117.044 30.5845 116.786 30.6563 116.553 30.7998C116.32 30.9433 116.138 31.1496 116.006 31.4188C115.88 31.6819 115.83 31.9959 115.853 32.3607C115.83 32.7135 115.883 33.0245 116.015 33.2936C116.152 33.5567 116.344 33.7631 116.589 33.9126C116.84 34.0561 117.112 34.1279 117.405 34.1279C117.728 34.1279 118 34.0531 118.222 33.9036C118.443 33.7541 118.622 33.5627 118.76 33.3295L119.46 33.6883C119.364 33.9096 119.214 34.1129 119.011 34.2983C118.814 34.4777 118.577 34.6212 118.302 34.7289C118.033 34.8365 117.731 34.8904 117.396 34.8904ZM122.232 34.7827V29.9476H123.049V30.8895L122.914 30.8088C123.034 30.5038 123.225 30.2675 123.488 30.1001C123.757 29.9267 124.071 29.8399 124.43 29.8399C124.777 29.8399 125.085 29.9177 125.354 30.0732C125.629 30.2287 125.845 30.444 126 30.7191C126.162 30.9941 126.242 31.3051 126.242 31.652V34.7827H125.399V31.9211C125.399 31.652 125.351 31.4247 125.256 31.2393C125.16 31.054 125.022 30.9104 124.843 30.8088C124.669 30.7011 124.469 30.6473 124.242 30.6473C124.015 30.6473 123.811 30.7011 123.632 30.8088C123.458 30.9104 123.321 31.0569 123.219 31.2483C123.118 31.4337 123.067 31.658 123.067 31.9211V34.7827H122.232ZM128.853 34.8904C128.537 34.8904 128.255 34.8335 128.01 34.7199C127.771 34.6003 127.583 34.4388 127.445 34.2355C127.308 34.0262 127.239 33.787 127.239 33.5179C127.239 33.2607 127.293 33.0305 127.4 32.8271C127.514 32.6178 127.687 32.4414 127.921 32.2979C128.16 32.1543 128.459 32.0527 128.818 31.9929L130.612 31.6968V32.3965L129.006 32.6657C128.695 32.7195 128.468 32.8182 128.324 32.9617C128.187 33.1052 128.118 33.2816 128.118 33.491C128.118 33.6883 128.196 33.8528 128.351 33.9843C128.513 34.1159 128.713 34.1817 128.952 34.1817C129.257 34.1817 129.52 34.1189 129.742 33.9933C129.969 33.8617 130.145 33.6853 130.271 33.464C130.402 33.2428 130.468 32.9976 130.468 32.7285V31.4995C130.468 31.2364 130.369 31.024 130.172 30.8626C129.981 30.6951 129.727 30.6114 129.41 30.6114C129.135 30.6114 128.889 30.6832 128.674 30.8267C128.465 30.9642 128.309 31.1496 128.208 31.3829L127.481 31.0061C127.571 30.7848 127.714 30.5875 127.912 30.4141C128.109 30.2346 128.339 30.0941 128.602 29.9924C128.865 29.8908 129.141 29.8399 129.428 29.8399C129.798 29.8399 130.124 29.9117 130.405 30.0552C130.686 30.1928 130.905 30.3871 131.06 30.6383C131.222 30.8835 131.302 31.1706 131.302 31.4995V34.7827H130.486V33.8677L130.639 33.9215C130.537 34.1129 130.399 34.2804 130.226 34.4239C130.053 34.5674 129.849 34.681 129.616 34.7648C129.383 34.8485 129.129 34.8904 128.853 34.8904ZM132.596 34.7827V29.9476H133.412V30.9343L133.296 30.7818C133.415 30.4768 133.607 30.2436 133.87 30.0821C134.133 29.9207 134.429 29.8399 134.758 29.8399C135.135 29.8399 135.472 29.9446 135.772 30.1539C136.077 30.3632 136.286 30.6383 136.399 30.9792L136.166 30.9882C136.292 30.6114 136.504 30.3273 136.803 30.136C137.102 29.9386 137.434 29.8399 137.799 29.8399C138.134 29.8399 138.436 29.9177 138.705 30.0732C138.98 30.2287 139.198 30.444 139.36 30.7191C139.521 30.9941 139.602 31.3051 139.602 31.652V34.7827H138.759V31.9211C138.759 31.652 138.711 31.4247 138.615 31.2393C138.519 31.054 138.388 30.9104 138.22 30.8088C138.059 30.7011 137.868 30.6473 137.646 30.6473C137.431 30.6473 137.237 30.7011 137.063 30.8088C136.896 30.9104 136.761 31.0569 136.66 31.2483C136.564 31.4337 136.516 31.658 136.516 31.9211V34.7827H135.673V31.9211C135.673 31.652 135.625 31.4247 135.529 31.2393C135.434 31.054 135.302 30.9104 135.135 30.8088C134.973 30.7011 134.782 30.6473 134.56 30.6473C134.345 30.6473 134.151 30.7011 133.977 30.8088C133.81 30.9104 133.675 31.0569 133.574 31.2483C133.478 31.4337 133.43 31.658 133.43 31.9211V34.7827H132.596ZM143.012 34.8904C142.545 34.8904 142.129 34.7797 141.765 34.5585C141.4 34.3372 141.113 34.0352 140.903 33.6524C140.694 33.2637 140.589 32.8301 140.589 32.3517C140.589 31.8673 140.691 31.4367 140.894 31.0599C141.104 30.6832 141.385 30.3871 141.738 30.1718C142.097 29.9506 142.497 29.8399 142.94 29.8399C143.299 29.8399 143.616 29.9057 143.891 30.0373C144.172 30.1629 144.408 30.3363 144.599 30.5576C144.797 30.7729 144.946 31.0211 145.048 31.3021C145.155 31.5772 145.209 31.8643 145.209 32.1633C145.209 32.2291 145.203 32.3038 145.191 32.3876C145.185 32.4653 145.176 32.5401 145.164 32.6118H141.199V31.8942H144.68L144.285 32.2171C144.339 31.9062 144.309 31.6281 144.196 31.3829C144.082 31.1377 143.915 30.9433 143.693 30.7998C143.472 30.6563 143.221 30.5845 142.94 30.5845C142.659 30.5845 142.402 30.6563 142.168 30.7998C141.935 30.9433 141.753 31.1496 141.621 31.4188C141.496 31.6819 141.445 31.9959 141.469 32.3607C141.445 32.7135 141.498 33.0245 141.63 33.2936C141.768 33.5567 141.959 33.7631 142.204 33.9126C142.455 34.0561 142.727 34.1279 143.02 34.1279C143.343 34.1279 143.616 34.0531 143.837 33.9036C144.058 33.7541 144.238 33.5627 144.375 33.3295L145.075 33.6883C144.979 33.9096 144.83 34.1129 144.626 34.2983C144.429 34.4777 144.193 34.6212 143.918 34.7289C143.648 34.8365 143.346 34.8904 143.012 34.8904Z" fill="#1F2937"/>
<path d="M229.144 66.0569C228.67 66.0569 228.254 65.929 227.897 65.6731C227.545 65.412 227.271 65.0522 227.074 64.5939C226.876 64.1302 226.778 63.5919 226.778 62.979C226.778 62.3661 226.876 61.8305 227.074 61.3721C227.271 60.9085 227.545 60.5487 227.897 60.2929C228.249 60.0371 228.662 59.9092 229.136 59.9092C229.611 59.9092 230.024 60.0371 230.375 60.2929C230.727 60.5487 231.002 60.9085 231.199 61.3721C231.401 61.8305 231.503 62.3661 231.503 62.979C231.503 63.5919 231.404 64.1302 231.207 64.5939C231.01 65.0576 230.732 65.4173 230.375 65.6731C230.024 65.929 229.613 66.0569 229.144 66.0569ZM229.144 65.3294C229.464 65.3294 229.741 65.2334 229.976 65.0416C230.21 64.8444 230.391 64.5699 230.519 64.2182C230.652 63.8664 230.719 63.4534 230.719 62.979C230.719 62.5047 230.652 62.0916 230.519 61.7399C230.391 61.3881 230.207 61.1163 229.968 60.9244C229.733 60.7326 229.456 60.6366 229.136 60.6366C228.816 60.6366 228.539 60.7326 228.305 60.9244C228.07 61.1163 227.886 61.3881 227.753 61.7399C227.625 62.0916 227.561 62.5047 227.561 62.979C227.561 63.448 227.625 63.8584 227.753 64.2102C227.886 64.5619 228.07 64.8364 228.305 65.0336C228.545 65.2308 228.824 65.3294 229.144 65.3294ZM234.929 66.0569C234.455 66.0569 234.039 65.929 233.682 65.6731C233.33 65.412 233.056 65.0522 232.859 64.5939C232.661 64.1302 232.563 63.5919 232.563 62.979C232.563 62.3661 232.661 61.8305 232.859 61.3721C233.056 60.9085 233.33 60.5487 233.682 60.2929C234.034 60.0371 234.447 59.9092 234.921 59.9092C235.396 59.9092 235.809 60.0371 236.16 60.2929C236.512 60.5487 236.787 60.9085 236.984 61.3721C237.186 61.8305 237.288 62.3661 237.288 62.979C237.288 63.5919 237.189 64.1302 236.992 64.5939C236.795 65.0576 236.517 65.4173 236.16 65.6731C235.809 65.929 235.398 66.0569 234.929 66.0569ZM234.929 65.3294C235.249 65.3294 235.526 65.2334 235.761 65.0416C235.995 64.8444 236.176 64.5699 236.304 64.2182C236.437 63.8664 236.504 63.4534 236.504 62.979C236.504 62.5047 236.437 62.0916 236.304 61.7399C236.176 61.3881 235.992 61.1163 235.753 60.9244C235.518 60.7326 235.241 60.6366 234.921 60.6366C234.601 60.6366 234.324 60.7326 234.09 60.9244C233.855 61.1163 233.671 61.3881 233.538 61.7399C233.41 62.0916 233.346 62.5047 233.346 62.979C233.346 63.448 233.41 63.8584 233.538 64.2102C233.671 64.5619 233.855 64.8364 234.09 65.0336C234.33 65.2308 234.609 65.3294 234.929 65.3294ZM238.692 65.9609V65.0016H239.467V65.9609H238.692ZM238.692 62.6113V61.6519H239.467V62.6113H238.692ZM243.252 66.0569C242.777 66.0569 242.361 65.929 242.004 65.6731C241.653 65.412 241.378 65.0522 241.181 64.5939C240.984 64.1302 240.885 63.5919 240.885 62.979C240.885 62.3661 240.984 61.8305 241.181 61.3721C241.378 60.9085 241.653 60.5487 242.004 60.2929C242.356 60.0371 242.769 59.9092 243.244 59.9092C243.718 59.9092 244.131 60.0371 244.483 60.2929C244.834 60.5487 245.109 60.9085 245.306 61.3721C245.509 61.8305 245.61 62.3661 245.61 62.979C245.61 63.5919 245.511 64.1302 245.314 64.5939C245.117 65.0576 244.84 65.4173 244.483 65.6731C244.131 65.929 243.721 66.0569 243.252 66.0569ZM243.252 65.3294C243.571 65.3294 243.848 65.2334 244.083 65.0416C244.317 64.8444 244.499 64.5699 244.627 64.2182C244.76 63.8664 244.826 63.4534 244.826 62.979C244.826 62.5047 244.76 62.0916 244.627 61.7399C244.499 61.3881 244.315 61.1163 244.075 60.9244C243.84 60.7326 243.563 60.6366 243.244 60.6366C242.924 60.6366 242.647 60.7326 242.412 60.9244C242.178 61.1163 241.994 61.3881 241.86 61.7399C241.733 62.0916 241.669 62.5047 241.669 62.979C241.669 63.448 241.733 63.8584 241.86 64.2102C241.994 64.5619 242.178 64.8364 242.412 65.0336C242.652 65.2308 242.932 65.3294 243.252 65.3294ZM248.485 66.0569C248.17 66.0569 247.877 66.0009 247.606 65.889C247.334 65.7771 247.099 65.6198 246.902 65.4173C246.705 65.2095 246.558 64.9643 246.462 64.6818L247.126 64.41C247.238 64.7085 247.414 64.9403 247.654 65.1055C247.893 65.2708 248.17 65.3534 248.485 65.3534C248.73 65.3534 248.949 65.3054 249.14 65.2095C249.332 65.1135 249.482 64.975 249.588 64.7938C249.7 64.6125 249.756 64.394 249.756 64.1382C249.756 63.8771 249.7 63.6585 249.588 63.4827C249.482 63.3015 249.332 63.1629 249.14 63.067C248.949 62.971 248.727 62.9231 248.477 62.9231C248.397 62.9231 248.309 62.9284 248.213 62.939C248.123 62.9497 248.045 62.9657 247.981 62.987L247.813 62.6273L249.404 60.6846H246.766V60.0051H250.292V60.6606L248.773 62.5313L248.725 62.3235C249.082 62.3341 249.396 62.4167 249.668 62.5713C249.94 62.7259 250.153 62.9364 250.308 63.2029C250.462 63.464 250.54 63.7705 250.54 64.1222C250.54 64.4846 250.452 64.8124 250.276 65.1055C250.1 65.3987 249.857 65.6305 249.548 65.801C249.239 65.9716 248.885 66.0569 248.485 66.0569ZM251.893 65.9609V65.0016H252.669V65.9609H251.893ZM251.893 62.6113V61.6519H252.669V62.6113H251.893ZM254.974 65.9609V60.6846H253.847V60.0051H255.766V65.9609H254.974ZM257.036 65.9609V65.4173L258.682 63.6346C259.007 63.2881 259.266 63.003 259.458 62.7792C259.655 62.5553 259.799 62.3554 259.89 62.1796C259.98 62.0037 260.025 61.8172 260.025 61.62C260.025 61.2949 259.93 61.0444 259.738 60.8685C259.546 60.6926 259.293 60.6047 258.978 60.6047C258.658 60.6047 258.387 60.6979 258.163 60.8845C257.939 61.0657 257.784 61.3242 257.699 61.6599L256.988 61.4761C257.057 61.1563 257.185 60.8791 257.371 60.6446C257.558 60.4101 257.79 60.2289 258.067 60.101C258.344 59.9731 258.648 59.9092 258.978 59.9092C259.341 59.9092 259.658 59.9811 259.93 60.125C260.207 60.2636 260.423 60.4581 260.577 60.7086C260.737 60.9591 260.817 61.2496 260.817 61.58C260.817 61.7985 260.772 62.0117 260.681 62.2195C260.59 62.4274 260.457 62.6486 260.281 62.8831C260.105 63.1123 259.876 63.3787 259.594 63.6825L258.123 65.2814H260.945V65.9609H257.036Z" fill="#4F46E5"/>
<path d="M77.5459 49.5654H264.616" stroke="#A3A1F4" stroke-width="1.43254" stroke-linecap="round"/>
<path d="M77.5459 48.8499C77.1507 48.8499 76.8304 49.1703 76.8304 49.5654C76.8304 49.9606 77.1507 50.2809 77.5459 50.2809V48.8499ZM153.307 49.5654C153.307 51.673 155.015 53.3814 157.123 53.3814C159.23 53.3814 160.939 51.673 160.939 49.5654C160.939 47.4579 159.23 45.7494 157.123 45.7494C155.015 45.7494 153.307 47.4579 153.307 49.5654ZM77.5459 49.5654V50.2809H157.123V49.5654V48.8499H77.5459V49.5654Z" fill="#4F46E5"/>
<path opacity="0.5" d="M61.1578 39.9725C61.1578 52.1143 51.315 61.9572 39.1732 61.9572C27.0314 61.9572 17.1885 52.1143 17.1885 39.9725C17.1885 27.8307 27.0314 17.9878 39.1732 17.9878C51.315 17.9878 61.1578 27.8307 61.1578 39.9725Z" fill="#4F46E5"/>
<path d="M30.5463 32.5359C30.3789 32.9399 30.3789 33.4521 30.3789 34.4764V45.4688C30.3789 46.4931 30.3789 47.0053 30.5463 47.4093C30.7694 47.948 31.1974 48.376 31.7361 48.5991C32.1401 48.7665 32.6523 48.7665 33.6766 48.7665C34.701 48.7665 35.2131 48.7665 35.6172 48.5991C36.1558 48.376 36.5838 47.948 36.807 47.4093C36.9743 47.0053 36.9743 46.4931 36.9743 45.4688V34.4764C36.9743 33.4521 36.9743 32.9399 36.807 32.5359C36.5838 31.9972 36.1558 31.5692 35.6172 31.3461C35.2131 31.1787 34.701 31.1787 33.6766 31.1787C32.6523 31.1787 32.1401 31.1787 31.7361 31.3461C31.1974 31.5692 30.7694 31.9972 30.5463 32.5359Z" fill="#4F46E5"/>
<path d="M41.5386 32.5359C41.3712 32.9399 41.3712 33.4521 41.3712 34.4764V45.4688C41.3712 46.4931 41.3712 47.0053 41.5386 47.4093C41.7617 47.948 42.1897 48.376 42.7284 48.5991C43.1324 48.7665 43.6446 48.7665 44.6689 48.7665C45.6933 48.7665 46.2055 48.7665 46.6095 48.5991C47.1482 48.376 47.5762 47.948 47.7993 47.4093C47.9667 47.0053 47.9667 46.4931 47.9667 45.4688V34.4764C47.9667 33.4521 47.9667 32.9399 47.7993 32.5359C47.5762 31.9972 47.1482 31.5692 46.6095 31.3461C46.2055 31.1787 45.6933 31.1787 44.6689 31.1787C43.6446 31.1787 43.1324 31.1787 42.7284 31.3461C42.1897 31.5692 41.7617 31.9972 41.5386 32.5359Z" fill="#4F46E5"/>
</svg>
