<svg width="24" height="23" viewBox="0 0 24 23" fill="none" xmlns="http://www.w3.org/2000/svg">
<path fill-rule="evenodd" clip-rule="evenodd" d="M11.9997 0.335449C12.5282 0.335449 12.9567 0.763903 12.9567 1.29243L12.9567 21.708C12.9567 22.2365 12.5282 22.6649 11.9997 22.6649C11.4712 22.6649 11.0427 22.2365 11.0427 21.708L11.0427 1.29243C11.0427 0.763903 11.4712 0.335449 11.9997 0.335449ZM6.89582 4.16336C7.42435 4.16336 7.8528 4.59181 7.8528 5.12034V17.88C7.8528 18.4086 7.42435 18.837 6.89582 18.837C6.3673 18.837 5.93884 18.4086 5.93884 17.88V5.12034C5.93884 4.59181 6.3673 4.16336 6.89582 4.16336ZM17.1036 4.16336C17.6321 4.16336 18.0606 4.59181 18.0606 5.12034V17.88C18.0606 18.4086 17.6321 18.837 17.1036 18.837C16.5751 18.837 16.1466 18.4086 16.1466 17.88V5.12034C16.1466 4.59181 16.5751 4.16336 17.1036 4.16336ZM1.79194 9.26724C2.32046 9.26724 2.74892 9.6957 2.74892 10.2242L2.74892 12.7762C2.74892 13.3047 2.32046 13.7331 1.79194 13.7331C1.26341 13.7331 0.834961 13.3047 0.834961 12.7762L0.834961 10.2242C0.834961 9.6957 1.26341 9.26724 1.79194 9.26724ZM22.2075 9.26724C22.736 9.26724 23.1644 9.6957 23.1644 10.2242V12.7762C23.1644 13.3047 22.736 13.7331 22.2075 13.7331C21.6789 13.7331 21.2505 13.3047 21.2505 12.7762V10.2242C21.2505 9.6957 21.6789 9.26724 22.2075 9.26724Z" fill="#EF4444"/>
</svg>
