<svg width="635" height="884" viewBox="0 0 635 884" fill="none" xmlns="http://www.w3.org/2000/svg">
<path d="M54.0059 900.185V464.974H165.598V551.06L159.222 531.929C169.318 505.891 185.526 486.761 207.844 474.539C230.694 461.785 257.264 455.409 287.553 455.409C320.5 455.409 349.195 462.317 373.639 476.133C398.615 489.949 418.01 509.345 431.827 534.321C445.643 558.765 452.551 587.46 452.551 620.406V900.185H332.987V645.913C332.987 628.909 329.533 614.295 322.625 602.073C316.249 589.851 306.949 580.286 294.727 573.378C283.036 566.47 269.22 563.016 253.278 563.016C237.868 563.016 224.052 566.47 211.83 573.378C199.608 580.286 190.043 589.851 183.135 602.073C176.758 614.295 173.569 628.909 173.569 645.913V900.185H54.0059Z" fill="#4F46E5" fill-opacity="0.1"/>
<path d="M50.666 182.686C95.8342 182.686 137.548 190.391 175.809 205.801C214.069 221.211 247.281 242.733 275.445 270.365C304.141 297.998 326.193 330.413 341.604 367.61C341.871 368.235 342.136 368.862 342.399 369.488C324.459 366.09 306.109 364.501 287.555 364.501C260.854 364.501 234.551 368.006 209.311 375.709C202.766 365.91 195.32 356.833 186.968 348.481C169.432 330.945 148.973 317.66 125.592 308.626C102.742 299.061 77.7668 294.278 50.666 294.278C23.5651 294.278 -1.67639 299.061 -25.0576 308.626C-47.9075 317.66 -68.1007 330.945 -85.6367 348.481C-103.173 366.016 -116.723 386.741 -126.288 410.653C-135.853 434.035 -140.636 460.073 -140.636 488.769C-140.636 517.464 -135.853 543.767 -126.288 567.68C-116.723 591.592 -103.173 612.318 -85.6367 629.854C-71.1941 643.858 -54.9474 655.336 -36.9004 664.295V784.716C-49.4714 781.406 -61.7316 777.345 -73.6807 772.532C-111.941 757.122 -145.419 735.6 -174.114 707.968C-202.278 679.804 -224.331 647.123 -240.272 609.926C-256.214 572.728 -264.186 532.343 -264.186 488.769C-264.186 445.194 -256.48 404.808 -241.069 367.61C-225.128 330.413 -203.075 297.998 -174.911 270.365C-146.216 242.733 -112.738 221.211 -74.4775 205.801C-36.2173 190.391 5.49765 182.686 50.666 182.686ZM296.985 574.704C297.21 574.841 297.432 574.981 297.654 575.12C297.421 574.974 297.186 574.828 296.95 574.684L296.985 574.704ZM230.069 565.941H230.068H230.069ZM235.287 564.727C235.711 564.642 236.136 564.561 236.562 564.483C236.136 564.562 235.711 564.642 235.287 564.727ZM236.891 564.425C237.184 564.372 237.478 564.321 237.772 564.272C237.478 564.321 237.184 564.372 236.891 564.425ZM238.642 564.13C238.706 564.12 238.77 564.109 238.834 564.099C238.77 564.109 238.706 564.12 238.642 564.13ZM241.135 563.774C241.193 563.766 241.251 563.759 241.309 563.752C241.251 563.759 241.193 563.766 241.135 563.774ZM242.161 563.649C242.481 563.611 242.802 563.576 243.124 563.542C242.802 563.576 242.481 563.611 242.161 563.649ZM289.096 455.413C289.503 455.416 289.909 455.42 290.315 455.425C289.909 455.42 289.503 455.417 289.096 455.414L287.555 455.408L289.096 455.413Z" fill="#4F46E5" fill-opacity="0.1"/>
</svg>
