<svg width="36" height="36" viewBox="0 0 36 36" fill="none" xmlns="http://www.w3.org/2000/svg">
<circle cx="17.8851" cy="18.0491" r="17.8851" fill="#E3E3FC"/>
<path fill-rule="evenodd" clip-rule="evenodd" d="M26.2692 18.0492C26.2692 22.6793 22.5157 26.4328 17.8856 26.4328C13.2554 26.4328 9.50195 22.6793 9.50195 18.0492C9.50195 13.419 13.2554 9.66553 17.8856 9.66553C22.5157 9.66553 26.2692 13.419 26.2692 18.0492ZM21.2645 15.5086C21.51 15.7542 21.51 16.1523 21.2645 16.3979L17.0726 20.5897C16.8271 20.8352 16.429 20.8352 16.1834 20.5897L14.5067 18.9129C14.2611 18.6674 14.2611 18.2693 14.5067 18.0237C14.7523 17.7782 15.1504 17.7782 15.3959 18.0237L16.628 19.2558L18.5016 17.3822L20.3752 15.5086C20.6208 15.2631 21.0189 15.2631 21.2645 15.5086Z" fill="#4F46E5"/>
</svg>
