<svg width="1128" height="371" viewBox="0 0 1128 371" fill="none" xmlns="http://www.w3.org/2000/svg">
<path fill-rule="evenodd" clip-rule="evenodd" d="M1042.53 325.298C1042.57 325.308 1042.61 325.315 1042.64 325.315V325.312C1042.78 325.312 1042.91 325.226 1042.96 325.091L1049.66 305.576L1065.36 254.175L1086.66 210.783C1086.67 210.763 1086.68 210.744 1086.68 210.721L1102.01 151.619L1122.54 139.128L1107.82 179.311L1107.38 180.364L1095.62 207.898L1092.45 215.342L1082.97 244.028C1082.91 244.199 1083.01 244.386 1083.18 244.442C1083.19 244.446 1083.21 244.45 1083.22 244.453C1083.24 244.456 1083.26 244.458 1083.28 244.458L1083.27 244.462C1083.41 244.462 1083.54 244.373 1083.58 244.235L1093.05 215.576L1096.22 208.158L1107.98 180.621L1108.43 179.552L1123.39 138.686L1144.45 138.66L1131.46 161.527L1130.02 164.063L1115.11 179.433L1115.07 179.473C1115.05 179.492 1115.03 179.511 1115.02 179.533L1115.02 179.535L1099.55 204.066C1099.54 204.076 1099.53 204.103 1099.53 204.103L1099.38 204.392C1099.38 204.396 1099.37 204.402 1099.37 204.408L1099.37 204.419L1099.36 204.438L1099.15 205.065L1076.52 263.546L1060.32 298.617L1060.3 298.649L1060.3 298.659L1042.54 339.86C1042.46 340.025 1042.54 340.219 1042.71 340.291C1042.75 340.307 1042.79 340.317 1042.84 340.317L1042.83 340.33C1042.96 340.33 1043.08 340.258 1043.14 340.133L1049.31 325.804L1044.48 337.752C1044.41 337.919 1044.49 338.11 1044.66 338.179C1044.7 338.196 1044.74 338.202 1044.78 338.202L1044.78 338.212C1044.91 338.212 1045.03 338.136 1045.09 338.008L1045.4 337.226C1045.41 337.231 1045.42 337.236 1045.42 337.241L1045.43 337.247C1045.44 337.251 1045.44 337.254 1045.45 337.257L1045.46 337.262C1045.5 337.288 1045.56 337.301 1045.61 337.301L1045.61 337.298C1045.73 337.298 1045.84 337.235 1045.9 337.127L1053.35 323.535L1058.51 314.136L1049.34 332.43L1040.1 348.57L1034.33 358.658C1034.24 358.816 1034.29 359.017 1034.45 359.105C1034.51 359.135 1034.56 359.148 1034.62 359.148L1034.61 359.152C1034.66 359.152 1034.71 359.141 1034.75 359.122C1034.76 359.118 1034.77 359.115 1034.77 359.111C1034.79 359.102 1034.81 359.091 1034.82 359.079C1034.83 359.074 1034.84 359.068 1034.84 359.062C1034.86 359.04 1034.88 359.015 1034.9 358.987L1049.92 332.742L1066.98 298.714L1090.33 270.026L1112.4 242.797L1097.07 272.312L1072.89 300.326L1072.85 300.386L1055.37 332.712L1055.34 332.76L1037.64 367.884C1037.56 368.046 1037.62 368.243 1037.78 368.325C1037.83 368.351 1037.88 368.361 1037.93 368.361C1038.05 368.36 1038.16 368.295 1038.22 368.181L1046.72 351.313L1041.06 363.487C1040.99 363.651 1041.06 363.849 1041.22 363.924C1041.27 363.944 1041.32 363.954 1041.36 363.954L1041.35 363.951C1041.48 363.951 1041.6 363.878 1041.65 363.76L1055.92 333.055L1055.94 333.028L1078.18 304.833L1061.76 336.827L1052.39 360.421L1048.18 364.822L1036.57 376.946C1036.56 376.96 1036.54 376.986 1036.54 376.986L1018.61 402.744C1018.5 402.892 1018.54 403.096 1018.69 403.201C1018.75 403.241 1018.81 403.26 1018.88 403.26V403.247C1018.98 403.247 1019.09 403.198 1019.15 403.106L1037.06 377.371L1048.65 365.266L1052.9 360.819C1052.93 360.79 1052.95 360.753 1052.97 360.714L1062.36 337.09L1080.28 302.176L1105.35 272.641L1131.12 252.405C1131.13 252.402 1131.13 252.398 1131.14 252.393L1131.15 252.383L1131.16 252.376L1156.52 226.006L1142.66 254.892C1142.58 255.053 1142.65 255.251 1142.81 255.329C1142.86 255.353 1142.91 255.362 1142.96 255.362L1142.94 255.359C1143.06 255.359 1143.18 255.29 1143.24 255.172L1157.94 224.534L1185.46 199.524L1213.67 189.584L1241.82 184.418L1226 200.755L1196.8 201.001C1196.71 201.001 1196.62 201.044 1196.56 201.113L1179.03 221.082C1179.02 221.09 1179.01 221.099 1179.01 221.108C1179 221.12 1178.99 221.131 1178.99 221.144L1160.61 255.828L1131.4 286.92C1131.38 286.933 1131.36 286.966 1131.36 286.966L1119.9 304.635C1119.8 304.787 1119.85 304.991 1120 305.089C1120.05 305.126 1120.11 305.142 1120.18 305.142L1120.18 305.149C1120.29 305.149 1120.4 305.093 1120.46 304.997L1131.9 287.35L1158.93 258.579L1141.61 286.949L1120.08 308.599L1112.25 316.48L1092.66 326.817L1092.65 326.825C1092.62 326.839 1092.59 326.858 1092.57 326.88L1084.71 332.762L1070.83 342.008C1070.82 342.018 1070.79 342.044 1070.79 342.044L1065.31 347.277L1064.15 348.146C1064.13 348.162 1064.11 348.182 1064.1 348.202L1043.34 373.997C1043.34 374.004 1043.33 374.011 1043.32 374.018C1043.32 374.024 1043.31 374.029 1043.31 374.035L1032.47 387.413L1015.6 408.214L1000.13 424.779C1000.01 424.91 1000.01 425.117 1000.15 425.242C1000.18 425.277 1000.22 425.301 1000.27 425.315C1000.3 425.326 1000.33 425.331 1000.37 425.331L1000.38 425.328C1000.39 425.328 1000.4 425.327 1000.42 425.326C1000.46 425.321 1000.5 425.309 1000.53 425.29C1000.56 425.273 1000.59 425.251 1000.62 425.223L1016.1 408.642L1028.02 393.945L1041.71 377.057L1021.55 415.316L1000.41 441.475C1000.29 441.617 1000.32 441.824 1000.46 441.939C1000.52 441.988 1000.59 442.011 1000.67 442.011C1000.71 442.011 1000.75 442.003 1000.79 441.986L1000.8 441.983L1000.81 441.979L1000.81 441.976L1000.82 441.972L1000.83 441.966C1000.85 441.956 1000.86 441.945 1000.88 441.932C1000.89 441.919 1000.91 441.905 1000.92 441.889L1022.08 415.704C1022.1 415.687 1022.11 415.671 1022.12 415.651L1043.83 374.46L1049 370.621L1071.29 354.063L1050.26 397.235L1028.99 430.696C1028.9 430.851 1028.94 431.051 1029.09 431.15C1029.15 431.186 1029.21 431.203 1029.27 431.203V431.199C1029.38 431.199 1029.49 431.147 1029.55 431.048L1050.82 397.57C1050.83 397.56 1050.84 397.537 1050.84 397.537L1072.42 353.244L1100.91 341.625L1080.21 372.884L1058.09 400.764C1058.08 400.777 1058.07 400.803 1058.07 400.803L1034.92 440.396L1020.34 457.882C1020.23 458.023 1020.25 458.23 1020.39 458.346C1020.4 458.353 1020.41 458.36 1020.42 458.366C1020.43 458.373 1020.44 458.38 1020.45 458.385C1020.45 458.388 1020.46 458.391 1020.47 458.393C1020.49 458.403 1020.51 458.411 1020.54 458.415C1020.55 458.418 1020.56 458.419 1020.57 458.42L1020.58 458.421L1020.6 458.421H1020.6C1020.64 458.421 1020.67 458.416 1020.71 458.404C1020.76 458.385 1020.81 458.352 1020.85 458.303L1035.45 440.797C1035.46 440.781 1035.48 440.751 1035.48 440.751L1058.62 401.155L1080.74 373.269L1101.99 341.176L1131.36 327.063L1111.26 352.053L1089.52 369.404C1089.5 369.427 1089.48 369.45 1089.46 369.48L1066.53 403.905L1042.56 445.613L1017.72 473.979L999.961 486.531C999.813 486.633 999.777 486.84 999.882 486.988C999.913 487.03 999.952 487.063 999.996 487.087C1000.04 487.113 1000.1 487.127 1000.15 487.127C1000.19 487.127 1000.22 487.122 1000.25 487.112C1000.26 487.108 1000.27 487.104 1000.29 487.099C1000.3 487.09 1000.32 487.08 1000.34 487.067L1018.14 474.492C1018.16 474.476 1018.18 474.46 1018.19 474.44L1043.07 446.017C1043.09 446.001 1043.1 445.984 1043.11 445.965L1067.09 404.247L1089.97 369.881L1111.7 352.54C1111.72 352.527 1111.73 352.51 1111.75 352.491L1132.71 326.426L1164.47 316.677C1164.51 316.668 1164.54 316.651 1164.57 316.628L1184.28 301.949L1217.06 291.705C1217.06 291.703 1217.07 291.701 1217.07 291.699L1217.09 291.692L1217.1 291.689L1217.11 291.682C1217.12 291.677 1217.13 291.671 1217.14 291.665C1217.16 291.653 1217.18 291.638 1217.19 291.622C1217.2 291.614 1217.21 291.606 1217.21 291.597L1235.94 268.012L1269.5 262.868C1269.58 262.855 1269.66 262.806 1269.72 262.734L1287.41 237.903L1309.87 233.048C1310.05 233.009 1310.16 232.834 1310.12 232.657C1310.08 232.479 1309.91 232.364 1309.73 232.403L1287.9 237.121L1304.64 210.142L1310.09 200.389C1310.17 200.231 1310.11 200.03 1309.96 199.942C1309.8 199.856 1309.6 199.912 1309.51 200.07L1304.07 209.809L1287 237.321L1254.5 244.307L1271.62 215.901L1288.42 185.467L1309.85 182.341C1310.03 182.315 1310.15 182.15 1310.13 181.969C1310.1 181.792 1309.94 181.663 1309.76 181.693L1289.65 184.626L1304.25 175.172L1304.26 175.164L1309.9 173.249C1310.08 173.19 1310.17 173.003 1310.11 172.832C1310.05 172.661 1309.86 172.568 1309.69 172.628L1304.04 174.549L1274.76 178.552L1288.6 171.411L1309.81 170.46C1309.99 170.454 1310.13 170.299 1310.12 170.118C1310.11 169.937 1309.96 169.802 1309.78 169.806L1289.27 170.725L1303.9 154.46L1309.94 151.465C1310.11 151.382 1310.17 151.185 1310.09 151.024C1310.01 150.863 1309.81 150.797 1309.65 150.876L1306.76 152.309L1309.99 149.896C1310.14 149.787 1310.17 149.58 1310.06 149.435C1309.95 149.29 1309.74 149.261 1309.6 149.369L1303.52 153.909L1303.51 153.911L1303.51 153.917L1273.87 166.651L1258.74 170.296L1258.73 170.296C1258.7 170.296 1258.65 170.302 1258.62 170.315L1247.31 174.262L1244.9 174.897L1229.66 180.417L1202.03 182.989L1198.82 183.581L1191.16 185.508L1206.8 147.135L1232.94 157.333C1232.98 157.346 1233.01 157.356 1233.05 157.356L1260.48 157.977C1260.52 157.981 1260.55 157.974 1260.58 157.964L1289.03 149.731C1289.04 149.729 1289.05 149.727 1289.05 149.725L1289.07 149.72C1289.07 149.716 1289.08 149.713 1289.09 149.708C1289.1 149.704 1289.11 149.7 1289.11 149.695C1289.12 149.69 1289.13 149.684 1289.14 149.679L1303.48 138.873C1303.49 138.867 1303.5 138.859 1303.51 138.851C1303.52 138.843 1303.53 138.834 1303.54 138.824L1310.05 131.111C1310.17 130.973 1310.15 130.765 1310.01 130.647C1309.87 130.529 1309.66 130.548 1309.55 130.686L1303.06 138.37L1288.79 149.116L1260.45 157.316L1233.13 156.698L1207.12 146.554L1222.09 124.667L1236.5 115.14L1262.46 120.444C1262.48 120.45 1262.5 120.45 1262.51 120.45L1289.46 121.651L1309.78 122.171H1309.79C1309.96 122.171 1310.11 122.029 1310.11 121.851C1310.12 121.671 1309.98 121.519 1309.8 121.516L1289.49 120.996L1262.57 119.799L1236.96 114.568L1250.95 92.5556L1276.82 89.0445L1303.49 92.7416L1309.78 93.1856C1309.95 93.1955 1310.11 93.0606 1310.13 92.8797C1310.14 92.6988 1310 92.5409 1309.82 92.5278L1303.56 92.0837L1276.87 88.3833C1276.86 88.3825 1276.85 88.3819 1276.85 88.3815C1276.84 88.381 1276.83 88.3807 1276.82 88.3809C1276.8 88.3811 1276.79 88.3819 1276.78 88.3833L1251.47 91.8182L1264.85 73.0455L1277.92 65.1524L1277.93 65.1513C1277.95 65.144 1277.97 65.1344 1277.99 65.123L1290.62 63.4274C1290.64 63.4267 1290.67 63.4242 1290.69 63.4192L1303.56 61.691C1303.57 61.6877 1303.6 61.6844 1303.6 61.6844L1309.88 60.1615C1310.06 60.1188 1310.17 59.9411 1310.12 59.7635C1310.08 59.5859 1309.9 59.4774 1309.73 59.5201L1303.46 61.0397L1294.9 62.1876L1309.89 57.8096C1310.06 57.7603 1310.16 57.5761 1310.11 57.4018C1310.06 57.2274 1309.88 57.1255 1309.7 57.1781L1290.56 62.7697L1277.84 64.477C1277.81 64.4803 1277.79 64.4869 1277.77 64.4967L1266.48 66.0207L1279.16 41.5772L1279.16 41.5718L1279.17 41.5603C1279.17 41.552 1279.18 41.5443 1279.18 41.5443L1291.94 8.62746L1304.16 -14.8491L1309.94 -17.5636C1310.11 -17.6393 1310.17 -17.8366 1310.1 -18.0011C1310.02 -18.1656 1309.83 -18.2379 1309.66 -18.159L1304.63 -15.7974L1310.09 -26.7801C1310.17 -26.9413 1310.11 -27.1386 1309.94 -27.2209C1309.78 -27.3031 1309.59 -27.234 1309.5 -27.0728L1303.69 -15.3734L1280.22 -8.18597L1257.28 -4.33096C1257.24 -4.32767 1257.21 -4.31451 1257.17 -4.29807L1235.65 7.22178L1247.45 -13.0968L1259.39 -32.3475L1281.26 -33.8882L1281.32 -33.898L1301.64 -39.1214C1301.65 -39.1226 1301.65 -39.1252 1301.66 -39.128C1301.68 -39.1326 1301.69 -39.1378 1301.69 -39.1378L1304.06 -40.1542C1304.23 -40.2233 1304.31 -40.4173 1304.24 -40.5851C1304.16 -40.7528 1303.97 -40.8318 1303.81 -40.7594L1301.45 -39.7529L1281.19 -34.5427L1259.75 -33.0329L1271.12 -55.3476L1292.42 -41.1147C1292.49 -41.0686 1292.58 -41.0522 1292.66 -41.0653L1303.63 -42.9797C1303.66 -42.9849 1303.69 -42.9967 1303.73 -43.0135C1303.75 -43.0283 1303.78 -43.047 1303.8 -43.0685L1310.02 -49.203C1310.15 -49.328 1310.15 -49.5385 1310.02 -49.6667C1309.9 -49.795 1309.69 -49.7983 1309.56 -49.67L1303.41 -43.6079L1292.68 -41.7331L1271.19 -56.0891C1271.18 -56.1007 1271.16 -56.1112 1271.14 -56.1203C1271.11 -56.1384 1271.07 -56.1493 1271.03 -56.1536C1271.02 -56.1555 1271 -56.1564 1270.99 -56.1564L1250.4 -55.8488L1261.33 -67.7675L1272.3 -79.6738L1292.81 -62.5277C1292.95 -62.4126 1293.16 -62.4323 1293.27 -62.5705C1293.39 -62.7119 1293.37 -62.9191 1293.23 -63.0343L1272.48 -80.3851C1272.43 -80.418 1272.38 -80.4443 1272.33 -80.4542L1251.82 -84.6644L1231.76 -89.9897C1231.69 -90.0094 1231.6 -89.9996 1231.53 -89.9634L1211.66 -79.8292C1211.63 -79.8111 1211.6 -79.7869 1211.57 -79.7584L1192.13 -63.4158L1192.13 -63.4114L1173.69 -51.4561C1173.54 -51.3574 1173.5 -51.1535 1173.6 -51.0022C1173.66 -50.9035 1173.77 -50.8509 1173.87 -50.8509L1173.87 -50.8542C1173.93 -50.8542 1173.99 -50.8706 1174.05 -50.9068L1189.96 -61.2208L1180.42 -51.5646L1168.49 -36.8685L1150.29 -26.2101L1162.04 -50.7325C1162.12 -50.8936 1162.05 -51.091 1161.89 -51.1699C1161.73 -51.2489 1161.53 -51.1798 1161.45 -51.0153L1149.27 -25.6069L1131.45 -13.2779L1143.43 -43.7461C1143.5 -43.9171 1143.42 -44.1079 1143.25 -44.1737C1143.08 -44.2427 1142.89 -44.1572 1142.82 -43.9895L1130.47 -12.577L1113.37 3.67627L1119.25 -8.9194L1123.42 -18.8398L1124.98 -21.2146C1125.08 -21.3659 1125.04 -21.5699 1124.89 -21.6685C1124.74 -21.7672 1124.53 -21.7245 1124.43 -21.5732L1122.86 -19.1753C1122.84 -19.1588 1122.83 -19.1424 1122.83 -19.1227L1118.65 -9.18582L1112.08 4.87994L1095.56 14.8553L1107.01 -1.69414L1115.57 -10.9884C1115.66 -11.0805 1115.68 -11.2121 1115.64 -11.3305L1114.46 -14.3796L1114.46 -14.3803C1114.45 -14.4097 1114.43 -14.439 1114.41 -14.4618L1104.23 -27.8337L1114.24 -30.3983L1124.52 -33.2007C1124.69 -33.25 1124.8 -33.431 1124.75 -33.6053C1124.7 -33.7796 1124.52 -33.8816 1124.34 -33.8355L1114.07 -31.0364L1103.74 -28.3908L1088.77 -40.4733C1088.71 -40.5226 1088.63 -40.5456 1088.56 -40.5456L1077.82 -40.1871C1077.72 -40.1838 1077.62 -40.1345 1077.56 -40.0555L1066.44 -25.1947L1055.15 -12.7383L1040 -5.83741L1025.08 1.61933C1025.05 1.63907 1025.02 1.66209 1024.99 1.68841L1011.82 15.5692L1022.41 -5.64005L1031.77 -27.4544L1033.74 -32.0363L1041.08 -33.2468C1041.18 -33.2599 1041.26 -33.3158 1041.31 -33.3948L1048.38 -44.5651C1048.48 -44.7197 1048.44 -44.9203 1048.28 -45.019C1048.13 -45.1177 1047.92 -45.0716 1047.83 -44.917L1040.83 -33.8717L1033.46 -32.6591C1033.39 -32.6499 1033.32 -32.6188 1033.27 -32.5659L1028.5 -27.7932L1027.72 -27.0103L1026.92 -26.813C1026.89 -26.8031 1026.86 -26.79 1026.83 -26.7735L1013.15 -18.3892L999.781 -15.2085C999.685 -15.1855 999.603 -15.1197 999.56 -15.0309L988.558 7.60909L975.394 14.9441C975.359 14.9638 975.327 14.9908 975.301 15.0222C975.287 15.0379 975.276 15.0548 975.266 15.0724L964.039 35.548L950.988 48.284C950.971 48.3004 950.955 48.3202 950.942 48.3399L939.485 65.7598L927.798 87.5083C927.795 87.5142 927.791 87.5234 927.787 87.5318L927.779 87.5511L915.789 119.98L903.57 157.115L890.653 178.141L878.931 192.806L890.876 145.021L902.895 108.231L914.592 85.1698L926.045 69.4438L937.324 52.2246L948.363 32.1305L960.78 27.519C960.842 27.4959 960.891 27.4598 960.931 27.4071L973.795 10.0629C973.904 9.91487 973.871 9.71095 973.726 9.6024C973.581 9.49385 973.374 9.52675 973.266 9.67147L960.549 26.8184L960.461 26.9368L948.021 31.5549C947.945 31.5845 947.886 31.6371 947.846 31.7062L936.761 51.8858L925.502 69.0721L914.043 84.8079C914.033 84.8244 914.016 84.854 914.016 84.854L902.297 107.961L902.292 107.971L902.288 107.98C902.282 107.994 902.277 108.007 902.277 108.007L890.245 144.843L877.957 194.003L865.628 204.79C865.585 204.83 865.553 204.879 865.533 204.935L853.093 242.209L840.498 283.049L829.06 281.792L841.59 243.008L854.004 209.941L854.009 209.923L854.014 209.905L866.312 160.931L878.361 118.043L889.989 101.613L902.123 92.8896C902.146 92.873 902.166 92.8538 902.183 92.8328C902.194 92.8205 902.203 92.8076 902.211 92.7942L913.717 73.8711L924.453 53.0436L926.887 49.5899L936.045 39.0248C936.163 38.8866 936.15 38.6794 936.012 38.561C935.874 38.4426 935.666 38.4557 935.548 38.5939L926.378 49.1721C926.371 49.182 926.358 49.1984 926.358 49.1984L923.901 52.685C923.891 52.6982 923.878 52.7245 923.878 52.7245L913.142 73.5521L901.682 92.3995L889.558 101.113C889.528 101.132 889.502 101.159 889.482 101.188L877.792 117.71C877.787 117.717 877.783 117.724 877.778 117.731C877.775 117.737 877.772 117.742 877.769 117.748C877.766 117.753 877.763 117.759 877.76 117.765C877.753 117.78 877.747 117.796 877.743 117.812L865.674 160.763L853.379 209.727L840.969 242.791L828.401 281.692L816.783 279.203L805.096 277.002C805.09 277.002 805.084 277.001 805.078 277.001C805.07 277 805.061 277 805.052 276.999L805.029 276.999L805.01 276.999L793.544 277.887L771.292 275.44L760.497 265.141L749.777 253.935L739.239 243.922C739.232 243.916 739.223 243.908 739.215 243.902L739.206 243.894L739.199 243.889L728.818 236.778C728.813 236.775 728.807 236.771 728.801 236.768C728.788 236.762 728.775 236.755 728.762 236.748L718.543 232.393C718.49 232.37 718.431 232.364 718.375 232.37L708.31 233.561C708.267 233.568 708.224 233.581 708.185 233.604L695.508 240.89C695.495 240.897 695.483 240.906 695.472 240.914L695.462 240.922L695.453 240.93C695.429 240.952 695.407 240.977 695.39 241.005L682.505 262.237L669.493 272.302L656.251 273.591L627.341 270.151L618.099 266.079L608.931 255.596C608.922 255.583 608.895 255.56 608.895 255.56L599.843 247.942L590.926 237.512C590.893 237.475 590.854 237.446 590.808 237.426L582.019 233.548C582.007 233.543 581.994 233.538 581.981 233.535C581.974 233.533 581.967 233.532 581.961 233.53C581.947 233.527 581.933 233.525 581.919 233.524L581.905 233.523L581.898 233.522C581.889 233.522 581.88 233.522 581.871 233.522L573.256 233.956L564.77 233.028C564.698 233.022 564.622 233.038 564.559 233.078L551.208 241.469L537.791 250.327L529.651 246.488L521.464 241.521C521.375 241.469 521.263 241.459 521.168 241.498L507.537 247.05L499.356 244.028C499.353 244.026 499.347 244.025 499.341 244.023L499.324 244.018L497.419 243.534L489.857 241.922C489.808 241.909 489.758 241.909 489.709 241.922L476.194 245.353L468.75 243.209L461.303 240.413C461.297 240.41 461.289 240.407 461.282 240.405L461.272 240.402L461.264 240.4L453.869 238.64C453.85 238.633 453.83 238.63 453.81 238.63L451.672 238.525H451.639L449.297 238.65C449.278 238.65 449.258 238.653 449.241 238.656L446.232 239.337L442.281 239.998L441.189 240.123L439.801 240.367L431.16 242.764L426.105 244.1L422.194 245.366L412.185 247.751L407.251 247.827C407.237 247.827 407.223 247.828 407.209 247.829C407.196 247.831 407.184 247.833 407.172 247.837L399.639 249.82L390.574 252.316L384.167 251.994H384.127L376.878 252.534L370.191 252.432L364.165 251.307L358.955 250.294C358.938 250.29 358.923 250.288 358.908 250.287C358.899 250.287 358.889 250.287 358.879 250.287L345.752 250.728L332.44 252.215C332.427 252.216 332.414 252.218 332.401 252.221L332.397 252.222L332.391 252.224C332.385 252.225 332.38 252.226 332.375 252.228C332.367 252.231 332.359 252.234 332.351 252.238L330.674 252.928L329.996 252.984L317.878 253.422L315.092 252.941C314.911 252.912 314.74 253.034 314.711 253.211C314.678 253.392 314.8 253.563 314.977 253.593L317.796 254.08C317.819 254.083 317.842 254.083 317.865 254.083L330.035 253.645L330.779 253.583C330.812 253.58 330.845 253.573 330.878 253.56L332.558 252.866L345.798 251.386L358.863 250.948L364.04 251.955L370.095 253.086C370.115 253.093 370.131 253.093 370.151 253.093H370.151L376.898 253.195L384.154 252.655L390.591 252.978C390.627 252.978 390.663 252.974 390.696 252.965L399.81 250.455L407.3 248.485L412.227 248.409C412.235 248.409 412.243 248.409 412.25 248.408L412.255 248.408L412.26 248.407C412.264 248.406 412.268 248.406 412.272 248.405C412.282 248.404 412.291 248.402 412.3 248.399L422.368 246.001L426.286 244.731L431.328 243.403L439.939 241.011L441.275 240.778L442.364 240.653L446.35 239.988L449.353 239.311L451.652 239.186L453.744 239.291L461.089 241.038L468.539 243.837L476.095 246.014C476.128 246.022 476.162 246.026 476.196 246.025C476.219 246.024 476.243 246.021 476.266 246.014L489.795 242.58L497.268 244.172L499.143 244.649L507.425 247.712C507.501 247.741 507.586 247.741 507.662 247.708L521.256 242.169L529.315 247.057C529.325 247.064 529.345 247.073 529.345 247.073L537.67 251.001C537.775 251.05 537.897 251.04 537.992 250.978L551.56 242.021L564.809 233.693L573.207 234.61H573.259L581.825 234.18L590.472 237.995L599.36 248.386C599.373 248.402 599.399 248.425 599.399 248.425L608.451 256.047L617.651 266.566C617.684 266.602 617.724 266.631 617.766 266.651L627.121 270.772C627.154 270.786 627.183 270.796 627.216 270.799L656.211 274.249H656.28L669.651 272.947C669.714 272.943 669.773 272.92 669.822 272.881L682.956 262.72C682.971 262.709 682.986 262.695 683 262.68C683.013 262.666 683.025 262.649 683.035 262.632L695.909 241.419L708.454 234.209L718.368 233.038L728.476 237.344L738.808 244.422L749.317 254.405L760.037 265.612L770.924 275.999C770.957 276.03 770.995 276.055 771.037 276.07C771.062 276.079 771.088 276.086 771.115 276.088L793.508 278.552H793.57L805.024 277.664L816.658 279.854L828.519 282.393L828.522 282.394C828.532 282.397 828.542 282.4 828.552 282.402C828.56 282.405 828.571 282.406 828.577 282.406L828.58 282.407C828.59 282.408 828.599 282.409 828.609 282.41C828.613 282.41 828.617 282.41 828.621 282.41L865.566 286.472H865.605L877.558 286.291C877.591 286.291 877.621 286.288 877.65 286.278L891.541 282.045C891.567 282.038 891.594 282.025 891.617 282.012L904.948 273.891C905.027 273.841 905.083 273.759 905.099 273.667L918.019 200.333L930.66 134.742L943.406 119.733L931.114 174.062L918.122 255.316L905.317 293.311L879.538 296.768L814.243 289.153C814.217 289.15 814.191 289.153 814.165 289.153L800.715 290.788L776.282 287.88H776.207L571.799 311.793L403.468 284.387C403.433 284.381 403.397 284.381 403.361 284.387C403.337 284.391 403.313 284.397 403.291 284.406L402.34 284.801L401.31 284.584C401.13 284.545 400.955 284.66 400.919 284.837C400.88 285.018 400.995 285.193 401.172 285.229L402.304 285.469C402.347 285.48 402.39 285.481 402.433 285.472C402.455 285.468 402.477 285.461 402.498 285.452L403.455 285.054L571.74 312.451C571.756 312.454 571.776 312.454 571.793 312.454L571.783 312.457H571.822L776.236 288.541L800.672 291.449C800.698 291.452 800.725 291.452 800.751 291.449L814.201 289.814L876.903 297.126L763.125 312.382L749.55 310.493C749.542 310.493 749.534 310.492 749.526 310.492C749.52 310.491 749.514 310.491 749.508 310.491C749.492 310.491 749.477 310.492 749.462 310.493L608.854 328.962L558.323 320.243C558.312 320.243 558.301 320.242 558.29 320.242C558.27 320.241 558.249 320.241 558.227 320.243L538.87 322.591L515.401 318.417C515.396 318.417 515.39 318.417 515.384 318.417L515.372 318.417H515.372C515.35 318.416 515.328 318.415 515.306 318.417L495.607 320.723L484.357 318.657C484.328 318.657 484.295 318.654 484.262 318.657L464.151 320.967L442.515 316.865L422.332 312.71L422.095 312.664L420.276 310.849L411.711 298.159C411.698 298.139 411.681 298.119 411.665 298.103L401.429 288.423C401.419 288.413 401.396 288.396 401.396 288.396L396.597 284.903L394.413 283.199C394.409 283.195 394.402 283.191 394.396 283.186L394.39 283.182L394.383 283.177L394.377 283.173L393.669 282.762L391.393 281.111C391.344 281.074 391.285 281.051 391.222 281.048L390.956 281.028L387.028 277.851L384.121 275.785C384.101 275.769 384.078 275.756 384.052 275.746L380.595 274.391L374.605 271.483C374.585 271.473 374.562 271.467 374.539 271.46L374.539 271.46L355.294 266.848C355.277 266.845 355.261 266.842 355.244 266.842L335.614 265.223L315.602 262.171L307.09 253.757C307.017 253.688 306.915 253.655 306.817 253.665L286.433 256.247L278.068 256.477L270.967 256.487L260.593 255.116L250.031 254.346L244.39 253.846L242.433 253.783L238.367 253.497L215.622 253.455L207.576 253.987L184.492 257.155C184.315 257.181 184.187 257.346 184.213 257.527C184.239 257.708 184.404 257.833 184.585 257.81L207.646 254.645L215.645 254.116L238.347 254.155L242.403 254.441L244.354 254.504L249.982 255L260.527 255.767L270.904 257.142H270.947L278.078 257.132L286.482 256.902L306.738 254.336L315.211 262.711C315.26 262.76 315.323 262.793 315.392 262.803L335.532 265.875L355.159 267.493L374.345 272.088L380.328 274.993L383.772 276.341L386.63 278.371L390.624 281.601C390.676 281.643 390.739 281.67 390.808 281.673L391.084 281.693L393.298 283.298C393.3 283.3 393.304 283.303 393.308 283.306C393.315 283.312 393.324 283.318 393.324 283.318L394.025 283.726L396.202 285.423L400.995 288.909L411.191 298.55L419.753 311.237C419.756 311.241 419.76 311.247 419.764 311.252C419.767 311.256 419.77 311.26 419.774 311.264C419.784 311.276 419.793 311.286 419.793 311.286L421.7 313.191C421.718 313.208 421.738 313.224 421.759 313.237C421.774 313.246 421.79 313.255 421.807 313.261C421.822 313.268 421.838 313.273 421.855 313.276L442.393 317.503L464.082 321.615C464.091 321.615 464.099 321.616 464.108 321.617C464.117 321.618 464.125 321.618 464.134 321.619C464.15 321.619 464.165 321.619 464.181 321.618L484.292 319.309L495.541 321.374C495.552 321.374 495.563 321.375 495.574 321.375H495.575C495.596 321.376 495.618 321.377 495.64 321.374L515.339 319.069L538.808 323.243H538.906L558.264 320.894L606.677 329.248L569.067 334.188L519.03 325.002C519.019 325.002 519.008 325.002 518.997 325.002C518.983 325.001 518.969 325.001 518.955 325.001C518.953 325.001 518.95 325.001 518.947 325.001C518.942 325.002 518.936 325.002 518.931 325.002L434.039 335.311L423.227 334.844H423.171L398.958 329.951L390.072 325.454L411.099 331.393C411.129 331.403 411.158 331.407 411.188 331.407L411.182 331.403C411.323 331.403 411.458 331.308 411.497 331.163C411.547 330.989 411.445 330.808 411.27 330.759L387.022 323.91L387.021 323.91C387.01 323.905 386.998 323.9 386.986 323.896L377.342 318.023L380.338 318.825C380.343 318.826 380.347 318.827 380.352 318.828C380.361 318.83 380.37 318.831 380.379 318.832C380.393 318.834 380.408 318.835 380.424 318.835L380.42 318.832C380.568 318.832 380.7 318.736 380.739 318.588C380.785 318.414 380.68 318.233 380.506 318.187L375.322 316.799L363.994 311.915L363.974 311.908C363.964 311.905 363.954 311.902 363.945 311.899C363.939 311.898 363.934 311.896 363.928 311.895C363.92 311.894 363.913 311.892 363.905 311.892L355.998 310.849C355.82 310.826 355.652 310.951 355.629 311.132C355.62 311.207 355.636 311.28 355.671 311.341L354.1 310.905L350.245 310.188L336.104 308.8L326.694 308.063L324.026 308.017L313.803 307.477L287.644 302.734C287.466 302.705 287.295 302.823 287.262 303.001C287.232 303.178 287.351 303.349 287.529 303.382L313.711 308.129C313.727 308.132 313.754 308.132 313.754 308.132L324.01 308.671L326.667 308.717L336.052 309.451L350.159 310.836L353.958 311.543L375.085 317.414L375.085 317.414L375.086 317.414L385.481 323.745L361.941 321.552L336.18 316.618C336.16 316.612 336.137 316.612 336.118 316.612H336.117L309.626 316.582C309.603 316.582 309.58 316.585 309.557 316.589L282.338 322.509L254.366 327.009L243.725 320.713C243.663 320.677 243.594 320.664 243.522 320.67L214.79 323.825L185.223 325.418L175.345 318.848C175.339 318.845 175.333 318.841 175.327 318.837L175.321 318.834L175.316 318.832C175.312 318.829 175.308 318.827 175.303 318.825L175.299 318.823L175.296 318.822L166.696 314.995L194.673 311.507L222.951 307.527C222.964 307.527 222.99 307.52 222.99 307.52L250.291 300.162L260.563 304.678C260.609 304.698 260.659 304.704 260.711 304.704L271.928 304.155C272.108 304.145 272.25 303.991 272.24 303.81C272.23 303.629 272.072 303.487 271.895 303.497L260.754 304.043L250.445 299.514C250.376 299.484 250.301 299.478 250.228 299.498L222.835 306.882L194.581 310.859L165.557 314.478L156.231 309.115L147.034 303.129C147.002 303.106 146.965 303.093 146.926 303.083L138.048 301.136L129.374 298.665C129.36 298.661 129.346 298.657 129.332 298.655C129.316 298.653 129.299 298.652 129.283 298.652C129.262 298.652 129.241 298.655 129.22 298.659L100.238 304.507L70.5297 312.556L62.698 311.003C62.6453 310.994 62.5927 310.994 62.5401 311.01L32.2724 319.98L24.9439 317.714C24.888 317.694 24.8255 317.694 24.7696 317.707L0.271189 323.674C0.0968586 323.716 -0.0116868 323.894 0.0310735 324.072C0.0738338 324.249 0.251454 324.358 0.429073 324.315L24.8386 318.371L32.1737 320.641C32.2362 320.661 32.302 320.661 32.3644 320.641L62.6486 311.665L70.4738 313.217C70.5231 313.224 70.5757 313.224 70.6251 313.211L100.386 305.149L129.269 299.32L137.887 301.774L146.725 303.711L155.886 309.675L164.339 314.536L135.348 315.73L104.439 319.565L95.6695 316.029C95.6531 316.026 95.6235 316.016 95.6235 316.016L87.0418 313.944C86.9892 313.928 86.9333 313.931 86.8806 313.944L55.5933 322.358L23.3454 331.818L0.248258 338.857C0.0739278 338.909 -0.0247499 339.094 0.0278782 339.268C0.0739278 339.409 0.202209 339.501 0.343647 339.501C0.37325 339.501 0.406143 339.498 0.439035 339.488L23.5329 332.449L55.7709 322.993L86.9695 314.602L95.4492 316.648L104.278 320.203C104.33 320.223 104.386 320.23 104.442 320.223L135.41 316.381L165.414 315.146L175.003 319.414L184.035 325.422L154.455 325.394L122.819 327.989L90.2028 333.857L56.6713 342.422L48.0938 338.636C48.0741 338.627 48.0543 338.62 48.0346 338.617L39.647 336.719L31.4765 334.403C31.4173 334.387 31.3548 334.387 31.2956 334.403L0.251586 343.544C0.0772556 343.593 -0.0247113 343.777 0.0279167 343.952C0.0772556 344.126 0.261454 344.228 0.435784 344.175L31.3877 335.061L39.4858 337.354L47.8603 339.251L55.7673 342.741L21.9741 355.195L13.7802 350.83L5.71163 346.79C5.63269 346.751 5.54059 346.748 5.45836 346.774L0.235022 348.547C0.060692 348.606 -0.0314072 348.794 0.0277994 348.965C0.087006 349.139 0.274494 349.231 0.445535 349.172L5.54059 347.445L13.4776 351.418L21.1285 355.495L0.228518 362.855C0.057477 362.918 -0.0313329 363.105 0.0278737 363.276C0.0903696 363.447 0.277857 363.539 0.448898 363.477L21.9165 355.918L30.358 360.628L39.2226 366.296C39.3147 366.352 39.4265 366.362 39.5252 366.322L74.809 351.807L84.2097 358.326L93.6255 366.526L57.866 375.989L20.3184 387.222L11.4746 383.328C11.4022 383.295 11.3167 383.288 11.241 383.314L0.231896 386.903C0.0608548 386.959 -0.0345336 387.143 0.0213837 387.317C0.0773011 387.488 0.264789 387.584 0.43583 387.528L11.3266 383.979L19.3814 387.527L0.241516 393.843C0.0671853 393.899 -0.0249139 394.087 0.0310035 394.258C0.077053 394.396 0.205334 394.485 0.343483 394.485H0.350061C0.382954 394.485 0.419136 394.481 0.452028 394.468L20.2642 387.931L28.7402 392.737L0.251369 400.984C0.0770385 401.034 -0.0216392 401.218 0.0276996 401.392C0.0704599 401.537 0.20203 401.629 0.343468 401.629V401.632C0.373071 401.632 0.405964 401.629 0.435567 401.619L29.5317 393.193L38.3577 398.74L0.26463 408.303C0.0870098 408.346 -0.0182464 408.523 0.024514 408.701C0.063985 408.852 0.195555 408.951 0.343572 408.951L0.360018 408.948C0.386332 408.948 0.412646 408.944 0.43896 408.938L39.117 399.229L48.9491 406.326L48.9787 406.346L59.274 412.296L69.1367 417.403L28.4456 427.342L18.4576 420.963L8.67869 414.279L0.508186 409.392C0.353591 409.296 0.149657 409.349 0.0575579 409.503C-0.0345413 409.658 0.0180868 409.862 0.172682 409.954L8.32675 414.832L18.0991 421.509L27.5594 427.554L0.268043 434.041C0.0904237 434.081 -0.0181217 434.258 0.0246386 434.436C0.0608204 434.587 0.19568 434.689 0.343696 434.689L0.356853 434.693C0.379878 434.693 0.406192 434.689 0.432506 434.683L28.3422 428.048L38.0068 433.771L0.267864 442.689C0.0935337 442.728 -0.018301 442.906 0.0244593 443.083C0.0606411 443.235 0.195501 443.337 0.343517 443.337V443.343C0.369831 443.343 0.392856 443.34 0.41917 443.333L38.8238 434.258L49.5806 440.87L60.8857 447.863L71.995 455.102L26.7793 464.737L0.26463 471.338C0.0870098 471.381 -0.0182464 471.558 0.024514 471.736C0.0606958 471.887 0.195555 471.986 0.343572 471.986L0.353439 471.989C0.379753 471.989 0.406067 471.986 0.432382 471.979L26.9372 465.378L72.7776 455.613L84.2419 463.145L38.3477 472.792L0.268043 482.038C0.0904237 482.081 -0.0181217 482.258 0.0246386 482.436C0.0604072 482.582 0.192612 482.684 0.33863 482.686C0.363344 482.686 0.388057 482.682 0.412771 482.676L38.4826 473.433L85.0081 463.653L97.6432 472.414L124.144 490.632L76.1282 499.662L24.9013 510.786L0.2714 516.417C0.0937801 516.46 -0.0147653 516.634 0.0247058 516.812C0.0575983 516.967 0.192458 517.069 0.343764 517.069L0.353631 517.072C0.376656 517.072 0.40297 517.069 0.425995 517.062L25.0526 511.431L76.2663 500.31L124.916 491.161L138.607 500.418L89.864 509.753L37.7885 520.542L0.274521 528.982C0.096901 529.025 -0.0149337 529.2 0.0245374 529.377C0.0574299 529.528 0.192289 529.634 0.343595 529.634L0.350174 529.627C0.373198 529.627 0.399512 529.627 0.422537 529.62L37.9332 521.184L89.9988 510.398L139.371 500.941L153.767 511.496L104.228 520.516L51.2877 531.045L0.271309 542.146C0.0936888 542.185 -0.0181458 542.36 0.0213252 542.537C0.057507 542.692 0.192366 542.797 0.343672 542.797H0.344088C0.366974 542.797 0.38986 542.797 0.412747 542.791L51.4028 531.683L104.333 521.157L154.494 512.025L170.237 522.802L204.093 541.633C204.143 541.662 204.199 541.676 204.255 541.676L204.245 541.679C204.268 541.679 204.291 541.676 204.314 541.672L254.099 530.972L272.071 540.088L225.954 550.343C225.776 550.382 225.664 550.557 225.704 550.734C225.74 550.885 225.875 550.991 226.026 550.991L226.023 550.997C226.046 550.997 226.072 550.997 226.095 550.991L273.002 540.56L292.719 550.56C292.765 550.583 292.814 550.596 292.867 550.596L292.857 550.606C292.88 550.606 292.907 550.603 292.93 550.596L387.446 528.825L432.391 548.205C432.433 548.221 432.476 548.231 432.522 548.231L432.529 548.221C432.534 548.221 432.54 548.221 432.545 548.221C432.551 548.221 432.556 548.22 432.562 548.219C432.577 548.218 432.592 548.215 432.608 548.211L477.085 537.173L501.642 547.024C501.708 547.05 501.777 547.054 501.846 547.037L544.363 536.061L570.496 545.86C570.562 545.883 570.631 545.886 570.697 545.869L611.273 534.956L638.962 544.702C639.025 544.725 639.094 544.725 639.16 544.708L677.818 533.854L707.043 543.55C707.109 543.567 707.175 543.57 707.241 543.55L744.001 532.758L774.746 542.403C774.808 542.422 774.878 542.422 774.94 542.403L809.823 531.673L842.07 541.264C842.133 541.287 842.202 541.284 842.265 541.264L875.285 530.594L909.017 540.133C909.059 540.146 909.109 540.149 909.155 540.143L943.405 534.882L921.167 550.392C921.016 550.494 920.98 550.701 921.085 550.849C921.147 550.941 921.249 550.991 921.355 550.991H921.358C921.424 550.991 921.489 550.971 921.545 550.932L944.884 534.654L980.845 528.927L949.688 550.392C949.537 550.494 949.501 550.698 949.603 550.849C949.665 550.941 949.767 550.991 949.873 550.991L949.879 550.997C949.945 550.997 950.011 550.978 950.067 550.938L950.648 550.538C950.625 550.594 950.617 550.657 950.629 550.721C950.665 550.899 950.836 551.02 951.014 550.984L989.238 543.922L1031.08 543.001L1075.32 546.044C1075.42 546.047 1075.52 546.011 1075.58 545.935L1107.27 510.786L1152.78 517.37L1127.03 550.461C1126.91 550.603 1126.94 550.81 1127.08 550.922C1127.14 550.968 1127.21 550.991 1127.28 550.991L1127.28 550.994C1127.38 550.994 1127.47 550.948 1127.54 550.866L1153.5 517.5L1201.64 530.718L1185.99 550.458C1185.87 550.599 1185.9 550.807 1186.04 550.918C1186.1 550.968 1186.17 550.991 1186.24 550.991L1186.25 550.994C1186.34 550.994 1186.44 550.951 1186.5 550.869L1202.33 530.904L1253.91 544.041L1291.24 550.984C1291.26 550.991 1291.28 550.991 1291.3 550.991L1291.29 550.984C1291.44 550.984 1291.58 550.872 1291.61 550.714C1291.64 550.534 1291.52 550.362 1291.35 550.33L1254.04 543.393L1202.85 530.354L1230.92 502.138L1281.66 515.085L1309.73 521.624C1309.9 521.667 1310.08 521.555 1310.12 521.378C1310.16 521.2 1310.05 521.022 1309.87 520.983L1281.82 514.447L1231.5 501.609L1257.85 477.9L1282.93 460.24L1309.79 460.842C1309.99 460.842 1310.13 460.701 1310.13 460.52C1310.13 460.339 1309.99 460.188 1309.81 460.184L1282.84 459.579L1282.82 459.579L1282.81 459.579L1282.8 459.58C1282.79 459.58 1282.78 459.581 1282.78 459.582C1282.77 459.584 1282.76 459.585 1282.75 459.588C1282.71 459.598 1282.67 459.615 1282.64 459.638L1257.45 477.374C1257.45 477.377 1257.45 477.381 1257.44 477.385L1257.42 477.397L1230.72 501.423L1183.6 493.232L1210.16 478.473C1210.17 478.47 1210.18 478.466 1210.18 478.462L1210.2 478.453L1236.11 459.674C1236.13 459.661 1236.16 459.632 1236.16 459.632L1260.69 433.116L1306.73 434.627L1309.78 434.781C1309.96 434.788 1310.11 434.65 1310.12 434.469C1310.13 434.288 1309.99 434.133 1309.81 434.123L1306.76 433.969L1261.26 432.475L1284.04 406.372L1309.8 406.342C1309.98 406.342 1310.12 406.194 1310.12 406.014C1310.12 405.833 1309.98 405.685 1309.8 405.685L1283.89 405.714C1283.8 405.714 1283.71 405.754 1283.65 405.826L1260.42 432.437L1216.69 428.341L1174.86 427.742C1174.83 427.739 1174.8 427.746 1174.78 427.752L1136.07 437.5L1159.9 415.888C1159.9 415.883 1159.91 415.877 1159.91 415.871L1159.92 415.858L1183.62 388.449L1206.09 368.279L1227.53 349.771C1227.54 349.764 1227.55 349.753 1227.56 349.743L1227.57 349.73L1227.57 349.725L1248.17 323.578L1267.67 304.02L1304.63 306.925H1304.68L1309.84 306.448C1310.02 306.431 1310.15 306.27 1310.13 306.089C1310.11 305.908 1309.95 305.773 1309.77 305.793L1304.65 306.267L1267.57 303.353C1267.47 303.343 1267.37 303.379 1267.31 303.448L1247.69 323.128L1247.68 323.136L1247.67 323.145L1247.66 323.157L1227.07 349.294L1205.65 367.786L1183.16 387.972L1183.13 388.002L1159.43 415.411L1134.69 437.853L1097.95 450.092L1122.09 427.131L1146.11 403.902C1146.11 403.899 1146.12 403.894 1146.12 403.889C1146.13 403.882 1146.13 403.876 1146.13 403.876L1169.11 376.091L1191.01 352.691C1191.02 352.687 1191.02 352.68 1191.03 352.675L1191.04 352.662L1212.06 324.259L1232.05 303.876L1251.07 287.502L1286.17 290.373L1309.77 291.669C1309.95 291.676 1310.11 291.541 1310.12 291.36C1310.13 291.179 1309.99 291.024 1309.81 291.015L1286.22 289.719L1250.99 286.837C1250.91 286.831 1250.82 286.857 1250.75 286.916L1231.61 303.399L1211.58 323.818C1211.57 323.831 1211.55 323.854 1211.55 323.854L1190.52 352.261L1168.62 375.66L1145.64 403.445L1121.64 426.657L1096.49 450.579L1060.09 463.036L1033.46 474.154C1033.44 474.164 1033.42 474.173 1033.4 474.183L1006.05 492.014L1005.33 492.488L1005.33 492.488L1005.31 492.501L969.944 514.96L951.188 523.756C951.024 523.831 950.955 524.029 951.031 524.193C951.086 524.315 951.205 524.384 951.33 524.384L951.323 524.381C951.369 524.381 951.415 524.371 951.461 524.351L970.236 515.546L970.244 515.542L970.256 515.535L970.273 515.526L998.379 497.675L975.729 514.592L944.638 534.028L909.122 539.482L875.364 529.933C875.355 529.93 875.346 529.928 875.336 529.927C875.317 529.923 875.297 529.921 875.277 529.921C875.259 529.921 875.241 529.922 875.223 529.925L875.219 529.925L875.211 529.927L875.204 529.928L875.196 529.93L875.188 529.932L875.178 529.935L875.173 529.936L842.153 540.607L809.908 531.015C809.846 530.995 809.78 530.995 809.717 531.015L774.838 541.745L744.097 532.101C744.034 532.084 743.968 532.084 743.906 532.101L707.148 542.893L677.927 533.199C677.864 533.179 677.795 533.179 677.733 533.196L639.077 544.047L611.392 534.301C611.329 534.278 611.26 534.278 611.198 534.294L570.625 545.208L544.495 535.41C544.432 535.387 544.363 535.383 544.298 535.4L501.784 546.376L477.226 536.525C477.164 536.498 477.091 536.495 477.026 536.511L432.555 547.547L388.547 528.571L472.654 509.198L495.37 517.717C495.429 517.74 495.498 517.746 495.561 517.73L643.781 482.314L668.451 489.653C668.507 489.669 668.569 489.669 668.625 489.656L701.571 481.48L727.387 488.781C727.443 488.794 727.503 488.794 727.558 488.781L818.079 465.414L964.253 501.445C964.431 501.487 964.609 501.382 964.651 501.205C964.694 501.027 964.589 500.849 964.411 500.807L818.154 464.756C818.134 464.751 818.112 464.748 818.091 464.747C818.07 464.746 818.05 464.747 818.03 464.749C818.017 464.751 818.005 464.753 817.993 464.756L727.476 488.123L702.858 481.161L819.739 452.155L988.252 491.985C988.429 492.028 988.604 491.919 988.646 491.741C988.689 491.567 988.581 491.389 988.403 491.347L821.133 451.809L846.222 445.583L872.055 451.448C872.105 451.461 872.157 451.461 872.21 451.448L897.498 444.919L1003.19 468.003C1003.37 468.042 1003.54 467.93 1003.58 467.753C1003.62 467.575 1003.51 467.401 1003.33 467.361L898.917 444.554L921.861 438.633L1000.46 455.172C1000.64 455.211 1000.81 455.096 1000.85 454.918C1000.89 454.741 1000.77 454.566 1000.59 454.53L921.92 437.975C921.868 437.962 921.818 437.962 921.769 437.975L897.504 444.238L871.736 438.61C871.687 438.597 871.638 438.597 871.588 438.61L846.238 444.902L797.261 433.781C797.212 433.772 797.162 433.772 797.113 433.781L770.661 439.876L747.508 434.403C747.458 434.393 747.409 434.393 747.36 434.403L597.264 467.779L515.736 443.529L662.223 414.919L703.297 424.627C703.316 424.635 703.333 424.636 703.351 424.637L703.363 424.637H703.373L703.379 424.634C703.399 424.634 703.422 424.631 703.445 424.627L729.825 419.141L751.435 424.045C751.481 424.055 751.531 424.055 751.576 424.045L776.999 418.582L799.376 423.47C799.422 423.479 799.471 423.479 799.517 423.47L823.999 418.025L895.998 433.176C896.047 433.189 896.097 433.189 896.146 433.176L942.127 421.765L988.025 430.765C988.199 430.801 988.373 430.683 988.409 430.505C988.446 430.328 988.327 430.157 988.15 430.121L943.633 421.391L963.855 416.373L984.821 420.348C985.002 420.381 985.173 420.263 985.206 420.085C985.239 419.907 985.12 419.733 984.943 419.7L965.389 415.992L1005.03 406.155L1005.82 406.04C1006 406.014 1006.13 405.849 1006.1 405.668C1006.07 405.487 1005.91 405.362 1005.73 405.389L1004.91 405.51L963.848 415.7L894.011 402.457L972.98 384.896L1016.67 392.215C1016.85 392.248 1017.02 392.126 1017.05 391.945C1017.08 391.768 1016.96 391.597 1016.78 391.567L973.026 384.235C972.983 384.229 972.94 384.229 972.901 384.239L892.37 402.146L807.132 385.982C807.09 385.975 807.047 385.972 807.007 385.982L713.994 404.149L694.383 399.866C694.34 399.859 694.294 399.856 694.252 399.866L668.984 404.655L651.612 400.711L810.201 371.513L829.315 374.914C829.339 374.918 829.364 374.919 829.388 374.918C829.403 374.918 829.418 374.916 829.433 374.914L849.409 371.128L869.046 374.516C869.061 374.519 869.076 374.521 869.091 374.522C869.107 374.522 869.124 374.521 869.14 374.519L869.151 374.518L869.164 374.516L888.485 370.743L929.453 377.607C929.492 377.617 929.535 377.614 929.575 377.607L966.263 369.977L987.456 373.331C987.495 373.341 987.538 373.341 987.577 373.331L1004.96 369.595L1014.58 371.075C1014.75 371.101 1014.92 370.98 1014.95 370.799C1014.98 370.618 1014.86 370.45 1014.67 370.424L1006.77 369.206L1018.78 366.625C1018.96 366.585 1019.07 366.411 1019.03 366.233C1018.99 366.056 1018.82 365.94 1018.64 365.98L1004.94 368.924L985.625 365.948L1000.75 362.802L1011.76 364.454C1011.94 364.48 1012.11 364.358 1012.14 364.178C1012.16 363.997 1012.04 363.829 1011.86 363.803L1002.61 362.415L1017.32 359.355C1017.34 359.352 1017.36 359.346 1017.38 359.339L1020.42 358.089C1020.59 358.02 1020.67 357.829 1020.6 357.661C1020.53 357.49 1020.34 357.411 1020.17 357.481L1017.16 358.721L1000.74 362.134L940.867 353.149C940.83 353.142 940.794 353.142 940.758 353.149L923.608 356.398L904.662 353.478C904.626 353.471 904.589 353.471 904.553 353.478L886.841 356.737L868.345 353.81C868.325 353.806 868.306 353.805 868.286 353.805C868.269 353.805 868.253 353.807 868.237 353.81L849.958 357.083L831.92 354.145C831.884 354.139 831.848 354.139 831.811 354.145L812.964 357.428L795.383 354.484C795.375 354.483 795.367 354.482 795.359 354.481C795.351 354.48 795.342 354.479 795.334 354.479L795.327 354.479C795.309 354.479 795.292 354.481 795.274 354.484L775.888 357.77L711.856 346.72L748.099 341.164L763.948 343.745C763.984 343.751 764.017 343.751 764.053 343.745L782.377 340.868C782.383 340.868 782.389 340.868 782.395 340.868L815.405 346.093C815.441 346.1 815.474 346.1 815.51 346.093L833.322 343.151L833.328 343.151L833.34 343.151L850.429 345.784C850.465 345.791 850.501 345.791 850.534 345.784L867.836 342.851C867.843 342.852 867.849 342.852 867.855 342.851L885.354 345.478C885.387 345.485 885.423 345.485 885.459 345.478L902.264 342.554L920.177 345.172C920.21 345.179 920.246 345.179 920.283 345.172L936.572 342.256L936.576 342.256C936.581 342.256 936.586 342.256 936.591 342.256L954.899 344.866C954.906 344.868 954.915 344.869 954.923 344.87C954.93 344.871 954.937 344.871 954.944 344.871C954.952 344.871 954.959 344.871 954.967 344.871C954.979 344.87 954.992 344.868 955.004 344.866L970.792 341.96L989.521 344.567C989.542 344.571 989.565 344.573 989.588 344.572C989.601 344.571 989.614 344.569 989.626 344.567L1004.92 341.666L1012.38 342.679C1012.56 342.702 1012.72 342.577 1012.75 342.396C1012.77 342.215 1012.65 342.051 1012.47 342.024L1006.96 341.277L1014.76 339.801C1014.94 339.768 1015.05 339.594 1015.02 339.416C1014.99 339.235 1014.82 339.12 1014.63 339.153L1004.91 340.995L988.296 338.739L1001.22 336.36L1008.1 337.275C1008.28 337.298 1008.45 337.173 1008.47 336.992C1008.49 336.814 1008.37 336.646 1008.19 336.623L1001.25 335.702C1001.22 335.696 1001.18 335.696 1001.15 335.702L986.192 338.455L950.175 333.561C950.167 333.56 950.16 333.559 950.152 333.558L950.138 333.557C950.116 333.555 950.095 333.557 950.073 333.561L934.591 336.258L917.197 333.837C917.164 333.831 917.131 333.831 917.098 333.837L901.152 336.541L884.133 334.114C884.113 334.11 884.093 334.108 884.072 334.109C884.06 334.11 884.047 334.111 884.035 334.114L867.618 336.824L834.676 332.005C834.643 332.002 834.61 332.002 834.578 332.005L817.674 334.66L801.794 332.275C801.785 332.273 801.777 332.272 801.769 332.271C801.764 332.271 801.759 332.27 801.754 332.27C801.745 332.27 801.736 332.27 801.726 332.271C801.716 332.271 801.705 332.273 801.695 332.275L784.331 334.936L768.825 332.545C768.809 332.543 768.792 332.542 768.775 332.542C768.759 332.542 768.743 332.543 768.727 332.545L750.896 335.216L735.765 332.821C735.732 332.818 735.699 332.818 735.666 332.821L717.368 335.498L702.613 333.097C702.58 333.094 702.547 333.094 702.514 333.097L683.745 335.781L657.398 331.368L879.963 300.886L908.474 304.28C908.504 304.283 908.53 304.283 908.56 304.28L934.956 300.504L949.603 302.178C949.604 302.178 949.605 302.178 949.606 302.178L961.378 303.524C961.556 303.547 961.724 303.415 961.744 303.234C961.763 303.053 961.635 302.889 961.454 302.869L950.022 301.563L963.076 254.487L977.321 211.267L964.391 302.382C964.365 302.563 964.49 302.728 964.671 302.754H964.717L964.707 302.757C964.868 302.757 965.01 302.639 965.033 302.474L978.469 207.79L993.218 175.786L984.541 253.895C984.522 254.073 984.65 254.237 984.831 254.257H984.867L984.87 254.26C985.035 254.26 985.176 254.135 985.196 253.968L994.087 173.934L1008.99 145.673L995.935 220.121L995.932 220.134L995.925 220.157L979.867 297.287C979.831 297.465 979.946 297.639 980.124 297.675C980.144 297.682 980.167 297.682 980.19 297.682L980.186 297.685C980.341 297.685 980.476 297.577 980.509 297.422L993.987 232.67L984.962 290.867C984.933 291.044 985.055 291.215 985.235 291.242C985.252 291.245 985.268 291.245 985.285 291.245H985.291C985.453 291.245 985.591 291.126 985.617 290.965L996.58 220.276L996.59 220.218L1011.93 173.859L1002.2 246.047C1002.18 246.225 1002.3 246.393 1002.48 246.416H1002.52L1002.53 246.425C1002.69 246.425 1002.83 246.304 1002.85 246.139L1013.05 170.505L1013.05 170.503L1028.43 138.766L1015.62 194.005C1015.62 194.014 1015.62 194.037 1015.62 194.037L1007.7 257.573C1007.68 257.754 1007.81 257.918 1007.99 257.941H1008.03L1008.03 257.944C1008.19 257.944 1008.33 257.823 1008.35 257.655L1016.27 194.136L1029.72 136.124L1045.52 109.17L1032.72 159.033L1018.95 223.841C1018.94 223.861 1018.93 223.881 1018.93 223.901L1018.92 223.958L1004.98 291.205C1004.94 291.383 1005.06 291.557 1005.23 291.594C1005.24 291.595 1005.24 291.596 1005.24 291.596C1005.25 291.598 1005.26 291.599 1005.27 291.6C1005.28 291.6 1005.29 291.6 1005.3 291.6L1005.3 291.607C1005.45 291.607 1005.59 291.498 1005.62 291.344L1017.14 235.805L1010.61 279.124C1010.58 279.305 1010.7 279.473 1010.88 279.499C1010.89 279.5 1010.9 279.501 1010.9 279.501L1010.92 279.502L1010.93 279.502L1010.93 279.499C1011.1 279.499 1011.23 279.384 1011.26 279.219L1019.58 224.032L1035.91 181.441L1022.42 253.731L1022.41 253.754L1022.41 253.758L1009.94 299.504C1009.89 299.679 1009.99 299.859 1010.17 299.909C1010.19 299.919 1010.22 299.922 1010.25 299.922L1010.26 299.919C1010.4 299.919 1010.53 299.823 1010.57 299.675L1020.32 263.919L1014.61 291.702C1014.57 291.88 1014.69 292.054 1014.86 292.09C1014.89 292.097 1014.91 292.097 1014.93 292.097H1014.93C1015.09 292.097 1015.22 291.988 1015.26 291.834L1023.06 253.912L1039.61 197.79L1026.2 272.309L1026.2 272.312L1012.91 309.875C1012.85 310.049 1012.94 310.237 1013.11 310.296C1013.15 310.309 1013.18 310.316 1013.22 310.316L1013.23 310.323C1013.36 310.323 1013.49 310.237 1013.54 310.102L1024.27 279.76L1018.37 302.507C1018.33 302.685 1018.44 302.862 1018.61 302.909C1018.64 302.918 1018.66 302.918 1018.69 302.918C1018.84 302.918 1018.97 302.82 1019.01 302.672L1026.81 272.588L1026.83 272.509C1026.84 272.493 1026.85 272.473 1026.85 272.457L1026.85 272.42L1043.72 219.088L1030.98 282.732C1030.94 282.913 1031.05 283.084 1031.23 283.12L1030.23 286.469L1029.38 289.178C1029.21 289.113 1029.02 289.189 1028.95 289.35L1015.37 319.986C1015.3 320.154 1015.38 320.348 1015.54 320.421C1015.59 320.44 1015.63 320.45 1015.67 320.45V320.447C1015.8 320.447 1015.92 320.374 1015.98 320.253L1028.46 292.079L1021.95 312.786C1021.89 312.957 1021.99 313.141 1022.16 313.197C1022.19 313.21 1022.23 313.214 1022.26 313.214H1022.26C1022.4 313.214 1022.53 313.125 1022.57 312.983L1030.86 286.663L1048.22 228.801L1036.44 288.985C1036.4 289.163 1036.52 289.334 1036.7 289.37C1036.71 289.373 1036.72 289.375 1036.73 289.376C1036.74 289.377 1036.75 289.377 1036.76 289.377H1036.76C1036.92 289.377 1037.05 289.268 1037.08 289.11L1050.14 222.404L1069.62 182.071C1069.63 182.061 1069.64 182.035 1069.64 182.035L1083.85 140.481L1102.45 126.237L1089.6 158.477L1088.8 160.484L1074.46 189.553L1074.45 189.567L1074.43 189.607L1054.28 236.824C1054.27 236.841 1054.26 236.87 1054.26 236.87L1039.15 294.488L1025.25 325.595C1025.17 325.759 1025.25 325.953 1025.41 326.029C1025.46 326.048 1025.5 326.058 1025.55 326.058L1025.55 326.048C1025.68 326.048 1025.8 325.976 1025.85 325.854L1037.49 299.825L1032.18 316.852C1032.13 317.023 1032.23 317.21 1032.4 317.263C1032.43 317.273 1032.47 317.276 1032.5 317.276H1032.5C1032.64 317.276 1032.77 317.187 1032.82 317.046L1039.77 294.715L1057.97 244.468L1043.93 301.968L1031.03 328.732C1030.96 328.897 1031.02 329.094 1031.19 329.173C1031.24 329.196 1031.28 329.206 1031.33 329.206H1031.33C1031.46 329.206 1031.57 329.137 1031.63 329.019L1041.46 308.623L1036.72 321.365C1036.66 321.536 1036.75 321.726 1036.92 321.789C1036.95 321.802 1036.99 321.808 1037.03 321.809C1037.16 321.807 1037.29 321.725 1037.33 321.595L1044.5 302.301L1044.54 302.221C1044.55 302.198 1044.56 302.178 1044.56 302.155L1044.57 302.136L1063.03 259.55L1049.02 305.375L1042.33 324.881C1042.27 325.052 1042.36 325.239 1042.53 325.298ZM1084.45 139.195L1102.92 125.049L1116.04 89.6233L1097.6 111.195L1084.45 139.195ZM1095.91 113.254L1083.3 140.09L1065.75 160.848L1078.42 134.511L1095.91 113.254ZM1098.4 109.236L1116.71 87.8183L1129.38 50.4123L1111.11 77.91L1098.4 109.236ZM1109.79 79.4161L1097.05 110.821L1079.19 132.524L1092 99.5207L1109.79 79.4161ZM1111.8 75.679L1130.21 47.9746C1130.21 47.965 1130.22 47.9554 1130.22 47.9452L1143.12 28.1406L1155.69 -4.71304L1137.3 -0.136665L1124.45 34.4231L1111.8 75.679ZM1156.5 -4.98067L1143.72 28.407C1143.72 28.4301 1143.71 28.4498 1143.69 28.4695L1131.2 47.6553L1150.06 43.9705L1162.97 12.8752L1175.27 -18.9397L1156.5 -4.98067ZM1175.74 -20.1047L1156.95 -6.133L1168.93 -36.2604L1187.49 -33.9053L1175.74 -20.1047ZM1176.26 -19.6649L1163.59 13.1186L1151.04 43.3308L1170.54 29.4694L1191.38 16.0631L1204.21 -20.3233C1204.22 -20.3397 1204.23 -20.3595 1204.24 -20.3759L1216.07 -41.4867L1196.37 -32.2567L1176.26 -19.6649ZM1216.65 -42.4828L1196.08 -32.8455C1196.06 -32.8389 1196.04 -32.8257 1196.04 -32.8257L1177.62 -21.2859L1188.36 -33.9053L1208.38 -45.1572L1227.47 -56.1805L1216.65 -42.4828ZM1217.04 -41.8671L1204.82 -20.0799L1192.2 15.7168L1212.8 7.81606L1225.28 -15.5045L1237.32 -39.5543L1217.04 -41.8671ZM1237.68 -40.1778L1217.48 -42.4828L1228.93 -56.9757L1249.02 -55.2327L1237.68 -40.1778ZM1238 -39.4222L1225.87 -15.1953L1213.59 7.74979L1234.6 7.72429L1246.88 -13.4356L1258.7 -32.4833L1238 -39.4222ZM1259.03 -33.066L1238.37 -39.993L1249.8 -55.1855L1270.45 -55.4921L1259.03 -33.066ZM1249.51 -55.8486L1260.85 -68.2116L1271.64 -79.9244L1251.83 -83.9902L1240.7 -73.902L1229.38 -57.5946L1249.51 -55.8486ZM1228.56 -57.5647L1240.18 -74.3065C1240.2 -74.3263 1240.21 -74.346 1240.23 -74.3625L1251.07 -84.1835L1231.72 -89.3187L1212.07 -79.2865L1200.39 -55.6499L1188.99 -35.0093L1208.06 -45.7262L1228.56 -57.5647ZM1187.95 -34.5083L1199.8 -55.9591L1210.82 -78.2676L1192.52 -62.8895L1180.91 -51.1239L1169.34 -36.8694L1187.95 -34.5083ZM1168.06 -35.8594L1155.98 -5.45953L1137.66 -0.89846L1149.79 -25.1594L1168.06 -35.8594ZM1110.53 77.5838L1092.52 97.9341L1105.38 58.8326L1118.4 19.4601L1136.2 0.93766L1123.83 34.2159L1110.53 77.5838ZM1090.76 100.906L1073.37 120.338L1060.4 159.647L1077.85 134.159L1090.76 100.906ZM1058.42 163.938L1041.32 192.028L1027.76 267.363L1044.91 213.138L1044.92 213.105L1058.42 163.938ZM1059.06 161.607L1042.1 189.47L1055.1 147.465L1072.01 122.338L1059.06 161.607ZM1073.9 118.753L1091.42 99.1786L1104.75 58.6254L1117.31 20.6492L1099.88 39.7723L1086.78 80.1405L1073.9 118.753ZM1100.47 38.1568L1117.81 19.1303L1129.89 -11.1328L1112.63 5.27732L1100.47 38.1568ZM1111.71 5.86525L1099.3 39.4321L1082.22 54.6188L1094.7 16.1357L1111.71 5.86525ZM1098.9 40.6576L1086.16 79.9333L1072.78 120.019L1055.74 145.337L1068.62 102.481L1081.83 55.8382L1098.9 40.6576ZM1053.63 149.972L1040.69 191.811L1024.24 247.565L1037.21 178.069L1053.63 149.972ZM1047.36 206.694L1059.66 161.903L1075.97 138.084L1064.04 162.873L1064.04 162.874C1064.03 162.89 1064.03 162.906 1064.02 162.924L1047.36 206.694ZM1045.54 213.317L1062.75 168.121L1049.51 222.207L1032.23 279.784L1045.54 213.322L1045.54 213.317ZM1082.7 141.825L1069.02 181.805L1050.88 219.353L1064.63 163.195L1082.7 141.825ZM949.364 301.488L962.454 254.287L977.838 207.609L991.001 134.525C991.011 134.479 991.028 134.436 991.054 134.4L1006.51 111.641L1018.77 67.1739L1004.3 83.5316L989.189 101.859L974.414 121.871L961.945 176.775L975.877 159.638C975.993 159.497 976.2 159.477 976.341 159.589C976.483 159.704 976.502 159.911 976.391 160.053L961.635 178.203L950.175 275.697C950.155 275.864 950.014 275.986 949.849 275.986H949.846H949.807C949.626 275.966 949.498 275.802 949.517 275.621L960.753 180.023L947.004 209.056L933.847 296.024C933.824 296.188 933.684 296.303 933.523 296.304C933.517 296.304 933.49 296.303 933.475 296.3C933.294 296.274 933.173 296.106 933.199 295.925L946.363 208.911C946.366 208.879 946.376 208.849 946.389 208.819L961 177.963L973.785 121.664C973.795 121.621 973.815 121.578 973.841 121.542L988.666 101.461L1003.79 83.1106L1019.18 65.7153L1031.41 34.8145L1043.45 1.60288C1043.46 1.5667 1043.47 1.5371 1043.5 1.5075L1054.2 -11.5827L1040.29 -5.24206L1025.43 2.18508L1010.81 17.5951L999.031 39.8536L984.499 63.5626L972.394 93.7152C972.381 93.7514 972.361 93.781 972.335 93.8106L958.185 109.846L945.728 154.293L932.693 239.393L919.758 294.872L931.068 296.139C931.249 296.159 931.377 296.323 931.357 296.504C931.338 296.685 931.177 296.814 930.992 296.794L919.357 295.491L893.429 299.04C893.417 299.042 893.404 299.043 893.391 299.043C893.376 299.043 893.361 299.042 893.347 299.04L879.552 297.432L763.171 313.036C763.141 313.039 763.112 313.039 763.082 313.036L749.508 311.148L611.026 329.337L622.276 331.278L641.426 328.709C641.439 328.708 641.452 328.707 641.465 328.707C641.485 328.707 641.505 328.707 641.525 328.709L655.213 331.002L879.917 300.228C879.943 300.225 879.973 300.225 879.999 300.228L908.51 303.622L934.907 299.846C934.913 299.846 934.919 299.845 934.925 299.845C934.946 299.843 934.969 299.844 934.989 299.846L949.364 301.488ZM919.099 294.798L932.045 239.271L945.077 154.175C945.077 154.175 945.08 154.149 945.087 154.136L957.339 110.417L944.315 118.705L931.762 174.187L918.77 255.448C918.77 255.464 918.763 255.484 918.756 255.501L906.006 293.33L919.099 294.798ZM962.314 416.08L892.381 402.819L872.018 407.348L942.115 421.093L962.314 416.08ZM940.609 421.467L870.418 407.703L825.547 417.681L896.067 432.522L940.609 421.467ZM823.983 417.352L868.801 407.386L826.358 399.063L781.457 408.403L823.983 417.352ZM779.827 408.731C779.828 408.731 779.829 408.731 779.83 408.731L822.435 417.696L799.445 422.808L777.068 417.921C777.022 417.911 776.976 417.911 776.93 417.921L751.507 423.384L729.897 418.48C729.851 418.47 729.802 418.47 729.756 418.48L703.376 423.966L663.798 414.611L688.571 409.773C688.572 409.773 688.571 409.773 688.572 409.773L708.777 414.362C708.823 414.372 708.869 414.372 708.915 414.362L734.284 409.25C734.285 409.25 734.286 409.25 734.287 409.25L755.211 413.822C755.231 413.826 755.25 413.829 755.269 413.829L755.279 413.83L755.29 413.829C755.31 413.829 755.33 413.826 755.349 413.822L779.827 408.731ZM778.225 408.397L758.836 404.316L735.914 408.933L755.29 413.168L778.225 408.397ZM732.693 408.906L713.987 404.82L690.194 409.467L708.866 413.707L732.693 408.906ZM686.991 409.418L668.974 405.326L644.3 410.003L662.261 414.248L686.991 409.418ZM660.686 414.556L642.703 410.305L496.93 437.935L514.391 443.128L660.686 414.556ZM513.002 443.4L495.524 438.201L315.52 472.318L275.607 479.686L291.399 486.681L513.002 443.4ZM290.209 486.885L274.437 479.895L231.621 485.321L187.5 491.893L202.441 501.51L247.877 494.037L290.209 486.885ZM203.242 502.037L247.972 494.682L291.288 487.362L345.371 510.682L254.172 530.282L219.04 512.464L203.242 502.037ZM201.531 501.693L186.535 492.041L140.247 500.775L154.646 511.333L201.531 501.693ZM155.385 511.845L202.31 502.195L218.707 513.02C218.717 513.026 218.74 513.039 218.74 513.039L253.165 530.499L204.297 541.001L170.576 522.246L155.385 511.845ZM292.454 487.136L514.347 443.8L595.94 468.07L450.884 500.326L430.088 492.528C430.029 492.504 429.966 492.501 429.904 492.514L346.498 510.44L292.454 487.136ZM449.706 500.588L429.947 493.179L347.541 510.89L366.539 519.081L449.706 500.588ZM367.577 519.529L450.841 501.013L471.533 508.772L387.514 528.126L367.577 519.529ZM365.424 519.329L346.414 511.132L255.106 530.756L273.068 539.866L365.424 519.329ZM273.998 540.338L366.463 519.777L386.413 528.379L292.893 549.922L273.998 540.338ZM452.019 500.751L597.232 468.46L618.756 474.862L472.701 508.507L452.019 500.751ZM620.037 475.243L473.819 508.926L495.505 517.059L642.522 481.932L620.037 475.243ZM645.073 482.003L668.553 488.988L700.28 481.115L676.7 474.447L645.073 482.003ZM701.567 480.796L676.792 473.789C676.74 473.772 676.684 473.772 676.628 473.785L643.811 481.627L621.341 474.943L770.641 440.551L818.325 451.821L701.567 480.796ZM620.061 474.562L598.56 468.166L747.432 435.061L769.201 440.207L620.061 474.562ZM1259.86 433.047L1216.65 428.999L1174.9 428.404L1135.02 438.443L1109.01 454.764C1109.01 454.764 1108.98 454.78 1108.97 454.783L1081.63 467.167L1053.77 486.098L1093.63 481.916C1093.66 481.913 1093.69 481.916 1093.72 481.916L1136.96 489.63L1182.56 493.058L1209.83 477.907L1235.7 459.158L1259.86 433.047ZM1181.78 493.657L1136.9 490.281C1136.9 490.281 1136.87 490.281 1136.86 490.278L1093.65 482.571L1052.62 486.876L1052.61 486.879L1021.94 517.217C1021.9 517.256 1021.85 517.282 1021.8 517.299L982.405 528.661C982.402 528.663 982.399 528.665 982.397 528.667L950.958 550.324L989.143 543.268C989.159 543.268 989.179 543.261 989.195 543.261L1031.09 542.34L1075.2 545.373L1106.89 510.211C1106.96 510.128 1107.08 510.086 1107.18 510.105L1153.3 516.775L1181.78 493.657ZM1154.09 516.975L1202.11 530.162L1230.15 501.987L1182.72 493.743L1154.09 516.975ZM1274.18 65.6472L1265.98 66.7558L1257.03 71.092L1274.18 65.6472ZM1252.65 72.4975L1252.66 72.4962C1252.68 72.4765 1252.7 72.46 1252.73 72.4436L1264.77 66.6171L1241.96 63.6547L1218.58 67.2959L1195.82 69.799L1173.64 80.8246L1159.98 111.599L1181.66 102.55L1204.7 93.1067L1228.36 84.8375L1252.65 72.4975ZM1158.71 112.682L1137.74 117.215L1123.78 138.027L1144.82 138.002L1158.71 112.682ZM1145.88 137.447L1159.57 112.487L1181.91 103.162L1204.94 93.7251L1228.6 85.4526C1228.61 85.4493 1228.64 85.4362 1228.64 85.4362L1250.74 74.2114L1239.17 84.5875L1220.35 98.7575L1200.77 101.912C1200.75 101.915 1200.73 101.922 1200.71 101.929C1200.69 101.937 1200.68 101.945 1200.66 101.955L1176.57 116.256C1176.54 116.27 1176.52 116.289 1176.5 116.309L1168.88 124.167L1168.8 124.256L1167.47 124.973L1145.88 137.447ZM1145.26 138.565L1130.67 164.25L1134.03 160.609L1140.58 153.254L1152.94 140.607L1165.91 126.635L1145.26 138.565ZM1167.84 125.522L1153.41 141.061L1151.98 142.528L1141.06 153.705L1134.52 161.053L1129.21 166.806L1115.59 179.879L1115.55 179.923L1114.65 181.352L1100.02 204.632L1099.77 205.297L1084.23 252.312L1106.43 227.368L1130.34 201.474L1146.38 156.408C1146.4 156.362 1146.42 156.32 1146.46 156.283L1157.55 145.31C1157.67 145.182 1157.89 145.185 1158.01 145.31C1158.14 145.439 1158.14 145.649 1158.01 145.774L1146.97 156.695L1131.61 199.844L1155.09 169.633L1170.92 132.117C1170.93 132.081 1170.95 132.048 1170.98 132.022L1186.02 115.75C1186.06 115.704 1186.12 115.668 1186.18 115.654L1211 109.507C1211.04 109.494 1211.09 109.494 1211.14 109.504L1236.28 114.43L1250.05 92.7565L1225.5 98.5965L1200.94 102.553L1196.84 104.984L1176.94 116.799L1169.23 124.756C1169.2 124.779 1169.18 124.799 1169.15 124.812L1167.84 125.522ZM1129.57 203.267L1106.91 227.812L1083.7 253.899L1067.7 296.798L1089.82 269.615L1113.91 239.893L1129.57 203.267ZM1115.56 237.691L1130.9 201.825L1154.02 172.085L1138.82 206.783L1115.56 237.691ZM1114.45 240.261C1114.46 240.249 1114.47 240.236 1114.48 240.224L1137.63 209.452L1122.04 244.36L1098.83 270.346L1114.45 240.268C1114.45 240.266 1114.45 240.263 1114.45 240.261ZM1066.39 298.419L1081.04 259.149L1060.9 298.926L1060.9 298.929L1046.26 335.102L1052.78 323.223L1066.38 298.433L1066.39 298.419ZM1253.01 73.0548L1275.25 66.0009L1264.46 72.5192C1264.42 72.5456 1264.38 72.5752 1264.36 72.6113L1250.57 91.9536L1225.37 97.9485L1221.74 98.5345L1239.59 85.0907L1253.01 73.0548ZM1101.42 151.286L1101.41 151.298L1083.23 186.676L1095.53 155.495L1112.77 131.308L1101.45 151.23C1101.44 151.236 1101.44 151.242 1101.44 151.248C1101.43 151.255 1101.43 151.262 1101.42 151.27L1101.42 151.279L1101.42 151.286ZM1100.66 154.21L1080.79 192.858L1066.13 251.13L1086.06 210.523L1100.66 154.21ZM1080.17 192.626C1080.17 192.632 1080.17 192.641 1080.16 192.648L1061.61 233.65L1075.04 189.867L1093.43 159.017L1080.17 192.626ZM1094.94 155.199L1094.94 155.201L1078.74 182.364L1089.41 160.754L1103.47 125.453L1121.96 109.266L1110.78 127.848L1109.2 130.463L1094.95 155.158C1094.95 155.164 1094.95 155.172 1094.94 155.18L1094.94 155.199ZM1123.59 107.839L1123.59 107.837L1144.27 87.5446L1163.73 74.5686L1151.37 90.8347L1130.03 111.823L1116.04 125.601L1116.03 125.604C1116.01 125.628 1115.99 125.651 1115.98 125.677L1115.97 125.68L1098.93 149.586L1109.77 130.792L1111.35 128.183L1123.59 107.839ZM1130.49 112.286L1150.28 92.8195L1137.32 116.663L1117.71 124.874L1130.49 112.286ZM1102.64 150.464L1116.49 126.097L1136.67 117.647L1122.94 138.112L1102.64 150.464ZM1172.72 81.2639L1151.85 91.2996L1138.18 116.449L1159.11 111.921L1172.72 81.2639ZM1195.57 69.1807L1174.18 79.8159L1187.18 56.5474C1187.19 56.5421 1187.19 56.5366 1187.19 56.5309C1187.2 56.5211 1187.21 56.5107 1187.22 56.5L1209.52 35.8999C1209.53 35.8912 1209.54 35.8824 1209.54 35.8731C1209.55 35.8614 1209.56 35.8488 1209.57 35.8342L1222.48 15.2136L1244.64 20.4536C1244.66 20.4568 1244.67 20.4592 1244.69 20.4605C1244.71 20.4618 1244.73 20.4619 1244.75 20.4602L1267.84 18.0985L1267.86 18.0964C1267.87 18.0949 1267.88 18.0931 1267.89 18.0909L1267.9 18.0894L1267.91 18.0863C1267.92 18.0841 1267.92 18.0816 1267.93 18.0788L1291.07 9.0705L1278.57 41.291L1265.71 66.0742L1242 62.9936C1241.97 62.987 1241.94 62.987 1241.91 62.9936L1218.49 66.6381L1195.69 69.1478C1195.65 69.151 1195.61 69.1642 1195.57 69.1807ZM1173.14 80.3378L1185.86 57.5808L1165.4 73.4567L1165.39 73.4622L1152.7 90.1679L1173.14 80.3378ZM1209.04 35.446L1188.2 54.6984L1200.41 32.3397L1221.06 16.2523L1209.04 35.446ZM1244.73 19.8023L1223.24 14.7203L1234.91 8.36169L1234.93 8.35577L1234.94 8.3499L1234.95 8.34465L1234.95 8.34254L1257.44 -3.69284L1280.35 -7.54128L1280.37 -7.54596L1280.39 -7.55114L1303.27 -14.5571L1291.41 8.23402L1267.73 17.4505L1244.73 19.8023ZM1222.17 14.5527L1233.5 8.38358L1213.23 8.40815L1201.18 30.9034L1222.1 14.6047C1222.11 14.5931 1222.13 14.5826 1222.14 14.5731C1222.15 14.5656 1222.16 14.5588 1222.17 14.5527ZM1137.33 69.6334L1124.13 106.38L1143.83 87.0545C1143.83 87.0545 1143.84 87.046 1143.85 87.0362L1143.86 87.0274C1143.86 87.0228 1143.87 87.0184 1143.88 87.015L1164.95 72.9663L1177.5 52.9707L1157.64 64.227C1157.62 64.2402 1157.59 64.25 1157.56 64.2599L1137.33 69.6334ZM1123.06 107.43L1136.3 70.5327L1117.27 88.1916L1103.95 124.164L1123.06 107.43ZM1157.35 63.6317L1137.72 68.8439L1150.55 44.489L1170.9 30.0154L1191 17.0891L1178.21 51.8072L1157.35 63.6317ZM1136.81 69.1584L1149.68 44.7171L1130.75 48.4156L1117.72 86.8646L1136.81 69.1584ZM1064.73 253.988L1079.26 196.247L1060.08 238.617L1060.07 238.653L1060.05 238.703L1045.49 298.376L1064.73 253.988ZM1196.96 201.655L1225.51 201.414L1208.5 225.762L1190.49 257.406L1161.41 255.727L1179.55 221.483L1196.96 201.655ZM1209.06 226.114L1191.26 257.404L1221.39 256.521L1239.19 222.213L1255.98 191.854L1226.36 201.359L1209.06 226.114ZM1190.85 258.073L1220.94 257.191L1202.99 282.67L1172.63 283.76L1190.85 258.073ZM1190.07 258.042L1171.8 283.8L1142.49 286.758L1161.05 256.368L1190.07 258.042ZM1120.55 309.059L1139.95 289.544L1121.94 317.789L1096.06 325.765L1112.61 317.033C1112.62 317.028 1112.63 317.023 1112.64 317.018C1112.64 317.012 1112.65 317.006 1112.66 317C1112.67 316.994 1112.67 316.988 1112.68 316.983L1112.69 316.973L1120.55 309.059ZM1085.09 333.295L1090.95 328.91L1071.96 352.74C1071.95 352.746 1071.95 352.752 1071.94 352.758L1048.6 370.098L1045.44 372.441L1064.58 348.646L1065.72 347.79L1065.72 347.784L1065.73 347.774L1065.75 347.764L1071.22 342.538L1085.09 333.295ZM1093 327.396L1073.23 352.199L1101.58 340.636L1121.11 318.73L1093 327.396ZM1132.36 325.847L1103.11 339.905L1122.33 318.352L1151.22 309.212L1132.36 325.847ZM1164.22 316.066L1133.88 325.377L1152.74 308.74L1182.73 302.289L1164.22 316.066ZM1153.41 307.929L1183.96 301.354L1202.33 283.352L1172.14 284.434L1153.41 307.929ZM1216.76 291.113L1185.33 300.938L1203.34 283.278L1234.64 268.599L1216.76 291.113ZM1204.14 282.176L1235.56 267.439L1252.85 245.507L1221.8 257.12L1204.14 282.176ZM1269.27 262.237L1236.53 267.253L1254.01 245.085L1286.45 238.11L1269.27 262.237ZM1142.06 287.462L1122.91 317.478L1152.39 308.156L1171.24 284.515L1142.06 287.462ZM1239.76 222.519L1222.27 256.24L1253.61 244.518L1271.05 215.576L1287.59 185.621L1256.88 191.581L1239.76 222.519ZM1288.09 184.858L1258 190.696L1273.03 179.456L1302.69 175.4L1288.09 184.858ZM1227.3 200.367L1256.51 190.995L1271.66 179.672L1242.93 184.217L1227.3 200.367ZM75.5493 266.154C75.5624 266.329 75.7071 266.46 75.8782 266.46L75.8815 266.457H75.9045L98.6135 264.786L100.311 264.947C100.492 264.97 100.653 264.832 100.669 264.651C100.686 264.47 100.554 264.309 100.373 264.293L98.6464 264.128H98.5905L75.8519 265.802C75.671 265.816 75.5361 265.974 75.5493 266.154ZM844.802 445.251L819.719 451.475L772.099 440.22L797.189 434.439L844.802 445.251ZM872.125 450.784L847.654 445.228L871.67 439.268L896.085 444.599L872.125 450.784ZM231.529 484.67L186.655 491.354L172.435 482.888L215.925 476.163L258.219 470.802L273.461 479.358L231.529 484.67ZM185.688 491.532L171.429 483.046L125.841 490.998L139.514 500.244L185.688 491.532ZM215.829 475.509L171.545 482.357L157.166 473.614L143.249 464.447L130.542 455.905L172.444 448.234L213.206 440.48L227.5 449.79L242.522 460.852L257.336 470.249L215.829 475.509ZM142.897 464.993L129.625 456.071L85.921 463.493L98.0149 471.878L125.051 490.463L170.57 482.525L156.827 474.17L142.897 464.993ZM172.332 447.59L129.764 455.384L117.685 447.396L159.053 438.82L199.318 430.914L212.445 439.96L172.332 447.59ZM128.829 455.544L116.782 447.58L73.7039 455.44L85.147 462.96L128.829 455.544ZM158.915 438.173L116.911 446.88L104.643 438.439L92.7356 430.91L82.005 424.446L121.766 416.279L160.652 407.756L172.927 413.079L185.795 421.341L198.568 430.385L158.915 438.173ZM92.4001 431.469L81.0643 424.642L39.7376 434.049L49.926 440.311L61.2377 447.31L72.9014 454.913L116.006 447.049L104.291 438.988L92.4001 431.469ZM121.628 415.635L81.1731 423.944L70.9664 417.687L110.234 410.454L148.667 402.622L159.612 407.31L121.628 415.635ZM80.2584 424.149L70.0152 417.869L29.2541 427.826L38.9293 433.554L80.2584 424.149ZM110.1 409.809L70.1116 417.172L59.5832 411.72L49.3174 405.783L39.9763 399.04L77.9009 390.962L114.965 383.207L125.733 390.962L136.95 397.646L136.989 397.665L147.597 402.167L110.1 409.809ZM77.7496 390.32L39.2451 398.522L30.4252 392.978L67.8094 384.291L104.451 375.636L114.241 382.686L77.7496 390.32ZM67.6614 383.65L29.6319 392.486L21.1336 387.666L58.0469 376.624L94.2295 367.048L103.808 375.111L67.6614 383.65ZM104.603 374.922L94.9957 366.833L129.476 356.981L163.316 346.909L196.1 344.439L227.848 346.31L235.857 347.531L207.277 348.534C207.262 348.534 207.245 348.536 207.229 348.539C207.224 348.54 207.218 348.542 207.212 348.543C207.206 348.544 207.201 348.546 207.195 348.547L174.161 358.398L139.91 366.391L104.603 374.922ZM270.372 348.823L239.423 347.413C239.418 347.412 239.412 347.411 239.407 347.41C239.402 347.409 239.398 347.409 239.393 347.409L227.914 345.659L196.113 343.784H196.071L163.231 346.258L163.23 346.258C163.207 346.261 163.184 346.264 163.162 346.271L129.289 356.349L94.391 366.32L84.6242 357.813C84.6193 357.808 84.6119 357.802 84.6058 357.798C84.5995 357.793 84.5946 357.79 84.5946 357.79L75.0327 351.159C74.9406 351.096 74.8222 351.083 74.7202 351.126L39.4298 365.645L30.6935 360.059L22.7375 355.618L56.6352 343.124L65.4742 347.001C65.54 347.031 65.6124 347.037 65.6814 347.021L99.5838 338.89L109.077 342.485C109.129 342.501 109.182 342.511 109.238 342.501L142.482 337.979L174.753 340.274L205.981 340.472L236.18 338.337L265.303 334.5L276.562 338.738L288.186 343.179L299.123 349.952L270.372 348.823ZM270.342 349.478L241.582 348.166L251.231 351.54L282.446 351.833C282.466 351.833 282.486 351.833 282.506 351.84L311.037 357.331L300.249 350.65L270.342 349.478ZM251.067 352.175L239.305 348.064L207.34 349.188L174.325 359.033L140.058 367.033L105.293 375.434L115.113 382.504L150.843 375.154L185.453 368.881L218.799 358.402C218.895 358.372 219 358.385 219.082 358.444L230.924 366.539L263.389 361.789L294.903 358.826C294.919 358.826 294.935 358.826 294.951 358.826C294.964 358.827 294.977 358.828 294.988 358.829L323.327 363.677L312.615 358.304L282.41 352.491L251.172 352.195C251.136 352.195 251.1 352.188 251.067 352.175ZM325.571 364.062L315.099 358.81L341.943 364.276L366.468 369.264L354.971 369.496L325.571 364.062ZM384.091 368.48L369.469 369.202L342.074 363.631L312.863 357.684L301.862 350.87L329.318 354.698L357.402 361.372L366.25 367.355C366.401 367.457 366.605 367.417 366.707 367.266C366.809 367.115 366.77 366.911 366.618 366.809L357.721 360.793C357.688 360.773 357.652 360.757 357.612 360.747L329.44 354.053L300.488 350.019L288.505 342.597C288.499 342.593 288.493 342.59 288.486 342.586C288.483 342.584 288.479 342.583 288.476 342.581C288.467 342.577 288.458 342.573 288.449 342.57L276.796 338.12L266.51 334.247L293.689 328.328L321.115 325.387L347.735 326.012L373.635 332.229C373.668 332.239 373.7 332.239 373.733 332.239L398.73 330.596L410.856 339.182L423.493 358.402C423.539 358.471 423.612 358.52 423.694 358.54L434.865 361.18L384.976 368.013C384.798 368.039 384.673 368.204 384.696 368.384C384.712 368.498 384.785 368.59 384.882 368.636L384.177 368.486C384.169 368.485 384.161 368.483 384.154 368.482C384.145 368.481 384.137 368.481 384.128 368.48C384.116 368.48 384.104 368.48 384.091 368.48ZM369.517 369.859C369.485 369.865 369.453 369.866 369.419 369.862L354.961 370.154C354.951 370.154 354.941 370.154 354.932 370.154C354.919 370.153 354.907 370.151 354.896 370.147L326.549 364.906L338.841 375.874L352.283 386.471L382.009 384.531H382.045L410.899 385.758L438.759 381.956L490.184 374.255L463.506 367.95L411.083 375.45C411.059 375.453 411.035 375.454 411.011 375.452C411 375.451 410.99 375.45 410.979 375.448C410.971 375.447 410.963 375.445 410.954 375.443L397.653 372.019L384.091 369.141L369.517 369.859ZM460.375 348.465L566.915 334.471L518.957 325.667L434.085 335.972H434.032L424.477 335.56L425.825 336.38L430.259 338.511L435.782 340.626L444.11 344.472C444.275 344.547 444.347 344.745 444.271 344.909C444.215 345.031 444.097 345.1 443.972 345.1V345.093C443.926 345.093 443.88 345.083 443.834 345.064L435.525 341.228L429.999 339.113L425.513 336.956L423.095 335.501C423.085 335.5 423.075 335.499 423.066 335.495L400.298 330.893L411.287 338.676C411.32 338.699 411.349 338.729 411.372 338.765L423.97 357.925L436.688 360.931L614.093 336.634L602.554 334.581L582.361 337.288C582.328 337.291 582.292 337.291 582.259 337.288L569.01 334.856L460.464 349.113H460.422L460.418 349.119C460.257 349.119 460.116 348.998 460.093 348.833C460.07 348.652 460.195 348.488 460.375 348.465ZM608.849 329.623L571.162 334.573L582.331 336.623L602.524 333.916C602.538 333.915 602.553 333.914 602.568 333.914C602.587 333.914 602.607 333.914 602.626 333.916L616.243 336.339L653.044 331.299L641.469 329.361L622.315 331.93C622.309 331.93 622.303 331.931 622.296 331.931C622.289 331.932 622.281 331.932 622.273 331.932C622.265 331.932 622.256 331.932 622.248 331.932C622.238 331.931 622.227 331.931 622.217 331.93L608.849 329.623ZM976.104 515.135L1005.68 493.041L1005.69 493.037L1042.75 475.216L1070.48 460.753L1096.62 451.231L1096.76 451.182L1132.37 439.319L1108.67 454.188L1081.32 466.575C1081.3 466.582 1081.27 466.602 1081.27 466.602L1052.35 486.257C1052.33 486.264 1052.31 486.272 1052.29 486.283L1013.16 497.586C1013.11 497.603 1013.06 497.629 1013.02 497.669L982.062 528.068L946.307 533.763L976.104 515.135ZM1042.46 474.627L1009.94 490.266L1033.74 474.752L1060.32 463.654L1069.59 460.482L1042.46 474.627ZM893.38 298.386L882.181 297.08L905.56 293.945L916.691 295.192L893.38 298.386ZM290.883 259.293H290.864L282.233 258.622L277.878 258.046C277.697 258.023 277.572 257.856 277.595 257.678C277.618 257.497 277.786 257.372 277.963 257.395L282.298 257.971L290.91 258.638C291.091 258.652 291.226 258.809 291.212 258.99C291.199 259.161 291.055 259.293 290.883 259.293ZM0.0310623 302.932C0.0738226 303.073 0.202104 303.165 0.343542 303.165L0.340252 303.168C0.373145 303.168 0.406037 303.165 0.43893 303.155L19.2304 297.363L47.1727 289.765L74.3682 282.581L100.893 279.134L126.815 277.831L152.067 276.262C152.251 276.252 152.386 276.094 152.376 275.914C152.366 275.729 152.205 275.598 152.028 275.604L126.779 277.173L100.837 278.479L74.2663 281.93C74.2498 281.93 74.2235 281.936 74.2235 281.936L47.0049 289.127L19.0495 296.728L0.248153 302.52C0.0738226 302.573 -0.0215658 302.757 0.0310623 302.932ZM1166.44 71.8158L1186.69 56.0993L1198.91 33.7086L1178.71 52.2756L1178.71 52.2772L1166.44 71.8158ZM1199.9 31.9109L1179.25 50.8804L1191.91 16.5336L1212.33 8.70229L1199.9 31.9109ZM1072.58 195.621L1054.9 237.058L1041.63 287.653L1059.43 238.494L1059.43 238.472C1059.43 238.469 1059.43 238.466 1059.43 238.463L1059.44 238.454C1059.44 238.445 1059.44 238.436 1059.45 238.427L1059.45 238.416L1059.46 238.405L1072.58 195.621ZM115.839 383.027L126.092 390.409L137.265 397.067L148.74 401.935L185.706 394.754L221.388 386.808L255.837 381.739C255.846 381.739 255.855 381.738 255.865 381.737C255.874 381.736 255.883 381.736 255.892 381.736L289.14 382.476L321.234 384.499L351.141 386.413L338.417 376.381L325.297 364.676L294.933 359.48L263.477 362.437L230.904 367.204C230.822 367.217 230.739 367.197 230.67 367.151L218.855 359.073L185.644 369.509L185.604 369.519L150.982 375.795L115.839 383.027ZM465.299 367.693L491.945 373.992L672.309 346.983L644.564 342.047L465.299 367.693ZM674.341 347.345L493.67 374.399L506.759 377.493L687.794 349.738L674.341 347.345ZM505.014 377.761L491.908 374.663L438.857 382.607L410.964 386.416C410.96 386.416 410.955 386.416 410.951 386.417L410.945 386.417C410.931 386.418 410.918 386.418 410.905 386.416L382.042 385.189L353.329 387.063L366.187 394.112L396.113 388.541C396.124 388.539 396.135 388.539 396.146 388.538L396.148 388.538L396.149 388.538C396.16 388.537 396.171 388.536 396.182 388.534L425.233 389.304L453.277 385.693L505.014 377.761ZM367.958 394.45L396.199 389.196L425.24 389.965H425.289L453.366 386.35L506.737 378.168L552.182 388.91L441.331 407.217L410.774 411.958L395.501 397.29C395.442 397.235 395.367 397.198 395.284 397.198L380.509 396.715L367.958 394.45ZM366.117 394.787H366.115L334.927 394.202L302.603 394.041L269.056 393.478L234.275 395.004L198.192 399.527L161.756 407.514L173.214 412.483C173.214 412.483 173.247 412.5 173.26 412.51L186.163 420.792L199.459 430.206L238.048 421.588L275.296 415.427L275.308 415.426L275.321 415.425L275.334 415.424L275.338 415.424L275.342 415.424L311.145 414.737L345.518 408.974L378.661 405.464C378.693 405.461 378.73 405.464 378.762 405.467L409.614 411.758L395.13 397.85L380.456 397.369C380.456 397.369 380.424 397.369 380.41 397.366L366.117 394.787ZM160.724 407.066L198.08 398.879L234.219 394.35L269.046 392.82L302.61 393.383L334.933 393.544L364.804 394.105L352.081 387.132L321.197 385.156L289.117 383.134L255.909 382.393L221.513 387.452L185.848 395.396L149.82 402.397L160.724 407.066ZM508.482 377.9L689.822 350.098L753.9 361.498L596.453 388.187L579.713 384.387C579.698 384.383 579.682 384.381 579.667 384.379C579.641 384.378 579.615 384.379 579.588 384.383L553.876 388.63L508.482 377.9ZM594.74 388.477L579.634 385.048L555.55 389.025L570.567 392.575L594.74 388.477ZM572.207 392.963L596.419 388.858L648.344 400.646L623.817 405.161L572.207 392.963ZM568.891 392.859L553.856 389.305L441.436 407.872L412.105 412.423L426.527 416.992L568.891 392.859ZM427.949 417.416L570.531 393.247L622.2 405.459L477.382 432.12L427.949 417.416ZM425.109 417.231L410.619 412.64L410.602 412.638L378.687 406.129L345.617 409.628L311.241 415.394C311.241 415.394 311.208 415.398 311.191 415.398L275.388 416.085L238.183 422.239L200.203 430.721L213.357 439.781L252.376 431.071L290.028 425.933L326.204 423.595L360.915 420.098H360.971L394.367 422.417L425.109 417.231ZM214.117 440.281L252.485 431.716L290.088 426.585L326.25 424.246L360.945 420.753L394.35 423.075C394.377 423.078 394.403 423.075 394.429 423.072L426.482 417.664L475.961 432.382L374.7 451.024L337.535 453.783C337.519 453.783 337.489 453.79 337.489 453.79L298.735 462.372L258.363 470.112L242.897 460.303L227.878 449.244L214.117 440.281ZM598.131 388.568L755.817 361.839L808.35 371.184L649.981 400.34L598.131 388.568ZM812.049 371.173L829.357 374.252L847.54 370.806L830.252 367.822L812.049 371.173ZM851.255 370.778L869.088 373.854L886.619 370.431L868.819 367.447L851.255 370.778ZM890.328 370.383L929.496 376.946L964.414 369.684L925.473 363.52L890.328 370.383ZM968.077 369.6L987.495 372.674L1003.13 369.312L983.788 366.332L968.077 369.6ZM966.227 369.307L927.346 363.151L943.14 360.066L981.925 366.042L966.227 369.307ZM923.583 363.217L905.902 360.418L870.674 367.092L888.465 370.075L923.583 363.217ZM866.948 367.131L849.688 364.24L832.109 367.476L849.392 370.46L866.948 367.131ZM828.362 367.5L810.198 370.844L757.744 361.512L775.863 358.441L828.362 367.5ZM676.387 347.038L694.269 344.361L707.724 346.682L689.817 349.428L676.387 347.038ZM692.203 344.004L674.355 346.677L646.66 341.75L664.415 339.209L692.203 344.004ZM696.363 344.047L709.795 346.365L745.975 340.818L732.538 338.63L696.363 344.047ZM748.081 340.495L732.588 337.972C732.555 337.969 732.519 337.969 732.486 337.972L694.298 343.69L664.477 338.544C664.463 338.543 664.448 338.542 664.434 338.542C664.414 338.542 664.394 338.542 664.375 338.544L644.567 341.38L618.356 336.715L655.228 331.665L683.69 336.433C683.722 336.436 683.759 336.436 683.792 336.433L702.56 333.749L717.316 336.15C717.348 336.153 717.381 336.153 717.414 336.15L735.712 333.472L750.843 335.867C750.876 335.873 750.909 335.87 750.942 335.867L768.773 333.196L784.281 335.587C784.314 335.594 784.347 335.594 784.38 335.587L801.744 332.926L817.625 335.311C817.658 335.318 817.69 335.318 817.723 335.311L834.627 332.656L867.572 337.475C867.589 337.479 867.607 337.48 867.624 337.48C867.641 337.48 867.658 337.478 867.674 337.475L884.091 334.765L901.113 337.192C901.149 337.199 901.182 337.199 901.215 337.192L917.164 334.489L934.561 336.91C934.594 336.916 934.63 336.916 934.663 336.91L950.146 334.212L984.144 338.832L970.789 341.29L952.527 338.748C952.518 338.747 952.51 338.745 952.501 338.745C952.488 338.743 952.475 338.743 952.463 338.744C952.45 338.744 952.437 338.746 952.425 338.748L936.567 341.587L918.7 339.038C918.667 339.031 918.631 339.031 918.598 339.038L902.254 341.883L884.781 339.327C884.766 339.324 884.75 339.322 884.734 339.322C884.716 339.322 884.697 339.324 884.679 339.327L867.842 342.182L850.764 339.62C850.749 339.617 850.732 339.615 850.716 339.615L850.704 339.615C850.699 339.615 850.695 339.616 850.691 339.616C850.681 339.617 850.671 339.618 850.662 339.62L833.328 342.482L800.327 337.396C800.31 337.393 800.292 337.391 800.275 337.391C800.258 337.391 800.241 337.393 800.225 337.396L782.387 340.199L766.506 337.686C766.47 337.679 766.437 337.683 766.404 337.686L748.081 340.495ZM750.205 340.841L763.997 343.087L780.255 340.535L766.451 338.35L750.205 340.841ZM784.508 340.537L815.447 345.435L831.221 342.83L800.271 338.061L784.508 340.537ZM835.428 342.808L850.471 345.126L865.739 342.539L850.715 340.284L835.428 342.808ZM869.941 342.5L885.393 344.82L900.169 342.249L884.735 339.992L869.941 342.5ZM904.343 342.194L920.217 344.514L934.486 341.96L918.661 339.702L904.343 342.194ZM938.663 341.888L954.935 344.208L968.718 341.671L952.491 339.413L938.663 341.888ZM972.863 341.579L989.557 343.903L1002.87 341.381L986.222 339.12L972.863 341.579ZM616.206 337.01L642.455 341.68L463.534 367.276L438.472 361.352L616.206 337.01ZM397.602 330.009L386.778 324.532L361.849 322.21L336.088 317.276L309.662 317.246L282.463 323.164L255.237 327.545L265.418 333.816L293.568 327.683C293.568 327.683 293.591 327.68 293.604 327.677L321.069 324.729H321.112L347.788 325.354C347.803 325.354 347.819 325.356 347.834 325.359C347.842 325.36 347.849 325.362 347.857 325.364L373.74 331.578L397.602 330.009ZM264.389 333.961L254.238 327.71L225.385 331.838L195.446 334.229C195.363 334.235 195.281 334.209 195.215 334.16L185.015 326.084L154.485 326.052L122.905 328.64L90.3409 334.502L57.6506 342.852L65.6354 346.356L99.5279 338.229C99.5937 338.212 99.6594 338.219 99.7219 338.242L109.231 341.843L142.426 337.324C142.449 337.324 142.472 337.321 142.495 337.324L174.779 339.62L205.962 339.817L236.114 337.686L264.389 333.961ZM385.03 368.667H385.062L436.649 361.602L461.741 367.533L411.043 374.785L397.794 371.374L385.03 368.667ZM494.152 437.793L315.398 471.674L274.562 479.212L259.245 470.614L298.87 463.016L337.611 454.438L374.77 451.678C374.783 451.678 374.806 451.675 374.806 451.675L477.354 432.796L494.152 437.793ZM495.558 437.526L641.134 409.934L623.797 405.836L478.776 432.534L495.558 437.526ZM870.401 407.031L890.739 402.508L807.073 386.643L715.624 404.503L734.311 408.586L758.77 403.658C758.813 403.649 758.859 403.649 758.902 403.658L779.844 408.066L826.285 398.406C826.328 398.396 826.374 398.396 826.417 398.406L870.401 407.031ZM712.36 404.468L694.314 400.527L670.603 405.02L688.604 409.109L712.36 404.468ZM667.357 404.964L642.73 409.632L625.414 405.539L649.975 401.017L667.357 404.964ZM1051.29 487.265L1021.54 516.694L983.395 527.692L1013.43 498.202L1051.29 487.265ZM773.916 358.105L709.785 347.038L691.845 349.788L755.827 361.171L773.916 358.105ZM777.835 358.106L830.246 367.151L849.629 363.582C849.669 363.576 849.705 363.576 849.744 363.582L868.809 366.776L905.836 359.76C905.872 359.753 905.912 359.753 905.948 359.76L925.46 362.849L943.067 359.411C943.103 359.405 943.143 359.405 943.179 359.411L983.762 365.664L998.88 362.521L940.824 353.81L923.674 357.06C923.65 357.064 923.625 357.065 923.601 357.064L923.591 357.063L923.578 357.062C923.573 357.061 923.567 357.061 923.562 357.06L904.612 354.139L886.9 357.398C886.877 357.403 886.853 357.404 886.829 357.403C886.815 357.402 886.801 357.401 886.788 357.398L868.293 354.471L850.014 357.744C849.999 357.746 849.984 357.748 849.969 357.749C849.947 357.749 849.925 357.748 849.902 357.744L831.864 354.806L813.017 358.089C813.012 358.09 813.007 358.091 813.002 358.091L812.994 358.092L812.988 358.093C812.981 358.094 812.975 358.094 812.968 358.094C812.947 358.094 812.925 358.093 812.905 358.089L795.324 355.142L777.835 358.106ZM1155.65 170.003L1139.74 206.295L1164.35 194.985L1190.37 185.721L1190.84 184.574L1206.09 147.149L1180.87 151.751L1155.65 170.003ZM1206.42 146.42L1221.59 124.246C1221.62 124.21 1221.65 124.18 1221.68 124.157L1235.59 114.96L1211.08 110.158L1186.43 116.266L1171.5 132.426L1156.14 168.829L1180.54 151.172C1180.58 151.142 1180.63 151.123 1180.68 151.116L1206.42 146.42ZM1258.86 170.951L1287.21 171.391L1272.82 178.819L1243.91 183.394L1258.86 170.951ZM1247.5 174.884L1257.15 171.517L1242.63 183.598L1213.53 188.939C1213.51 188.942 1213.48 188.952 1213.48 188.952L1185.18 198.922C1185.14 198.935 1185.1 198.958 1185.07 198.988L1160.64 221.196L1174.68 203.922L1190.79 186.268L1198.95 184.216L1202.12 183.634L1229.76 181.061C1229.79 181.058 1229.82 181.051 1229.84 181.042L1245.09 175.516L1247.5 174.884ZM1073.41 300.728L1095.24 275.437L1079.73 301.816L1057.74 329.692L1073.41 300.728ZM1097.61 272.684L1082.2 298.91L1104.88 272.19C1104.89 272.174 1104.91 272.157 1104.92 272.144L1130.71 251.902L1157.44 224.1L1157.45 224.091L1174.19 203.497L1175.07 202.53L1189.5 186.718L1164.6 195.583L1139.35 207.188L1122.61 244.666C1122.6 244.695 1122.58 244.725 1122.56 244.751L1097.61 272.684ZM1288.36 170.753L1261.36 170.336L1274.05 167.279L1274.06 167.277L1274.07 167.275L1274.07 167.274C1274.08 167.27 1274.09 167.267 1274.1 167.263L1302.45 155.085L1288.36 170.753ZM253.333 327.169L243.489 321.341L214.846 324.486L186.022 326.038L195.525 333.558L225.312 331.18L253.333 327.169ZM363.777 312.536L370.651 315.502L356.543 311.583L363.777 312.536ZM0.0245434 307.3C0.0640145 307.448 0.198874 307.543 0.343601 307.543L0.333733 307.546C0.363337 307.546 0.389651 307.543 0.419254 307.536L26.036 300.718L54.2578 293.653L81.6704 285.466L108.405 281.367L133.799 279.104C133.979 279.091 134.114 278.93 134.098 278.749C134.085 278.568 133.924 278.433 133.743 278.45L108.33 280.713L81.552 284.818C81.5466 284.819 81.5384 284.821 81.5305 284.823L81.5093 284.827L54.09 293.014L25.8781 300.076L0.258081 306.898C0.08375 306.944 -0.0215061 307.125 0.0245434 307.3ZM349.235 278.259H349.192L327.414 275.384L305.1 273.134C305.083 273.134 305.067 273.131 305.05 273.124L282.131 267.148L258.981 263.651C258.8 263.625 258.678 263.457 258.705 263.276C258.731 263.095 258.899 262.977 259.08 263L282.249 266.5L282.256 266.501L282.263 266.502L282.269 266.503C282.274 266.504 282.279 266.505 282.282 266.506L305.195 272.48L327.493 274.726L349.245 277.598L358.932 276.594H358.997L361.007 276.789L363.083 276.575H363.171L365.563 276.973C365.74 277.002 365.862 277.173 365.832 277.351C365.803 277.529 365.632 277.654 365.454 277.621L363.106 277.229L361.04 277.443H360.974L358.964 277.249L349.274 278.256H349.241L349.235 278.259ZM32.4171 271.476C32.4468 271.634 32.5849 271.743 32.7395 271.743V271.749C32.7519 271.749 32.7633 271.748 32.7748 271.747L32.7846 271.746L32.7976 271.744L32.8053 271.743L35.3512 271.236L44.1532 270.345L46.7451 270.447C46.7667 270.45 46.7854 270.447 46.8066 270.444L46.8109 270.444L48.7318 270.131C48.9128 270.101 49.0345 269.93 49.0049 269.753C48.9753 269.572 48.8075 269.45 48.6266 269.48L46.7386 269.786L44.1565 269.684H44.1104L35.2525 270.582L32.677 271.092C32.4994 271.124 32.381 271.299 32.4171 271.476ZM991.626 134.719L1006.15 113.337L993.448 173.73L978.924 205.248L991.626 134.719ZM1021.93 103.038L1007.1 111.998L994.554 171.635L1009.37 143.544L1021.93 103.038ZM997.365 215.8L1010 143.777L1025.06 119.794L1012.41 170.335L1012.4 170.358L997.365 215.8ZM1022.81 102.437L1010.74 141.353L1025.58 117.726L1037.66 84.5618L1022.81 102.437ZM1027.23 115.132L1038.91 83.0717L1053.85 67.1608L1042.16 91.6528C1042.16 91.6592 1042.16 91.6655 1042.15 91.6718L1027.23 115.132ZM1026.2 117.988L1041.48 93.9551L1029.09 135.909L1013.82 167.421L1026.2 117.988ZM1042.75 91.9462L1030.48 133.547L1046.11 106.88L1057.9 63.5706L1042.75 91.9462ZM1033.36 159.188L1046.73 107.116L1062.91 81.3252L1050.18 128.032L1036.59 177.831L1036.59 177.841L1020.45 219.917L1033.36 159.188ZM1047.32 104.954L1063.5 79.1688L1075.9 39.0696L1059.75 60.0957L1059.73 60.1286C1059.7 60.1845 1059.66 60.2305 1059.61 60.2634L1059.04 60.6229L1059.16 61.3127C1059.17 61.3621 1059.17 61.4114 1059.15 61.4575L1047.32 104.954ZM1050.81 128.203L1064.11 79.4255L1080.74 57.2643L1067.99 102.297L1054.49 147.189L1037.87 175.63L1050.81 128.203ZM1064.67 77.5956L1081.24 55.5273L1093.57 17.4584L1077.05 37.5733L1064.67 77.5956ZM1136.78 -0.594429L1119.03 17.8647L1131.02 -12.1889L1148.67 -24.399L1136.78 -0.594429ZM1058.23 61.5627C1058.28 61.4591 1058.39 61.3976 1058.49 61.3897L1058.5 61.3522L1058.47 61.1484L1055.34 65.5558L1055.33 65.5723L1048.97 78.916L1058.23 61.5627ZM1051.24 58.0509L1039.89 81.0672L1054.79 65.2046L1059.37 57.2714L1060.97 53.2771L1066.09 43.4141L1051.24 58.0498L1051.24 58.0509ZM1069.89 39.1136L1067.16 41.4519C1067.14 41.4641 1067.12 41.4784 1067.1 41.495L1052.69 55.6936L1063.28 38.5281C1063.29 38.5149 1063.3 38.4853 1063.3 38.4853L1075.13 10.6911L1086.35 6.84929C1086.41 6.82626 1086.47 6.7835 1086.51 6.7243L1097.71 -9.60685L1108.47 -12.4257C1108.65 -12.4718 1108.75 -12.6527 1108.7 -12.827C1108.66 -13.0014 1108.48 -13.1066 1108.3 -13.0606L1097.43 -10.2121C1097.35 -10.1923 1097.29 -10.1463 1097.24 -10.0805L1086.03 6.2638L1074.78 10.1155C1074.69 10.1451 1074.62 10.2109 1074.58 10.2964L1062.7 38.2025L1050.74 57.603L1035.6 63.6125L1047.58 31.101L1059.46 5.68487L1070.97 -7.98528L1071 -8.02474L1082.28 -26.4775L1093.02 -28.0563L1103.5 -27.7063L1113.86 -14.1L1114.95 -11.2844L1106.51 -2.13042L1092.36 9.49381L1089.02 12.237C1088.99 12.2634 1088.96 12.3028 1088.94 12.3423L1088.93 12.3635L1072.44 34.9639L1072.43 34.9698L1072.43 34.9757L1071.97 35.4822C1071.95 35.5053 1071.93 35.525 1071.92 35.5513L1071.65 36.0621L1069.89 39.1136ZM1050.29 58.4913L1035.3 64.4384L1023.36 100.749L1038.34 82.728L1050.29 58.4913ZM1022.22 102.089L1034.56 64.5747L1019.72 66.1971L1007.34 111.081L1022.22 102.089ZM1046.96 30.851L1034.79 63.8913L1019.97 65.5128L1032.02 35.0513L1044.04 1.88247L1055.6 -12.2515C1055.61 -12.259 1055.61 -12.2668 1055.62 -12.2747L1066.95 -24.7769L1078 -39.5358L1088.46 -39.8845L1102.69 -28.3932L1093.01 -28.7142C1093 -28.7142 1092.99 -28.7133 1092.98 -28.7125C1092.97 -28.7117 1092.96 -28.7109 1092.95 -28.7109L1082.03 -27.1057C1081.93 -27.0893 1081.84 -27.0334 1081.79 -26.9511L1070.45 -8.38657L1058.93 5.29674C1058.92 5.30798 1058.91 5.31922 1058.9 5.33086L1058.9 5.34409L1058.89 5.35733L1058.88 5.3691L1046.96 30.851ZM1032.53 -30.8972L1031.16 -27.7175L1021.81 -5.91963L1010.27 17.1962L995.912 29.1372C995.866 29.1767 995.833 29.2261 995.814 29.282L983.913 63.2205L969.842 74.7888C969.836 74.7933 969.831 74.798 969.826 74.8028C969.821 74.8079 969.815 74.8132 969.81 74.8187L969.804 74.8258L969.798 74.8329L969.789 74.8442C969.768 74.8714 969.751 74.9014 969.74 74.9335L957.606 109.467L944.717 117.667L956.478 88.5346L968.424 55.7572L978.65 31.67L989.062 8.07754L1002.48 -0.153587L1002.49 -0.159401C1002.49 -0.163231 1002.5 -0.167244 1002.51 -0.17144C1002.51 -0.177223 1002.52 -0.183334 1002.53 -0.189758C1002.53 -0.19545 1002.54 -0.201378 1002.55 -0.207542C1002.56 -0.223251 1002.57 -0.24044 1002.59 -0.25885L1013.52 -17.8484L1027.13 -26.188L1027.97 -26.3952C1028.03 -26.4117 1028.08 -26.4413 1028.12 -26.4841L1032.53 -30.8972ZM1012.58 -17.58L1000.08 -14.6066L989.592 6.97997L1002.07 -0.673286L1012.58 -17.58ZM988.11 8.61267L978.048 31.4101L967.812 55.5171L955.862 88.2978L943.747 118.309L931.282 132.985L942.853 100.698L954.787 71.4141L966.474 43.6494L976.976 32.7094C977.101 32.5811 977.098 32.3706 976.966 32.2456C976.838 32.1206 976.627 32.1239 976.502 32.2555L965.957 43.2416C965.931 43.2679 965.908 43.3041 965.891 43.3403L954.182 71.1641L942.242 100.465L930.081 134.393L916.773 144.82L904.587 156.139L916.411 120.197L928.387 87.8011L940.048 66.0986L951.471 48.7313L964.533 35.9855C964.556 35.9657 964.576 35.9394 964.592 35.9098L975.795 15.4737L988.11 8.61267ZM929.858 135.399L917.197 145.317L904.179 157.408L891.525 226.558L878.893 285.204L891.301 281.423L904.468 273.404L917.365 200.211L929.858 135.399ZM903.234 158.907L891.199 178.496L891.188 178.511C891.183 178.518 891.179 178.524 891.176 178.529L878.55 194.328L866.062 241.728L853.481 284.475L865.608 285.808L877.496 285.63L878.172 285.424C878.173 285.415 878.175 285.406 878.177 285.397L890.877 226.427L903.234 158.907ZM877.662 195.129L866.125 205.221L853.715 242.403L841.158 283.121L852.817 284.402L865.431 241.557L877.662 195.129ZM1089.5 12.6922L1089.49 12.7089L1078.35 34.9613L1094.14 15.7471L1094.14 15.7389L1094.15 15.7303L1105.14 -0.153236L1089.5 12.6922ZM1072.27 36.3144L1087.15 15.9246L1076.46 37.2646L1059.21 59.7174C1059.2 59.7273 1059.19 59.7503 1059.19 59.7503L1059.06 59.8332L1059.97 57.542L1060.9 55.9381L1070.57 39.3668L1071.17 38.3932L1072.19 36.4493L1072.27 36.3144ZM996.406 29.5846L1009.46 18.724L998.458 39.528L985.516 60.6388L996.406 29.5846ZM970.332 75.2362L983.418 64.478L971.802 93.4192L958.747 108.212L970.332 75.2362ZM1061.85 53.0062L1069.03 40.7187L1067.6 41.939L1061.85 53.0062ZM1071.5 340.376C1071.55 340.409 1071.61 340.422 1071.67 340.422V340.426C1071.78 340.426 1071.89 340.367 1071.95 340.265L1076.67 332.341L1095.94 299.942L1113.5 283.005L1134.2 266.181C1134.34 266.066 1134.36 265.858 1134.25 265.717C1134.13 265.575 1133.92 265.552 1133.78 265.668L1113.07 282.512L1095.45 299.498C1095.43 299.517 1095.41 299.54 1095.39 299.567L1076.1 332.002L1071.38 339.926C1071.29 340.08 1071.34 340.284 1071.5 340.376ZM1068.63 282.201L1077.12 263.809L1095.02 217.557L1083.11 253.599L1068.63 282.201ZM1128.58 166.502L1128.74 166.342L1128.96 166.104L1128.58 166.502Z" fill="url(#paint0_radial_63_10)" fill-opacity="0.8"/>
<defs>
<radialGradient id="paint0_radial_63_10" cx="0" cy="0" r="1" gradientUnits="userSpaceOnUse" gradientTransform="translate(720.191 167.384) rotate(99.6345) scale(389.102 795.283)">
<stop stop-color="#A3A1F4"/>
<stop offset="1" stop-color="#42C0C8" stop-opacity="0"/>
</radialGradient>
</defs>
</svg>
