<svg width="161" height="161" viewBox="0 0 161 161" fill="none" xmlns="http://www.w3.org/2000/svg">
<path opacity="0.977" fill-rule="evenodd" clip-rule="evenodd" d="M91.3496 16.1937C86.8117 16.6094 82.3044 16.6094 77.8281 16.1937C79.279 9.81641 83.2619 6.35742 89.7773 5.81675C92.5703 5.52246 94.2473 6.72785 94.8086 9.43296C94.2769 12.0165 93.1238 14.27 91.3496 16.1937Z" fill="#DEDEFF"/>
<path opacity="0.989" fill-rule="evenodd" clip-rule="evenodd" d="M77.828 16.1942C82.3042 16.61 86.8116 16.61 91.3495 16.1942C92.8425 16.1234 94.3101 16.2806 95.7518 16.6659C97.4625 18.3772 97.3577 19.9494 95.4374 21.3827C94.0786 21.5396 92.7161 21.592 91.3495 21.5399C86.7374 21.5399 82.1256 21.5399 77.5135 21.5399C75.0083 21.2202 74.2222 19.8576 75.1551 17.452C75.8705 16.6818 76.7614 16.2626 77.828 16.1942Z" fill="#4F46E5"/>
<path opacity="0.963" fill-rule="evenodd" clip-rule="evenodd" d="M102.67 16.1934C105.614 16.6957 108.077 18.0583 110.06 20.2812C111.576 21.9747 111.523 23.5993 109.902 25.1553C108.959 25.3649 108.016 25.3649 107.072 25.1553C106.129 24.2119 105.186 23.2686 104.242 22.3252C103.111 21.9135 102.01 21.4418 100.94 20.9102C99.8867 18.6459 100.463 17.0736 102.67 16.1934Z" fill="#4F46E5"/>
<path opacity="0.975" fill-rule="evenodd" clip-rule="evenodd" d="M77.5117 21.541C82.1238 21.541 86.7356 21.541 91.3477 21.541C92.9523 23.5448 94.1054 25.7984 94.8066 28.3018C94.3928 31.1749 92.7158 32.4852 89.7754 32.2324C83.3203 31.366 79.2324 27.8022 77.5117 21.541Z" fill="#DEDEFF"/>
<path opacity="0.963" fill-rule="evenodd" clip-rule="evenodd" d="M110.844 27.5137C112.014 27.6028 112.905 28.1269 113.517 29.0859C114.056 32.4125 113.532 35.5571 111.944 38.5195C110.396 39.8141 108.929 39.7091 107.542 38.2051C107.353 37.6903 107.196 37.1664 107.07 36.6328C107.995 34.1967 108.572 31.6811 108.8 29.0859C109.291 28.2926 109.973 27.7685 110.844 27.5137Z" fill="#4F46E5"/>
<path opacity="0.961" fill-rule="evenodd" clip-rule="evenodd" d="M102.985 40.0925C106.299 39.6828 107.505 41.0453 106.601 44.1804C104.214 46.0087 101.541 47.2665 98.5824 47.9539C96.2041 47.5649 95.418 46.202 96.224 43.866C98.5085 42.6355 100.762 41.3777 102.985 40.0925Z" fill="#4F46E5"/>
<path opacity="0.959" fill-rule="evenodd" clip-rule="evenodd" d="M74.3679 43.867C77.8546 43.5245 79.0602 44.9921 77.9841 48.2693C77.7002 48.647 77.3335 48.9092 76.8835 49.0554C75.0968 49.2919 73.3148 49.5538 71.5378 49.8416C68.8741 49.1366 68.193 47.5643 69.4939 45.1248C71.0834 44.4459 72.7082 44.0267 74.3679 43.867Z" fill="#4F46E5"/>
<path opacity="0.96" fill-rule="evenodd" clip-rule="evenodd" d="M84.1166 44.1807C86.8438 44.1285 89.5692 44.1807 92.2924 44.3379C93.9693 45.9102 93.9693 47.4825 92.2924 49.0547C89.584 49.528 86.8586 49.633 84.1166 49.3692C82.4695 48.3397 82.1028 46.9246 83.016 45.1241C83.376 44.7668 83.743 44.4524 84.1166 44.1807Z" fill="#4F46E5"/>
<path opacity="0.951" fill-rule="evenodd" clip-rule="evenodd" d="M62.7338 47.3262C65.89 47.6255 66.7808 49.1978 65.4066 52.043C64.4309 52.6099 63.5397 53.2913 62.7338 54.0869C59.4207 55.3438 58.0057 54.2432 58.4887 50.7852C59.6738 49.3368 61.0889 48.1837 62.7338 47.3262Z" fill="#4F46E5"/>
<path opacity="0.991" fill-rule="evenodd" clip-rule="evenodd" d="M80.3424 72.4816C80.3424 72.6914 80.3424 72.9008 80.3424 73.1105C75.7662 74.4614 71.2591 75.929 66.8209 77.5129C65.3763 77.2478 64.2232 77.6673 63.3619 78.7707C52.2501 82.0904 41.2442 85.6544 30.3444 89.4621C30.1347 89.4621 29.9251 89.4621 29.7154 89.4621C25.9976 83.9158 22.2766 78.3603 18.5524 72.7961C17.775 71.1471 18.1418 69.8368 19.6529 68.8654C31.1595 65.0473 42.6895 61.3264 54.2428 57.7023C53.7117 59.4501 53.5545 61.2321 53.7711 63.048C54.5701 64.4848 55.7757 64.9565 57.3873 64.4631C57.7543 64.0961 58.1209 63.7295 58.4879 63.3625C58.5898 61.711 58.8517 60.0865 59.274 58.4885C59.0354 57.7762 58.7209 57.0948 58.3307 56.4445C60.4652 55.5751 62.6664 54.7889 64.9342 54.0861C65.9197 53.8377 66.863 53.9424 67.7643 54.4006C71.9138 60.484 76.1067 66.5111 80.3424 72.4816Z" fill="#F1F1FF"/>
<path opacity="0.996" fill-rule="evenodd" clip-rule="evenodd" d="M130.656 116.19C119.573 119.446 108.462 122.958 97.3242 126.724C96.4856 126.934 95.6472 126.934 94.8086 126.724C89.8946 119.986 85.1778 113.121 80.6582 106.128C80.6931 105.934 80.7978 105.777 80.9727 105.656C97.4667 100.35 113.923 94.9521 130.342 89.4618C113.718 83.8853 97.0516 78.4349 80.3438 73.1102C80.3438 72.9005 80.3438 72.6911 80.3438 72.4813C84.4222 66.6677 88.4579 60.7978 92.4502 54.8719C93.0329 54.2141 93.7665 53.8997 94.6514 53.9286C110.403 58.7598 126.073 63.8436 141.662 69.1796C142.637 70.2808 142.794 71.4861 142.134 72.7958C138.413 78.3512 134.692 83.9063 130.971 89.4618C135.138 95.8053 139.383 102.094 143.706 108.329C143.916 109.272 143.916 110.216 143.706 111.159C143.324 111.646 142.853 112.013 142.291 112.26C138.392 113.542 134.514 114.852 130.656 116.19Z" fill="#F1F1FF"/>
<path opacity="0.994" fill-rule="evenodd" clip-rule="evenodd" d="M58.3315 56.4442C58.7217 57.0945 59.0362 57.7759 59.2748 58.4882C58.8525 60.0862 58.5906 61.7107 58.4887 63.3622C58.1217 63.7292 57.7551 64.0958 57.3881 64.4628C55.7765 64.9562 54.5709 64.4845 53.7719 63.0477C53.5552 61.2318 53.7125 59.4498 54.2436 57.702C54.408 57.0077 54.8272 56.5361 55.5014 56.287C56.4737 56.0556 57.417 56.1081 58.3315 56.4442Z" fill="#4F46E5"/>
<path fill-rule="evenodd" clip-rule="evenodd" d="M57.3887 68.0782C58.1713 68.0146 58.9053 68.1719 59.5898 68.5498C61.5168 70.451 62.5127 72.7047 62.5771 75.3106C61.7259 76.4222 60.6253 76.7891 59.2754 76.4112C57.6572 74.7424 56.5041 72.8031 55.8164 70.5938C55.8705 69.4325 56.3947 68.5942 57.3887 68.0782Z" fill="#4F46E5"/>
<path opacity="0.999" fill-rule="evenodd" clip-rule="evenodd" d="M80.3418 73.1113C97.0496 78.436 113.716 83.8864 130.34 89.4629C113.921 94.9532 97.4647 100.351 80.9707 105.657C80.7959 105.778 80.6912 105.935 80.6562 106.129C80.4465 106.129 80.2371 106.129 80.0273 106.129C80.0273 106.024 80.0273 105.919 80.0273 105.814C80.3412 94.9671 80.4462 84.0659 80.3418 73.1113Z" fill="#DFDEFF"/>
<path fill-rule="evenodd" clip-rule="evenodd" d="M80.3418 73.1113C80.4462 84.0659 80.3412 94.9671 80.0273 105.814C63.4214 100.419 46.8601 94.9683 30.3438 89.4629C41.2436 85.6552 52.2495 82.0912 63.3613 78.7715C62.9981 80.4554 63.5223 81.7657 64.9336 82.7021C65.8229 83.409 66.7662 84.0379 67.7637 84.5889C70.5412 85.1653 71.6418 84.0647 71.0654 81.2871C69.6828 79.9931 68.2677 78.7353 66.8203 77.5137C71.2585 75.9298 75.7656 74.4622 80.3418 73.1113Z" fill="#A3A1F4"/>
<path fill-rule="evenodd" clip-rule="evenodd" d="M66.8224 77.5116C68.2699 78.7332 69.6849 79.991 71.0675 81.285C71.6439 84.0626 70.5434 85.1631 67.7658 84.5868C66.7683 84.0358 65.825 83.4069 64.9357 82.7C63.5244 81.7636 63.0002 80.4533 63.3634 78.7694C64.2247 77.666 65.3778 77.2465 66.8224 77.5116Z" fill="#4F46E5"/>
<path opacity="0.998" fill-rule="evenodd" clip-rule="evenodd" d="M29.7159 89.4629C29.9255 89.4629 30.1351 89.4629 30.3448 89.4629C46.8611 94.9683 63.4224 100.419 80.0284 105.814C80.0284 105.919 80.0284 106.024 80.0284 106.129C80.0284 106.234 80.0284 106.339 80.0284 106.443C75.4349 113.266 70.7181 120.026 65.878 126.726C64.9346 126.935 63.9913 126.935 63.0479 126.726C52.0251 123.139 41.0192 119.522 30.0303 115.877C26.112 114.833 22.2338 113.628 18.3956 112.261C17.2202 111.821 16.6961 110.982 16.8233 109.745C16.8757 109.273 16.9281 108.802 16.9805 108.33C21.3067 102.086 25.5518 95.7972 29.7159 89.4629Z" fill="#F1F1FF"/>
<path fill-rule="evenodd" clip-rule="evenodd" d="M80.0292 106.127C80.2389 106.127 80.4483 106.127 80.6581 106.127C85.1777 113.12 89.8945 119.986 94.8085 126.724C95.6471 126.933 96.4854 126.933 97.3241 126.724C108.462 122.957 119.573 119.446 130.656 116.189C130.709 123.423 130.656 130.655 130.499 137.887C130.165 138.85 129.589 139.636 128.769 140.245C112.713 145.405 96.5716 150.279 80.3436 154.867C80.0333 138.734 79.9285 122.593 80.0292 106.441C80.0292 106.337 80.0292 106.232 80.0292 106.127Z" fill="#A3A1F4"/>
<path opacity="0.996" fill-rule="evenodd" clip-rule="evenodd" d="M80.0294 106.443C79.9288 122.595 80.0335 138.736 80.3439 154.869C64.1159 150.281 47.9741 145.407 31.9181 140.247C31.0986 139.638 30.5222 138.852 30.1886 137.889C30.0314 130.552 29.979 123.215 30.0314 115.877C41.0202 119.522 52.0261 123.139 63.0489 126.726C63.9923 126.935 64.9357 126.935 65.879 126.726C70.7191 120.026 75.4359 113.266 80.0294 106.443Z" fill="#DFDEFF"/>
</svg>
