<svg width="20" height="19" viewBox="0 0 20 19" fill="none" xmlns="http://www.w3.org/2000/svg">
<path fill-rule="evenodd" clip-rule="evenodd" d="M6.3773 0.780909C6.63637 1.05849 6.62137 1.49353 6.34379 1.7526L2.41522 5.41927C2.27578 5.54941 2.08854 5.61578 1.89826 5.6025C1.70799 5.58922 1.53178 5.49749 1.41177 5.34924L0.298675 3.97424C0.0597709 3.67913 0.10534 3.24622 0.400457 3.00731C0.695573 2.76841 1.12848 2.81398 1.36739 3.1091L2.01633 3.91073L5.4056 0.747402C5.68318 0.488329 6.11822 0.50333 6.3773 0.780909ZM9.3122 3.08334C9.3122 2.70364 9.62 2.39584 9.9997 2.39584H19.1664C19.5461 2.39584 19.8539 2.70364 19.8539 3.08334C19.8539 3.46303 19.5461 3.77084 19.1664 3.77084H9.9997C9.62 3.77084 9.3122 3.46303 9.3122 3.08334ZM6.3773 7.19758C6.63637 7.47515 6.62137 7.9102 6.34379 8.16927L2.41522 11.8359C2.27578 11.9661 2.08854 12.0324 1.89826 12.0192C1.70799 12.0059 1.53178 11.9142 1.41177 11.7659L0.298675 10.3909C0.0597709 10.0958 0.10534 9.66288 0.400457 9.42398C0.695573 9.18508 1.12848 9.23065 1.36739 9.52576L2.01633 10.3274L5.4056 7.16407C5.68318 6.905 6.11822 6.92 6.3773 7.19758ZM9.3122 9.5C9.3122 9.12031 9.62 8.8125 9.9997 8.8125H19.1664C19.5461 8.8125 19.8539 9.12031 19.8539 9.5C19.8539 9.8797 19.5461 10.1875 19.1664 10.1875H9.9997C9.62 10.1875 9.3122 9.8797 9.3122 9.5ZM6.3773 13.6142C6.63637 13.8918 6.62137 14.3269 6.34379 14.5859L2.41522 18.2526C2.27578 18.3827 2.08854 18.4491 1.89826 18.4358C1.70799 18.4226 1.53178 18.3308 1.41177 18.1826L0.298675 16.8076C0.0597709 16.5125 0.10534 16.0795 0.400457 15.8406C0.695573 15.6017 1.12848 15.6473 1.36739 15.9424L2.01633 16.7441L5.4056 13.5807C5.68318 13.3217 6.11822 13.3367 6.3773 13.6142ZM9.3122 15.9167C9.3122 15.537 9.62 15.2292 9.9997 15.2292H19.1664C19.5461 15.2292 19.8539 15.537 19.8539 15.9167C19.8539 16.2964 19.5461 16.6042 19.1664 16.6042H9.9997C9.62 16.6042 9.3122 16.2964 9.3122 15.9167Z" fill="#F9FAFB"/>
</svg>
