<?xml version="1.0" encoding="UTF-8"?>
<svg version="1.1" xmlns="http://www.w3.org/2000/svg" width="734" height="613">
<path d="M0 0 C6.69897345 5.0922086 10.19631038 10.44837753 12.1171875 18.609375 C12.50175429 22.84638551 12.46816966 27.04927556 12.41015625 31.30078125 C12.40591141 32.48663315 12.40166656 33.67248505 12.39729309 34.89427185 C12.38060183 38.65371126 12.34296638 42.41259967 12.3046875 46.171875 C12.28962836 48.73241409 12.27594212 51.29296165 12.26367188 53.85351562 C12.23072954 60.10566057 12.17939886 66.35746101 12.1171875 72.609375 C13.39728478 72.53868868 14.67738207 72.46800236 15.99627018 72.39517403 C30.89398405 71.61907989 45.75234806 71.46664203 60.66772461 71.47998047 C63.25430831 71.47862177 65.84089182 71.47683922 68.42747498 71.47467041 C74.66729338 71.47026944 80.90709963 71.47116364 87.14691847 71.47408305 C92.22771819 71.47635988 97.30851456 71.47663984 102.38931465 71.47555923 C103.11793934 71.475406 103.84656402 71.47525277 104.59726824 71.47509489 C106.07838467 71.4747751 107.5595011 71.47445089 109.04061753 71.4741223 C122.86558864 71.47128408 136.69055307 71.47452827 150.51552308 71.47992267 C162.32472381 71.48438824 174.13391469 71.48361357 185.94311523 71.47900391 C199.7237896 71.47362705 213.50445815 71.4715596 227.28513342 71.47461617 C228.76050381 71.47493465 230.2358742 71.47524902 231.71124458 71.47555923 C232.43677181 71.47571351 233.16229903 71.47586779 233.90981193 71.47602674 C238.97178156 71.47688267 244.03374743 71.47544913 249.09571648 71.47307968 C255.93561154 71.46994778 262.77548795 71.4722436 269.61538124 71.47797394 C272.10681503 71.47928197 274.5982504 71.47894129 277.08968353 71.47671127 C292.45957096 71.46423585 307.76793266 71.79329425 323.1171875 72.609375 C323.10993747 71.85057793 323.10268744 71.09178085 323.0952177 70.30998993 C323.0285116 63.24773317 322.98496064 56.18553965 322.95239258 49.12304688 C322.93903583 46.46141077 322.91688936 43.80026214 322.89086914 41.13867188 C322.85434635 37.30592748 322.83742858 33.4735121 322.82421875 29.640625 C322.80099297 27.86516296 322.80099297 27.86516296 322.77729797 26.05383301 C322.77572766 18.28825374 323.65883636 12.73940491 327.6796875 5.984375 C335.03997403 -1.18718624 342.81912339 -3.73737182 352.85327148 -3.7734375 C360.30612372 -3.6124579 365.57137338 -1.55219691 371.171875 3.44140625 C379.01483903 11.69116302 379.55058216 19.92633881 379.41015625 30.859375 C379.40591141 32.11322998 379.40166656 33.36708496 379.39729309 34.65893555 C379.38340919 37.96673287 379.35653103 41.27407882 379.32318115 44.58172607 C379.29230324 47.96718873 379.2787502 51.35271788 379.26367188 54.73828125 C379.23069013 61.36215356 379.18055587 67.98572742 379.1171875 74.609375 C380.1906543 74.66125977 381.26412109 74.71314453 382.37011719 74.76660156 C391.4432915 75.2338435 400.37908966 75.97915725 409.3671875 77.359375 C410.51832031 77.5349292 411.66945313 77.7104834 412.85546875 77.89135742 C456.26444635 84.75663385 456.26444635 84.75663385 464.1171875 92.609375 C464.21592146 94.97133885 464.2489799 97.30404772 464.24023533 99.66653538 C464.24138907 100.41760214 464.24254282 101.1686689 464.24373152 101.94249525 C464.24640402 104.49021393 464.24187185 107.037871 464.23744202 109.58558655 C464.23787898 111.4134167 464.23875506 113.24124679 464.24003601 115.06907654 C464.24229158 120.12702508 464.23824849 125.18495266 464.23326023 130.24289854 C464.22891357 135.76775677 464.23035351 141.29261394 464.23107815 146.81747341 C464.23161123 157.55678825 464.22698014 168.29609478 464.22057682 179.03540748 C464.21339543 191.4496719 464.21258309 203.86393128 464.21179199 216.27819824 C464.20653508 249.07609182 464.19257406 281.87398353 464.1796875 314.671875 C464.1590625 387.91125 464.1384375 461.150625 464.1171875 536.609375 C246.3171875 536.609375 28.5171875 536.609375 -195.8828125 536.609375 C-196.86432484 532.68332563 -197.03543696 529.19712094 -197.04103088 525.19554138 C-197.04596975 524.44443504 -197.05090861 523.69332869 -197.05599713 522.91946155 C-197.07138397 520.39479621 -197.07974339 517.87015657 -197.08813477 515.34545898 C-197.09770948 513.52934171 -197.10770576 511.71322662 -197.11809063 509.8971138 C-197.14522755 504.92804753 -197.16618987 499.95897163 -197.18607235 494.98987174 C-197.2082207 489.70919846 -197.23594254 484.42855406 -197.26287842 479.14790344 C-197.32549524 466.6206115 -197.37874195 454.09328687 -197.43063021 441.56594658 C-197.45013332 436.89141438 -197.47024468 432.2168849 -197.49038607 427.54235542 C-197.57544271 407.79938261 -197.65830146 388.05640238 -197.7323761 368.31338501 C-197.73661785 367.1839556 -197.74085961 366.05452619 -197.7452299 364.89087164 C-197.74943912 363.76963255 -197.75364834 362.64839345 -197.75798512 361.49317741 C-197.76638894 359.25505447 -197.77479493 357.01693153 -197.78320312 354.77880859 C-197.78730993 353.68408053 -197.79141673 352.58935246 -197.79564798 351.46145082 C-197.8517112 336.60738319 -197.91981783 321.75344227 -198.00330555 306.8995043 C-198.06866164 295.27057023 -198.12196885 283.64169176 -198.15762997 272.01262188 C-198.17579192 266.17984299 -198.2000569 260.34727868 -198.24197388 254.51461792 C-198.58588603 205.2001594 -196.79698165 150.9385606 -160.1328125 113.421875 C-154.2790555 107.63618495 -147.892097 102.93338963 -140.8828125 98.609375 C-139.7896875 97.93261719 -138.6965625 97.25585938 -137.5703125 96.55859375 C-110.83515414 80.82733952 -74.59844926 74.31718449 -43.8828125 74.609375 C-43.89391556 73.89242462 -43.90501862 73.17547424 -43.91645813 72.4367981 C-44.0171339 65.64120074 -44.09301609 58.84571653 -44.14187336 52.04956245 C-44.16783747 48.55647792 -44.20298776 45.0640156 -44.26000977 41.57128906 C-44.32532465 37.54486524 -44.34910143 33.51908284 -44.37109375 29.4921875 C-44.39690018 28.25324738 -44.4227066 27.01430725 -44.44929504 25.73782349 C-44.45204349 17.1467701 -43.04455778 10.24721231 -37.17402649 3.70510864 C-27.70222064 -5.35042837 -11.18214253 -6.70175546 0 0 Z " fill="#4E45E3" transform="translate(269.8828125,76.390625)"/>
</svg>
