<svg width="171" height="150" viewBox="0 0 171 150" fill="none" xmlns="http://www.w3.org/2000/svg">
<path d="M56.285 8.26671C63.4171 7.87376 70.4587 8.36888 77.2529 10.7266C96.3424 17.3439 108.21 30.6139 111.844 50.395C116.851 77.6423 99.9733 104.669 71.1543 110.552C47.255 115.428 23.67 103.53 13.2097 81.4618C12.5377 81.1002 12.3098 80.4322 12.019 79.7878C10.4315 76.2434 9.48056 72.5143 8.70644 68.7262C7.11499 58.6156 8.18381 48.7761 12.2037 39.3806C17.5793 26.8258 26.6014 17.7486 39.1327 12.2237C40.5944 11.5793 42.0877 11.0095 43.5848 10.4515C47.1253 9.35518 50.7011 8.41605 54.4106 8.0899C55.0511 8.03096 55.6916 7.85018 56.285 8.26671Z" fill="#10B981"/>
<path d="M142.622 19.5957C147.828 19.58 151.966 23.6785 152.001 28.8969C152.033 33.907 147.84 38.0959 142.72 38.1666C137.686 38.2374 133.277 33.8599 133.313 28.8222C133.344 23.8003 137.572 19.6115 142.622 19.5957Z" fill="#10B981"/>
<path d="M78.6105 39.1716C80.6971 38.2443 82.7483 38.1342 84.5559 39.7296C86.1002 41.0932 86.5796 42.8536 86.0687 44.8655C85.8133 45.8754 85.1885 46.6495 84.4734 47.3647C75.1368 56.7444 65.8121 66.132 56.4598 75.4921C54 77.952 51.5912 77.9206 49.0684 75.4332C45.2843 71.7001 41.5238 67.9396 37.7711 64.1712C35.6334 62.0218 35.2798 59.503 36.7494 57.326C38.2151 55.153 40.6554 54.6186 43.4964 55.8524C44.4748 56.0018 44.8953 56.8741 45.5122 57.4714C47.5477 59.444 49.5871 61.4206 51.5165 63.4953C52.4439 64.4895 52.994 64.3991 53.9135 63.4718C61.5643 55.7503 69.2661 48.0759 76.964 40.4016C77.4434 39.9222 77.7853 39.2109 78.6066 39.1677L78.6105 39.1716Z" fill="#FEFEFE"/>
<rect x="71" y="50" width="92" height="92" rx="46" fill="white"/>
<path d="M127.592 82.3812C127.592 88.231 122.85 92.9733 117 92.9733C111.15 92.9733 106.408 88.231 106.408 82.3812C106.408 76.5313 111.15 71.7891 117 71.7891C122.85 71.7891 127.592 76.5313 127.592 82.3812Z" fill="#4F46E5"/>
<path opacity="0.4" d="M139.697 82.3812C139.697 86.5597 136.31 89.947 132.131 89.947C127.953 89.947 124.565 86.5597 124.565 82.3812C124.565 78.2027 127.953 74.8154 132.131 74.8154C136.31 74.8154 139.697 78.2027 139.697 82.3812Z" fill="#4F46E5"/>
<path opacity="0.4" d="M94.303 82.3812C94.303 86.5597 97.6903 89.947 101.869 89.947C106.047 89.947 109.435 86.5597 109.435 82.3812C109.435 78.2027 106.047 74.8154 101.869 74.8154C97.6903 74.8154 94.303 78.2027 94.303 82.3812Z" fill="#4F46E5"/>
<path d="M135.158 109.618C135.158 115.468 127.028 120.211 117 120.211C106.971 120.211 98.8418 115.468 98.8418 109.618C98.8418 103.769 106.971 99.0264 117 99.0264C127.028 99.0264 135.158 103.769 135.158 109.618Z" fill="#4F46E5"/>
<path opacity="0.4" d="M147.263 109.619C147.263 113.797 141.844 117.184 135.158 117.184C128.472 117.184 123.053 113.797 123.053 109.619C123.053 105.44 128.472 102.053 135.158 102.053C141.844 102.053 147.263 105.44 147.263 109.619Z" fill="#4F46E5"/>
<path opacity="0.4" d="M86.7367 109.619C86.7367 113.797 92.1565 117.184 98.842 117.184C105.528 117.184 110.947 113.797 110.947 109.619C110.947 105.44 105.528 102.053 98.842 102.053C92.1565 102.053 86.7367 105.44 86.7367 109.619Z" fill="#4F46E5"/>
</svg>
