<svg width="52" height="53" viewBox="0 0 52 53" fill="none" xmlns="http://www.w3.org/2000/svg">
<rect y="0.600098" width="51.8" height="51.8" rx="25.9" fill="#F9FAFB"/>
<path d="M38.8167 26.4999C38.8167 33.6336 33.0337 39.4166 25.9001 39.4166C18.7664 39.4166 12.9834 33.6336 12.9834 26.4999C12.9834 19.3662 18.7664 13.5833 25.9001 13.5833C33.0337 13.5833 38.8167 19.3662 38.8167 26.4999Z" fill="#4F46E5"/>
<path fill-rule="evenodd" clip-rule="evenodd" d="M25.9001 20.3645C26.4351 20.3645 26.8688 20.7982 26.8688 21.3333V26.0986L29.8142 29.0441C30.1926 29.4224 30.1926 30.0358 29.8142 30.4141C29.4359 30.7924 28.8225 30.7924 28.4442 30.4141L25.2151 27.1849C25.0334 27.0033 24.9313 26.7568 24.9313 26.4999V21.3333C24.9313 20.7982 25.365 20.3645 25.9001 20.3645Z" fill="#F9FAFB"/>
</svg>
