<svg width="18" height="20" viewBox="0 0 18 20" fill="none" xmlns="http://www.w3.org/2000/svg">
<path fill-rule="evenodd" clip-rule="evenodd" d="M11.211 1.48959H12.789C13.4629 1.48957 14.0248 1.48955 14.4709 1.55286C14.9417 1.61968 15.3668 1.76667 15.7084 2.12725C16.05 2.48783 16.1893 2.93655 16.2526 3.43355C16.3125 3.90442 16.3125 4.49755 16.3125 5.20885V17.3229H16.5C16.8107 17.3229 17.0625 17.5888 17.0625 17.9167C17.0625 18.2446 16.8107 18.5104 16.5 18.5104H1.5C1.18934 18.5104 0.9375 18.2446 0.9375 17.9167C0.9375 17.5888 1.18934 17.3229 1.5 17.3229H1.6875L1.6875 7.58385C1.68748 6.87255 1.68746 6.27942 1.74743 5.80855C1.81074 5.31155 1.94999 4.86283 2.29159 4.50225C2.63319 4.14167 3.0583 3.99468 3.52914 3.92786C3.97523 3.86455 4.53714 3.86457 5.211 3.86459L7.70849 3.8646C7.74708 3.17254 7.86795 2.57443 8.29159 2.12725C8.63319 1.76667 9.05829 1.61968 9.52914 1.55286C9.97523 1.48955 10.5371 1.48957 11.211 1.48959ZM8.25513 5.0521C8.25416 5.0521 8.2532 5.0521 8.25223 5.0521C8.25149 5.0521 8.25074 5.0521 8.25 5.0521H5.25C4.52699 5.0521 4.04132 5.05336 3.67904 5.10477C3.33295 5.15389 3.18482 5.23877 3.08709 5.34194C2.98935 5.4451 2.90893 5.60146 2.8624 5.96678C2.81369 6.34918 2.8125 6.86184 2.8125 7.62501V17.3229H6.1875V15.5417C6.1875 15.2138 6.43934 14.9479 6.75 14.9479C7.06066 14.9479 7.3125 15.2138 7.3125 15.5417V17.3229H10.6875V7.62501C10.6875 6.86184 10.6863 6.34918 10.6376 5.96678C10.5911 5.60146 10.5107 5.4451 10.4129 5.34194C10.3152 5.23877 10.1671 5.15389 9.82096 5.10477C9.45954 5.05348 8.97531 5.0521 8.25513 5.0521ZM11.8125 17.3229L11.8125 7.58385C11.8125 6.87255 11.8125 6.27942 11.7526 5.80855C11.6893 5.31155 11.55 4.86283 11.2084 4.50225C10.8668 4.14167 10.4417 3.99468 9.97086 3.92786C9.65184 3.88258 9.27359 3.8697 8.83751 3.86604C8.87514 3.31216 8.9577 3.10351 9.08709 2.96694C9.18482 2.86377 9.33295 2.77889 9.67904 2.72977C10.0413 2.67836 10.527 2.6771 11.25 2.6771H12.75C13.473 2.6771 13.9587 2.67836 14.321 2.72977C14.6671 2.77889 14.8152 2.86377 14.9129 2.96694C15.0107 3.0701 15.0911 3.22646 15.1376 3.59178C15.1863 3.97418 15.1875 4.48684 15.1875 5.25001V17.3229H11.8125ZM3.9375 6.83334C3.9375 6.50543 4.18934 6.23959 4.5 6.23959H9C9.31066 6.23959 9.5625 6.50543 9.5625 6.83334C9.5625 7.16126 9.31066 7.42709 9 7.42709H4.5C4.18934 7.42709 3.9375 7.16126 3.9375 6.83334ZM3.9375 9.20834C3.9375 8.88043 4.18934 8.61459 4.5 8.61459H9C9.31066 8.61459 9.5625 8.88043 9.5625 9.20834C9.5625 9.53626 9.31066 9.80209 9 9.80209H4.5C4.18934 9.80209 3.9375 9.53626 3.9375 9.20834ZM3.9375 11.5833C3.9375 11.2554 4.18934 10.9896 4.5 10.9896H9C9.31066 10.9896 9.5625 11.2554 9.5625 11.5833C9.5625 11.9113 9.31066 12.1771 9 12.1771H4.5C4.18934 12.1771 3.9375 11.9113 3.9375 11.5833Z" fill="#626973"/>
</svg>
