<svg width="12" height="13" viewBox="0 0 12 13" fill="none" xmlns="http://www.w3.org/2000/svg">
<path d="M5.99999 4.125C6.2071 4.125 6.37499 4.29289 6.37499 4.5V7C6.37499 7.20711 6.2071 7.375 5.99999 7.375C5.79289 7.375 5.62499 7.20711 5.62499 7V4.5C5.62499 4.29289 5.79289 4.125 5.99999 4.125Z" fill="#EF4444"/>
<path d="M5.99999 9C6.27613 9 6.49999 8.77614 6.49999 8.5C6.49999 8.22386 6.27613 8 5.99999 8C5.72385 8 5.49999 8.22386 5.49999 8.5C5.49999 8.77614 5.72385 9 5.99999 9Z" fill="#EF4444"/>
<path fill-rule="evenodd" clip-rule="evenodd" d="M4.1472 2.73822C4.68316 2.05746 5.25091 1.625 5.99999 1.625C6.74907 1.625 7.31682 2.05746 7.85277 2.73821C8.37988 3.40772 8.93846 4.39811 9.65313 5.66527L9.87088 6.05134C10.4617 7.09882 10.9283 7.92614 11.1734 8.59019C11.4239 9.2688 11.4834 9.88496 11.1045 10.4285C10.7368 10.9559 10.1233 11.1717 9.34957 11.2735C8.57878 11.375 7.54224 11.375 6.21241 11.375H5.78759C4.45776 11.375 3.42119 11.375 2.65041 11.2735C1.87665 11.1717 1.26318 10.9559 0.895495 10.4285C0.51659 9.88496 0.576092 9.2688 0.826568 8.59019C1.07167 7.92614 1.53829 7.09883 2.12909 6.05135L2.34681 5.66533C3.0615 4.39815 3.62009 3.40773 4.1472 2.73822ZM4.73649 3.20216C4.24948 3.82074 3.71852 4.75994 2.98247 6.06497L2.80064 6.38736C2.18753 7.47442 1.75184 8.24932 1.53017 8.84989C1.31135 9.44274 1.34169 9.75706 1.51074 9.99955C1.69101 10.2581 2.02936 10.4353 2.74829 10.53C3.46429 10.6242 4.4513 10.625 5.81816 10.625H6.18182C7.54867 10.625 8.53569 10.6242 9.25168 10.53C9.97061 10.4353 10.309 10.2581 10.4892 9.99955C10.6583 9.75706 10.6886 9.44274 10.4698 8.84989C10.2481 8.24932 9.81244 7.47442 9.19933 6.38735L9.0175 6.06497C8.28145 4.75994 7.7505 3.82074 7.26349 3.20216C6.78101 2.58933 6.40628 2.375 5.99999 2.375C5.59369 2.375 5.21897 2.58933 4.73649 3.20216Z" fill="#EF4444"/>
</svg>
