<svg width="20" height="21" viewBox="0 0 20 21" fill="none" xmlns="http://www.w3.org/2000/svg">
<path d="M10.0003 2.79199C9.18494 2.79199 8.48958 3.31285 8.23188 4.04194C8.11685 4.36739 7.75977 4.53796 7.43433 4.42293C7.10888 4.3079 6.9383 3.95083 7.05333 3.62538C7.48203 2.41248 8.63873 1.54199 10.0003 1.54199C11.362 1.54199 12.5187 2.41248 12.9474 3.62538C13.0624 3.95083 12.8918 4.3079 12.5664 4.42293C12.2409 4.53796 11.8839 4.36739 11.7688 4.04194C11.5111 3.31285 10.8158 2.79199 10.0003 2.79199Z" fill="#EF4444"/>
<path d="M2.29199 5.50033C2.29199 5.15515 2.57181 4.87533 2.91699 4.87533H17.0837C17.4289 4.87533 17.7087 5.15515 17.7087 5.50033C17.7087 5.8455 17.4289 6.12533 17.0837 6.12533H2.91699C2.57181 6.12533 2.29199 5.8455 2.29199 5.50033Z" fill="#EF4444"/>
<path d="M4.92956 7.54208C4.9066 7.19767 4.60879 6.93708 4.26437 6.96004C3.91996 6.983 3.65937 7.28082 3.68233 7.62523L4.06854 13.4183C4.13979 14.4873 4.19734 15.3507 4.33231 16.0283C4.47264 16.7327 4.71133 17.3211 5.20432 17.7823C5.69732 18.2436 6.30028 18.4426 7.01249 18.5357C7.69752 18.6254 8.56289 18.6253 9.63421 18.6253H10.3666C11.4379 18.6253 12.3033 18.6254 12.9883 18.5357C13.7005 18.4426 14.3035 18.2436 14.7965 17.7823C15.2895 17.3211 15.5281 16.7327 15.6685 16.0283C15.8034 15.3508 15.861 14.4873 15.9322 13.4184L16.3184 7.62523C16.3414 7.28082 16.0808 6.983 15.7364 6.96004C15.392 6.93708 15.0942 7.19767 15.0712 7.54208L14.6879 13.2913C14.6131 14.4146 14.5597 15.1961 14.4426 15.7841C14.3289 16.3545 14.1703 16.6564 13.9425 16.8695C13.7146 17.0827 13.4028 17.2209 12.8262 17.2963C12.2317 17.3741 11.4483 17.3753 10.3226 17.3753H9.67816C8.55245 17.3753 7.76912 17.3741 7.17461 17.2963C6.59795 17.2209 6.28615 17.0827 6.0583 16.8695C5.83046 16.6564 5.67185 16.3545 5.55822 15.7841C5.44108 15.1961 5.38773 14.4146 5.31285 13.2913L4.92956 7.54208Z" fill="#EF4444"/>
<path d="M7.85487 9.04509C8.19834 9.01075 8.50462 9.26134 8.53896 9.6048L8.95563 13.7715C8.98998 14.1149 8.73939 14.4212 8.39592 14.4556C8.05246 14.4899 7.74618 14.2393 7.71183 13.8958L7.29517 9.72918C7.26082 9.38572 7.51141 9.07944 7.85487 9.04509Z" fill="#EF4444"/>
<path d="M12.7056 9.72918C12.74 9.38572 12.4894 9.07944 12.1459 9.04509C11.8025 9.01075 11.4962 9.26134 11.4618 9.6048L11.0452 13.7715C11.0108 14.1149 11.2614 14.4212 11.6049 14.4556C11.9483 14.4899 12.2546 14.2393 12.289 13.8958L12.7056 9.72918Z" fill="#EF4444"/>
</svg>
