<svg width="18" height="18" viewBox="0 0 18 18" fill="none" xmlns="http://www.w3.org/2000/svg">
<path fill-rule="evenodd" clip-rule="evenodd" d="M3.37435 11.0837C3.37435 10.7385 3.65417 10.4587 3.99935 10.4587H10.666C11.0112 10.4587 11.291 10.7385 11.291 11.0837C11.291 11.4289 11.0112 11.7087 10.666 11.7087H3.99935C3.65417 11.7087 3.37435 11.4289 3.37435 11.0837Z" fill="#4F46E5"/>
<path fill-rule="evenodd" clip-rule="evenodd" d="M3.37435 14.0004C3.37435 13.6552 3.65417 13.3754 3.99935 13.3754H8.58268C8.92786 13.3754 9.20768 13.6552 9.20768 14.0004C9.20768 14.3455 8.92786 14.6254 8.58268 14.6254H3.99935C3.65417 14.6254 3.37435 14.3455 3.37435 14.0004Z" fill="#4F46E5"/>
<path fill-rule="evenodd" clip-rule="evenodd" d="M9.20768 1.36217C8.82401 1.29698 8.30099 1.29203 7.35751 1.29203C5.76028 1.29203 4.62497 1.29335 3.76423 1.40855C2.92099 1.52141 2.43646 1.7331 2.08427 2.08529C1.73159 2.43796 1.5202 2.921 1.40748 3.75941C1.29234 4.61579 1.29102 5.74468 1.29102 7.3337V10.667C1.29102 12.2561 1.29234 13.3849 1.40748 14.2413C1.5202 15.0797 1.73159 15.5628 2.08427 15.9154C2.43694 16.2681 2.91998 16.4795 3.75839 16.5922C4.61478 16.7074 5.74367 16.7087 7.33268 16.7087H10.666C12.255 16.7087 13.3839 16.7074 14.2403 16.5922C15.0787 16.4795 15.5618 16.2681 15.9144 15.9154C16.2671 15.5628 16.4785 15.0797 16.5912 14.2413C16.7064 13.3849 16.7077 12.2561 16.7077 10.667V10.3028C16.7077 9.02277 16.6987 8.41598 16.5628 7.9587H13.9546C13.0106 7.95872 12.2391 7.95874 11.6301 7.87685C10.9935 7.79126 10.4415 7.60603 10.0009 7.16545C9.56036 6.72487 9.37512 6.17292 9.28953 5.5363C9.20765 4.92724 9.20766 4.1558 9.20768 3.21177V1.36217ZM10.4577 2.00824V3.16703C10.4577 4.1668 10.459 4.85374 10.5284 5.36974C10.5953 5.86775 10.7152 6.11195 10.8848 6.28156C11.0544 6.45118 11.2986 6.57104 11.7966 6.638C12.3126 6.70737 12.9996 6.7087 13.9993 6.7087H15.6822C15.4352 6.46908 15.1187 6.18196 14.7077 5.81205L11.4087 2.84297C11.0042 2.47893 10.7032 2.21022 10.4577 2.00824ZM7.4789 0.0420129C8.63273 0.0417045 9.37818 0.0415052 10.0643 0.304787C10.7504 0.568066 11.302 1.06478 12.1554 1.83329C12.1849 1.85981 12.2147 1.88667 12.2449 1.91385L15.5439 4.88293C15.579 4.91454 15.6137 4.94574 15.648 4.97657C16.6344 5.86377 17.2722 6.43748 17.6153 7.20784C17.9584 7.9782 17.9581 8.83609 17.9577 10.1628C17.9577 10.2089 17.9577 10.2555 17.9577 10.3028V10.714C17.9577 12.2455 17.9577 13.4585 17.8301 14.4079C17.6987 15.3849 17.4219 16.1757 16.7983 16.7993C16.1747 17.423 15.3839 17.6997 14.4069 17.8311C13.4575 17.9587 12.2445 17.9587 10.713 17.9587H7.28567C5.75421 17.9587 4.54118 17.9587 3.59183 17.8311C2.61481 17.6997 1.82402 17.423 1.20039 16.7993C0.576749 16.1757 0.299985 15.3849 0.168628 14.4079C0.0409922 13.4585 0.0410027 12.2455 0.0410159 10.714V7.28669C0.0410027 5.75522 0.0409922 4.54219 0.168628 3.59285C0.299985 2.61583 0.576749 1.82504 1.20039 1.2014C1.82451 0.57728 2.61795 0.300818 3.59841 0.169597C4.55171 0.0420108 5.77077 0.0420211 7.31061 0.0420341L7.35751 0.0420344C7.39847 0.0420344 7.43893 0.0420236 7.4789 0.0420129Z" fill="#4F46E5"/>
</svg>
