<svg width="20" height="21" viewBox="0 0 20 21" fill="none" xmlns="http://www.w3.org/2000/svg">
<path fill-rule="evenodd" clip-rule="evenodd" d="M10.2087 2.86181C9.82499 2.79661 9.30197 2.79167 8.35849 2.79167C6.76125 2.79167 5.62595 2.79298 4.7652 2.90818C3.92196 3.02104 3.43743 3.23273 3.08525 3.58492C2.73257 3.9376 2.52118 4.42063 2.40846 5.25904C2.29332 6.11543 2.29199 7.24432 2.29199 8.83333V12.1667C2.29199 13.7557 2.29332 14.8846 2.40846 15.741C2.52118 16.5794 2.73257 17.0624 3.08525 17.4151C3.43792 17.7678 3.92096 17.9791 4.75937 18.0919C5.61575 18.207 6.74464 18.2083 8.33366 18.2083H11.667C13.256 18.2083 14.3849 18.207 15.2413 18.0919C16.0797 17.9791 16.5627 17.7678 16.9154 17.4151C17.2681 17.0624 17.4795 16.5794 17.5922 15.741C17.7073 14.8846 17.7087 13.7557 17.7087 12.1667V11.8024C17.7087 10.5224 17.6997 9.91562 17.5638 9.45833H14.9556C14.0116 9.45836 13.2401 9.45837 12.6311 9.37649C11.9944 9.2909 11.4425 9.10566 11.0019 8.66508C10.5613 8.22451 10.3761 7.67256 10.2905 7.03593C10.2086 6.42688 10.2086 5.65544 10.2087 4.71141V2.86181ZM11.4587 3.50788V4.66667C11.4587 5.66643 11.46 6.35338 11.5294 6.86937C11.5963 7.36739 11.7162 7.61158 11.8858 7.7812C12.0554 7.95082 12.2996 8.07068 12.7976 8.13763C13.3136 8.20701 14.0006 8.20833 15.0003 8.20833H16.6832C16.4362 7.96871 16.1197 7.6816 15.7087 7.31168L12.4097 4.3426C12.0052 3.97857 11.7041 3.70985 11.4587 3.50788ZM8.47987 1.54165C9.63371 1.54134 10.3792 1.54114 11.0653 1.80442C11.7514 2.0677 12.303 2.56441 13.1564 3.33292C13.1859 3.35945 13.2157 3.3863 13.2459 3.41348L16.5449 6.38256C16.58 6.41417 16.6147 6.44538 16.6489 6.4762C17.6353 7.36341 18.2732 7.93711 18.6163 8.70747C18.9594 9.47783 18.9591 10.3357 18.9587 11.6624C18.9587 11.7085 18.9587 11.7552 18.9587 11.8024V12.2137C18.9587 13.7451 18.9587 14.9582 18.831 15.9075C18.6997 16.8845 18.4229 17.6753 17.7993 18.299C17.1757 18.9226 16.3849 19.1994 15.4078 19.3307C14.4585 19.4584 13.2455 19.4583 11.714 19.4583H8.28665C6.75518 19.4583 5.54215 19.4584 4.59281 19.3307C3.61579 19.1994 2.825 18.9226 2.20136 18.299C1.57773 17.6753 1.30096 16.8845 1.1696 15.9075C1.04197 14.9582 1.04198 13.7451 1.04199 12.2137V8.78632C1.04198 7.25485 1.04197 6.04183 1.1696 5.09248C1.30096 4.11546 1.57773 3.32467 2.20136 2.70104C2.82549 2.07691 3.61892 1.80045 4.59938 1.66923C5.55268 1.54164 6.77175 1.54165 8.31159 1.54167L8.35849 1.54167C8.39945 1.54167 8.43991 1.54166 8.47987 1.54165Z" fill="#150E67"/>
<path fill-rule="evenodd" clip-rule="evenodd" d="M6.6562 16.3726C6.89661 16.598 7.27071 16.598 7.51112 16.3726L9.17779 14.8101C9.42961 14.574 9.44237 14.1785 9.20629 13.9267C8.97021 13.6749 8.57468 13.6621 8.32286 13.8982L7.70866 14.474V11.75C7.70866 11.4048 7.42884 11.125 7.08366 11.125C6.73848 11.125 6.45866 11.4048 6.45866 11.75V14.474L5.84446 13.8982C5.59264 13.6621 5.19711 13.6749 4.96103 13.9267C4.72495 14.1785 4.73771 14.574 4.98953 14.8101L6.6562 16.3726Z" fill="#150E67"/>
</svg>
