<svg width="18" height="19" viewBox="0 0 18 19" fill="none" xmlns="http://www.w3.org/2000/svg">
<path fill-rule="evenodd" clip-rule="evenodd" d="M8.95153 0.541992L10.2493 0.541993C10.5945 0.541993 10.8743 0.821815 10.8743 1.16699C10.8743 1.51217 10.5945 1.79199 10.2493 1.79199H8.99935C7.01749 1.79199 5.59398 1.79332 4.51066 1.93897C3.44533 2.0822 2.80306 2.35461 2.32835 2.82932C1.85363 3.30404 1.58122 3.9463 1.43799 5.01164C1.29234 6.09495 1.29102 7.51847 1.29102 9.50033C1.29102 11.4822 1.29234 12.9057 1.43799 13.989C1.58122 15.0543 1.85363 15.6966 2.32835 16.1713C2.80306 16.646 3.44533 16.9185 4.51066 17.0617C5.59398 17.2073 7.01749 17.2087 8.99935 17.2087C10.9812 17.2087 12.4047 17.2073 13.488 17.0617C14.5534 16.9185 15.1956 16.646 15.6704 16.1713C16.1451 15.6966 16.4175 15.0543 16.5607 13.989C16.7064 12.9057 16.7077 11.4822 16.7077 9.50033V8.25033C16.7077 7.90515 16.9875 7.62533 17.3327 7.62533C17.6779 7.62533 17.9577 7.90515 17.9577 8.25033V9.54814C17.9577 11.4718 17.9577 12.9793 17.7996 14.1556C17.6377 15.3595 17.2999 16.3095 16.5542 17.0552C15.8086 17.8009 14.8585 18.1387 13.6546 18.3005C12.4784 18.4587 10.9708 18.4587 9.04716 18.4587H8.95154C7.02788 18.4587 5.52034 18.4587 4.3441 18.3005C3.14016 18.1387 2.19014 17.8009 1.44446 17.0552C0.698788 16.3095 0.361004 15.3595 0.199138 14.1556C0.0409966 12.9793 0.0410051 11.4718 0.0410158 9.54814V9.45251C0.0410051 7.52885 0.0409966 6.02132 0.199138 4.84508C0.361004 3.64113 0.698788 2.69111 1.44446 1.94544C2.19014 1.19976 3.14016 0.861981 4.3441 0.700114C5.52034 0.541973 7.02787 0.541982 8.95153 0.541992ZM12.9748 1.39692C14.1147 0.257016 15.9628 0.257016 17.1028 1.39692C18.2427 2.53683 18.2427 4.38498 17.1028 5.52488L11.5627 11.065C11.2533 11.3744 11.0595 11.5683 10.8432 11.737C10.5884 11.9356 10.3128 12.106 10.0211 12.245C9.77353 12.363 9.51347 12.4497 9.09834 12.588L6.6779 13.3948C6.23103 13.5438 5.73835 13.4275 5.40528 13.0944C5.0722 12.7613 4.95589 12.2686 5.10485 11.8218L5.91166 9.40135C6.05001 8.98621 6.13667 8.72615 6.25468 8.47853C6.39367 8.18689 6.56402 7.91125 6.76272 7.65651C6.93142 7.44022 7.12527 7.2464 7.43472 6.93699L12.9748 1.39692ZM16.2189 2.2808C15.5671 1.62906 14.5104 1.62906 13.8587 2.2808L13.5448 2.59466C13.5637 2.67454 13.5902 2.76972 13.627 2.87588C13.7465 3.22009 13.9725 3.67342 14.3994 4.10032C14.8263 4.52722 15.2796 4.75321 15.6238 4.87263C15.73 4.90947 15.8251 4.93593 15.905 4.95485L16.2189 4.641C16.8706 3.98925 16.8706 2.93255 16.2189 2.2808ZM14.9203 5.93957C14.4903 5.75465 13.9895 5.45821 13.5155 4.9842C13.0415 4.5102 12.745 4.00934 12.5601 3.57937L8.34727 7.79221C8.00018 8.1393 7.86405 8.27695 7.74836 8.42528C7.6055 8.60844 7.48302 8.80662 7.38308 9.01631C7.30215 9.18612 7.23991 9.36944 7.08469 9.83511L6.72477 10.9149L7.58482 11.7749L8.66456 11.415C9.13024 11.2598 9.31355 11.1975 9.48337 11.1166C9.69305 11.0167 9.89123 10.8942 10.0744 10.7513C10.2227 10.6356 10.3604 10.4995 10.7075 10.1524L14.9203 5.93957Z" fill="#0EA5E9"/>
</svg>
