<svg width="19" height="17" viewBox="0 0 19 17" fill="none" xmlns="http://www.w3.org/2000/svg">
<path fill-rule="evenodd" clip-rule="evenodd" d="M8.00889 0.654297H11.43C12.9587 0.654283 14.1696 0.654272 15.1172 0.788755C16.0925 0.927159 16.8818 1.21877 17.5043 1.87586C18.1268 2.53295 18.4031 3.36617 18.5342 4.3956C18.6616 5.39587 18.6616 6.67398 18.6616 8.2876V8.38666C18.6616 10.0003 18.6616 11.2784 18.5342 12.2787C18.4031 13.3081 18.1268 14.1413 17.5043 14.7984C16.8818 15.4555 16.0925 15.7471 15.1172 15.8855C14.1696 16.02 12.9587 16.02 11.43 16.02H8.00889C6.4802 16.02 5.26936 16.02 4.32173 15.8855C3.34648 15.7471 2.55712 15.4555 1.93462 14.7984C1.31211 14.1413 1.03584 13.3081 0.904726 12.2787C0.77732 11.2784 0.777331 10.0003 0.777344 8.38667V8.28759C0.777331 6.67397 0.77732 5.39587 0.904726 4.3956C1.03584 3.36617 1.31211 2.53295 1.93462 1.87586C2.55712 1.21877 3.34648 0.927159 4.32173 0.788755C5.26936 0.654272 6.48019 0.654283 8.00889 0.654297ZM4.48799 2.09407C3.6511 2.21284 3.16894 2.43557 2.8169 2.80716C2.46486 3.17876 2.25385 3.68771 2.14134 4.57109C2.02641 5.47342 2.02508 6.66287 2.02508 8.33713C2.02508 10.0114 2.02641 11.2008 2.14134 12.1032C2.25385 12.9866 2.46486 13.4955 2.8169 13.8671C3.16894 14.2387 3.6511 14.4614 4.48799 14.5802C5.34283 14.7015 6.46968 14.7029 8.05582 14.7029H11.3831C12.9693 14.7029 14.0961 14.7015 14.9509 14.5802C15.7878 14.4614 16.27 14.2387 16.622 13.8671C16.9741 13.4955 17.1851 12.9866 17.2976 12.1032C17.4125 11.2008 17.4139 10.0114 17.4139 8.33713C17.4139 6.66287 17.4125 5.47342 17.2976 4.57109C17.1851 3.68771 16.9741 3.17876 16.622 2.80716C16.27 2.43557 15.7878 2.21284 14.9509 2.09407C14.0961 1.97275 12.9693 1.97135 11.3831 1.97135H8.05582C6.46968 1.97135 5.34283 1.97275 4.48799 2.09407ZM4.24925 4.4034C4.46982 4.124 4.86321 4.08625 5.12791 4.31908L6.92373 5.89874C7.69979 6.58139 8.2386 7.0538 8.69348 7.36262C9.13382 7.66156 9.43243 7.76191 9.71947 7.76191C10.0065 7.76191 10.3051 7.66156 10.7455 7.36262C11.2003 7.0538 11.7391 6.58139 12.5152 5.89874L14.311 4.31908C14.5757 4.08625 14.9691 4.124 15.1897 4.4034C15.4103 4.6828 15.3745 5.09804 15.1098 5.33087L13.2827 6.93804C12.5454 7.58661 11.9478 8.11228 11.4204 8.47035C10.871 8.84334 10.3359 9.07896 9.71947 9.07896C9.10302 9.07896 8.56795 8.84334 8.01853 8.47035C7.49111 8.11229 6.89352 7.58661 6.15623 6.93805L4.32912 5.33087C4.06443 5.09804 4.02867 4.6828 4.24925 4.4034Z" fill="#626973"/>
</svg>
