<svg width="25" height="25" viewBox="0 0 25 25" fill="none" xmlns="http://www.w3.org/2000/svg">
<path fill-rule="evenodd" clip-rule="evenodd" d="M16.458 1.72122C17.77 2.16276 18.6251 3.39729 18.6251 5.01582C18.6251 6.03336 18.0466 6.96993 17.402 7.71715C16.7394 8.48527 15.9007 9.17457 15.1671 9.70933C15.1357 9.73224 15.1045 9.75502 15.0736 9.77762C14.3616 10.2979 13.7742 10.727 12.8751 10.727C11.9759 10.727 11.3885 10.2979 10.6765 9.77761C10.6456 9.75501 10.6144 9.73223 10.583 9.70932C9.84941 9.17456 9.01075 8.48526 8.34811 7.71714C7.70351 6.96992 7.12506 6.03336 7.12506 5.01583C7.12506 3.3973 7.98008 2.16277 9.29213 1.72123C10.4112 1.34462 11.7138 1.5932 12.8751 2.4385C14.0363 1.5932 15.3389 1.34462 16.458 1.72122ZM15.9796 3.14288C15.3275 2.92345 14.3552 3.06541 13.3826 3.95939C13.0956 4.22316 12.6545 4.22316 12.3675 3.95939C11.3949 3.06541 10.4226 2.92345 9.77056 3.14288C9.14508 3.35337 8.62506 3.95719 8.62506 5.01583C8.62506 5.4834 8.90958 6.0716 9.48389 6.73734C10.0402 7.38218 10.7764 7.99405 11.4666 8.49719C12.3097 9.1118 12.5101 9.22705 12.8751 9.22705C13.24 9.22705 13.4404 9.11181 14.2835 8.4972C14.9737 7.99406 15.7099 7.3822 16.2662 6.73735C16.8405 6.07161 17.1251 5.4834 17.1251 5.01582C17.1251 3.95719 16.605 3.35337 15.9796 3.14288ZM9.55897 14.7492C11.4248 14.3877 13.4221 14.4689 15.0383 15.4328C15.2653 15.5682 15.4781 15.7369 15.6638 15.9455C16.0396 16.3677 16.2338 16.8924 16.2429 17.4185C16.4342 17.2951 16.6258 17.1581 16.8204 17.0111L18.6276 15.6459C19.5322 14.9626 20.8468 14.9624 21.7515 15.6456C22.5875 16.2767 22.9207 17.4096 22.3223 18.3688C21.897 19.0505 21.2565 19.9935 20.6046 20.5972C19.9457 21.2075 19.0079 21.7206 18.2986 22.063C17.4371 22.4788 16.5066 22.7087 15.6019 22.8552C13.7527 23.1545 11.8285 23.1087 10.0001 22.732C9.06564 22.5395 8.09461 22.4395 7.13499 22.4395H4.87506C4.46085 22.4395 4.12506 22.1037 4.12506 21.6895C4.12506 21.2752 4.46085 20.9395 4.87506 20.9395H7.13499C8.1971 20.9395 9.26954 21.05 10.3027 21.2629C11.9548 21.6032 13.6952 21.6443 15.3622 21.3745C16.1911 21.2403 16.9651 21.041 17.6465 20.7122C18.3299 20.3823 19.0983 19.9478 19.5854 19.4967C20.0779 19.0406 20.6291 18.2489 21.0497 17.5748C21.1766 17.3714 21.159 17.0778 20.8477 16.8426C20.4779 16.5635 19.9014 16.5635 19.5317 16.8428L17.7246 18.2079C17.0031 18.7529 16.1152 19.3359 15.0138 19.5116C14.9026 19.5293 14.7869 19.5456 14.6668 19.5599C14.6095 19.5702 14.5499 19.577 14.4883 19.5794C13.926 19.6352 13.2748 19.6482 12.5563 19.5804C12.1439 19.5414 11.8412 19.1756 11.8801 18.7632C11.9191 18.3508 12.285 18.0481 12.6973 18.087C13.3248 18.1463 13.8877 18.1332 14.3653 18.0842C14.375 18.0832 14.3846 18.0821 14.3942 18.0811C14.4142 18.0695 14.4447 18.0484 14.4846 18.0135C14.8041 17.7347 14.8326 17.2677 14.5434 16.9429C14.4701 16.8606 14.3799 16.7867 14.2699 16.7211C13.0888 16.0166 11.5113 15.8989 9.84427 16.2218C8.18674 16.543 6.53997 17.2827 5.30892 18.1558C4.97104 18.3954 4.5029 18.3157 4.26328 17.9778C4.02367 17.64 4.10333 17.1718 4.4412 16.9322C5.83957 15.9405 7.68366 15.1125 9.55897 14.7492Z" fill="#FBFBFF"/>
</svg>
