<svg width="16" height="16" viewBox="0 0 16 16" fill="none" xmlns="http://www.w3.org/2000/svg">
<path fill-rule="evenodd" clip-rule="evenodd" d="M8.00065 5.50008C6.61994 5.50008 5.50065 6.61937 5.50065 8.00008C5.50065 9.38079 6.61994 10.5001 8.00065 10.5001C9.38136 10.5001 10.5007 9.38079 10.5007 8.00008C10.5007 6.61937 9.38136 5.50008 8.00065 5.50008ZM6.50065 8.00008C6.50065 7.17165 7.17222 6.50008 8.00065 6.50008C8.82908 6.50008 9.50065 7.17165 9.50065 8.00008C9.50065 8.82851 8.82908 9.50008 8.00065 9.50008C7.17222 9.50008 6.50065 8.82851 6.50065 8.00008Z" fill="#1C274C"/>
<path fill-rule="evenodd" clip-rule="evenodd" d="M8.00065 2.16675C4.99123 2.16675 2.96418 3.96955 1.7877 5.49799L1.76648 5.52555C1.50041 5.8711 1.25536 6.18936 1.08911 6.56568C0.911081 6.96866 0.833984 7.40787 0.833984 8.00008C0.833984 8.59229 0.911081 9.0315 1.08911 9.43448C1.25536 9.8108 1.50041 10.1291 1.76648 10.4746L1.7877 10.5022C2.96418 12.0306 4.99123 13.8334 8.00065 13.8334C11.0101 13.8334 13.0371 12.0306 14.2136 10.5022L14.2348 10.4746C14.5009 10.1291 14.7459 9.81081 14.9122 9.43448C15.0902 9.0315 15.1673 8.59229 15.1673 8.00008C15.1673 7.40787 15.0902 6.96866 14.9122 6.56568C14.7459 6.18936 14.5009 5.87109 14.2348 5.52553L14.2136 5.49799C13.0371 3.96955 11.0101 2.16675 8.00065 2.16675ZM2.58013 6.10795C3.66641 4.69669 5.43422 3.16675 8.00065 3.16675C10.5671 3.16675 12.3349 4.69669 13.4212 6.10795C13.7136 6.48781 13.8848 6.71479 13.9975 6.96978C14.1028 7.20809 14.1673 7.49937 14.1673 8.00008C14.1673 8.50079 14.1028 8.79207 13.9975 9.03038C13.8848 9.28538 13.7136 9.51236 13.4212 9.89222C12.3349 11.3035 10.5671 12.8334 8.00065 12.8334C5.43422 12.8334 3.66641 11.3035 2.58013 9.89222C2.28774 9.51236 2.11647 9.28538 2.00382 9.03038C1.89854 8.79207 1.83398 8.50079 1.83398 8.00008C1.83398 7.49937 1.89854 7.20809 2.00382 6.96978C2.11647 6.71479 2.28774 6.48781 2.58013 6.10795Z" fill="#1C274C"/>
</svg>
