<svg width="13" height="12" viewBox="0 0 13 12" fill="none" xmlns="http://www.w3.org/2000/svg">
<path fill-rule="evenodd" clip-rule="evenodd" d="M2.38958 0.312501C2.39869 0.312501 2.40783 0.312502 2.41699 0.312502L10.6111 0.312501C11.0001 0.312483 11.3327 0.312467 11.5985 0.345997C11.8804 0.381558 12.1529 0.461422 12.3767 0.671392C12.6045 0.885067 12.695 1.15166 12.7347 1.42903C12.7712 1.68383 12.7712 2.00065 12.7712 2.36209L12.7712 2.81507C12.7712 3.10003 12.7712 3.34639 12.7499 3.55181C12.727 3.77287 12.677 3.98026 12.5568 4.17938C12.4376 4.37699 12.2769 4.52043 12.0918 4.64902C11.9174 4.77016 11.6946 4.89557 11.4326 5.04307L9.71617 6.0093C9.32546 6.22924 9.18942 6.30844 9.09859 6.38729C8.89 6.56838 8.77055 6.76931 8.71442 7.02106C8.69042 7.12867 8.68783 7.26421 8.68783 7.67588L8.68783 9.26958C8.68786 9.7953 8.68788 10.2416 8.63378 10.5848C8.57626 10.9496 8.44271 11.2995 8.09269 11.5185C7.75065 11.7324 7.37387 11.7128 7.00771 11.6258C6.65506 11.5421 6.22048 11.3722 5.69903 11.1683L5.64836 11.1485C5.4041 11.053 5.19022 10.9694 5.0209 10.882C4.83893 10.788 4.66994 10.6711 4.54065 10.4892C4.4099 10.3052 4.35748 10.1079 4.33411 9.90619C4.31279 9.72227 4.31281 9.50154 4.31283 9.25535L4.31283 7.67588C4.31283 7.26421 4.31023 7.12867 4.28624 7.02106C4.23011 6.76931 4.11065 6.56838 3.90206 6.38729C3.81124 6.30844 3.6752 6.22924 3.28449 6.0093L1.56807 5.04308C1.30603 4.89557 1.08322 4.77016 0.908833 4.64902C0.723717 4.52043 0.563106 4.37699 0.443851 4.17938C0.323692 3.98026 0.273654 3.77287 0.250753 3.55181C0.229471 3.34638 0.229482 3.10003 0.229495 2.81507L0.229495 2.39189C0.229495 2.38192 0.229494 2.37198 0.229494 2.36208C0.229466 2.00064 0.229443 1.68382 0.265954 1.42903C0.305701 1.15166 0.396185 0.885068 0.62393 0.671392C0.847727 0.461422 1.12021 0.381558 1.40213 0.345997C1.66795 0.312467 2.00053 0.312483 2.38958 0.312501ZM1.51163 1.21412C1.317 1.23867 1.25511 1.27903 1.22262 1.30951C1.19409 1.33628 1.15643 1.38341 1.13211 1.55315C1.10555 1.73848 1.1045 1.99173 1.1045 2.39189V2.79428C1.1045 3.1059 1.10503 3.30662 1.1211 3.46165C1.13605 3.60603 1.16173 3.67546 1.19301 3.72728C1.22518 3.7806 1.27862 3.8405 1.40802 3.93039C1.54436 4.02509 1.73062 4.13046 2.01445 4.29024L3.71372 5.24682C3.72963 5.25577 3.7453 5.26459 3.76074 5.27327C4.08665 5.45663 4.30861 5.5815 4.47569 5.72655C4.82065 6.02603 5.04197 6.38979 5.14027 6.83064C5.18804 7.0449 5.18796 7.28515 5.18784 7.62428C5.18783 7.64123 5.18783 7.65843 5.18783 7.67588V9.23308C5.18783 9.50849 5.18851 9.67791 5.20329 9.80545C5.21665 9.92078 5.23771 9.95953 5.25392 9.98234C5.27158 10.0072 5.30657 10.0447 5.42234 10.1045C5.54625 10.1685 5.71696 10.2358 5.98654 10.3412C6.54713 10.5603 6.9242 10.7066 7.2099 10.7745C7.48909 10.8408 7.58109 10.8064 7.62869 10.7766C7.66831 10.7519 7.72958 10.7015 7.76946 10.4485C7.81153 10.1817 7.81283 9.80535 7.81283 9.23308V7.67588C7.81283 7.65843 7.81282 7.64124 7.81282 7.62429C7.8127 7.28515 7.81262 7.0449 7.86039 6.83064C7.95868 6.38979 8.18 6.02603 8.52496 5.72655C8.69204 5.58151 8.91399 5.45663 9.23989 5.27329C9.25534 5.2646 9.27102 5.25577 9.28694 5.24681L10.9862 4.29024C11.27 4.13046 11.4563 4.02509 11.5926 3.93039C11.722 3.8405 11.7755 3.7806 11.8076 3.72728C11.8389 3.67546 11.8646 3.60603 11.8796 3.46165C11.8956 3.30662 11.8962 3.1059 11.8962 2.79428V2.39189C11.8962 1.99173 11.8951 1.73848 11.8686 1.55315C11.8442 1.38341 11.8066 1.33628 11.778 1.30951C11.7455 1.27903 11.6837 1.23867 11.489 1.21412C11.2845 1.18832 11.0078 1.1875 10.5837 1.1875H2.41699C1.99289 1.1875 1.71614 1.18832 1.51163 1.21412Z" fill="#F9FAFB"/>
</svg>
