<svg width="14" height="18" viewBox="0 0 14 18" fill="none" xmlns="http://www.w3.org/2000/svg">
<path fill-rule="evenodd" clip-rule="evenodd" d="M6.71578 0.669922C4.5344 0.669922 2.76605 2.43828 2.76605 4.61965C2.76605 6.80102 4.5344 8.56938 6.71578 8.56938C8.89715 8.56938 10.6655 6.80102 10.6655 4.61965C10.6655 2.43828 8.89715 0.669922 6.71578 0.669922ZM4.01333 4.61965C4.01333 3.12713 5.22326 1.9172 6.71578 1.9172C8.2083 1.9172 9.41822 3.12713 9.41822 4.61965C9.41822 6.11217 8.2083 7.3221 6.71578 7.3221C5.22326 7.3221 4.01333 6.11217 4.01333 4.61965Z" fill="#626973"/>
<path fill-rule="evenodd" clip-rule="evenodd" d="M6.71578 9.81666C5.02003 9.81666 3.45415 10.2081 2.29054 10.873C1.14458 11.5279 0.271484 12.5275 0.271484 13.7664C0.271484 15.0052 1.14458 16.0049 2.29054 16.6598C3.45415 17.3247 5.02003 17.7161 6.71578 17.7161C8.41153 17.7161 9.97741 17.3247 11.141 16.6598C12.287 16.0049 13.1601 15.0052 13.1601 13.7664C13.1601 12.5275 12.287 11.5279 11.141 10.873C9.97741 10.2081 8.41153 9.81666 6.71578 9.81666ZM1.51877 13.7664C1.51877 13.1683 1.94867 12.5049 2.90937 11.956C3.85242 11.4171 5.19687 11.0639 6.71578 11.0639C8.23468 11.0639 9.57913 11.4171 10.5222 11.956C11.4829 12.5049 11.9128 13.1683 11.9128 13.7664C11.9128 14.3645 11.4829 15.0278 10.5222 15.5768C9.57913 16.1157 8.23468 16.4688 6.71578 16.4688C5.19687 16.4688 3.85242 16.1157 2.90937 15.5768C1.94867 15.0278 1.51877 14.3645 1.51877 13.7664Z" fill="#626973"/>
</svg>
