<svg width="988" height="528" viewBox="0 0 988 528" fill="none" xmlns="http://www.w3.org/2000/svg">
<g filter="url(#filter0_dd_410_8731)">
<rect x="20" y="8" width="948" height="488" rx="16" fill="white"/>
</g>
<path d="M67.632 67.216C66.684 67.216 65.802 67.042 64.986 66.694C64.182 66.346 63.48 65.866 62.88 65.254C62.292 64.63 61.83 63.898 61.494 63.058C61.158 62.218 60.99 61.294 60.99 60.286C60.99 59.29 61.152 58.372 61.476 57.532C61.812 56.68 62.28 55.948 62.88 55.336C63.48 54.712 64.182 54.232 64.986 53.896C65.79 53.548 66.672 53.374 67.632 53.374C68.58 53.374 69.426 53.536 70.17 53.86C70.926 54.184 71.562 54.61 72.078 55.138C72.594 55.654 72.966 56.218 73.194 56.83L71.286 57.73C70.998 57.01 70.536 56.428 69.9 55.984C69.276 55.528 68.52 55.3 67.632 55.3C66.744 55.3 65.958 55.51 65.274 55.93C64.59 56.35 64.056 56.932 63.672 57.676C63.3 58.42 63.114 59.29 63.114 60.286C63.114 61.282 63.3 62.158 63.672 62.914C64.056 63.658 64.59 64.24 65.274 64.66C65.958 65.068 66.744 65.272 67.632 65.272C68.52 65.272 69.276 65.05 69.9 64.606C70.536 64.162 70.998 63.58 71.286 62.86L73.194 63.76C72.966 64.36 72.594 64.924 72.078 65.452C71.562 65.98 70.926 66.406 70.17 66.73C69.426 67.054 68.58 67.216 67.632 67.216ZM77.9204 67.216C77.2604 67.216 76.6784 67.102 76.1744 66.874C75.6824 66.634 75.2984 66.31 75.0224 65.902C74.7464 65.482 74.6084 64.99 74.6084 64.426C74.6084 63.898 74.7224 63.424 74.9504 63.004C75.1904 62.584 75.5564 62.23 76.0484 61.942C76.5404 61.654 77.1584 61.45 77.9024 61.33L81.2864 60.772V62.374L78.2984 62.896C77.7584 62.992 77.3624 63.166 77.1104 63.418C76.8584 63.658 76.7324 63.97 76.7324 64.354C76.7324 64.726 76.8704 65.032 77.1464 65.272C77.4344 65.5 77.8004 65.614 78.2444 65.614C78.7964 65.614 79.2764 65.494 79.6844 65.254C80.1044 65.014 80.4284 64.696 80.6564 64.3C80.8844 63.892 80.9984 63.442 80.9984 62.95V60.448C80.9984 59.968 80.8184 59.578 80.4584 59.278C80.1104 58.966 79.6424 58.81 79.0544 58.81C78.5144 58.81 78.0404 58.954 77.6324 59.242C77.2364 59.518 76.9424 59.878 76.7504 60.322L75.0584 59.476C75.2384 58.996 75.5324 58.576 75.9404 58.216C76.3484 57.844 76.8224 57.556 77.3624 57.352C77.9144 57.148 78.4964 57.046 79.1084 57.046C79.8764 57.046 80.5544 57.19 81.1424 57.478C81.7424 57.766 82.2044 58.168 82.5284 58.684C82.8644 59.188 83.0324 59.776 83.0324 60.448V67H81.0884V65.236L81.5024 65.29C81.2744 65.686 80.9804 66.028 80.6204 66.316C80.2724 66.604 79.8704 66.826 79.4144 66.982C78.9704 67.138 78.4724 67.216 77.9204 67.216ZM85.4107 67V53.374H87.4447V67H85.4107ZM89.8228 67V53.374H91.8568V67H89.8228ZM101.143 67L96.3914 53.59H98.6774L102.565 65.038H102.115L105.985 53.59H108.271L103.519 67H101.143ZM113.452 67.216C112.516 67.216 111.658 66.994 110.878 66.55C110.11 66.106 109.498 65.5 109.042 64.732C108.586 63.964 108.358 63.094 108.358 62.122C108.358 61.138 108.586 60.268 109.042 59.512C109.498 58.744 110.11 58.144 110.878 57.712C111.646 57.268 112.504 57.046 113.452 57.046C114.412 57.046 115.27 57.268 116.026 57.712C116.794 58.144 117.4 58.744 117.844 59.512C118.3 60.268 118.528 61.138 118.528 62.122C118.528 63.106 118.3 63.982 117.844 64.75C117.388 65.518 116.776 66.124 116.008 66.568C115.24 67 114.388 67.216 113.452 67.216ZM113.452 65.326C114.028 65.326 114.538 65.188 114.982 64.912C115.426 64.636 115.774 64.258 116.026 63.778C116.29 63.286 116.422 62.734 116.422 62.122C116.422 61.51 116.29 60.964 116.026 60.484C115.774 60.004 115.426 59.626 114.982 59.35C114.538 59.074 114.028 58.936 113.452 58.936C112.888 58.936 112.378 59.074 111.922 59.35C111.478 59.626 111.124 60.004 110.86 60.484C110.608 60.964 110.482 61.51 110.482 62.122C110.482 62.734 110.608 63.286 110.86 63.778C111.124 64.258 111.478 64.636 111.922 64.912C112.378 65.188 112.888 65.326 113.452 65.326ZM120.514 67V53.374H122.548V67H120.514ZM128.4 67.216C127.668 67.216 127.026 67.054 126.474 66.73C125.922 66.394 125.49 65.932 125.178 65.344C124.878 64.744 124.728 64.054 124.728 63.274V57.262H126.762V63.094C126.762 63.538 126.852 63.928 127.032 64.264C127.212 64.6 127.464 64.864 127.788 65.056C128.112 65.236 128.484 65.326 128.904 65.326C129.336 65.326 129.714 65.23 130.038 65.038C130.362 64.846 130.614 64.576 130.794 64.228C130.986 63.88 131.082 63.472 131.082 63.004V57.262H133.098V67H131.172V65.092L131.388 65.344C131.16 65.944 130.782 66.406 130.254 66.73C129.726 67.054 129.108 67.216 128.4 67.216ZM135.473 67V57.262H137.417V59.368L137.165 59.044C137.369 58.384 137.741 57.886 138.281 57.55C138.821 57.214 139.439 57.046 140.135 57.046C140.915 57.046 141.605 57.256 142.205 57.676C142.817 58.084 143.225 58.63 143.429 59.314L142.853 59.368C143.141 58.588 143.579 58.006 144.167 57.622C144.767 57.238 145.451 57.046 146.219 57.046C146.891 57.046 147.497 57.202 148.037 57.514C148.589 57.826 149.027 58.258 149.351 58.81C149.675 59.362 149.837 59.992 149.837 60.7V67H147.803V61.258C147.803 60.766 147.713 60.352 147.533 60.016C147.365 59.668 147.125 59.404 146.813 59.224C146.513 59.032 146.159 58.936 145.751 58.936C145.343 58.936 144.983 59.032 144.671 59.224C144.359 59.404 144.113 59.668 143.933 60.016C143.753 60.364 143.663 60.778 143.663 61.258V67H141.647V61.258C141.647 60.766 141.557 60.352 141.377 60.016C141.209 59.668 140.969 59.404 140.657 59.224C140.357 59.032 139.997 58.936 139.577 58.936C139.169 58.936 138.809 59.032 138.497 59.224C138.185 59.404 137.939 59.668 137.759 60.016C137.591 60.364 137.507 60.778 137.507 61.258V67H135.473ZM156.586 67.216C155.614 67.216 154.75 66.994 153.994 66.55C153.25 66.094 152.668 65.482 152.248 64.714C151.828 63.934 151.618 63.064 151.618 62.104C151.618 61.12 151.828 60.25 152.248 59.494C152.68 58.738 153.256 58.144 153.976 57.712C154.696 57.268 155.512 57.046 156.424 57.046C157.156 57.046 157.81 57.172 158.386 57.424C158.962 57.676 159.448 58.024 159.844 58.468C160.24 58.9 160.54 59.398 160.744 59.962C160.96 60.526 161.068 61.126 161.068 61.762C161.068 61.918 161.062 62.08 161.05 62.248C161.038 62.416 161.014 62.572 160.978 62.716H153.22V61.096H159.826L158.854 61.834C158.974 61.246 158.932 60.724 158.728 60.268C158.536 59.8 158.236 59.434 157.828 59.17C157.432 58.894 156.964 58.756 156.424 58.756C155.884 58.756 155.404 58.894 154.984 59.17C154.564 59.434 154.24 59.818 154.012 60.322C153.784 60.814 153.694 61.414 153.742 62.122C153.682 62.782 153.772 63.358 154.012 63.85C154.264 64.342 154.612 64.726 155.056 65.002C155.512 65.278 156.028 65.416 156.604 65.416C157.192 65.416 157.69 65.284 158.098 65.02C158.518 64.756 158.848 64.414 159.088 63.994L160.744 64.804C160.552 65.26 160.252 65.674 159.844 66.046C159.448 66.406 158.968 66.694 158.404 66.91C157.852 67.114 157.246 67.216 156.586 67.216ZM168.774 67V55.48H165.21V53.59H174.39V55.48H170.88V67H168.774ZM174.708 67V57.262H176.652V59.224L176.472 58.936C176.688 58.3 177.036 57.844 177.516 57.568C177.996 57.28 178.572 57.136 179.244 57.136H179.838V58.99H178.992C178.32 58.99 177.774 59.2 177.354 59.62C176.946 60.028 176.742 60.616 176.742 61.384V67H174.708ZM185.801 67.216C184.829 67.216 183.965 66.994 183.209 66.55C182.465 66.094 181.883 65.482 181.463 64.714C181.043 63.934 180.833 63.064 180.833 62.104C180.833 61.12 181.043 60.25 181.463 59.494C181.895 58.738 182.471 58.144 183.191 57.712C183.911 57.268 184.727 57.046 185.639 57.046C186.371 57.046 187.025 57.172 187.601 57.424C188.177 57.676 188.663 58.024 189.059 58.468C189.455 58.9 189.755 59.398 189.959 59.962C190.175 60.526 190.283 61.126 190.283 61.762C190.283 61.918 190.277 62.08 190.265 62.248C190.253 62.416 190.229 62.572 190.193 62.716H182.435V61.096H189.041L188.069 61.834C188.189 61.246 188.147 60.724 187.943 60.268C187.751 59.8 187.451 59.434 187.043 59.17C186.647 58.894 186.179 58.756 185.639 58.756C185.099 58.756 184.619 58.894 184.199 59.17C183.779 59.434 183.455 59.818 183.227 60.322C182.999 60.814 182.909 61.414 182.957 62.122C182.897 62.782 182.987 63.358 183.227 63.85C183.479 64.342 183.827 64.726 184.271 65.002C184.727 65.278 185.243 65.416 185.819 65.416C186.407 65.416 186.905 65.284 187.313 65.02C187.733 64.756 188.063 64.414 188.303 63.994L189.959 64.804C189.767 65.26 189.467 65.674 189.059 66.046C188.663 66.406 188.183 66.694 187.619 66.91C187.067 67.114 186.461 67.216 185.801 67.216ZM192.268 67V57.262H194.212V59.17L193.978 58.918C194.218 58.306 194.602 57.844 195.13 57.532C195.658 57.208 196.27 57.046 196.966 57.046C197.686 57.046 198.322 57.202 198.874 57.514C199.426 57.826 199.858 58.258 200.17 58.81C200.482 59.362 200.638 59.998 200.638 60.718V67H198.622V61.258C198.622 60.766 198.532 60.352 198.352 60.016C198.172 59.668 197.914 59.404 197.578 59.224C197.254 59.032 196.882 58.936 196.462 58.936C196.042 58.936 195.664 59.032 195.328 59.224C195.004 59.404 194.752 59.668 194.572 60.016C194.392 60.364 194.302 60.778 194.302 61.258V67H192.268ZM207.315 67.216C206.379 67.216 205.539 66.994 204.795 66.55C204.063 66.094 203.481 65.482 203.049 64.714C202.629 63.946 202.419 63.082 202.419 62.122C202.419 61.162 202.635 60.298 203.067 59.53C203.499 58.762 204.081 58.156 204.813 57.712C205.545 57.268 206.373 57.046 207.297 57.046C208.077 57.046 208.767 57.202 209.367 57.514C209.967 57.826 210.441 58.258 210.789 58.81L210.483 59.278V53.374H212.499V67H210.573V65.02L210.807 65.398C210.471 65.986 209.991 66.436 209.367 66.748C208.743 67.06 208.059 67.216 207.315 67.216ZM207.513 65.326C208.077 65.326 208.581 65.188 209.025 64.912C209.481 64.636 209.835 64.258 210.087 63.778C210.351 63.286 210.483 62.734 210.483 62.122C210.483 61.51 210.351 60.964 210.087 60.484C209.835 60.004 209.481 59.626 209.025 59.35C208.581 59.074 208.077 58.936 207.513 58.936C206.949 58.936 206.439 59.074 205.983 59.35C205.527 59.626 205.173 60.004 204.921 60.484C204.669 60.964 204.543 61.51 204.543 62.122C204.543 62.734 204.669 63.286 204.921 63.778C205.173 64.258 205.521 64.636 205.965 64.912C206.421 65.188 206.937 65.326 207.513 65.326Z" fill="black"/>
<path d="M61.232 94V83.57H62.352V92.95H66.972V94H61.232ZM70.6855 94.168C70.2095 94.168 69.7848 94.0793 69.4115 93.902C69.0382 93.7153 68.7442 93.4633 68.5295 93.146C68.3148 92.8287 68.2075 92.4647 68.2075 92.054C68.2075 91.662 68.2915 91.3073 68.4595 90.99C68.6275 90.6633 68.8888 90.388 69.2435 90.164C69.5982 89.94 70.0508 89.7813 70.6015 89.688L73.5415 89.198V90.15L70.8535 90.598C70.3122 90.6913 69.9202 90.864 69.6775 91.116C69.4442 91.368 69.3275 91.6667 69.3275 92.012C69.3275 92.348 69.4582 92.6327 69.7195 92.866C69.9902 93.0993 70.3355 93.216 70.7555 93.216C71.2688 93.216 71.7168 93.1087 72.0995 92.894C72.4822 92.67 72.7808 92.3713 72.9955 91.998C73.2102 91.6247 73.3175 91.2093 73.3175 90.752V88.848C73.3175 88.4 73.1542 88.036 72.8275 87.756C72.5008 87.476 72.0762 87.336 71.5535 87.336C71.0962 87.336 70.6948 87.4527 70.3495 87.686C70.0042 87.91 69.7475 88.204 69.5795 88.568L68.6275 88.05C68.7675 87.7327 68.9868 87.4433 69.2855 87.182C69.5935 86.9207 69.9435 86.7153 70.3355 86.566C70.7275 86.4073 71.1335 86.328 71.5535 86.328C72.1042 86.328 72.5895 86.4353 73.0095 86.65C73.4388 86.8647 73.7702 87.1633 74.0035 87.546C74.2462 87.9193 74.3675 88.3533 74.3675 88.848V94H73.3175V92.502L73.4715 92.656C73.3408 92.936 73.1355 93.1927 72.8555 93.426C72.5848 93.65 72.2628 93.832 71.8895 93.972C71.5255 94.1027 71.1242 94.168 70.6855 94.168ZM79.1312 94.168C78.4126 94.168 77.7826 93.986 77.2412 93.622C76.6999 93.258 76.3079 92.7633 76.0652 92.138L76.9472 91.718C77.1619 92.1753 77.4606 92.5393 77.8432 92.81C78.2352 93.0807 78.6646 93.216 79.1312 93.216C79.5792 93.216 79.9572 93.1087 80.2652 92.894C80.5732 92.67 80.7272 92.3807 80.7272 92.026C80.7272 91.7647 80.6526 91.5593 80.5032 91.41C80.3539 91.2513 80.1812 91.13 79.9852 91.046C79.7892 90.962 79.6166 90.9013 79.4672 90.864L78.3892 90.556C77.6986 90.36 77.1992 90.0847 76.8912 89.73C76.5832 89.3753 76.4292 88.9647 76.4292 88.498C76.4292 88.0593 76.5412 87.6767 76.7652 87.35C76.9892 87.0233 77.2926 86.7713 77.6752 86.594C78.0579 86.4167 78.4826 86.328 78.9492 86.328C79.5839 86.328 80.1579 86.496 80.6712 86.832C81.1939 87.1587 81.5626 87.616 81.7772 88.204L80.8812 88.624C80.6946 88.204 80.4239 87.8773 80.0692 87.644C79.7239 87.4013 79.3366 87.28 78.9072 87.28C78.4872 87.28 78.1512 87.3873 77.8992 87.602C77.6472 87.8167 77.5212 88.0873 77.5212 88.414C77.5212 88.666 77.5866 88.8667 77.7172 89.016C77.8479 89.1653 77.9972 89.2773 78.1652 89.352C78.3426 89.4267 78.4966 89.4827 78.6272 89.52L79.8732 89.884C80.4799 90.0613 80.9512 90.3367 81.2872 90.71C81.6326 91.0833 81.8052 91.522 81.8052 92.026C81.8052 92.4367 81.6886 92.8053 81.4552 93.132C81.2312 93.4587 80.9186 93.7153 80.5172 93.902C80.1159 94.0793 79.6539 94.168 79.1312 94.168ZM86.5203 94.084C85.8483 94.084 85.3303 93.888 84.9663 93.496C84.6023 93.104 84.4203 92.544 84.4203 91.816V87.546H83.0343V86.496H83.3843C83.7016 86.496 83.9536 86.3933 84.1403 86.188C84.3269 85.9733 84.4203 85.7073 84.4203 85.39V84.76H85.4703V86.496H87.1223V87.546H85.4703V91.816C85.4703 92.068 85.5076 92.292 85.5823 92.488C85.6569 92.6747 85.7829 92.824 85.9603 92.936C86.1469 93.048 86.3943 93.104 86.7023 93.104C86.7769 93.104 86.8656 93.0993 86.9683 93.09C87.0709 93.0807 87.1596 93.0713 87.2343 93.062V94C87.1223 94.028 86.9963 94.0467 86.8563 94.056C86.7163 94.0747 86.6043 94.084 86.5203 94.084ZM91.4849 94L96.1889 84.55H90.9809V83.57H97.3509V84.55L92.6609 94H91.4849ZM104.825 94.168C104.125 94.168 103.495 94 102.935 93.664C102.375 93.3187 101.932 92.852 101.605 92.264C101.288 91.6667 101.129 90.9947 101.129 90.248C101.129 89.492 101.288 88.82 101.605 88.232C101.932 87.644 102.371 87.182 102.921 86.846C103.481 86.5007 104.116 86.328 104.825 86.328C105.469 86.328 106.043 86.468 106.547 86.748C107.051 87.028 107.448 87.406 107.737 87.882L107.569 88.176V83.402H108.619V94H107.569V92.32L107.737 92.474C107.476 93.0153 107.084 93.4353 106.561 93.734C106.048 94.0233 105.469 94.168 104.825 94.168ZM104.881 93.118C105.385 93.118 105.838 92.992 106.239 92.74C106.65 92.488 106.972 92.1473 107.205 91.718C107.448 91.2793 107.569 90.7893 107.569 90.248C107.569 89.7067 107.448 89.2213 107.205 88.792C106.972 88.3533 106.65 88.008 106.239 87.756C105.838 87.504 105.385 87.378 104.881 87.378C104.387 87.378 103.939 87.504 103.537 87.756C103.136 88.008 102.819 88.3487 102.585 88.778C102.361 89.2073 102.249 89.6973 102.249 90.248C102.249 90.7893 102.361 91.2793 102.585 91.718C102.819 92.1473 103.131 92.488 103.523 92.74C103.925 92.992 104.377 93.118 104.881 93.118ZM112.945 94.168C112.469 94.168 112.045 94.0793 111.671 93.902C111.298 93.7153 111.004 93.4633 110.789 93.146C110.575 92.8287 110.467 92.4647 110.467 92.054C110.467 91.662 110.551 91.3073 110.719 90.99C110.887 90.6633 111.149 90.388 111.503 90.164C111.858 89.94 112.311 89.7813 112.861 89.688L115.801 89.198V90.15L113.113 90.598C112.572 90.6913 112.18 90.864 111.937 91.116C111.704 91.368 111.587 91.6667 111.587 92.012C111.587 92.348 111.718 92.6327 111.979 92.866C112.25 93.0993 112.595 93.216 113.015 93.216C113.529 93.216 113.977 93.1087 114.359 92.894C114.742 92.67 115.041 92.3713 115.255 91.998C115.47 91.6247 115.577 91.2093 115.577 90.752V88.848C115.577 88.4 115.414 88.036 115.087 87.756C114.761 87.476 114.336 87.336 113.813 87.336C113.356 87.336 112.955 87.4527 112.609 87.686C112.264 87.91 112.007 88.204 111.839 88.568L110.887 88.05C111.027 87.7327 111.247 87.4433 111.545 87.182C111.853 86.9207 112.203 86.7153 112.595 86.566C112.987 86.4073 113.393 86.328 113.813 86.328C114.364 86.328 114.849 86.4353 115.269 86.65C115.699 86.8647 116.03 87.1633 116.263 87.546C116.506 87.9193 116.627 88.3533 116.627 88.848V94H115.577V92.502L115.731 92.656C115.601 92.936 115.395 93.1927 115.115 93.426C114.845 93.65 114.523 93.832 114.149 93.972C113.785 94.1027 113.384 94.168 112.945 94.168ZM118.941 97.08C118.792 97.08 118.638 97.066 118.479 97.038C118.33 97.0193 118.18 96.982 118.031 96.926V95.946C118.124 95.9553 118.241 95.9693 118.381 95.988C118.53 96.016 118.68 96.03 118.829 96.03C119.286 96.03 119.636 95.932 119.879 95.736C120.122 95.5493 120.36 95.1853 120.593 94.644L121.069 93.524L121.041 94.448L117.863 86.496H118.997L121.601 93.062H121.307L123.897 86.496H125.059L121.629 94.952C121.48 95.316 121.288 95.6613 121.055 95.988C120.831 96.3147 120.546 96.576 120.201 96.772C119.856 96.9773 119.436 97.08 118.941 97.08ZM128.897 94.168C128.178 94.168 127.548 93.986 127.007 93.622C126.466 93.258 126.074 92.7633 125.831 92.138L126.713 91.718C126.928 92.1753 127.226 92.5393 127.609 92.81C128.001 93.0807 128.43 93.216 128.897 93.216C129.345 93.216 129.723 93.1087 130.031 92.894C130.339 92.67 130.493 92.3807 130.493 92.026C130.493 91.7647 130.418 91.5593 130.269 91.41C130.12 91.2513 129.947 91.13 129.751 91.046C129.555 90.962 129.382 90.9013 129.233 90.864L128.155 90.556C127.464 90.36 126.965 90.0847 126.657 89.73C126.349 89.3753 126.195 88.9647 126.195 88.498C126.195 88.0593 126.307 87.6767 126.531 87.35C126.755 87.0233 127.058 86.7713 127.441 86.594C127.824 86.4167 128.248 86.328 128.715 86.328C129.35 86.328 129.924 86.496 130.437 86.832C130.96 87.1587 131.328 87.616 131.543 88.204L130.647 88.624C130.46 88.204 130.19 87.8773 129.835 87.644C129.49 87.4013 129.102 87.28 128.673 87.28C128.253 87.28 127.917 87.3873 127.665 87.602C127.413 87.8167 127.287 88.0873 127.287 88.414C127.287 88.666 127.352 88.8667 127.483 89.016C127.614 89.1653 127.763 89.2773 127.931 89.352C128.108 89.4267 128.262 89.4827 128.393 89.52L129.639 89.884C130.246 90.0613 130.717 90.3367 131.053 90.71C131.398 91.0833 131.571 91.522 131.571 92.026C131.571 92.4367 131.454 92.8053 131.221 93.132C130.997 93.4587 130.684 93.7153 130.283 93.902C129.882 94.0793 129.42 94.168 128.897 94.168Z" fill="#626973"/>
<path opacity="0.5" d="M146.566 409V394.944H148.264L153.528 402.434H152.66L157.887 394.944H159.585V409H157.717V397.283L158.377 397.491L153.151 404.849H153L147.83 397.491L148.415 397.283V409H146.566ZM167.329 409.226C166.348 409.226 165.461 409 164.669 408.547C163.877 408.082 163.248 407.447 162.782 406.642C162.317 405.837 162.084 404.925 162.084 403.906C162.084 402.887 162.311 401.981 162.763 401.189C163.229 400.396 163.858 399.767 164.65 399.302C165.443 398.837 166.336 398.604 167.329 398.604C168.31 398.604 169.197 398.837 169.99 399.302C170.782 399.755 171.405 400.377 171.858 401.17C172.323 401.962 172.556 402.874 172.556 403.906C172.556 404.937 172.317 405.855 171.839 406.66C171.361 407.453 170.725 408.082 169.933 408.547C169.153 409 168.285 409.226 167.329 409.226ZM167.329 407.528C167.958 407.528 168.524 407.371 169.027 407.057C169.543 406.742 169.946 406.308 170.235 405.755C170.537 405.201 170.688 404.585 170.688 403.906C170.688 403.214 170.537 402.604 170.235 402.076C169.946 401.535 169.543 401.107 169.027 400.793C168.524 400.466 167.958 400.302 167.329 400.302C166.688 400.302 166.109 400.466 165.593 400.793C165.09 401.107 164.688 401.535 164.386 402.076C164.084 402.604 163.933 403.214 163.933 403.906C163.933 404.585 164.084 405.201 164.386 405.755C164.688 406.308 165.09 406.742 165.593 407.057C166.109 407.371 166.688 407.528 167.329 407.528ZM174.844 409V398.83H176.561V400.811L176.278 400.642C176.53 400 176.932 399.503 177.486 399.151C178.052 398.786 178.712 398.604 179.467 398.604C180.196 398.604 180.844 398.767 181.41 399.094C181.989 399.422 182.442 399.874 182.769 400.453C183.108 401.032 183.278 401.686 183.278 402.415V409H181.505V402.981C181.505 402.415 181.404 401.937 181.203 401.547C181.001 401.157 180.712 400.855 180.335 400.642C179.97 400.415 179.549 400.302 179.071 400.302C178.593 400.302 178.165 400.415 177.788 400.642C177.423 400.855 177.134 401.164 176.92 401.566C176.706 401.956 176.599 402.428 176.599 402.981V409H174.844Z" fill="black"/>
<path opacity="0.7" d="M158.084 445.007V432.554H155.423V430.95H159.952V445.007H158.084ZM168.779 445.233C167.659 445.233 166.678 444.931 165.835 444.327C165.005 443.711 164.357 442.862 163.892 441.78C163.426 440.686 163.194 439.416 163.194 437.969C163.194 436.523 163.426 435.258 163.892 434.177C164.357 433.082 165.005 432.233 165.835 431.63C166.665 431.026 167.64 430.724 168.76 430.724C169.879 430.724 170.854 431.026 171.684 431.63C172.514 432.233 173.162 433.082 173.628 434.177C174.106 435.258 174.345 436.523 174.345 437.969C174.345 439.416 174.112 440.686 173.646 441.78C173.181 442.875 172.527 443.724 171.684 444.327C170.854 444.931 169.886 445.233 168.779 445.233ZM168.779 443.516C169.533 443.516 170.187 443.29 170.741 442.837C171.294 442.372 171.722 441.724 172.024 440.894C172.338 440.063 172.496 439.089 172.496 437.969C172.496 436.85 172.338 435.875 172.024 435.045C171.722 434.214 171.288 433.573 170.722 433.12C170.169 432.667 169.514 432.441 168.76 432.441C168.005 432.441 167.351 432.667 166.798 433.12C166.244 433.573 165.81 434.214 165.496 435.045C165.194 435.875 165.043 436.85 165.043 437.969C165.043 439.076 165.194 440.045 165.496 440.875C165.81 441.705 166.244 442.353 166.798 442.818C167.364 443.283 168.024 443.516 168.779 443.516Z" fill="black"/>
<path opacity="0.5" d="M289.378 409V396.642H285.567V394.944H295.001V396.642H291.246V409H289.378ZM299.424 409.226C298.694 409.226 298.034 409.057 297.442 408.717C296.864 408.377 296.411 407.906 296.084 407.302C295.77 406.686 295.612 405.981 295.612 405.189V398.83H297.367V405C297.367 405.503 297.468 405.943 297.669 406.321C297.883 406.698 298.172 406.994 298.537 407.208C298.914 407.421 299.342 407.528 299.82 407.528C300.298 407.528 300.719 407.421 301.084 407.208C301.461 406.994 301.751 406.686 301.952 406.283C302.166 405.881 302.273 405.403 302.273 404.849V398.83H304.046V409H302.329V407.019L302.612 407.189C302.373 407.83 301.964 408.333 301.386 408.698C300.82 409.05 300.166 409.226 299.424 409.226ZM311.444 409.226C310.463 409.226 309.588 408.994 308.821 408.528C308.054 408.063 307.45 407.428 307.01 406.623C306.57 405.805 306.349 404.893 306.349 403.887C306.349 402.868 306.563 401.962 306.991 401.17C307.431 400.377 308.022 399.755 308.765 399.302C309.519 398.837 310.362 398.604 311.293 398.604C312.048 398.604 312.714 398.742 313.293 399.019C313.884 399.283 314.381 399.648 314.783 400.113C315.198 400.566 315.513 401.088 315.727 401.679C315.953 402.258 316.066 402.862 316.066 403.491C316.066 403.629 316.054 403.786 316.029 403.962C316.016 404.126 315.997 404.283 315.972 404.434H307.632V402.925H314.953L314.123 403.604C314.236 402.95 314.173 402.365 313.934 401.849C313.695 401.333 313.343 400.925 312.878 400.623C312.412 400.321 311.884 400.17 311.293 400.17C310.702 400.17 310.161 400.321 309.67 400.623C309.18 400.925 308.796 401.359 308.519 401.925C308.255 402.478 308.148 403.138 308.199 403.906C308.148 404.648 308.261 405.302 308.538 405.868C308.827 406.421 309.23 406.855 309.746 407.17C310.274 407.472 310.846 407.623 311.463 407.623C312.142 407.623 312.714 407.465 313.18 407.151C313.645 406.837 314.022 406.434 314.312 405.943L315.783 406.698C315.582 407.164 315.268 407.591 314.84 407.981C314.425 408.358 313.928 408.66 313.349 408.887C312.783 409.113 312.148 409.226 311.444 409.226Z" fill="black"/>
<path opacity="0.7" d="M297.332 445.007V432.554H294.671V430.95H299.199V445.007H297.332ZM304.536 445.007V432.554H301.876V430.95H306.404V445.007H304.536Z" fill="black"/>
<path opacity="0.5" d="M425.345 409L421.402 394.944H423.345L426.647 407.321H426.194L429.628 394.944H431.572L434.987 407.321H434.515L437.836 394.944H439.779L435.836 409H433.779L430.345 396.679H430.836L427.402 409H425.345ZM445.326 409.226C444.345 409.226 443.47 408.994 442.703 408.528C441.936 408.063 441.332 407.428 440.892 406.623C440.452 405.805 440.231 404.893 440.231 403.887C440.231 402.868 440.445 401.962 440.873 401.17C441.313 400.377 441.904 399.755 442.647 399.302C443.401 398.837 444.244 398.604 445.175 398.604C445.93 398.604 446.596 398.742 447.175 399.019C447.766 399.283 448.263 399.648 448.665 400.113C449.08 400.566 449.395 401.088 449.609 401.679C449.835 402.258 449.948 402.862 449.948 403.491C449.948 403.629 449.936 403.786 449.911 403.962C449.898 404.126 449.879 404.283 449.854 404.434H441.514V402.925H448.835L448.005 403.604C448.118 402.95 448.055 402.365 447.816 401.849C447.577 401.333 447.225 400.925 446.76 400.623C446.294 400.321 445.766 400.17 445.175 400.17C444.584 400.17 444.043 400.321 443.552 400.623C443.062 400.925 442.678 401.359 442.401 401.925C442.137 402.478 442.03 403.138 442.081 403.906C442.03 404.648 442.143 405.302 442.42 405.868C442.709 406.421 443.112 406.855 443.628 407.17C444.156 407.472 444.728 407.623 445.345 407.623C446.024 407.623 446.596 407.465 447.062 407.151C447.527 406.837 447.904 406.434 448.194 405.943L449.665 406.698C449.464 407.164 449.15 407.591 448.722 407.981C448.307 408.358 447.81 408.66 447.231 408.887C446.665 409.113 446.03 409.226 445.326 409.226ZM456.859 409.226C455.903 409.226 455.041 408.994 454.274 408.528C453.519 408.063 452.922 407.428 452.481 406.623C452.041 405.818 451.821 404.918 451.821 403.925C451.821 402.906 452.041 402 452.481 401.208C452.922 400.403 453.519 399.767 454.274 399.302C455.041 398.837 455.903 398.604 456.859 398.604C457.702 398.604 458.45 398.786 459.104 399.151C459.758 399.503 460.274 399.981 460.651 400.585L460.368 401.019V394.717H462.142V409H460.425V406.83L460.651 407.132C460.299 407.799 459.783 408.314 459.104 408.679C458.437 409.044 457.689 409.226 456.859 409.226ZM457.01 407.528C457.651 407.528 458.224 407.371 458.727 407.057C459.23 406.742 459.626 406.315 459.915 405.774C460.217 405.22 460.368 404.604 460.368 403.925C460.368 403.233 460.217 402.616 459.915 402.076C459.626 401.522 459.23 401.088 458.727 400.774C458.224 400.459 457.651 400.302 457.01 400.302C456.381 400.302 455.808 400.466 455.293 400.793C454.79 401.107 454.393 401.535 454.104 402.076C453.815 402.604 453.67 403.22 453.67 403.925C453.67 404.604 453.815 405.22 454.104 405.774C454.393 406.315 454.79 406.742 455.293 407.057C455.796 407.371 456.368 407.528 457.01 407.528Z" fill="black"/>
<path opacity="0.7" d="M436.456 445.007V432.554H433.795V430.95H438.323V445.007H436.456ZM441.32 445.007V443.724L445.207 439.516C445.974 438.699 446.584 438.026 447.037 437.497C447.503 436.969 447.842 436.497 448.056 436.082C448.27 435.667 448.377 435.227 448.377 434.762C448.377 433.994 448.15 433.403 447.698 432.988C447.245 432.573 446.647 432.365 445.905 432.365C445.15 432.365 444.509 432.585 443.981 433.026C443.452 433.453 443.088 434.063 442.886 434.856L441.207 434.422C441.371 433.667 441.673 433.013 442.113 432.46C442.553 431.906 443.1 431.479 443.754 431.177C444.408 430.875 445.125 430.724 445.905 430.724C446.761 430.724 447.509 430.894 448.15 431.233C448.805 431.56 449.314 432.019 449.679 432.611C450.056 433.202 450.245 433.887 450.245 434.667C450.245 435.183 450.138 435.686 449.924 436.177C449.71 436.667 449.396 437.189 448.981 437.743C448.566 438.284 448.025 438.912 447.358 439.629L443.886 443.403H450.547V445.007H441.32Z" fill="black"/>
<path opacity="0.5" d="M565.665 409V396.642H561.854V394.944H571.288V396.642H567.533V409H565.665ZM572.863 409V394.717H574.617V400.811L574.297 400.642C574.548 400 574.951 399.503 575.504 399.151C576.07 398.786 576.73 398.604 577.485 398.604C578.215 398.604 578.863 398.767 579.429 399.094C580.007 399.422 580.46 399.874 580.787 400.453C581.127 401.032 581.296 401.686 581.296 402.415V409H579.523V402.981C579.523 402.415 579.416 401.937 579.202 401.547C579.001 401.157 578.718 400.855 578.353 400.642C577.988 400.415 577.567 400.302 577.089 400.302C576.624 400.302 576.202 400.415 575.825 400.642C575.447 400.855 575.152 401.164 574.938 401.566C574.724 401.956 574.617 402.428 574.617 402.981V409H572.863ZM587.411 409.226C586.681 409.226 586.021 409.057 585.43 408.717C584.851 408.377 584.398 407.906 584.071 407.302C583.757 406.686 583.6 405.981 583.6 405.189V398.83H585.354V405C585.354 405.503 585.455 405.943 585.656 406.321C585.87 406.698 586.159 406.994 586.524 407.208C586.902 407.421 587.329 407.528 587.807 407.528C588.285 407.528 588.707 407.421 589.071 407.208C589.449 406.994 589.738 406.686 589.939 406.283C590.153 405.881 590.26 405.403 590.26 404.849V398.83H592.034V409H590.317V407.019L590.6 407.189C590.361 407.83 589.952 408.333 589.373 408.698C588.807 409.05 588.153 409.226 587.411 409.226ZM594.752 409V398.83H596.469V400.698L596.28 400.434C596.519 399.855 596.884 399.428 597.375 399.151C597.865 398.862 598.463 398.717 599.167 398.717H599.79V400.377H598.903C598.186 400.377 597.607 400.604 597.167 401.057C596.727 401.497 596.507 402.126 596.507 402.943V409H594.752ZM604.99 409.226C603.971 409.226 603.084 408.975 602.329 408.472C601.575 407.969 601.04 407.289 600.726 406.434L602.122 405.755C602.411 406.359 602.807 406.837 603.311 407.189C603.814 407.541 604.373 407.717 604.99 407.717C605.543 407.717 606.002 407.585 606.367 407.321C606.732 407.057 606.914 406.711 606.914 406.283C606.914 405.981 606.826 405.742 606.65 405.566C606.487 405.377 606.285 405.233 606.046 405.132C605.807 405.019 605.587 404.937 605.386 404.887L603.858 404.453C602.94 404.189 602.267 403.811 601.839 403.321C601.424 402.83 601.216 402.258 601.216 401.604C601.216 401 601.367 400.478 601.669 400.038C601.984 399.585 602.405 399.233 602.933 398.981C603.474 398.73 604.078 398.604 604.745 398.604C605.638 398.604 606.436 398.83 607.141 399.283C607.858 399.736 608.367 400.371 608.669 401.189L607.235 401.849C607.009 401.321 606.669 400.906 606.216 400.604C605.763 400.289 605.254 400.132 604.688 400.132C604.172 400.132 603.763 400.264 603.462 400.528C603.16 400.78 603.009 401.101 603.009 401.491C603.009 401.78 603.084 402.019 603.235 402.208C603.386 402.384 603.568 402.522 603.782 402.623C603.996 402.711 604.204 402.786 604.405 402.849L606.065 403.34C606.895 403.579 607.537 403.95 607.99 404.453C608.455 404.956 608.688 405.56 608.688 406.264C608.688 406.83 608.531 407.34 608.216 407.792C607.902 408.245 607.468 408.597 606.914 408.849C606.361 409.101 605.719 409.226 604.99 409.226Z" fill="black"/>
<path opacity="0.7" d="M581.802 445.007V432.554H579.142V430.95H583.67V445.007H581.802ZM591.195 445.233C590.453 445.233 589.761 445.101 589.12 444.837C588.478 444.573 587.925 444.202 587.459 443.724C586.994 443.233 586.648 442.655 586.422 441.988L587.988 441.346C588.252 442.051 588.667 442.598 589.233 442.988C589.799 443.378 590.453 443.573 591.195 443.573C591.774 443.573 592.29 443.46 592.742 443.233C593.195 443.007 593.547 442.68 593.799 442.252C594.063 441.824 594.195 441.309 594.195 440.705C594.195 440.089 594.063 439.573 593.799 439.158C593.547 438.73 593.195 438.403 592.742 438.177C592.29 437.95 591.768 437.837 591.176 437.837C590.988 437.837 590.78 437.85 590.554 437.875C590.34 437.9 590.158 437.938 590.007 437.988L589.61 437.139L593.365 432.554H587.139V430.95H595.459V432.497L591.875 436.912L591.761 436.422C592.604 436.447 593.346 436.642 593.988 437.007C594.629 437.372 595.132 437.868 595.497 438.497C595.862 439.114 596.044 439.837 596.044 440.667C596.044 441.522 595.837 442.296 595.422 442.988C595.007 443.68 594.434 444.227 593.705 444.629C592.975 445.032 592.139 445.233 591.195 445.233Z" fill="black"/>
<path opacity="0.5" d="M709.527 409V394.944H718.433V396.642H711.376V401.189H717.773V402.887H711.376V409H709.527ZM719.749 409V398.83H721.466V400.698L721.277 400.434C721.516 399.855 721.881 399.428 722.371 399.151C722.862 398.862 723.459 398.717 724.164 398.717H724.786V400.377H723.9C723.183 400.377 722.604 400.604 722.164 401.057C721.724 401.497 721.503 402.126 721.503 402.943V409H719.749ZM726.345 409V398.83H728.1V409H726.345ZM726.345 397.208V394.944H728.1V397.208H726.345Z" fill="black"/>
<path opacity="0.7" d="M711.32 445.007V432.554H708.66V430.95H713.188V445.007H711.32ZM722.883 445.007V441.761H715.977V440.233L722.845 430.95H724.618V440.233H726.449V441.761H724.618V445.007H722.883ZM717.373 440.894L717.109 440.233H722.883V432.497L723.43 432.648L717.373 440.894Z" fill="black"/>
<path opacity="0.5" d="M834.109 396.883C834.037 396.248 833.743 395.757 833.224 395.409C832.706 395.056 832.054 394.879 831.268 394.879C830.705 394.879 830.218 394.969 829.807 395.147C829.396 395.322 829.077 395.563 828.849 395.871C828.626 396.175 828.514 396.521 828.514 396.91C828.514 397.236 828.59 397.517 828.742 397.754C828.898 397.991 829.102 398.189 829.352 398.35C829.606 398.506 829.879 398.638 830.169 398.745C830.459 398.848 830.739 398.933 831.007 399L832.347 399.348C832.784 399.456 833.233 399.601 833.693 399.784C834.153 399.967 834.58 400.208 834.973 400.508C835.366 400.807 835.683 401.178 835.925 401.62C836.17 402.062 836.293 402.591 836.293 403.208C836.293 403.985 836.092 404.675 835.69 405.278C835.293 405.881 834.714 406.357 833.955 406.705C833.2 407.054 832.286 407.228 831.214 407.228C830.187 407.228 829.298 407.065 828.548 406.739C827.797 406.413 827.21 405.95 826.786 405.352C826.361 404.749 826.127 404.034 826.082 403.208H828.159C828.199 403.704 828.36 404.117 828.641 404.447C828.927 404.773 829.291 405.017 829.734 405.178C830.18 405.334 830.669 405.412 831.201 405.412C831.786 405.412 832.306 405.32 832.762 405.137C833.222 404.95 833.584 404.691 833.848 404.36C834.111 404.025 834.243 403.634 834.243 403.188C834.243 402.781 834.127 402.448 833.894 402.189C833.667 401.93 833.356 401.716 832.963 401.546C832.574 401.376 832.134 401.227 831.643 401.097L830.022 400.655C828.923 400.356 828.052 399.916 827.409 399.335C826.77 398.754 826.451 397.986 826.451 397.03C826.451 396.24 826.665 395.549 827.094 394.96C827.523 394.37 828.103 393.912 828.836 393.586C829.568 393.256 830.395 393.09 831.315 393.09C832.244 393.09 833.064 393.253 833.774 393.58C834.488 393.906 835.051 394.355 835.462 394.926C835.873 395.494 836.088 396.146 836.105 396.883H834.109ZM841.601 407.228C840.949 407.228 840.36 407.107 839.832 406.866C839.305 406.62 838.888 406.265 838.58 405.801C838.276 405.336 838.124 404.767 838.124 404.092C838.124 403.511 838.236 403.033 838.459 402.658C838.682 402.283 838.984 401.986 839.363 401.767C839.743 401.548 840.167 401.383 840.636 401.271C841.105 401.16 841.583 401.075 842.07 401.017C842.687 400.945 843.187 400.887 843.571 400.843C843.955 400.793 844.234 400.715 844.409 400.608C844.583 400.501 844.67 400.327 844.67 400.085V400.039C844.67 399.453 844.505 399 844.174 398.678C843.848 398.357 843.361 398.196 842.714 398.196C842.039 398.196 841.507 398.346 841.119 398.645C840.735 398.94 840.469 399.268 840.322 399.63L838.439 399.201C838.662 398.576 838.988 398.071 839.417 397.687C839.85 397.298 840.348 397.017 840.911 396.843C841.474 396.664 842.066 396.575 842.687 396.575C843.098 396.575 843.533 396.624 843.993 396.722C844.458 396.816 844.891 396.99 845.293 397.245C845.7 397.499 846.032 397.863 846.291 398.337C846.55 398.806 846.68 399.415 846.68 400.166V407H844.724V405.593H844.643C844.514 405.852 844.319 406.107 844.06 406.357C843.801 406.607 843.468 406.815 843.062 406.98C842.655 407.145 842.169 407.228 841.601 407.228ZM842.037 405.62C842.591 405.62 843.064 405.51 843.457 405.291C843.855 405.073 844.156 404.787 844.362 404.434C844.572 404.076 844.677 403.695 844.677 403.288V401.961C844.605 402.033 844.467 402.1 844.261 402.162C844.06 402.221 843.83 402.272 843.571 402.317C843.312 402.357 843.06 402.395 842.814 402.43C842.568 402.462 842.363 402.489 842.198 402.511C841.809 402.56 841.454 402.643 841.132 402.759C840.815 402.875 840.561 403.042 840.368 403.261C840.181 403.476 840.087 403.762 840.087 404.119C840.087 404.615 840.27 404.99 840.636 405.245C841.003 405.495 841.47 405.62 842.037 405.62ZM854.152 396.709V398.317H848.531V396.709H854.152ZM850.038 394.243H852.042V403.978C852.042 404.367 852.1 404.659 852.216 404.856C852.332 405.048 852.482 405.18 852.665 405.251C852.853 405.318 853.056 405.352 853.275 405.352C853.435 405.352 853.576 405.341 853.697 405.318C853.817 405.296 853.911 405.278 853.978 405.265L854.34 406.92C854.224 406.964 854.059 407.009 853.844 407.054C853.63 407.103 853.362 407.13 853.04 407.134C852.513 407.143 852.022 407.049 851.566 406.853C851.11 406.656 850.742 406.352 850.461 405.941C850.179 405.53 850.038 405.015 850.038 404.394V394.243Z" fill="black"/>
<path opacity="0.7" d="M834.069 444.007V431.554H831.408V429.95H835.937V444.007H834.069ZM843.575 444.233C842.845 444.233 842.16 444.107 841.518 443.856C840.877 443.592 840.317 443.221 839.839 442.743C839.374 442.252 839.034 441.68 838.82 441.026L840.33 440.384C840.594 441.076 841.021 441.617 841.613 442.007C842.216 442.384 842.87 442.573 843.575 442.573C844.153 442.573 844.663 442.447 845.103 442.195C845.556 441.931 845.908 441.573 846.16 441.12C846.411 440.655 846.537 440.139 846.537 439.573C846.537 438.982 846.405 438.46 846.141 438.007C845.889 437.554 845.543 437.202 845.103 436.95C844.663 436.686 844.16 436.554 843.594 436.554C843.015 436.554 842.487 436.686 842.009 436.95C841.531 437.214 841.185 437.548 840.971 437.95L839.481 437.629L840.556 429.95H847.839V431.554H841.254L841.971 430.837L841.141 436.799L840.499 436.422C840.914 435.894 841.399 435.516 841.952 435.29C842.518 435.051 843.128 434.931 843.782 434.931C844.701 434.931 845.506 435.139 846.197 435.554C846.889 435.969 847.43 436.523 847.82 437.214C848.21 437.906 848.405 438.692 848.405 439.573C848.405 440.453 848.191 441.246 847.763 441.95C847.348 442.655 846.776 443.214 846.046 443.629C845.33 444.032 844.506 444.233 843.575 444.233Z" fill="black"/>
<circle cx="717.152" cy="369.152" r="5.15234" fill="#314CFF"/>
<path d="M607.66 266.773H694.704" stroke="#4F46E5" stroke-width="4" stroke-dasharray="7 7"/>
<path d="M151.71 169.695L136.712 191.352C136.248 192.021 136 192.816 136 193.63V349.334C136 351.543 137.791 353.334 140 353.334H584.671C586.88 353.334 588.671 351.543 588.671 349.334V270.718C588.671 268.53 586.901 266.786 584.747 266.404C568.635 263.546 560.408 244.779 556.736 231.366C555.958 228.525 552.542 227.249 550.194 229.027L540.525 236.348C538.719 237.715 536.139 237.312 534.837 235.459L521.623 216.652C520.206 214.636 517.321 214.368 515.557 216.088L512.03 219.529C510.176 221.336 507.12 220.934 505.798 218.707L491.493 194.62C489.885 191.912 485.924 192.038 484.492 194.843L469.327 224.541C468.447 226.264 466.46 227.11 464.608 226.551L455.068 223.671C453.831 223.298 452.49 223.545 451.468 224.334L440.661 232.676C438.83 234.09 436.185 233.66 434.895 231.739L425.893 218.327C424.667 216.501 422.198 216.007 420.364 217.221L407.557 225.696C405.959 226.753 403.836 226.529 402.494 225.162L396.654 219.209C394.23 216.738 389.84 218.304 388.976 221.655C386.244 232.254 380.349 239.477 376.19 242.996C375.059 243.953 373.446 244.028 372.242 243.166C356.449 231.861 350.156 194.701 348.55 171.87C348.335 168.806 344.933 166.994 342.318 168.607L340.293 169.857C338.382 171.037 335.874 170.412 334.739 168.473L321.817 146.379C320.627 144.346 317.947 143.775 316.032 145.149L310.346 149.228C308.451 150.587 305.801 150.045 304.593 148.051L296.95 135.437C295.077 132.345 290.283 133.135 289.216 136.59C278.324 171.862 257.049 171.977 245.13 166.362C243.56 165.622 241.676 165.753 240.361 166.887L233.922 172.438C232.257 173.873 229.747 173.696 228.3 172.043L223.919 167.036C221.963 164.8 218.337 165.402 217.209 168.15L203.836 200.711C202.661 203.571 198.822 204.074 196.951 201.611L187.843 189.628C186.713 188.141 184.705 187.634 183.004 188.406L177.276 191.009C175.526 191.804 173.457 191.242 172.351 189.67L158.269 169.669C156.669 167.395 153.293 167.408 151.71 169.695Z" fill="url(#paint0_linear_410_8731)"/>
<path d="M176.281 97.3447V351.345" stroke="#AFAFAF" stroke-dasharray="6 6"/>
<path d="M311.281 97.3447V351.345" stroke="#AFAFAF" stroke-dasharray="6 6"/>
<path d="M446.281 97.3447V351.345" stroke="#AFAFAF" stroke-dasharray="6 6"/>
<path d="M581.281 97.3447V351.345" stroke="#AFAFAF" stroke-dasharray="6 6"/>
<path d="M716.281 97.3447V351.345" stroke="#4F46E5" stroke-width="1.5"/>
<path d="M851.281 97.3447V351.345" stroke="#AFAFAF" stroke-dasharray="6 6"/>
<g filter="url(#filter1_d_410_8731)">
<rect x="552" y="106" width="77" height="52" rx="12" fill="white"/>
<rect x="552.5" y="106.5" width="76" height="51" rx="11.5" stroke="#E4E4E9"/>
</g>
<path d="M583.787 140.885V137.101H575.735V135.319L583.743 124.495H585.811V135.319H587.945V137.101H585.811V140.885H583.787ZM577.363 136.089L577.055 135.319H583.787V126.299L584.425 126.475L577.363 136.089ZM591.238 140.885V138.245H593.372V140.885H591.238ZM602.401 141.149C601.55 141.149 600.751 141.003 600.003 140.709C599.255 140.401 598.602 139.969 598.045 139.411C597.502 138.839 597.106 138.172 596.857 137.409L598.617 136.661C598.925 137.468 599.423 138.099 600.113 138.553C600.817 138.993 601.579 139.213 602.401 139.213C603.075 139.213 603.669 139.067 604.183 138.773C604.711 138.465 605.121 138.047 605.415 137.519C605.708 136.977 605.855 136.375 605.855 135.715C605.855 135.026 605.701 134.417 605.393 133.889C605.099 133.361 604.696 132.951 604.183 132.657C603.669 132.349 603.083 132.195 602.423 132.195C601.748 132.195 601.132 132.349 600.575 132.657C600.017 132.965 599.614 133.354 599.365 133.823L597.627 133.449L598.881 124.495H607.373V126.365H599.695L600.531 125.529L599.563 132.481L598.815 132.041C599.299 131.425 599.863 130.985 600.509 130.721C601.169 130.443 601.88 130.303 602.643 130.303C603.713 130.303 604.652 130.545 605.459 131.029C606.265 131.513 606.896 132.159 607.351 132.965C607.805 133.772 608.033 134.689 608.033 135.715C608.033 136.742 607.783 137.666 607.285 138.487C606.801 139.309 606.133 139.961 605.283 140.445C604.447 140.915 603.486 141.149 602.401 141.149Z" fill="#4F46E5"/>
<path d="M136 192.38L151.71 169.695C153.293 167.408 156.669 167.395 158.269 169.669L172.351 189.67C173.457 191.242 175.526 191.804 177.276 191.009L183.004 188.406C184.705 187.634 186.713 188.141 187.843 189.628L196.951 201.611C198.822 204.074 202.661 203.571 203.836 200.711L217.209 168.15C218.337 165.402 221.963 164.8 223.919 167.036L228.3 172.043C229.747 173.696 232.257 173.873 233.922 172.438L240.361 166.887C241.676 165.753 243.56 165.622 245.13 166.362C257.049 171.977 278.324 171.862 289.216 136.59C290.283 133.135 295.077 132.345 296.95 135.437L304.593 148.051C305.801 150.045 308.451 150.587 310.346 149.228L316.032 145.149C317.947 143.775 320.627 144.346 321.817 146.379L334.739 168.473C335.874 170.412 338.382 171.037 340.293 169.857L342.318 168.607C344.933 166.994 348.335 168.806 348.55 171.87C350.156 194.701 356.449 231.861 372.242 243.166C373.446 244.028 375.059 243.953 376.19 242.996C380.349 239.477 386.244 232.254 388.976 221.655C389.84 218.304 394.23 216.738 396.654 219.209L402.494 225.162C403.836 226.529 405.959 226.753 407.557 225.696L420.364 217.221C422.198 216.007 424.667 216.501 425.893 218.327L434.895 231.739C436.185 233.66 438.83 234.09 440.661 232.676L451.468 224.334C452.49 223.545 453.831 223.298 455.068 223.671L464.608 226.551C466.46 227.11 468.447 226.264 469.327 224.541L484.492 194.843C485.924 192.038 489.885 191.912 491.493 194.62L505.798 218.707C507.12 220.934 510.176 221.336 512.03 219.529L515.557 216.088C517.321 214.368 520.206 214.636 521.623 216.652L534.837 235.459C536.139 237.312 538.719 237.715 540.525 236.348L550.194 229.027C552.542 227.249 555.96 228.525 556.744 231.364C560.741 245.832 570.135 266.544 588.859 266.804" stroke="#4F46E5" stroke-width="4" stroke-linecap="round"/>
<defs>
<filter id="filter0_dd_410_8731" x="0" y="0" width="988" height="528" filterUnits="userSpaceOnUse" color-interpolation-filters="sRGB">
<feFlood flood-opacity="0" result="BackgroundImageFix"/>
<feColorMatrix in="SourceAlpha" type="matrix" values="0 0 0 0 0 0 0 0 0 0 0 0 0 0 0 0 0 0 127 0" result="hardAlpha"/>
<feOffset/>
<feGaussianBlur stdDeviation="1"/>
<feComposite in2="hardAlpha" operator="out"/>
<feColorMatrix type="matrix" values="0 0 0 0 0.568627 0 0 0 0 0.619608 0 0 0 0 0.670588 0 0 0 0.2 0"/>
<feBlend mode="normal" in2="BackgroundImageFix" result="effect1_dropShadow_410_8731"/>
<feColorMatrix in="SourceAlpha" type="matrix" values="0 0 0 0 0 0 0 0 0 0 0 0 0 0 0 0 0 0 127 0" result="hardAlpha"/>
<feMorphology radius="4" operator="erode" in="SourceAlpha" result="effect2_dropShadow_410_8731"/>
<feOffset dy="12"/>
<feGaussianBlur stdDeviation="12"/>
<feComposite in2="hardAlpha" operator="out"/>
<feColorMatrix type="matrix" values="0 0 0 0 0.568627 0 0 0 0 0.619608 0 0 0 0 0.670588 0 0 0 0.12 0"/>
<feBlend mode="normal" in2="effect1_dropShadow_410_8731" result="effect2_dropShadow_410_8731"/>
<feBlend mode="normal" in="SourceGraphic" in2="effect2_dropShadow_410_8731" result="shape"/>
</filter>
<filter id="filter1_d_410_8731" x="528" y="94" width="125" height="100" filterUnits="userSpaceOnUse" color-interpolation-filters="sRGB">
<feFlood flood-opacity="0" result="BackgroundImageFix"/>
<feColorMatrix in="SourceAlpha" type="matrix" values="0 0 0 0 0 0 0 0 0 0 0 0 0 0 0 0 0 0 127 0" result="hardAlpha"/>
<feMorphology radius="10" operator="erode" in="SourceAlpha" result="effect1_dropShadow_410_8731"/>
<feOffset dy="12"/>
<feGaussianBlur stdDeviation="17"/>
<feComposite in2="hardAlpha" operator="out"/>
<feColorMatrix type="matrix" values="0 0 0 0 0.227451 0 0 0 0 0.301961 0 0 0 0 0.913725 0 0 0 0.15 0"/>
<feBlend mode="normal" in2="BackgroundImageFix" result="effect1_dropShadow_410_8731"/>
<feBlend mode="normal" in="SourceGraphic" in2="effect1_dropShadow_410_8731" result="shape"/>
</filter>
<linearGradient id="paint0_linear_410_8731" x1="363.336" y1="126.852" x2="363.336" y2="353.334" gradientUnits="userSpaceOnUse">
<stop stop-color="#4F46E5"/>
<stop offset="0.932292" stop-color="#D9D9D9" stop-opacity="0"/>
</linearGradient>
</defs>
</svg>
