<svg width="19" height="21" viewBox="0 0 19 21" fill="none" xmlns="http://www.w3.org/2000/svg">
<path fill-rule="evenodd" clip-rule="evenodd" d="M15.6489 2.87672C14.717 1.925 13.388 1.57395 12.0869 1.94415C11.7207 2.04834 11.3394 1.83596 11.2352 1.46978C11.131 1.10361 11.3434 0.722299 11.7096 0.618107C13.491 0.111222 15.3444 0.595158 16.634 1.91217C16.9003 2.18419 16.8957 2.62063 16.6237 2.88698C16.3517 3.15334 15.9152 3.14875 15.6489 2.87672ZM8.5573 2.3128C8.36055 1.97541 7.7872 1.7708 7.20478 2.10366C6.62449 2.43531 6.52243 3.0199 6.71575 3.35142L9.03712 7.33222C9.2289 7.6611 9.11777 8.08318 8.78889 8.27496C8.46001 8.46674 8.03793 8.35561 7.84615 8.02673L5.52478 4.04592C5.52466 4.04572 5.52489 4.04612 5.52478 4.04592L4.75098 2.71899C4.55424 2.3816 3.98088 2.17699 3.39846 2.50985C2.81817 2.84149 2.71611 3.42609 2.90943 3.7576L6.3915 9.72881C6.58328 10.0577 6.47214 10.4798 6.14326 10.6716C5.81439 10.8633 5.39231 10.7522 5.20052 10.4233L3.65294 7.76945C3.4562 7.43206 2.88284 7.22745 2.30042 7.56031C1.72013 7.89195 1.61807 8.47655 1.81139 8.80806L5.29345 14.7793C6.77226 17.3152 10.4215 18.1382 13.5161 16.3695C16.6086 14.6021 17.7079 11.0713 16.2326 8.54129L13.9112 4.56049C13.7144 4.2231 13.1411 4.01849 12.5587 4.35135C11.9784 4.68299 11.8763 5.26759 12.0696 5.5991L13.6172 8.25297C13.7098 8.41181 13.7352 8.60106 13.6876 8.77866C13.64 8.95626 13.5234 9.10748 13.3638 9.19872C11.9461 10.0089 11.5116 11.5756 12.1323 12.64C12.3241 12.9688 12.2129 13.3909 11.8841 13.5827C11.5552 13.7745 11.1331 13.6633 10.9413 13.3345C9.96775 11.665 10.5806 9.59998 12.1025 8.39229L8.5573 2.3128ZM11.0648 3.87601L9.74827 1.61829C9.09031 0.489989 7.61308 0.282365 6.52069 0.906681C6.18402 1.09909 5.89767 1.36283 5.68177 1.66883C4.94643 0.859199 3.68004 0.760978 2.71437 1.31287C1.61985 1.9384 1.05708 3.31793 1.71846 4.45211L2.63957 6.03167C2.28568 6.07011 1.93466 6.1814 1.61633 6.36333C0.521803 6.98886 -0.0409659 8.36839 0.62042 9.50257L4.10248 15.4738C6.04251 18.8006 10.5956 19.6266 14.2002 17.5665C17.807 15.5052 19.367 11.1795 17.4235 7.84679L15.1022 3.86598C14.4442 2.73767 12.967 2.53005 11.8746 3.15437C11.5529 3.33823 11.2771 3.58724 11.0648 3.87601ZM2.32903 15.6866C2.65791 15.4948 3.07999 15.6059 3.27177 15.9348C4.03176 17.238 5.19361 18.2236 6.6264 18.8631C6.97406 19.0182 7.1301 19.4259 6.97494 19.7735C6.81977 20.1212 6.41216 20.2772 6.0645 20.1221C4.39951 19.3789 3.00263 18.2101 2.0808 16.6293C1.88902 16.3004 2.00016 15.8783 2.32903 15.6866Z" fill="#FBFBFF"/>
</svg>
