<svg width="196" height="196" viewBox="0 0 196 196" fill="none" xmlns="http://www.w3.org/2000/svg">
<path d="M36.3652 156.1C37.0353 155.266 37.7332 154.471 38.972 154.949C40.1585 155.406 40.3051 156.397 40.2981 157.51C40.2841 159.681 39.6665 160.438 38.0333 160.291C37.1504 160.211 36.8887 159.454 36.3652 158.972V156.1Z" fill="#CFCED0"/>
<path d="M91.7115 89.2402C90.6995 87.4953 89.2269 86.1239 87.9322 84.6129C81.6299 77.2636 75.2682 69.9632 68.9274 62.6454C67.4967 60.9948 67.9783 59.4244 70.1279 58.9079C85.5802 55.174 101.036 51.4575 116.488 47.734C129.288 44.6491 142.092 41.5747 154.892 38.4829C159.142 37.4569 163.382 36.3716 167.64 35.3736C168.777 35.1084 169.664 35.5655 170.009 36.7834C168.526 38.4515 166.614 39.5996 164.904 40.9919C163.389 42.2238 161.788 43.337 160.245 44.534C152.816 50.0581 145.376 55.5683 137.897 61.0227C125.537 70.0365 113.176 79.0468 100.666 87.8548C98.9945 89.0308 97.3369 90.2208 95.6444 91.3654C95.2535 91.6306 94.8801 91.9482 94.3811 92.0179C93.0236 91.5433 92.5072 90.2591 91.7115 89.2402Z" fill="#F8DF75"/>
<path d="M94.3268 91.8723C108.258 82.2443 121.927 72.2533 135.599 62.2659C143.535 56.4695 151.484 50.6941 159.329 44.7756C159.57 44.5942 159.859 44.479 160.125 44.3359C160.484 44.8454 160.132 45.2502 159.898 45.6446C154.918 54.1175 150.022 62.6428 145.084 71.1436C138.199 82.9876 131.328 94.8385 124.464 106.696C122.174 110.65 119.889 114.601 117.572 118.537C117.296 119.008 117.128 119.601 116.518 119.807C112.979 115.4 109.437 110.989 105.895 106.585C105.71 106.354 105.487 106.149 105.284 105.932C103.836 104.917 103.006 103.36 101.92 102.034C99.5683 99.1587 97.2546 96.2518 94.9549 93.331C94.6199 92.9052 94.1174 92.5388 94.3268 91.8723Z" fill="#F8CC45"/>
<path d="M116.52 119.808C118.969 115.572 121.419 111.335 123.869 107.095C126.922 101.805 129.969 96.5144 133.029 91.2276C135.545 86.8794 138.072 82.5348 140.598 78.1901C143.669 72.9103 146.74 67.6339 149.818 62.3575C153.133 56.6693 156.455 50.9846 159.764 45.2965C159.935 45.0033 160.011 44.6579 160.133 44.3368C162.468 42.5187 164.778 40.6692 167.144 38.8929C168.093 38.181 168.861 37.2179 170.02 36.7852C170.219 37.668 169.817 38.3764 169.392 39.1023C158.165 58.4386 146.946 77.7783 135.727 97.1181C131.085 105.116 126.441 113.111 121.799 121.11C120.585 123.2 119.207 123.287 117.671 121.378C117.266 120.872 116.781 120.426 116.53 119.804L116.52 119.808Z" fill="#F7B43C"/>
<path d="M94.3262 91.8714C95.7745 94.1258 97.61 96.0765 99.2362 98.1912C101.229 100.788 103.41 103.237 105.284 105.928C101.738 106.94 98.2033 107.976 94.6473 108.957C93.1677 109.365 92.0405 108.528 92.0091 106.971C91.8835 101.063 91.8032 95.1517 91.709 89.2402C92.8536 89.8474 93.2549 91.191 94.3262 91.8714Z" fill="#F59E0B"/>
<path d="M74.5077 129.635C74.6194 130.315 74.2146 130.954 73.5481 131.195C71.8695 131.795 70.1282 132.175 68.4741 131.097C67.3818 130.385 67.312 126.166 68.3485 125.381C69.4791 124.526 71.1402 125.091 71.5345 126.592C71.7474 127.401 72.0929 127.635 72.8606 127.639C74.061 127.646 74.5217 128.385 74.5077 129.635Z" fill="#CFCED0"/>
<path d="M97.7395 146.832C97.736 147.994 95.9005 150.629 94.7908 151.013C93.8904 151.323 93.0354 151.163 92.4631 150.378C91.835 149.512 91.8873 148.57 92.6306 147.785C93.2588 147.122 93.8276 146.431 94.3266 145.667C94.885 144.812 95.726 144.697 96.6124 144.993C97.4673 145.276 97.7674 145.97 97.736 146.832H97.7395Z" fill="#CFCED0"/>
<path d="M55.4089 131.323C55.4193 130.632 55.5973 129.99 56.2848 129.704C57.5236 129.188 58.7938 128.751 60.1548 128.675C61.3448 128.605 61.9625 129.324 62.1579 130.325C62.3498 131.327 61.8787 132.101 60.8248 132.398C59.7849 132.695 58.752 133.023 57.6981 133.27C56.4767 133.56 55.3775 132.597 55.4089 131.32V131.323Z" fill="#CFCED0"/>
<path d="M87.2488 149.316C87.2802 150.761 85.804 151.805 84.5582 151.288C83.3613 150.793 82.2899 150.025 81.3233 149.17C80.6638 148.584 80.4997 147.736 80.9709 146.922C81.4838 146.036 82.3842 145.568 83.281 145.987C84.5164 146.563 85.6505 147.39 86.7498 148.214C87.0743 148.458 87.1371 149.048 87.2523 149.316H87.2488Z" fill="#CFCED0"/>
<path d="M50.7229 135.406C50.7125 135.86 50.5624 136.306 50.2344 136.578C49.2329 137.402 48.2383 138.25 47.1356 138.923C46.326 139.416 45.3837 139.245 44.8149 138.431C44.2601 137.632 44.1903 136.739 44.9126 135.922C45.7606 134.966 46.8005 134.251 47.8963 133.637C49.1805 132.918 50.7718 133.951 50.7195 135.409L50.7229 135.406Z" fill="#CFCED0"/>
<path d="M66.122 116.065C66.122 115.587 66.1046 115.113 66.1255 114.635C66.1814 113.375 66.7572 112.785 67.9437 112.736C68.9871 112.694 69.9118 113.396 69.9991 114.46C70.0898 115.577 70.0968 116.718 69.9921 117.835C69.8874 118.951 68.9068 119.642 67.7936 119.534C66.642 119.422 66.1255 118.742 66.1186 117.622C66.1186 117.102 66.1186 116.582 66.1186 116.062L66.122 116.065Z" fill="#CFCED0"/>
<path d="M39.6521 149.327C38.2318 149.316 37.6281 148.744 37.67 147.491C37.7189 145.98 38.3575 144.626 39.1392 143.394C39.6591 142.571 40.6886 142.539 41.4912 142.93C42.3008 143.325 42.8487 144.127 42.566 145.083C42.238 146.197 41.7773 147.278 41.2713 148.325C40.9363 149.02 40.3501 149.487 39.6521 149.327Z" fill="#CFCED0"/>
<path d="M70.1033 107.284C68.6376 107.27 67.8943 106.401 68.2468 104.925C68.5679 103.581 69.196 102.325 70.1487 101.275C70.8152 100.542 71.6108 100.584 72.396 101.02C73.2126 101.473 73.572 102.262 73.2684 103.103C72.8462 104.276 72.2634 105.396 71.6737 106.499C71.3456 107.113 70.7454 107.395 70.1033 107.284Z" fill="#CFCED0"/>
<path d="M84.6816 133.501C83.5196 133.18 82.3121 132.971 81.2164 132.499C80.3614 132.133 79.7612 131.362 80.0927 130.287C80.4207 129.223 81.4432 128.626 82.5006 128.884C83.4637 129.118 84.4129 129.415 85.3726 129.666C86.6568 130.001 86.9499 130.936 86.751 132.074C86.5556 133.176 85.7495 133.501 84.6886 133.504L84.6816 133.501Z" fill="#CFCED0"/>
<path d="M91.4352 135.899C91.4457 135.023 91.683 134.405 92.4123 134.081C93.1452 133.753 93.9129 133.77 94.4992 134.283C95.4134 135.079 96.2998 135.927 97.0571 136.866C97.7585 137.735 97.5701 138.712 96.7326 139.413C95.9264 140.087 95.0121 140.216 94.1711 139.382C93.4348 138.649 92.7159 137.892 91.9622 137.176C91.5469 136.782 91.3829 136.328 91.4352 135.906V135.899Z" fill="#CFCED0"/>
<path d="M74.6439 136.498C76.3538 136.522 78.7094 140.333 77.9521 141.848C77.4252 142.905 75.7606 143.237 74.9824 142.315C74.1518 141.335 73.4051 140.249 72.8293 139.105C72.1558 137.765 73.1224 136.481 74.6439 136.502V136.498Z" fill="#CFCED0"/>
<path d="M80.7376 94.5904C80.748 95.8292 78.3506 97.7485 77.1327 97.4903C76.3406 97.3228 75.8066 96.8622 75.5938 96.0909C75.3949 95.3721 75.5624 94.7509 76.1417 94.2205C76.6826 93.7249 77.199 93.1945 77.8551 92.8525C79.1218 92.193 80.7306 93.1736 80.741 94.5939L80.7376 94.5904Z" fill="#CFCED0"/>
<path d="M127.44 84.1406C131.356 83.9248 135.222 84.1967 138.952 85.4911C149.433 89.1243 155.948 96.41 157.944 107.271C160.693 122.23 151.426 137.069 135.604 140.299C122.482 142.976 109.533 136.444 103.79 124.327C103.421 124.129 103.296 123.762 103.136 123.408C102.265 121.462 101.743 119.415 101.318 117.335C100.444 111.784 101.031 106.382 103.238 101.223C106.189 94.3302 111.143 89.3465 118.023 86.3131C118.825 85.9593 119.645 85.6465 120.467 85.3401C122.411 84.7382 124.374 84.2226 126.411 84.0435C126.762 84.0111 127.114 83.9119 127.44 84.1406Z" fill="#10B981"/>
<path d="M174.842 90.3614C177.7 90.3527 179.972 92.6029 179.991 95.468C180.009 98.2188 177.707 100.519 174.896 100.557C172.132 100.596 169.711 98.1929 169.731 95.427C169.748 92.6698 172.069 90.37 174.842 90.3614Z" fill="#10B981"/>
<path d="M139.699 101.109C140.845 100.599 141.971 100.539 142.963 101.415C143.811 102.164 144.074 103.13 143.794 104.235C143.654 104.789 143.311 105.214 142.918 105.607C137.792 110.757 132.672 115.911 127.538 121.05C126.187 122.4 124.864 122.383 123.479 121.018C121.402 118.968 119.337 116.903 117.277 114.834C116.103 113.654 115.909 112.271 116.716 111.076C117.52 109.883 118.86 109.59 120.42 110.267C120.957 110.349 121.188 110.828 121.527 111.156C122.644 112.239 123.764 113.324 124.823 114.463C125.333 115.009 125.635 114.959 126.139 114.45C130.34 110.211 134.569 105.997 138.795 101.784C139.058 101.521 139.246 101.13 139.697 101.106L139.699 101.109Z" fill="#FEFEFE"/>
</svg>
