<svg width="32" height="32" viewBox="0 0 32 32" fill="none" xmlns="http://www.w3.org/2000/svg">
<path d="M13.9863 31.5455V12.4079H18.8934V16.1934L18.613 15.3522C19.057 14.2072 19.7697 13.366 20.7511 12.8285C21.7559 12.2677 22.9242 11.9873 24.2562 11.9873C25.7049 11.9873 26.9667 12.2911 28.0416 12.8986C29.1399 13.5062 29.9928 14.3591 30.6003 15.4573C31.2079 16.5322 31.5116 17.794 31.5116 19.2428V31.5455H26.254V20.3644C26.254 19.6167 26.1022 18.9741 25.7984 18.4366C25.518 17.8992 25.1091 17.4786 24.5716 17.1748C24.0575 16.871 23.45 16.7191 22.749 16.7191C22.0713 16.7191 21.4638 16.871 20.9264 17.1748C20.3889 17.4786 19.9683 17.8992 19.6645 18.4366C19.3841 18.9741 19.2439 19.6167 19.2439 20.3644V31.5455H13.9863Z" fill="#F9FAFB"/>
<path d="M13.8389 -0.00488281C15.825 -0.00486505 17.6594 0.334092 19.3418 1.01172C21.0241 1.68931 22.4843 2.63565 23.7227 3.85059C24.9845 5.06565 25.9542 6.4913 26.6318 8.12695C26.6437 8.1547 26.6543 8.18311 26.666 8.21094C25.8772 8.0614 25.0706 7.99025 24.2549 7.99023C23.0807 7.99026 21.9244 8.14633 20.8145 8.48535C20.5265 8.05393 20.1997 7.65381 19.832 7.28613C19.061 6.51509 18.1618 5.93044 17.1338 5.5332C16.129 5.11261 15.0305 4.90236 13.8389 4.90234C12.6471 4.90234 11.5369 5.1126 10.5088 5.5332C9.50405 5.93044 8.61581 6.51505 7.84473 7.28613C7.07383 8.05713 6.47815 8.96825 6.05762 10.0195C5.63701 11.0477 5.42676 12.1933 5.42676 13.4551C5.42681 14.7167 5.63706 15.8734 6.05762 16.9248C6.47816 17.9761 7.07383 18.8872 7.84473 19.6582C8.47961 20.2738 9.195 20.777 9.98828 21.1709V26.4678C9.43559 26.3223 8.89645 26.1442 8.37109 25.9326C6.68866 25.255 5.21592 24.3088 3.9541 23.0938C2.71568 21.8553 1.74592 20.4179 1.04492 18.7822C0.344018 17.1467 -0.00580281 15.3709 -0.00585938 13.4551C-0.00585938 11.539 0.332169 9.7626 1.00977 8.12695C1.71075 6.49132 2.68056 5.06564 3.91895 3.85059C5.18077 2.6355 6.65351 1.68936 8.33594 1.01172C10.0183 0.334107 11.8527 -0.00488281 13.8389 -0.00488281ZM19.2432 20.3643V25.957H19.2422V20.3643H19.2432ZM25.9961 18.8594C26.005 18.8825 26.0121 18.9063 26.0205 18.9297C26.0088 18.8973 25.9979 18.8648 25.9854 18.833L25.9961 18.8594Z" fill="#F9FAFB"/>
</svg>
