<svg width="32" height="32" viewBox="0 0 32 32" fill="none" xmlns="http://www.w3.org/2000/svg">
<path d="M14 31.5705V12.4209H18.9102V16.2087L18.6296 15.367C19.0738 14.2213 19.787 13.3795 20.769 12.8417C21.7744 12.2806 22.9435 12 24.2763 12C25.7259 12 26.9885 12.304 28.0641 12.9119C29.163 13.5198 30.0165 14.3732 30.6244 15.4722C31.2323 16.5477 31.5363 17.8104 31.5363 19.26V31.5705H26.2754V20.3823C26.2754 19.6341 26.1234 18.9911 25.8195 18.4534C25.5389 17.9156 25.1297 17.4947 24.5919 17.1907C24.0775 16.8868 23.4696 16.7348 22.7681 16.7348C22.0901 16.7348 21.4821 16.8868 20.9444 17.1907C20.4066 17.4947 19.9857 17.9156 19.6818 18.4534C19.4012 18.9911 19.2609 19.6341 19.2609 20.3823V31.5705H14Z" fill="#4F46E5"/>
<path d="M13.8535 0C15.841 0 17.6769 0.339509 19.3604 1.01758C21.0437 1.69564 22.505 2.64265 23.7441 3.8584C25.0066 5.07419 25.9772 6.50012 26.6553 8.13672C26.6672 8.16448 26.6778 8.19286 26.6895 8.2207C25.9 8.07114 25.0928 8.00001 24.2764 8C23.1011 8 21.9438 8.15567 20.833 8.49512C20.5449 8.06364 20.2183 7.66267 19.8506 7.29492C19.0791 6.52349 18.179 5.93845 17.1504 5.54102C16.145 5.12021 15.0459 4.91016 13.8535 4.91016C12.6611 4.91017 11.5502 5.12016 10.5215 5.54102C9.51619 5.93847 8.62798 6.52344 7.85645 7.29492C7.08494 8.06643 6.48825 8.97825 6.06738 10.0303C5.64652 11.059 5.43653 12.2052 5.43652 13.4678C5.43652 14.7304 5.64651 15.8883 6.06738 16.9404C6.48825 17.9925 7.08492 18.9043 7.85645 19.6758C8.49136 20.2914 9.20678 20.7935 10 21.1875V26.4893C9.44733 26.3437 8.90816 26.1657 8.38281 25.9541C6.69936 25.276 5.22549 24.3291 3.96289 23.1133C2.72366 21.8741 1.75321 20.4355 1.05176 18.7988C0.350364 17.1622 0 15.385 0 13.4678C1.02305e-05 11.5505 0.339519 9.77341 1.01758 8.13672C1.71894 6.50029 2.68877 5.07409 3.92773 3.8584C5.19035 2.64255 6.66417 1.69565 8.34766 1.01758C10.0311 0.339571 11.8662 1.62678e-05 13.8535 0Z" fill="#4F46E5"/>
</svg>
