<svg width="46" height="45" viewBox="0 0 46 45" fill="none" xmlns="http://www.w3.org/2000/svg">
<rect x="0.863281" y="0.249432" width="44.737" height="44.737" rx="22.3685" fill="#0EA5E9"/>
<path d="M26.9601 17.8247C26.9601 19.8837 25.291 21.5528 23.232 21.5528C21.173 21.5528 19.5039 19.8837 19.5039 17.8247C19.5039 15.7657 21.173 14.0966 23.232 14.0966C25.291 14.0966 26.9601 15.7657 26.9601 17.8247Z" fill="#F9FAFB"/>
<path d="M29.6228 27.4112C29.6228 29.4702 26.7615 31.1393 23.2318 31.1393C19.7022 31.1393 16.8408 29.4702 16.8408 27.4112C16.8408 25.3522 19.7022 23.6831 23.2318 23.6831C26.7615 23.6831 29.6228 25.3522 29.6228 27.4112Z" fill="#F9FAFB"/>
<path d="M18.0359 15.1618C18.2249 15.1618 18.4095 15.1803 18.5877 15.2156C18.1536 15.9867 17.9059 16.8768 17.9059 17.8247C17.9059 18.7495 18.1416 19.6193 18.5563 20.3772C18.3878 20.4086 18.2139 20.4251 18.0359 20.4251C16.5293 20.4251 15.308 19.2468 15.308 17.7934C15.308 16.34 16.5293 15.1618 18.0359 15.1618Z" fill="#F9FAFB"/>
<path d="M16.2521 30.0592C15.6471 29.3361 15.243 28.4487 15.243 27.4112C15.243 26.4054 15.6228 25.5408 16.1972 24.83C14.1683 24.9874 12.5801 26.097 12.5801 27.4425C12.5801 28.8006 14.1963 29.9184 16.2521 30.0592Z" fill="#F9FAFB"/>
<path d="M28.5587 17.8247C28.5587 18.7495 28.323 19.6193 27.9083 20.3772C28.0768 20.4086 28.2508 20.4251 28.4287 20.4251C29.9353 20.4251 31.1566 19.2468 31.1566 17.7934C31.1566 16.34 29.9353 15.1618 28.4287 15.1618C28.2397 15.1618 28.0551 15.1803 27.877 15.2156C28.3111 15.9867 28.5587 16.8768 28.5587 17.8247Z" fill="#F9FAFB"/>
<path d="M30.2126 30.0592C32.2684 29.9184 33.8846 28.8006 33.8846 27.4425C33.8846 26.097 32.2963 24.9874 30.2675 24.83C30.8418 25.5408 31.2216 26.4054 31.2216 27.4112C31.2216 28.4487 30.8175 29.3361 30.2126 30.0592Z" fill="#F9FAFB"/>
</svg>
