<svg width="46" height="45" viewBox="0 0 46 45" fill="none" xmlns="http://www.w3.org/2000/svg">
<rect x="0.429688" y="0.249435" width="44.737" height="44.737" rx="22.3685" fill="#10B981"/>
<path d="M26.5265 17.8247C26.5265 19.8837 24.8574 21.5528 22.7984 21.5528C20.7394 21.5528 19.0703 19.8837 19.0703 17.8247C19.0703 15.7657 20.7394 14.0966 22.7984 14.0966C24.8574 14.0966 26.5265 15.7657 26.5265 17.8247Z" fill="#F9FAFB"/>
<path d="M29.1892 27.4112C29.1892 29.4702 26.3279 31.1393 22.7982 31.1393C19.2686 31.1393 16.4072 29.4702 16.4072 27.4112C16.4072 25.3522 19.2686 23.6831 22.7982 23.6831C26.3279 23.6831 29.1892 25.3522 29.1892 27.4112Z" fill="#F9FAFB"/>
<path d="M17.6023 15.1618C17.7914 15.1618 17.9759 15.1803 18.1541 15.2156C17.72 15.9867 17.4723 16.8768 17.4723 17.8247C17.4723 18.7495 17.7081 19.6193 18.1227 20.3772C17.9543 20.4086 17.7803 20.425 17.6023 20.425C16.0957 20.425 14.8744 19.2468 14.8744 17.7934C14.8744 16.34 16.0957 15.1618 17.6023 15.1618Z" fill="#F9FAFB"/>
<path d="M15.8185 30.0592C15.2136 29.336 14.8094 28.4487 14.8094 27.4112C14.8094 26.4054 15.1892 25.5408 15.7636 24.83C13.7348 24.9874 12.1465 26.097 12.1465 27.4425C12.1465 28.8006 13.7627 29.9184 15.8185 30.0592Z" fill="#F9FAFB"/>
<path d="M28.1251 17.8247C28.1251 18.7495 27.8894 19.6193 27.4747 20.3772C27.6432 20.4086 27.8172 20.425 27.9951 20.425C29.5017 20.425 30.723 19.2468 30.723 17.7934C30.723 16.34 29.5017 15.1618 27.9951 15.1618C27.8061 15.1618 27.6216 15.1803 27.4434 15.2156C27.8775 15.9867 28.1251 16.8768 28.1251 17.8247Z" fill="#F9FAFB"/>
<path d="M29.779 30.0592C31.8348 29.9184 33.451 28.8006 33.451 27.4425C33.451 26.097 31.8627 24.9874 29.8339 24.83C30.4082 25.5408 30.788 26.4054 30.788 27.4112C30.788 28.4487 30.3839 29.336 29.779 30.0592Z" fill="#F9FAFB"/>
</svg>
