<svg width="150" height="136" viewBox="0 0 150 136" fill="none" xmlns="http://www.w3.org/2000/svg">
<path d="M48.285 0.266709C55.4171 -0.126242 62.4587 0.36888 69.2529 2.72659C88.3424 9.34389 100.21 22.6139 103.844 42.395C108.851 69.6423 91.9733 96.6695 63.1543 102.552C39.255 107.428 15.67 95.5299 5.20966 73.4618C4.53771 73.1002 4.3098 72.4322 4.01902 71.7878C2.43149 68.2434 1.48056 64.5143 0.706442 60.7262C-0.885011 50.6156 0.183814 40.7761 4.20371 31.3806C9.57928 18.8258 18.6014 9.74863 31.1327 4.22373C32.5944 3.57929 34.0877 3.00951 35.5848 2.45152C39.1253 1.35518 42.7011 0.41605 46.4106 0.0899003C47.0511 0.0309576 47.6916 -0.149819 48.285 0.266709Z" fill="#10B981"/>
<path d="M134.622 11.5957C139.828 11.58 143.966 15.6785 144.001 20.8969C144.033 25.907 139.84 30.0959 134.72 30.1666C129.686 30.2374 125.277 25.8599 125.313 20.8222C125.344 15.8003 129.572 11.6115 134.622 11.5957Z" fill="#10B981"/>
<path d="M70.6115 31.1716C72.6981 30.2443 74.7493 30.1342 76.5568 31.7296C78.1011 33.0932 78.5806 34.8536 78.0697 36.8655C77.8143 37.8754 77.1895 38.6495 76.4743 39.3647C67.1378 48.7444 57.8131 58.132 48.4608 67.4921C46.0009 69.952 43.5922 69.9206 41.0694 67.4332C37.2853 63.7001 33.5248 59.9396 29.7721 56.1712C27.6344 54.0218 27.2808 51.503 28.7504 49.326C30.2161 47.153 32.6563 46.6186 35.4974 47.8524C36.4758 48.0018 36.8963 48.8741 37.5132 49.4714C39.5487 51.444 41.5881 53.4206 43.5175 55.4953C44.4449 56.4895 44.995 56.3991 45.9145 55.4718C53.5653 47.7503 61.2671 40.0759 68.965 32.4016C69.4444 31.9222 69.7863 31.2109 70.6076 31.1677L70.6115 31.1716Z" fill="#FEFEFE"/>
<rect x="59.0918" y="44.5459" width="90.9091" height="90.9091" rx="43.6364" fill="white"/>
<circle cx="104.546" cy="67.2736" r="15.1515" fill="#4F46E5"/>
<path d="M127.633 101.482C126.023 101.364 124.049 101.364 121.592 101.364C115.342 101.364 112.217 101.364 110.276 103.305C108.334 105.247 108.334 108.372 108.334 114.621C108.334 119.039 108.334 121.896 109.02 123.876C107.566 124.018 106.071 124.091 104.546 124.091C89.9025 124.091 78.0312 117.308 78.0312 108.94C78.0312 100.572 89.9025 93.7881 104.546 93.7881C114.446 93.7881 123.078 96.8881 127.633 101.482Z" fill="#E1E0FF"/>
<path fill-rule="evenodd" clip-rule="evenodd" d="M121.59 127.879C115.34 127.879 112.215 127.879 110.274 125.938C108.332 123.996 108.332 120.872 108.332 114.622C108.332 108.372 108.332 105.247 110.274 103.306C112.215 101.364 115.34 101.364 121.59 101.364C127.839 101.364 130.964 101.364 132.906 103.306C134.847 105.247 134.847 108.372 134.847 114.622C134.847 120.872 134.847 123.996 132.906 125.938C130.964 127.879 127.839 127.879 121.59 127.879ZM123.799 108.73C123.799 107.509 122.81 106.52 121.59 106.52C120.369 106.52 119.38 107.509 119.38 108.73V112.412H115.697C114.477 112.412 113.488 113.402 113.488 114.622C113.488 115.842 114.477 116.831 115.697 116.831H119.38V120.514C119.38 121.734 120.369 122.724 121.59 122.724C122.81 122.724 123.799 121.734 123.799 120.514V116.831H127.482C128.702 116.831 129.691 115.842 129.691 114.622C129.691 113.402 128.702 112.412 127.482 112.412H123.799V108.73Z" fill="#4F46E5"/>
</svg>
