<svg width="46" height="45" viewBox="0 0 46 45" fill="none" xmlns="http://www.w3.org/2000/svg">
<rect x="0.357422" y="0.249432" width="44.737" height="44.737" rx="22.3685" fill="#150E67"/>
<path d="M26.4542 17.8247C26.4542 19.8837 24.7851 21.5528 22.7261 21.5528C20.6672 21.5528 18.998 19.8837 18.998 17.8247C18.998 15.7657 20.6672 14.0966 22.7261 14.0966C24.7851 14.0966 26.4542 15.7657 26.4542 17.8247Z" fill="#F9FAFB"/>
<path d="M29.116 27.4112C29.116 29.4702 26.2546 31.1393 22.725 31.1393C19.1953 31.1393 16.334 29.4702 16.334 27.4112C16.334 25.3522 19.1953 23.6831 22.725 23.6831C26.2546 23.6831 29.116 25.3522 29.116 27.4112Z" fill="#F9FAFB"/>
<path d="M17.5301 15.1618C17.7191 15.1618 17.9036 15.1803 18.0818 15.2156C17.6477 15.9867 17.4001 16.8768 17.4001 17.8247C17.4001 18.7495 17.6358 19.6193 18.0504 20.3772C17.882 20.4086 17.708 20.4251 17.5301 20.4251C16.0235 20.4251 14.8021 19.2468 14.8021 17.7934C14.8021 16.34 16.0235 15.1618 17.5301 15.1618Z" fill="#F9FAFB"/>
<path d="M15.7462 30.0592C15.1413 29.3361 14.7371 28.4487 14.7371 27.4112C14.7371 26.4054 15.1169 25.5408 15.6913 24.83C13.6625 24.9874 12.0742 26.097 12.0742 27.4425C12.0742 28.8006 13.6904 29.9184 15.7462 30.0592Z" fill="#F9FAFB"/>
<path d="M28.0509 17.8247C28.0509 18.7495 27.8152 19.6193 27.4005 20.3772C27.569 20.4086 27.7429 20.4251 27.9209 20.4251C29.4275 20.4251 30.6488 19.2468 30.6488 17.7934C30.6488 16.34 29.4275 15.1618 27.9209 15.1618C27.7319 15.1618 27.5473 15.1803 27.3691 15.2156C27.8033 15.9867 28.0509 16.8768 28.0509 17.8247Z" fill="#F9FAFB"/>
<path d="M29.7048 30.0592C31.7606 29.9184 33.3767 28.8006 33.3767 27.4425C33.3767 26.097 31.7885 24.9874 29.7597 24.83C30.334 25.5408 30.7138 26.4054 30.7138 27.4112C30.7138 28.4487 30.3097 29.3361 29.7048 30.0592Z" fill="#F9FAFB"/>
</svg>
