<svg width="161" height="161" viewBox="0 0 161 161" fill="none" xmlns="http://www.w3.org/2000/svg">
<path opacity="0.977" fill-rule="evenodd" clip-rule="evenodd" d="M91.3486 16.1937C86.8108 16.6094 82.3034 16.6094 77.8271 16.1937C79.278 9.81641 83.2609 6.35742 89.7764 5.81675C92.5693 5.52246 94.2463 6.72785 94.8076 9.43296C94.2759 12.0165 93.1228 14.27 91.3486 16.1937Z" fill="#DEDEFF"/>
<path opacity="0.989" fill-rule="evenodd" clip-rule="evenodd" d="M77.8275 16.1942C82.3037 16.61 86.8111 16.61 91.349 16.1942C92.842 16.1234 94.3096 16.2806 95.7513 16.6659C97.462 18.3772 97.3572 19.9494 95.4369 21.3827C94.0781 21.5396 92.7156 21.592 91.349 21.5399C86.7369 21.5399 82.1251 21.5399 77.5131 21.5399C75.0078 21.2202 74.2217 19.8576 75.1547 17.452C75.87 16.6818 76.7609 16.2626 77.8275 16.1942Z" fill="#4F46E5"/>
<path opacity="0.963" fill-rule="evenodd" clip-rule="evenodd" d="M102.669 16.1934C105.613 16.6957 108.076 18.0583 110.059 20.2812C111.575 21.9747 111.522 23.5993 109.901 25.1553C108.958 25.3649 108.015 25.3649 107.071 25.1553C106.128 24.2119 105.185 23.2686 104.241 22.3252C103.11 21.9135 102.009 21.4418 100.939 20.9102C99.8858 18.6459 100.462 17.0736 102.669 16.1934Z" fill="#4F46E5"/>
<path opacity="0.975" fill-rule="evenodd" clip-rule="evenodd" d="M77.5127 21.541C82.1248 21.541 86.7365 21.541 91.3486 21.541C92.9533 23.5448 94.1064 25.7984 94.8076 28.3018C94.3938 31.1749 92.7168 32.4852 89.7764 32.2324C83.3213 31.366 79.2334 27.8022 77.5127 21.541Z" fill="#DEDEFF"/>
<path opacity="0.963" fill-rule="evenodd" clip-rule="evenodd" d="M110.845 27.5137C112.015 27.6028 112.906 28.1269 113.518 29.0859C114.057 32.4125 113.533 35.5571 111.945 38.5195C110.397 39.8141 108.93 39.7091 107.543 38.2051C107.354 37.6903 107.197 37.1664 107.071 36.6328C107.996 34.1967 108.573 31.6811 108.801 29.0859C109.292 28.2926 109.974 27.7685 110.845 27.5137Z" fill="#4F46E5"/>
<path opacity="0.961" fill-rule="evenodd" clip-rule="evenodd" d="M102.984 40.0925C106.299 39.6828 107.504 41.0453 106.6 44.1804C104.214 46.0087 101.541 47.2665 98.5819 47.9539C96.2037 47.5649 95.4175 46.202 96.2235 43.866C98.508 42.6355 100.762 41.3777 102.984 40.0925Z" fill="#4F46E5"/>
<path opacity="0.959" fill-rule="evenodd" clip-rule="evenodd" d="M74.3684 43.867C77.855 43.5245 79.0607 44.9921 77.9846 48.2693C77.7006 48.647 77.334 48.9092 76.884 49.0554C75.0973 49.2919 73.3153 49.5538 71.5383 49.8416C68.8746 49.1366 68.1935 47.5643 69.4944 45.1248C71.0839 44.4459 72.7087 44.0267 74.3684 43.867Z" fill="#4F46E5"/>
<path opacity="0.96" fill-rule="evenodd" clip-rule="evenodd" d="M84.1156 44.1807C86.8428 44.1285 89.5682 44.1807 92.2914 44.3379C93.9684 45.9102 93.9684 47.4825 92.2914 49.0547C89.583 49.528 86.8576 49.633 84.1156 49.3692C82.4685 48.3397 82.1018 46.9246 83.015 45.1241C83.3751 44.7668 83.742 44.4524 84.1156 44.1807Z" fill="#4F46E5"/>
<path opacity="0.951" fill-rule="evenodd" clip-rule="evenodd" d="M62.7333 47.3262C65.8895 47.6255 66.7803 49.1978 65.4061 52.043C64.4304 52.6099 63.5392 53.2913 62.7333 54.0869C59.4202 55.3438 58.0052 54.2432 58.4882 50.7852C59.6734 49.3368 61.0884 48.1837 62.7333 47.3262Z" fill="#4F46E5"/>
<path opacity="0.991" fill-rule="evenodd" clip-rule="evenodd" d="M80.3429 72.4816C80.3429 72.6914 80.3429 72.9008 80.3429 73.1105C75.7667 74.4614 71.2596 75.929 66.8214 77.5129C65.3768 77.2478 64.2237 77.6673 63.3624 78.7707C52.2506 82.0904 41.2447 85.6544 30.3448 89.4621C30.1352 89.4621 29.9256 89.4621 29.7159 89.4621C25.9981 83.9158 22.2771 78.3603 18.5528 72.7961C17.7755 71.1471 18.1423 69.8368 19.6534 68.8654C31.16 65.0473 42.69 61.3264 54.2433 57.7023C53.7122 59.4501 53.5549 61.2321 53.7716 63.048C54.5706 64.4848 55.7762 64.9565 57.3878 64.4631C57.7548 64.0961 58.1214 63.7295 58.4884 63.3625C58.5903 61.711 58.8522 60.0865 59.2745 58.4885C59.0359 57.7762 58.7214 57.0948 58.3312 56.4445C60.4657 55.5751 62.6668 54.7889 64.9347 54.0861C65.9202 53.8377 66.8635 53.9424 67.7648 54.4006C71.9143 60.484 76.1072 66.5111 80.3429 72.4816Z" fill="#F1F1FF"/>
<path opacity="0.996" fill-rule="evenodd" clip-rule="evenodd" d="M130.655 116.19C119.572 119.446 108.461 122.958 97.3232 126.724C96.4846 126.934 95.6463 126.934 94.8076 126.724C89.8937 119.986 85.1769 113.121 80.6572 106.128C80.6921 105.934 80.7968 105.777 80.9717 105.656C97.4657 100.35 113.922 94.9521 130.341 89.4618C113.717 83.8853 97.0506 78.4349 80.3428 73.1102C80.3428 72.9005 80.3428 72.6911 80.3428 72.4813C84.4212 66.6677 88.4569 60.7978 92.4492 54.8719C93.0319 54.2141 93.7655 53.8997 94.6504 53.9286C110.402 58.7598 126.072 63.8436 141.661 69.1796C142.636 70.2808 142.793 71.4861 142.133 72.7958C138.412 78.3512 134.691 83.9063 130.97 89.4618C135.137 95.8053 139.382 102.094 143.705 108.329C143.915 109.272 143.915 110.216 143.705 111.159C143.323 111.646 142.852 112.013 142.29 112.26C138.391 113.542 134.513 114.852 130.655 116.19Z" fill="#F1F1FF"/>
<path opacity="0.994" fill-rule="evenodd" clip-rule="evenodd" d="M58.331 56.4442C58.7212 57.0945 59.0357 57.7759 59.2743 58.4882C58.852 60.0862 58.5901 61.7107 58.4882 63.3622C58.1212 63.7292 57.7546 64.0958 57.3876 64.4628C55.776 64.9562 54.5704 64.4845 53.7714 63.0477C53.5547 61.2318 53.712 59.4498 54.2431 57.702C54.4075 57.0077 54.8267 56.5361 55.5009 56.287C56.4732 56.0556 57.4165 56.1081 58.331 56.4442Z" fill="#4F46E5"/>
<path fill-rule="evenodd" clip-rule="evenodd" d="M57.3877 68.0782C58.1704 68.0146 58.9043 68.1719 59.5889 68.5498C61.5158 70.451 62.5117 72.7047 62.5762 75.3106C61.7249 76.4222 60.6244 76.7891 59.2744 76.4112C57.6562 74.7424 56.5031 72.8031 55.8154 70.5938C55.8695 69.4325 56.3937 68.5942 57.3877 68.0782Z" fill="#4F46E5"/>
<path opacity="0.999" fill-rule="evenodd" clip-rule="evenodd" d="M80.3428 73.1113C97.0506 78.436 113.717 83.8864 130.341 89.4629C113.922 94.9532 97.4657 100.351 80.9717 105.657C80.7968 105.778 80.6921 105.935 80.6572 106.129C80.4475 106.129 80.2381 106.129 80.0283 106.129C80.0283 106.024 80.0283 105.919 80.0283 105.814C80.3421 94.9671 80.4472 84.0659 80.3428 73.1113Z" fill="#DFDEFF"/>
<path fill-rule="evenodd" clip-rule="evenodd" d="M80.3428 73.1113C80.4472 84.0659 80.3421 94.9671 80.0283 105.814C63.4224 100.419 46.8611 94.9683 30.3447 89.4629C41.2446 85.6552 52.2505 82.0912 63.3623 78.7715C62.9991 80.4554 63.5233 81.7657 64.9346 82.7021C65.8238 83.409 66.7672 84.0379 67.7646 84.5889C70.5422 85.1653 71.6428 84.0647 71.0664 81.2871C69.6838 79.9931 68.2687 78.7353 66.8213 77.5137C71.2595 75.9298 75.7665 74.4622 80.3428 73.1113Z" fill="#A3A1F4"/>
<path fill-rule="evenodd" clip-rule="evenodd" d="M66.8215 77.5116C68.2689 78.7332 69.6839 79.991 71.0666 81.285C71.643 84.0626 70.5424 85.1631 67.7648 84.5868C66.7674 84.0358 65.824 83.4069 64.9347 82.7C63.5235 81.7636 62.9993 80.4533 63.3625 78.7694C64.2238 77.666 65.3769 77.2465 66.8215 77.5116Z" fill="#4F46E5"/>
<path opacity="0.998" fill-rule="evenodd" clip-rule="evenodd" d="M29.7154 89.4629C29.925 89.4629 30.1347 89.4629 30.3443 89.4629C46.8606 94.9683 63.4219 100.419 80.0279 105.814C80.0279 105.919 80.0279 106.024 80.0279 106.129C80.0279 106.234 80.0279 106.339 80.0279 106.443C75.4344 113.266 70.7176 120.026 65.8775 126.726C64.9342 126.935 63.9908 126.935 63.0474 126.726C52.0246 123.139 41.0187 119.522 30.0299 115.877C26.1115 114.833 22.2333 113.628 18.3951 112.261C17.2198 111.821 16.6957 110.982 16.8228 109.745C16.8752 109.273 16.9276 108.802 16.98 108.33C21.3062 102.086 25.5513 95.7972 29.7154 89.4629Z" fill="#F1F1FF"/>
<path fill-rule="evenodd" clip-rule="evenodd" d="M80.0282 106.127C80.2379 106.127 80.4474 106.127 80.6571 106.127C85.1767 113.12 89.8935 119.986 94.8075 126.724C95.6461 126.933 96.4845 126.933 97.3231 126.724C108.461 122.957 119.572 119.446 130.655 116.189C130.708 123.423 130.655 130.655 130.498 137.887C130.164 138.85 129.588 139.636 128.768 140.245C112.712 145.405 96.5706 150.279 80.3426 154.867C80.0323 138.734 79.9276 122.593 80.0282 106.441C80.0282 106.337 80.0282 106.232 80.0282 106.127Z" fill="#A3A1F4"/>
<path opacity="0.996" fill-rule="evenodd" clip-rule="evenodd" d="M80.0284 106.443C79.9278 122.595 80.0325 138.736 80.3429 154.869C64.1149 150.281 47.9731 145.407 31.9171 140.247C31.0977 139.638 30.5212 138.852 30.1876 137.889C30.0304 130.552 29.978 123.215 30.0304 115.877C41.0193 119.522 52.0251 123.139 63.048 126.726C63.9913 126.935 64.9347 126.935 65.878 126.726C70.7181 120.026 75.4349 113.266 80.0284 106.443Z" fill="#DFDEFF"/>
</svg>
