<svg width="46" height="45" viewBox="0 0 46 45" fill="none" xmlns="http://www.w3.org/2000/svg">
<path d="M13.7677 24.4316C13.0039 24.4316 12.3848 25.0508 12.3848 25.8146C12.3848 26.5783 13.0039 27.1975 13.7677 27.1975H21.1432C21.907 27.1975 22.5261 26.5783 22.5261 25.8146C22.5261 25.0508 21.907 24.4316 21.1432 24.4316H13.7677Z" fill="#4F46E5"/>
<path d="M13.7677 30.8852C13.0039 30.8852 12.3848 31.5044 12.3848 32.2681C12.3848 33.0319 13.0039 33.651 13.7677 33.651H24.831C25.5947 33.651 26.2139 33.0319 26.2139 32.2681C26.2139 31.5044 25.5947 30.8852 24.831 30.8852H13.7677Z" fill="#4F46E5"/>
<path fill-rule="evenodd" clip-rule="evenodd" d="M33.1285 20.2834C29.2171 20.2834 27.2613 20.2834 26.0462 19.0683C24.8311 17.8531 24.8311 15.8974 24.8311 11.9859C24.8311 8.07448 24.8311 6.11875 26.0462 4.90361C27.2613 3.68848 29.2171 3.68848 33.1285 3.68848C37.04 3.68848 38.9957 3.68848 40.2109 4.90361C41.426 6.11875 41.426 8.07448 41.426 11.9859C41.426 15.8974 41.426 17.8531 40.2109 19.0683C38.9957 20.2834 37.04 20.2834 33.1285 20.2834ZM28.4629 7.32032C29.003 6.78025 29.8786 6.78025 30.4186 7.32032L33.1285 10.0302L35.8384 7.32032C36.3785 6.78025 37.2541 6.78025 37.7942 7.32032C38.3342 7.86038 38.3342 8.73599 37.7942 9.27605L35.0843 11.9859L37.7942 14.6958C38.3342 15.2359 38.3342 16.1115 37.7942 16.6516C37.2541 17.1916 36.3785 17.1916 35.8384 16.6516L33.1285 13.9417L30.4186 16.6516C29.8786 17.1916 29.003 17.1916 28.4629 16.6516C27.9228 16.1115 27.9228 15.2359 28.4629 14.6958L31.1728 11.9859L28.4629 9.27605C27.9228 8.73599 27.9228 7.86038 28.4629 7.32032Z" fill="#4F46E5"/>
<path opacity="0.5" d="M38.7262 37.8658C41.4265 35.1655 41.4265 30.8194 41.4265 22.1273C41.4265 19.6233 41.4265 17.4799 41.3619 15.6327C41.2547 17.2632 40.9697 18.3099 40.2113 19.0683C38.9962 20.2834 37.0405 20.2834 33.129 20.2834C29.2175 20.2834 27.2618 20.2834 26.0467 19.0683C24.8315 17.8531 24.8315 15.8974 24.8315 11.9859C24.8315 8.07448 24.8315 6.11875 26.0467 4.90361C26.805 4.14529 27.8517 3.86021 29.4823 3.75304C27.635 3.68848 25.4917 3.68848 22.9876 3.68848C14.2955 3.68848 9.94943 3.68848 7.24913 6.38878C4.54883 9.08908 4.54883 13.4352 4.54883 22.1273C4.54883 30.8194 4.54883 35.1655 7.24913 37.8658C9.94943 40.5661 14.2955 40.5661 22.9876 40.5661C31.6798 40.5661 36.0259 40.5661 38.7262 37.8658Z" fill="#DFDEFF"/>
</svg>
