<svg width="32" height="32" viewBox="0 0 32 32" fill="none" xmlns="http://www.w3.org/2000/svg">
<g clip-path="url(#clip0_980_3954)">
<path d="M5.3335 7.99992C5.3335 7.29267 5.61445 6.6144 6.11454 6.1143C6.61464 5.6142 7.29292 5.33325 8.00016 5.33325H24.0002C24.7074 5.33325 25.3857 5.6142 25.8858 6.1143C26.3859 6.6144 26.6668 7.29267 26.6668 7.99992V23.9999C26.6668 24.7072 26.3859 25.3854 25.8858 25.8855C25.3857 26.3856 24.7074 26.6666 24.0002 26.6666H8.00016C7.29292 26.6666 6.61464 26.3856 6.11454 25.8855C5.61445 25.3854 5.3335 24.7072 5.3335 23.9999V7.99992Z" stroke="black" stroke-width="1.5" stroke-linecap="round" stroke-linejoin="round"/>
<path d="M12 5.33325V26.6666" stroke="black" stroke-width="1.5" stroke-linecap="round" stroke-linejoin="round"/>
<path d="M18.6665 13.3333L21.3332 15.9999L18.6665 18.6666" stroke="black" stroke-width="1.5" stroke-linecap="round" stroke-linejoin="round"/>
</g>
<defs>
<clipPath id="clip0_980_3954">
<rect width="32" height="32" fill="white"/>
</clipPath>
</defs>
</svg>
