<svg width="43" height="43" viewBox="0 0 43 43" fill="none" xmlns="http://www.w3.org/2000/svg">
<rect x="0.44873" y="0.5" width="42" height="42" rx="21" fill="#F59E0B"/>
<path fill-rule="evenodd" clip-rule="evenodd" d="M22.3512 11.8703C22.3512 12.368 21.9472 12.7715 21.4487 12.7715C20.9503 12.7715 20.5462 12.368 20.5462 11.8703V9.5C17.9019 9.6958 15.4953 10.745 13.6019 12.3728L15.4686 14.2369C15.821 14.5889 15.821 15.1595 15.4686 15.5115C15.1161 15.8634 14.5447 15.8634 14.1922 15.5115L12.3255 13.6474C10.6955 15.5382 9.6448 17.9414 9.44873 20.5821H11.8221C12.3205 20.5821 12.7246 20.9856 12.7246 21.4834C12.7246 21.9811 12.3205 22.3846 11.8221 22.3846H9.44873C9.6448 25.0253 10.6955 27.4285 12.3255 29.3193L14.1922 27.4552C14.5447 27.1033 15.1161 27.1033 15.4686 27.4552C15.821 27.8072 15.821 28.3778 15.4686 28.7298L13.6019 30.5939C15.7087 32.4051 18.4507 33.5 21.4487 33.5C24.4468 33.5 27.1888 32.4051 29.2956 30.5939L27.4289 28.7298C27.0765 28.3778 27.0765 27.8072 27.4289 27.4552C27.7813 27.1033 28.3528 27.1033 28.7052 27.4552L30.5719 29.3193C32.202 27.4285 33.2527 25.0253 33.4487 22.3846H31.0751C30.5767 22.3846 30.1726 21.9811 30.1726 21.4834C30.1726 20.9856 30.5767 20.5821 31.0751 20.5821H33.4487C33.2527 17.9414 32.202 15.5382 30.5719 13.6474L28.7052 15.5115C28.3528 15.8634 27.7813 15.8634 27.4289 15.5115C27.0765 15.1595 27.0765 14.5889 27.4289 14.2369L29.2956 12.3728C27.4021 10.745 24.9956 9.6958 22.3512 9.5V11.8703ZM21.4821 26.3233C19.4883 26.3233 17.8721 24.7093 17.8721 22.7183C17.8721 21.961 18.3944 20.9104 19.0417 19.8993C20.0097 18.3873 20.4937 17.6313 21.4821 17.6313C22.4705 17.6313 22.9544 18.3873 23.9224 19.8993C24.5697 20.9104 25.0921 21.961 25.0921 22.7183C25.0921 24.7093 23.4758 26.3233 21.4821 26.3233Z" fill="#F9FAFB"/>
</svg>
