<svg width="22" height="22" viewBox="0 0 22 22" fill="none" xmlns="http://www.w3.org/2000/svg">
<path fill-rule="evenodd" clip-rule="evenodd" d="M1.77997 10.25H3C3.41421 10.25 3.75 10.5858 3.75 11C3.75 11.4142 3.41421 11.75 3 11.75H1.77997C1.9397 13.7407 2.72972 15.5536 3.95034 16.989L4.96967 15.9697C5.26256 15.6768 5.73744 15.6768 6.03033 15.9697C6.32322 16.2626 6.32322 16.7374 6.03033 17.0303L5.011 18.0497C6.62475 19.422 8.71567 20.25 11 20.25C13.2843 20.25 15.3753 19.422 16.989 18.0497L15.9697 17.0303C15.6768 16.7374 15.6768 16.2626 15.9697 15.9697C16.2626 15.6768 16.7374 15.6768 17.0303 15.9697L18.0497 16.989C19.2703 15.5536 20.0603 13.7407 20.22 11.75H18.9998C18.5856 11.75 18.2498 11.4142 18.2498 11C18.2498 10.5858 18.5856 10.25 18.9998 10.25H20.22C20.0603 8.25928 19.2703 6.44638 18.0497 5.011L17.0303 6.03033C16.7374 6.32322 16.2626 6.32322 15.9697 6.03033C15.6768 5.73744 15.6768 5.26256 15.9697 4.96967L16.989 3.95034C15.5536 2.72972 13.7407 1.9397 11.75 1.77997V3.00021C11.75 3.41443 11.4142 3.75021 11 3.75021C10.5858 3.75021 10.25 3.41443 10.25 3.00021V1.77997C8.25928 1.9397 6.44638 2.72972 5.011 3.95034L6.03033 4.96967C6.32322 5.26256 6.32322 5.73744 6.03033 6.03033C5.73744 6.32322 5.26256 6.32322 4.96967 6.03033L3.95034 5.011C2.72972 6.44638 1.9397 8.25928 1.77997 10.25ZM0.25 11C0.25 5.06294 5.06294 0.25 11 0.25C16.9371 0.25 21.75 5.06294 21.75 11C21.75 16.9371 16.9371 21.75 11 21.75C5.06294 21.75 0.25 16.9371 0.25 11ZM10.5191 7.75956C10.2798 8.00743 10.0231 8.40232 9.6039 9.05809C9.34699 9.45995 9.12607 9.85263 8.97161 10.2064C8.81161 10.5728 8.75 10.8371 8.75 11C8.75 12.2426 9.75736 13.25 11 13.25C12.2426 13.25 13.25 12.2426 13.25 11C13.25 10.8371 13.1884 10.5728 13.0284 10.2064C12.8739 9.85263 12.653 9.45995 12.3961 9.05809C11.9769 8.40232 11.7202 8.00743 11.4809 7.75956C11.2856 7.55733 11.1644 7.51672 11 7.51672C10.8356 7.51672 10.7144 7.55733 10.5191 7.75956ZM9.44014 6.71757C9.8524 6.29066 10.343 6.01672 11 6.01672C11.657 6.01672 12.1476 6.29066 12.5599 6.71757C12.9164 7.08679 13.2528 7.61315 13.6235 8.19323C13.6356 8.21214 13.6477 8.23111 13.6599 8.25013C13.9409 8.68968 14.206 9.15482 14.4031 9.60612C14.5946 10.0447 14.75 10.5326 14.75 11C14.75 13.0711 13.0711 14.75 11 14.75C8.92893 14.75 7.25 13.0711 7.25 11C7.25 10.5326 7.40543 10.0447 7.59695 9.60612C7.79401 9.15482 8.05909 8.68968 8.3401 8.25013C8.35225 8.23111 8.36438 8.21215 8.37646 8.19324C8.74719 7.61315 9.08357 7.0868 9.44014 6.71757Z" fill="#626973"/>
</svg>
