<svg width="23" height="23" viewBox="0 0 23 23" fill="none" xmlns="http://www.w3.org/2000/svg">
<path fill-rule="evenodd" clip-rule="evenodd" d="M3.03317 10.6121H4.15453C4.53524 10.6121 4.84386 10.9207 4.84386 11.3014C4.84386 11.6821 4.53524 11.9908 4.15453 11.9908H3.03317C3.17998 13.8205 3.90611 15.4867 5.028 16.806L5.96488 15.8691C6.23409 15.5999 6.67055 15.5999 6.93976 15.8691C7.20896 16.1383 7.20896 16.5748 6.93976 16.844L6.00287 17.7809C7.48609 19.0422 9.4079 19.8032 11.5075 19.8032C13.607 19.8032 15.5288 19.0422 17.0121 17.7809L16.0752 16.844C15.806 16.5748 15.806 16.1383 16.0752 15.8691C16.3444 15.5999 16.7808 15.5999 17.05 15.8691L17.9869 16.806C19.1088 15.4867 19.8349 13.8205 19.9818 11.9908H18.8602C18.4795 11.9908 18.1709 11.6821 18.1709 11.3014C18.1709 10.9207 18.4795 10.6121 18.8602 10.6121H19.9818C19.8349 8.78236 19.1088 7.1161 17.9869 5.79681L17.05 6.7337C16.7808 7.0029 16.3444 7.0029 16.0752 6.7337C15.806 6.4645 15.806 6.02803 16.0752 5.75883L17.0121 4.82194C15.6928 3.70005 14.0265 2.97393 12.1968 2.82712V3.94867C12.1968 4.32938 11.8882 4.63801 11.5075 4.63801C11.1268 4.63801 10.8181 4.32938 10.8181 3.94867V2.82712C8.98842 2.97393 7.32215 3.70005 6.00287 4.82194L6.93976 5.75883C7.20896 6.02803 7.20896 6.4645 6.93976 6.7337C6.67055 7.0029 6.23409 7.0029 5.96488 6.7337L5.028 5.79681C3.90611 7.1161 3.17998 8.78236 3.03317 10.6121ZM1.62695 11.3014C1.62695 5.84455 6.05061 1.4209 11.5075 1.4209C16.9643 1.4209 21.388 5.84455 21.388 11.3014C21.388 16.7583 16.9643 21.1819 11.5075 21.1819C6.05061 21.1819 1.62695 16.7583 1.62695 11.3014ZM11.0655 8.32307C10.8455 8.55088 10.6096 8.91384 10.2243 9.51657C9.98815 9.88593 9.78511 10.2468 9.64314 10.572C9.49608 10.9088 9.43945 11.1517 9.43945 11.3014C9.43945 12.4435 10.3653 13.3694 11.5075 13.3694C12.6496 13.3694 13.5755 12.4435 13.5755 11.3014C13.5755 11.1517 13.5189 10.9088 13.3718 10.572C13.2298 10.2468 13.0268 9.88593 12.7906 9.51657C12.4053 8.91384 12.1694 8.55088 11.9494 8.32307C11.7699 8.13719 11.6585 8.09986 11.5075 8.09986C11.3564 8.09986 11.245 8.13719 11.0655 8.32307ZM10.0738 7.36535C10.4527 6.97298 10.9036 6.72119 11.5075 6.72119C12.1113 6.72119 12.5623 6.97298 12.9412 7.36535C13.2689 7.70472 13.5781 8.1885 13.9188 8.72166C13.9299 8.73904 13.9411 8.75647 13.9522 8.77396C14.2105 9.17795 14.4542 9.60548 14.6353 10.0203C14.8113 10.4234 14.9542 10.8718 14.9542 11.3014C14.9542 13.205 13.411 14.7481 11.5075 14.7481C9.60391 14.7481 8.06078 13.205 8.06078 11.3014C8.06078 10.8718 8.20364 10.4234 8.37966 10.0203C8.56078 9.60548 8.80443 9.17795 9.0627 8.77396C9.07388 8.75648 9.08502 8.73905 9.09612 8.72167C9.43687 8.1885 9.74604 7.70472 10.0738 7.36535Z" fill="#FBFBFF"/>
</svg>
