<svg width="18" height="18" viewBox="0 0 18 18" fill="none" xmlns="http://www.w3.org/2000/svg">
<g clip-path="url(#clip0_1296_10369)">
<path d="M6.75 12C6.75 12.4142 6.41422 12.75 6 12.75C5.58579 12.75 5.25 12.4142 5.25 12C5.25 11.5858 5.58579 11.25 6 11.25C6.41422 11.25 6.75 11.5858 6.75 12Z" fill="#626973"/>
<path d="M9.75 12C9.75 12.4142 9.41422 12.75 9 12.75C8.58579 12.75 8.25 12.4142 8.25 12C8.25 11.5858 8.58579 11.25 9 11.25C9.41422 11.25 9.75 11.5858 9.75 12Z" fill="#626973"/>
<path d="M12 12.75C12.4142 12.75 12.75 12.4142 12.75 12C12.75 11.5858 12.4142 11.25 12 11.25C11.5858 11.25 11.25 11.5858 11.25 12C11.25 12.4142 11.5858 12.75 12 12.75Z" fill="#626973"/>
<path fill-rule="evenodd" clip-rule="evenodd" d="M3.9375 6V6.97708C3.76738 6.98904 3.60703 7.00461 3.45619 7.02489C2.78111 7.11565 2.2127 7.30982 1.76126 7.76126C1.30983 8.2127 1.11566 8.78111 1.02489 9.45619C0.937473 10.1064 0.937485 10.9331 0.9375 11.9588V12.0412C0.937485 13.0668 0.937473 13.8936 1.02489 14.5438C1.11566 15.2189 1.30983 15.7873 1.76126 16.2387C2.2127 16.6902 2.78111 16.8843 3.45619 16.9751C4.10641 17.0625 4.93316 17.0625 5.95885 17.0625H12.0412C13.0668 17.0625 13.8936 17.0625 14.5438 16.9751C15.2189 16.8843 15.7873 16.6902 16.2387 16.2387C16.6902 15.7873 16.8843 15.2189 16.9751 14.5438C17.0625 13.8936 17.0625 13.0668 17.0625 12.0412V11.9588C17.0625 10.9332 17.0625 10.1064 16.9751 9.45619C16.8843 8.78111 16.6902 8.2127 16.2387 7.76126C15.7873 7.30982 15.2189 7.11565 14.5438 7.02489C14.393 7.00461 14.2326 6.98904 14.0625 6.97708V6C14.0625 3.20406 11.7959 0.9375 9 0.9375C6.20406 0.9375 3.9375 3.20406 3.9375 6ZM9 2.0625C6.82538 2.0625 5.0625 3.82538 5.0625 6V6.94008C5.34262 6.93749 5.64114 6.9375 5.95874 6.9375H12.0412C12.3588 6.9375 12.6574 6.93749 12.9375 6.94008V6C12.9375 3.82538 11.1746 2.0625 9 2.0625ZM3.60609 8.13986C3.05576 8.21385 2.76433 8.34918 2.55676 8.55676C2.34919 8.76433 2.21385 9.05576 2.13986 9.60609C2.0637 10.1726 2.0625 10.9234 2.0625 12C2.0625 13.0766 2.0637 13.8274 2.13986 14.3939C2.21385 14.9442 2.34919 15.2357 2.55676 15.4432C2.76433 15.6508 3.05576 15.7861 3.60609 15.8601C4.1726 15.9363 4.92344 15.9375 6 15.9375H12C13.0766 15.9375 13.8274 15.9363 14.3939 15.8601C14.9442 15.7861 15.2357 15.6508 15.4432 15.4432C15.6508 15.2357 15.7862 14.9442 15.8601 14.3939C15.9363 13.8274 15.9375 13.0766 15.9375 12C15.9375 10.9234 15.9363 10.1726 15.8601 9.60609C15.7862 9.05576 15.6508 8.76433 15.4432 8.55676C15.2357 8.34918 14.9442 8.21385 14.3939 8.13986C13.8274 8.06369 13.0766 8.0625 12 8.0625H6C4.92344 8.0625 4.1726 8.06369 3.60609 8.13986Z" fill="#626973"/>
</g>
<defs>
<clipPath id="clip0_1296_10369">
<rect width="18" height="18" fill="white"/>
</clipPath>
</defs>
</svg>
