<svg width="17" height="18" viewBox="0 0 17 18" fill="none" xmlns="http://www.w3.org/2000/svg">
<path d="M8.76766 0.626258C8.82272 0.267237 9.14426 0.0236919 9.48438 0.0818158C9.50544 0.0860697 9.57317 0.0994338 9.60867 0.107777C9.67965 0.124463 9.77866 0.150153 9.9021 0.188107C10.149 0.264007 10.4939 0.389043 10.9078 0.589356C11.7365 0.990403 12.8394 1.69196 13.9838 2.89997C15.1282 4.10797 15.7928 5.27208 16.1728 6.14686C16.3625 6.58378 16.481 6.94782 16.5529 7.2084C16.5889 7.33871 16.6132 7.44322 16.629 7.51814C16.6369 7.55561 16.6427 7.58569 16.6467 7.60791L16.6515 7.6353C16.7066 7.99432 16.4779 8.34775 16.1378 8.40587C15.7987 8.46383 15.4792 8.22146 15.4227 7.86412C15.421 7.85453 15.4162 7.82875 15.4111 7.80444C15.4008 7.75581 15.3831 7.6787 15.355 7.57672C15.2987 7.37272 15.2009 7.0695 15.0386 6.69574C14.7143 5.94914 14.1312 4.91816 13.1015 3.83127C12.0718 2.74438 11.0951 2.12888 10.3878 1.78659C10.0337 1.61523 9.74644 1.51204 9.55318 1.45262C9.45656 1.42291 9.33511 1.39349 9.28904 1.38266C8.95051 1.32311 8.71275 0.984254 8.76766 0.626258Z" fill="#626973"/>
<path fill-rule="evenodd" clip-rule="evenodd" d="M8.95586 3.65502C9.05052 3.30532 9.39582 3.10283 9.72711 3.20274L9.55572 3.83593C9.72711 3.20274 9.72711 3.20274 9.72711 3.20274L9.72831 3.2031L9.72959 3.20349L9.73236 3.20435L9.73881 3.20638L9.75527 3.21179C9.76781 3.21602 9.78347 3.22154 9.80215 3.22853C9.83951 3.24253 9.88888 3.26243 9.94944 3.28983C10.0706 3.34465 10.2362 3.42931 10.4396 3.55637C10.8468 3.81072 11.4026 4.23321 12.0555 4.92245C12.7085 5.61168 13.1087 6.19838 13.3497 6.62815C13.4701 6.84284 13.5503 7.01762 13.6022 7.14554C13.6282 7.20947 13.647 7.26158 13.6603 7.30102C13.6669 7.32073 13.6721 7.33726 13.6762 7.3505L13.6813 7.36788L13.6832 7.37468L13.684 7.37761L13.6844 7.37896C13.6844 7.37896 13.6847 7.38022 13.0849 7.56113L13.6847 7.38022C13.7794 7.72992 13.5875 8.09441 13.2563 8.19432C12.9278 8.29339 12.5855 8.09516 12.4875 7.75092L12.4844 7.74146C12.48 7.72826 12.4708 7.70229 12.4554 7.66435C12.4246 7.58855 12.3688 7.46454 12.2759 7.29895C12.0905 6.96816 11.7555 6.46833 11.1732 5.85375C10.591 5.23916 10.1175 4.88557 9.80411 4.6898C9.64723 4.59179 9.52975 4.53288 9.45794 4.50039C9.422 4.48413 9.39739 4.47445 9.38489 4.46977L9.37592 4.46652C9.0498 4.36302 8.86201 4.00175 8.95586 3.65502Z" fill="#626973"/>
<path fill-rule="evenodd" clip-rule="evenodd" d="M1.9033 2.84485C3.30082 1.36969 5.65917 1.48183 6.63225 3.32231L7.17212 4.3434C7.80756 5.54528 7.53677 7.06172 6.60654 8.05563C6.59415 8.07355 6.52849 8.17447 6.52031 8.35079C6.50987 8.57585 6.5856 9.09633 7.34957 9.90275C8.11329 10.7089 8.60631 10.789 8.81962 10.7781C8.98679 10.7695 9.08247 10.7001 9.09947 10.687C10.0411 9.70514 11.4777 9.41931 12.6163 10.0901L13.5837 10.6599C15.3273 11.6871 15.4335 14.1764 14.036 15.6516C13.2885 16.4406 12.2945 17.1417 11.1265 17.1885C9.39548 17.2578 6.52133 16.7859 3.675 13.7815C0.828674 10.777 0.381662 7.74317 0.447283 5.91603C0.491563 4.68309 1.15577 3.63391 1.9033 2.84485ZM5.5427 3.96415C5.04442 3.02171 3.70544 2.80519 2.78558 3.77615C2.14063 4.45694 1.72133 5.20838 1.69413 5.96593C1.6394 7.48962 1.99579 10.1464 4.55729 12.8502C7.11878 15.554 9.63568 15.9301 11.0792 15.8724C11.7969 15.8437 12.5088 15.4011 13.1537 14.7203C14.0736 13.7493 13.8684 12.336 12.9756 11.81L12.0083 11.2401C11.4065 10.8857 10.5613 11.0066 9.96791 11.6329C9.90963 11.6943 9.5386 12.0598 8.88024 12.0936C8.20628 12.1282 7.39048 11.8085 6.46728 10.834C5.54378 9.85924 5.24106 8.99788 5.27406 8.28638C5.3063 7.5914 5.65253 7.20014 5.71046 7.13898C6.30381 6.51266 6.4184 5.62043 6.08257 4.98524L5.5427 3.96415Z" fill="#626973"/>
</svg>
