<svg width="17" height="17" viewBox="0 0 17 17" fill="none" xmlns="http://www.w3.org/2000/svg">
<g clip-path="url(#clip0_63_22)">
<path d="M8.89769 1.30514C8.94182 1.03255 9.19951 0.847632 9.4721 0.891764C9.48898 0.894993 9.54327 0.90514 9.57171 0.911475C9.6286 0.924144 9.70795 0.943649 9.80689 0.972467C10.0047 1.0301 10.2811 1.12503 10.6129 1.27712C11.2771 1.58163 12.1609 2.1143 13.0781 3.0315C13.9953 3.9487 14.528 4.83257 14.8325 5.49676C14.9846 5.8285 15.0795 6.1049 15.1372 6.30276C15.166 6.40169 15.1855 6.48104 15.1982 6.53793C15.2045 6.56638 15.2091 6.58922 15.2124 6.60609L15.2162 6.62689C15.2603 6.89948 15.0771 7.16782 14.8045 7.21196C14.5327 7.25596 14.2766 7.07194 14.2314 6.80062C14.23 6.79334 14.2262 6.77377 14.2221 6.75531C14.2139 6.71839 14.1996 6.65984 14.1771 6.5824C14.132 6.42751 14.0536 6.19729 13.9235 5.91351C13.6636 5.34664 13.1963 4.56384 12.371 3.7386C11.5458 2.91336 10.763 2.44603 10.1961 2.18614C9.91235 2.05604 9.68213 1.97768 9.52724 1.93257C9.4498 1.91001 9.35247 1.88767 9.31555 1.87945C9.04423 1.83424 8.85368 1.57696 8.89769 1.30514Z" fill="#626973"/>
<path fill-rule="evenodd" clip-rule="evenodd" d="M9.04852 3.60479C9.12438 3.33927 9.40112 3.18552 9.66664 3.26138L9.52928 3.74215C9.66664 3.26138 9.66664 3.26138 9.66664 3.26138L9.6676 3.26166L9.66862 3.26195L9.67085 3.2626L9.67601 3.26415L9.6892 3.26826C9.69926 3.27147 9.71181 3.27566 9.72678 3.28097C9.75672 3.29159 9.79629 3.3067 9.84483 3.3275C9.94195 3.36913 10.0747 3.43341 10.2377 3.52988C10.564 3.723 11.0094 4.04379 11.5328 4.5671C12.0561 5.09042 12.3769 5.53588 12.57 5.86219C12.6664 6.02519 12.7307 6.1579 12.7723 6.25503C12.7932 6.30356 12.8083 6.34314 12.8189 6.37308C12.8242 6.38804 12.8284 6.4006 12.8316 6.41065L12.8357 6.42384L12.8372 6.42901L12.8379 6.43123L12.8382 6.43225C12.8382 6.43225 12.8385 6.43321 12.3577 6.57057L12.8385 6.43321C12.9143 6.69873 12.7606 6.97547 12.4951 7.05134C12.2318 7.12655 11.9575 6.97605 11.8789 6.71467L11.8765 6.70749C11.8729 6.69747 11.8655 6.67775 11.8532 6.64894C11.8285 6.59139 11.7838 6.49723 11.7094 6.37151C11.5607 6.12035 11.2923 5.74085 10.8256 5.27421C10.359 4.80758 9.97951 4.53911 9.72835 4.39046C9.60262 4.31605 9.50847 4.27132 9.45091 4.24665C9.42211 4.23431 9.40239 4.22695 9.39237 4.2234L9.38518 4.22093C9.12381 4.14235 8.9733 3.86805 9.04852 3.60479Z" fill="#626973"/>
<path fill-rule="evenodd" clip-rule="evenodd" d="M3.39624 2.98965C4.51629 1.8696 6.40638 1.95475 7.18626 3.35217L7.61894 4.12745C8.12822 5.04 7.91119 6.19139 7.16566 6.94603C7.15573 6.95963 7.1031 7.03626 7.09655 7.17013C7.08818 7.34101 7.14887 7.7362 7.76116 8.34849C8.37324 8.96057 8.76837 9.02141 8.93933 9.01309C9.07331 9.00658 9.14999 8.95392 9.16362 8.94398C9.91827 8.19845 11.0696 7.98143 11.9822 8.4907L12.7575 8.92338C14.1549 9.70326 14.24 11.5934 13.12 12.7134C12.5209 13.3125 11.7243 13.8448 10.7881 13.8803C9.40086 13.9329 7.09736 13.5747 4.81617 11.2935C2.53499 9.01228 2.17673 6.70879 2.22932 5.3215C2.26481 4.38537 2.79714 3.58876 3.39624 2.98965ZM6.31304 3.83949C5.9137 3.12393 4.84057 2.95954 4.10335 3.69676C3.58645 4.21366 3.25041 4.7842 3.2286 5.35938C3.18474 6.51628 3.47037 8.53345 5.52328 10.5864C7.57619 12.6393 9.59336 12.9249 10.7503 12.881C11.3254 12.8592 11.896 12.5232 12.4129 12.0063C13.1501 11.2691 12.9857 10.1959 12.2701 9.7966L11.4949 9.36392C11.0126 9.09478 10.3352 9.18658 9.85963 9.66211C9.81291 9.70879 9.51556 9.98625 8.98791 10.0119C8.44777 10.0382 7.79394 9.79549 7.05405 9.05559C6.31391 8.31545 6.07129 7.66145 6.09774 7.12123C6.12358 6.59355 6.40106 6.29648 6.44749 6.25005C6.92304 5.7745 7.01487 5.09706 6.74572 4.61478L6.31304 3.83949Z" fill="#626973"/>
</g>
<defs>
<clipPath id="clip0_63_22">
<rect width="16" height="16" fill="white" transform="translate(0.0581055 0.0517578)"/>
</clipPath>
</defs>
</svg>
