<svg width="18" height="17" viewBox="0 0 18 17" fill="none" xmlns="http://www.w3.org/2000/svg">
<path fill-rule="evenodd" clip-rule="evenodd" d="M12.3332 3.50002H5.6665C3.30948 3.50002 2.13097 3.50002 1.39874 4.23225C0.666504 4.96449 0.666504 6.143 0.666504 8.50002C0.666504 10.857 0.666504 12.0356 1.39874 12.7678C1.81086 13.1799 2.36436 13.3601 3.18979 13.4388C3.16649 12.8365 3.16649 12.1269 3.1665 11.4167C2.93639 11.4167 2.74984 11.2301 2.74984 11C2.74984 10.7699 2.93639 10.5834 3.1665 10.5834H14.8332C15.0633 10.5834 15.2498 10.7699 15.2498 11C15.2498 11.2301 15.0633 11.417 14.8332 11.417C14.8332 12.1271 14.8332 12.8366 14.8099 13.4388C15.6353 13.3601 16.1888 13.1799 16.6009 12.7678C17.3332 12.0356 17.3332 10.857 17.3332 8.50002C17.3332 6.143 17.3332 4.96449 16.6009 4.23225C15.8687 3.50002 14.6902 3.50002 12.3332 3.50002ZM6.49984 7.45835C6.84501 7.45835 7.12484 7.17853 7.12484 6.83335C7.12484 6.48817 6.84501 6.20835 6.49984 6.20835H3.99984C3.65466 6.20835 3.37484 6.48817 3.37484 6.83335C3.37484 7.17853 3.65466 7.45835 3.99984 7.45835H6.49984ZM13.1665 7.66669C13.6267 7.66669 13.9998 7.29359 13.9998 6.83335C13.9998 6.37312 13.6267 6.00002 13.1665 6.00002C12.7063 6.00002 12.3332 6.37312 12.3332 6.83335C12.3332 7.29359 12.7063 7.66669 13.1665 7.66669Z" fill="#F9FAFB"/>
<path d="M13.2674 0.89892C12.5352 0.166687 11.3567 0.166687 8.99964 0.166687C6.64262 0.166687 5.46411 0.166687 4.73187 0.89892C4.32157 1.30923 4.14118 1.85966 4.06187 2.67905C4.5279 2.66666 5.04302 2.66667 5.60769 2.66669H12.392C12.9565 2.66667 13.4715 2.66666 13.9374 2.67904C13.8581 1.85966 13.6777 1.30922 13.2674 0.89892Z" fill="#F9FAFB"/>
<path d="M13.9998 11.4167C13.9998 13.7737 13.9998 15.3689 13.2676 16.1011C12.5354 16.8334 11.3569 16.8334 8.99984 16.8334C6.64282 16.8334 5.4643 16.8334 4.73207 16.1011C3.99984 15.3689 3.99984 13.7737 3.99984 11.4167H13.9998Z" fill="#F9FAFB"/>
</svg>
