<svg width="319" height="214" viewBox="0 0 319 214" fill="none" xmlns="http://www.w3.org/2000/svg">
<g clip-path="url(#clip0_1890_20776)" filter="url(#filter0_dd_1890_20776)">
<rect width="52" height="183" transform="translate(139 5)" fill="white"/>
<path d="M139 34.4907C140.357 34.4907 141.458 35.591 141.458 36.9483V57.8375C141.458 59.1948 140.357 60.295 139 60.295V34.4907Z" fill="#4F46E5"/>
<rect x="152.517" y="34.4907" width="25.8043" height="25.8043" rx="2.45755" fill="#4F46E5" fill-opacity="0.08"/>
<path d="M159.275 43.8359C159.275 42.6164 159.275 42.0067 159.68 41.6279C160.085 41.249 160.736 41.249 162.04 41.249C163.343 41.249 163.995 41.249 164.4 41.6279C164.804 42.0067 164.804 42.6164 164.804 43.8359V50.9499C164.804 52.1694 164.804 52.7791 164.4 53.158C163.995 53.5368 163.343 53.5368 162.04 53.5368C160.736 53.5368 160.085 53.5368 159.68 53.158C159.275 52.7791 159.275 52.1694 159.275 50.9499V43.8359Z" fill="#4F46E5"/>
<path d="M166.033 49.4816C166.033 48.2073 166.033 47.5701 166.438 47.1742C166.843 46.7783 167.495 46.7783 168.798 46.7783C170.101 46.7783 170.753 46.7783 171.158 47.1742C171.563 47.5701 171.563 48.2073 171.563 49.4816V50.8333C171.563 52.1076 171.563 52.7448 171.158 53.1407C170.753 53.5366 170.101 53.5366 168.798 53.5366C167.495 53.5366 166.843 53.5366 166.438 53.1407C166.033 52.7448 166.033 52.1076 166.033 50.8333V49.4816Z" fill="#4F46E5"/>
<path d="M166.033 43.3994C166.033 42.7314 166.033 42.3974 166.138 42.134C166.279 41.7827 166.548 41.5036 166.887 41.3581C167.141 41.249 167.463 41.249 168.107 41.249H169.489C170.133 41.249 170.455 41.249 170.709 41.3581C171.048 41.5036 171.317 41.7827 171.457 42.134C171.563 42.3974 171.563 42.7314 171.563 43.3994C171.563 44.0673 171.563 44.4013 171.457 44.6648C171.317 45.016 171.048 45.2951 170.709 45.4406C170.455 45.5497 170.133 45.5497 169.489 45.5497H168.107C167.463 45.5497 167.141 45.5497 166.887 45.4406C166.548 45.2951 166.279 45.016 166.138 44.6648C166.033 44.4013 166.033 44.0673 166.033 43.3994Z" fill="#4F46E5"/>
<g clip-path="url(#clip1_1890_20776)">
<path fill-rule="evenodd" clip-rule="evenodd" d="M165.419 76.4229C163.807 76.4229 162.5 77.7294 162.5 79.3412C162.5 80.953 163.807 82.2595 165.419 82.2595C167.031 82.2595 168.337 80.953 168.337 79.3412C168.337 77.7294 167.031 76.4229 165.419 76.4229ZM163.422 79.3412C163.422 78.2384 164.316 77.3444 165.419 77.3444C166.522 77.3444 167.416 78.2384 167.416 79.3412C167.416 80.444 166.522 81.338 165.419 81.338C164.316 81.338 163.422 80.444 163.422 79.3412Z" fill="#1F2937" fill-opacity="0.7"/>
<path d="M169.105 77.6516C168.851 77.6516 168.644 77.8579 168.644 78.1124C168.644 78.3669 168.851 78.5732 169.105 78.5732C169.951 78.5732 170.487 79.1297 170.487 79.6484C170.487 80.1671 169.951 80.7236 169.105 80.7236C168.851 80.7236 168.644 80.9299 168.644 81.1844C168.644 81.4388 168.851 81.6452 169.105 81.6452C170.295 81.6452 171.409 80.8263 171.409 79.6484C171.409 78.4705 170.295 77.6516 169.105 77.6516Z" fill="#1F2937" fill-opacity="0.7"/>
<path d="M162.193 78.1124C162.193 77.8579 161.987 77.6516 161.732 77.6516C160.542 77.6516 159.428 78.4705 159.428 79.6484C159.428 80.8263 160.542 81.6452 161.732 81.6452C161.987 81.6452 162.193 81.4388 162.193 81.1844C162.193 80.9299 161.987 80.7236 161.732 80.7236C160.887 80.7236 160.35 80.1671 160.35 79.6484C160.35 79.1297 160.887 78.5732 161.732 78.5732C161.987 78.5732 162.193 78.3669 162.193 78.1124Z" fill="#1F2937" fill-opacity="0.7"/>
<path fill-rule="evenodd" clip-rule="evenodd" d="M165.419 83.1811C164.323 83.1811 163.309 83.4765 162.557 83.9783C161.807 84.478 161.272 85.2188 161.272 86.0995C161.272 86.9801 161.807 87.721 162.557 88.2206C163.309 88.7224 164.323 89.0178 165.419 89.0178C166.515 89.0178 167.528 88.7224 168.281 88.2206C169.03 87.721 169.566 86.9801 169.566 86.0995C169.566 85.2188 169.03 84.478 168.281 83.9783C167.528 83.4765 166.515 83.1811 165.419 83.1811ZM162.193 86.0995C162.193 85.6228 162.483 85.1349 163.068 84.7451C163.649 84.3575 164.479 84.1027 165.419 84.1027C166.358 84.1027 167.188 84.3575 167.77 84.7451C168.355 85.1349 168.644 85.6228 168.644 86.0995C168.644 86.5761 168.355 87.064 167.77 87.4538C167.188 87.8415 166.358 88.0962 165.419 88.0962C164.479 88.0962 163.649 87.8415 163.068 87.4538C162.483 87.064 162.193 86.5761 162.193 86.0995Z" fill="#1F2937" fill-opacity="0.7"/>
<path d="M169.884 84.1576C169.938 83.909 170.184 83.7517 170.433 83.8062C171.024 83.9358 171.556 84.1699 171.951 84.4934C172.346 84.8166 172.638 85.261 172.638 85.7923C172.638 86.3236 172.346 86.7679 171.951 87.0911C171.556 87.4147 171.024 87.6487 170.433 87.7783C170.184 87.8329 169.938 87.6755 169.884 87.4269C169.829 87.1784 169.987 86.9327 170.235 86.8782C170.722 86.7714 171.111 86.588 171.368 86.3779C171.625 86.1675 171.716 85.962 171.716 85.7923C171.716 85.6225 171.625 85.417 171.368 85.2066C171.111 84.9965 170.722 84.8132 170.235 84.7064C169.987 84.6519 169.829 84.4062 169.884 84.1576Z" fill="#1F2937" fill-opacity="0.7"/>
<path d="M160.405 83.8062C160.654 83.7517 160.899 83.909 160.954 84.1576C161.008 84.4062 160.851 84.6519 160.602 84.7064C160.116 84.8132 159.726 84.9965 159.47 85.2066C159.213 85.417 159.121 85.6225 159.121 85.7923C159.121 85.962 159.213 86.1675 159.47 86.3779C159.726 86.588 160.116 86.7714 160.602 86.8782C160.851 86.9327 161.008 87.1784 160.954 87.4269C160.899 87.6755 160.654 87.8329 160.405 87.7783C159.814 87.6487 159.281 87.4147 158.886 87.0911C158.491 86.7679 158.2 86.3236 158.2 85.7923C158.2 85.261 158.491 84.8166 158.886 84.4934C159.281 84.1699 159.814 83.9358 160.405 83.8062Z" fill="#1F2937" fill-opacity="0.7"/>
</g>
<g clip-path="url(#clip2_1890_20776)">
<path d="M168.491 119.891C168.83 119.891 169.105 119.615 169.105 119.276C169.105 118.937 168.83 118.662 168.491 118.662C168.151 118.662 167.876 118.937 167.876 119.276C167.876 119.615 168.151 119.891 168.491 119.891Z" fill="#626973"/>
<path d="M168.491 122.348C168.83 122.348 169.105 122.073 169.105 121.734C169.105 121.394 168.83 121.119 168.491 121.119C168.151 121.119 167.876 121.394 167.876 121.734C167.876 122.073 168.151 122.348 168.491 122.348Z" fill="#626973"/>
<path d="M166.033 119.276C166.033 119.615 165.758 119.891 165.419 119.891C165.079 119.891 164.804 119.615 164.804 119.276C164.804 118.937 165.079 118.662 165.419 118.662C165.758 118.662 166.033 118.937 166.033 119.276Z" fill="#626973"/>
<path d="M166.033 121.734C166.033 122.073 165.758 122.348 165.419 122.348C165.079 122.348 164.804 122.073 164.804 121.734C164.804 121.394 165.079 121.119 165.419 121.119C165.758 121.119 166.033 121.394 166.033 121.734Z" fill="#626973"/>
<path d="M162.347 119.891C162.686 119.891 162.961 119.615 162.961 119.276C162.961 118.937 162.686 118.662 162.347 118.662C162.007 118.662 161.732 118.937 161.732 119.276C161.732 119.615 162.007 119.891 162.347 119.891Z" fill="#626973"/>
<path d="M162.347 122.348C162.686 122.348 162.961 122.073 162.961 121.734C162.961 121.394 162.686 121.119 162.347 121.119C162.007 121.119 161.732 121.394 161.732 121.734C161.732 122.073 162.007 122.348 162.347 122.348Z" fill="#626973"/>
<path fill-rule="evenodd" clip-rule="evenodd" d="M162.347 112.364C162.601 112.364 162.807 112.571 162.807 112.825V113.294C163.214 113.286 163.662 113.286 164.155 113.286H166.682C167.175 113.286 167.623 113.286 168.03 113.294V112.825C168.03 112.571 168.236 112.364 168.491 112.364C168.745 112.364 168.951 112.571 168.951 112.825V113.333C169.111 113.345 169.262 113.361 169.405 113.38C170.126 113.477 170.709 113.681 171.169 114.141C171.628 114.6 171.832 115.183 171.929 115.904C172.023 116.604 172.023 117.498 172.023 118.627V119.925C172.023 121.054 172.023 121.949 171.929 122.649C171.832 123.369 171.628 123.952 171.169 124.412C170.709 124.871 170.126 125.075 169.405 125.172C168.706 125.266 167.811 125.266 166.682 125.266H164.155C163.026 125.266 162.132 125.266 161.432 125.172C160.712 125.075 160.129 124.871 159.669 124.412C159.209 123.952 159.005 123.369 158.908 122.649C158.814 121.949 158.814 121.054 158.814 119.925V118.627C158.814 117.498 158.814 116.604 158.908 115.904C159.005 115.183 159.209 114.6 159.669 114.141C160.129 113.681 160.712 113.477 161.432 113.38C161.575 113.361 161.726 113.345 161.886 113.333V112.825C161.886 112.571 162.092 112.364 162.347 112.364ZM161.555 114.293C160.937 114.376 160.58 114.532 160.32 114.792C160.06 115.052 159.905 115.408 159.821 116.027C159.807 116.131 159.796 116.241 159.786 116.358H171.052C171.042 116.241 171.03 116.131 171.016 116.027C170.933 115.408 170.777 115.052 170.517 114.792C170.257 114.532 169.901 114.376 169.283 114.293C168.651 114.208 167.819 114.207 166.647 114.207H164.19C163.018 114.207 162.186 114.208 161.555 114.293ZM159.736 118.662C159.736 118.137 159.736 117.68 159.744 117.279H171.094C171.102 117.68 171.102 118.137 171.102 118.662V119.891C171.102 121.062 171.101 121.894 171.016 122.526C170.933 123.144 170.777 123.5 170.517 123.76C170.257 124.02 169.901 124.176 169.283 124.259C168.651 124.344 167.819 124.345 166.647 124.345H164.19C163.018 124.345 162.186 124.344 161.555 124.259C160.937 124.176 160.58 124.02 160.32 123.76C160.06 123.5 159.905 123.144 159.821 122.526C159.737 121.894 159.736 121.062 159.736 119.891V118.662Z" fill="#626973"/>
</g>
<path fill-rule="evenodd" clip-rule="evenodd" d="M162.508 148.927C162.581 148.233 163.169 147.692 163.883 147.692H166.954C167.668 147.692 168.256 148.233 168.329 148.927C168.798 148.937 169.203 148.961 169.549 149.024C170.015 149.11 170.411 149.273 170.734 149.595C171.104 149.965 171.263 150.431 171.337 150.984C171.409 151.517 171.409 152.194 171.409 153.034V156.788C171.409 157.628 171.409 158.305 171.337 158.838C171.263 159.391 171.104 159.857 170.734 160.226C170.364 160.596 169.899 160.755 169.346 160.83C168.813 160.901 168.136 160.901 167.295 160.901H163.542C162.701 160.901 162.024 160.901 161.491 160.83C160.938 160.755 160.473 160.596 160.103 160.226C159.733 159.857 159.574 159.391 159.5 158.838C159.428 158.305 159.428 157.628 159.428 156.788V153.034C159.428 152.194 159.428 151.517 159.5 150.984C159.574 150.431 159.733 149.965 160.103 149.595C160.426 149.273 160.822 149.11 161.288 149.024C161.634 148.961 162.039 148.937 162.508 148.927ZM163.422 149.382C163.422 149.382 163.422 149.383 163.422 149.383V149.689C163.422 149.943 163.628 150.149 163.883 150.149H166.954C167.209 150.149 167.415 149.943 167.415 149.689V149.383C167.415 149.383 167.415 149.382 167.415 149.382V149.074C167.415 148.82 167.209 148.613 166.954 148.613H163.883C163.628 148.613 163.422 148.82 163.422 149.074V149.382ZM168.328 149.849C168.248 150.537 167.664 151.071 166.954 151.071H163.883C163.173 151.071 162.589 150.537 162.509 149.849C162.068 149.858 161.728 149.881 161.454 149.931C161.106 149.995 160.904 150.098 160.755 150.247C160.585 150.417 160.474 150.656 160.413 151.107C160.351 151.571 160.35 152.186 160.35 153.068V156.754C160.35 157.636 160.351 158.251 160.413 158.715C160.474 159.166 160.585 159.405 160.755 159.575C160.925 159.745 161.163 159.856 161.614 159.916C162.078 159.979 162.693 159.98 163.575 159.98H167.262C168.144 159.98 168.759 159.979 169.223 159.916C169.674 159.856 169.912 159.745 170.082 159.575C170.252 159.405 170.363 159.166 170.424 158.715C170.486 158.251 170.487 157.636 170.487 156.754V153.068C170.487 152.186 170.486 151.571 170.424 151.107C170.363 150.656 170.252 150.417 170.082 150.247C169.933 150.098 169.731 149.995 169.383 149.931C169.109 149.881 168.769 149.858 168.328 149.849ZM161.886 155.833C161.886 155.578 162.092 155.372 162.347 155.372H167.262C167.516 155.372 167.722 155.578 167.722 155.833C167.722 156.087 167.516 156.293 167.262 156.293H162.347C162.092 156.293 161.886 156.087 161.886 155.833ZM161.886 157.983C161.886 157.728 162.092 157.522 162.347 157.522H165.726C165.98 157.522 166.186 157.728 166.186 157.983C166.186 158.237 165.98 158.444 165.726 158.444H162.347C162.092 158.444 161.886 158.237 161.886 157.983Z" fill="#626973"/>
</g>
<path d="M246.098 52.926C245.978 52.926 245.888 52.896 245.828 52.836C245.768 52.776 245.738 52.704 245.738 52.62C245.738 52.428 245.858 52.308 246.098 52.26C246.41 52.188 246.818 52.038 247.322 51.81C247.826 51.594 248.372 51.318 248.96 50.982C249.548 50.646 250.124 50.274 250.688 49.866C251.264 49.458 251.768 49.032 252.2 48.588C252.644 48.144 252.962 47.7 253.154 47.256C253.358 46.812 253.508 46.278 253.604 45.654C253.712 45.018 253.766 44.43 253.766 43.89C253.766 43.59 253.748 43.32 253.712 43.08C253.676 42.84 253.622 42.66 253.55 42.54C253.214 41.94 252.794 41.496 252.29 41.208C251.798 40.908 251.21 40.734 250.526 40.686C250.466 40.674 250.4 40.668 250.328 40.668C250.268 40.668 250.208 40.668 250.148 40.668C249.872 40.668 249.614 40.704 249.374 40.776C249.134 40.848 248.846 40.956 248.51 41.1C248.378 41.148 248.258 41.208 248.15 41.28C248.042 41.34 247.904 41.418 247.736 41.514C247.664 41.55 247.592 41.568 247.52 41.568C247.4 41.568 247.292 41.52 247.196 41.424C247.112 41.328 247.07 41.226 247.07 41.118C247.07 40.95 247.154 40.824 247.322 40.74C247.466 40.668 247.598 40.596 247.718 40.524C247.838 40.44 247.994 40.356 248.186 40.272C248.594 40.104 248.978 39.978 249.338 39.894C249.71 39.798 250.136 39.768 250.616 39.804C251.432 39.876 252.194 40.098 252.902 40.47C253.622 40.842 254.156 41.382 254.504 42.09C254.6 42.282 254.672 42.522 254.72 42.81C254.768 43.086 254.792 43.392 254.792 43.728C254.792 44.352 254.714 45.018 254.558 45.726C254.414 46.422 254.216 47.052 253.964 47.616C253.712 48.168 253.34 48.69 252.848 49.182C252.368 49.674 251.822 50.13 251.21 50.55C250.61 50.958 249.992 51.324 249.356 51.648C248.732 51.972 248.144 52.236 247.592 52.44C247.052 52.656 246.602 52.812 246.242 52.908C246.206 52.92 246.158 52.926 246.098 52.926ZM246.71 51.522C246.518 51.522 246.326 51.444 246.134 51.288C245.954 51.132 245.882 50.886 245.918 50.55C245.954 50.166 246.05 49.686 246.206 49.11C246.374 48.522 246.578 47.886 246.818 47.202C247.07 46.518 247.334 45.834 247.61 45.15C247.898 44.466 248.174 43.83 248.438 43.242C248.702 42.642 248.936 42.15 249.14 41.766C249.248 41.574 249.398 41.478 249.59 41.478C249.71 41.478 249.812 41.526 249.896 41.622C249.992 41.718 250.028 41.85 250.004 42.018L250.022 42C250.01 42.12 249.968 42.306 249.896 42.558C249.836 42.81 249.758 43.002 249.662 43.134C249.542 43.326 249.398 43.524 249.23 43.728C249.062 43.932 248.912 44.172 248.78 44.448C248.192 45.684 247.712 46.824 247.34 47.868C246.98 48.9 246.776 49.722 246.728 50.334C246.728 50.418 246.764 50.508 246.836 50.604C246.92 50.7 246.998 50.796 247.07 50.892C247.154 50.988 247.196 51.084 247.196 51.18C247.196 51.276 247.136 51.366 247.016 51.45C246.956 51.498 246.854 51.522 246.71 51.522ZM257.326 50.604C256.99 50.604 256.66 50.532 256.336 50.388C256.024 50.244 255.766 50.046 255.562 49.794C255.358 49.542 255.256 49.254 255.256 48.93C255.256 48.45 255.382 48.03 255.634 47.67C255.886 47.31 256.204 47.004 256.588 46.752C256.984 46.5 257.386 46.308 257.794 46.176C258.19 46.044 258.622 45.978 259.09 45.978C259.582 45.978 260.056 46.068 260.512 46.248C260.98 46.416 261.31 46.71 261.502 47.13C261.598 46.818 261.67 46.512 261.718 46.212C261.766 45.9 261.79 45.63 261.79 45.402C261.79 45.018 261.712 44.724 261.556 44.52C261.412 44.316 261.148 44.214 260.764 44.214C260.608 44.214 260.428 44.274 260.224 44.394C260.02 44.502 259.822 44.646 259.63 44.826C259.558 44.898 259.504 44.946 259.468 44.97C259.444 44.994 259.378 45.006 259.27 45.006C259.15 45.006 259.054 44.964 258.982 44.88C258.922 44.796 258.892 44.7 258.892 44.592C258.892 44.448 258.946 44.322 259.054 44.214C259.162 44.106 259.282 43.986 259.414 43.854C259.546 43.722 259.714 43.608 259.918 43.512C260.134 43.404 260.404 43.35 260.728 43.35C261.4 43.35 261.892 43.506 262.204 43.818C262.516 44.13 262.672 44.64 262.672 45.348C262.672 45.696 262.624 46.056 262.528 46.428C262.444 46.8 262.342 47.196 262.222 47.616C262.15 47.88 262.048 48.18 261.916 48.516C261.796 48.84 261.64 49.164 261.448 49.488C261.256 49.812 261.022 50.088 260.746 50.316C260.662 50.388 260.572 50.424 260.476 50.424C260.356 50.424 260.254 50.382 260.17 50.298C260.086 50.214 260.044 50.118 260.044 50.01C260.044 49.902 260.098 49.794 260.206 49.686C260.338 49.578 260.476 49.404 260.62 49.164C260.776 48.924 260.92 48.624 261.052 48.264C261.016 47.772 260.782 47.412 260.35 47.184C259.93 46.956 259.462 46.842 258.946 46.842C258.646 46.842 258.358 46.878 258.082 46.95C257.782 47.034 257.482 47.178 257.182 47.382C256.882 47.574 256.63 47.802 256.426 48.066C256.234 48.33 256.138 48.606 256.138 48.894C256.138 49.122 256.252 49.326 256.48 49.506C256.72 49.686 257.002 49.776 257.326 49.776C257.602 49.776 257.818 49.77 257.974 49.758C258.142 49.746 258.298 49.71 258.442 49.65C258.598 49.578 258.796 49.452 259.036 49.272C259.144 49.2 259.234 49.164 259.306 49.164C259.402 49.164 259.48 49.194 259.54 49.254C259.6 49.314 259.63 49.392 259.63 49.488C259.63 49.62 259.564 49.734 259.432 49.83C259.024 50.166 258.664 50.382 258.352 50.478C258.052 50.562 257.71 50.604 257.326 50.604ZM263.701 51.702C263.617 51.702 263.521 51.696 263.413 51.684C263.317 51.672 263.215 51.654 263.107 51.63C262.951 51.594 262.873 51.48 262.873 51.288C262.873 51.18 262.915 51.084 262.999 51C263.083 50.904 263.203 50.868 263.359 50.892C263.491 50.904 263.701 50.874 263.989 50.802C264.289 50.73 264.619 50.634 264.979 50.514C265.507 50.322 265.939 50.118 266.275 49.902C266.611 49.686 266.887 49.434 267.103 49.146C267.331 48.858 267.445 48.582 267.445 48.318C267.445 48.198 267.421 48.084 267.373 47.976C267.325 47.856 267.235 47.742 267.103 47.634C266.899 47.454 266.653 47.286 266.365 47.13C266.077 46.974 265.795 46.812 265.519 46.644C265.243 46.464 265.009 46.266 264.817 46.05C264.637 45.822 264.547 45.546 264.547 45.222C264.547 44.934 264.649 44.688 264.853 44.484C265.057 44.268 265.291 44.094 265.555 43.962C265.831 43.818 266.065 43.716 266.257 43.656C266.449 43.596 266.641 43.554 266.833 43.53C267.025 43.494 267.217 43.476 267.409 43.476C267.637 43.476 267.853 43.506 268.057 43.566C268.273 43.614 268.477 43.704 268.669 43.836C268.777 43.908 268.855 43.992 268.903 44.088C268.951 44.184 268.975 44.28 268.975 44.376C268.975 44.508 268.933 44.628 268.849 44.736C268.777 44.832 268.675 44.88 268.543 44.88C268.447 44.88 268.321 44.832 268.165 44.736H268.183C267.919 44.544 267.613 44.448 267.265 44.448C267.073 44.448 266.899 44.472 266.743 44.52C266.491 44.58 266.245 44.658 266.005 44.754C265.765 44.85 265.615 45 265.555 45.204C265.519 45.36 265.609 45.534 265.825 45.726C266.053 45.906 266.335 46.092 266.671 46.284C267.007 46.464 267.319 46.644 267.607 46.824C267.883 46.98 268.105 47.19 268.273 47.454C268.441 47.718 268.525 48 268.525 48.3C268.525 48.672 268.387 49.032 268.111 49.38C267.667 49.92 267.205 50.34 266.725 50.64C266.257 50.94 265.729 51.186 265.141 51.378C264.817 51.486 264.547 51.564 264.331 51.612C264.115 51.672 263.905 51.702 263.701 51.702ZM275.031 51.432C274.767 51.432 274.581 51.318 274.473 51.09C274.365 50.862 274.311 50.592 274.311 50.28C274.311 49.896 274.371 49.482 274.491 49.038C274.611 48.594 274.731 48.234 274.851 47.958C275.019 47.562 275.151 47.214 275.247 46.914C275.343 46.614 275.391 46.374 275.391 46.194C275.391 45.978 275.325 45.87 275.193 45.87C275.109 45.858 274.935 45.912 274.671 46.032C274.407 46.152 274.131 46.314 273.843 46.518C273.663 46.638 273.423 46.818 273.123 47.058C272.823 47.286 272.511 47.538 272.187 47.814C271.863 48.09 271.575 48.36 271.323 48.624C270.987 48.972 270.759 49.296 270.639 49.596C270.567 49.776 270.447 49.866 270.279 49.866C270.171 49.866 270.081 49.818 270.009 49.722C269.937 49.614 269.913 49.452 269.937 49.236C269.997 48.84 270.111 48.354 270.279 47.778C270.459 47.202 270.663 46.584 270.891 45.924C271.131 45.252 271.383 44.586 271.647 43.926C271.911 43.254 272.169 42.63 272.421 42.054C272.685 41.478 272.919 40.998 273.123 40.614C273.231 40.422 273.381 40.326 273.573 40.326C273.681 40.326 273.777 40.368 273.861 40.452C273.945 40.524 273.987 40.632 273.987 40.776C273.987 40.824 273.969 40.926 273.933 41.082C273.909 41.238 273.867 41.4 273.807 41.568C273.759 41.736 273.699 41.874 273.627 41.982C273.507 42.174 273.363 42.372 273.195 42.576C273.027 42.78 272.877 43.02 272.745 43.296C272.457 43.92 272.223 44.454 272.043 44.898C271.863 45.33 271.719 45.714 271.611 46.05C271.515 46.386 271.431 46.692 271.359 46.968C271.287 47.244 271.209 47.532 271.125 47.832C271.221 47.676 271.311 47.55 271.395 47.454C271.479 47.358 271.563 47.268 271.647 47.184C271.887 46.944 272.175 46.698 272.511 46.446C272.847 46.194 273.195 45.954 273.555 45.726C273.927 45.498 274.275 45.318 274.599 45.186C274.935 45.042 275.205 44.97 275.409 44.97C275.637 44.97 275.847 45.048 276.039 45.204C276.231 45.348 276.327 45.63 276.327 46.05C276.327 46.29 276.285 46.584 276.201 46.932C276.129 47.268 275.991 47.664 275.787 48.12C275.619 48.528 275.469 48.966 275.337 49.434C275.217 49.89 275.139 50.256 275.103 50.532C275.223 50.712 275.283 50.91 275.283 51.126C275.283 51.33 275.199 51.432 275.031 51.432ZM278.319 51.198C277.995 51.198 277.689 51.156 277.401 51.072C277.113 51 276.855 50.868 276.627 50.676C276.543 50.592 276.501 50.478 276.501 50.334C276.501 50.166 276.555 50.004 276.663 49.848C276.783 49.692 276.909 49.614 277.041 49.614C277.113 49.614 277.185 49.65 277.257 49.722C277.329 49.806 277.413 49.908 277.509 50.028C277.617 50.148 277.767 50.238 277.959 50.298C278.019 50.31 278.085 50.322 278.157 50.334C278.229 50.334 278.307 50.334 278.391 50.334C278.571 50.334 278.757 50.322 278.949 50.298C279.153 50.274 279.315 50.25 279.435 50.226C280.011 50.082 280.581 49.86 281.145 49.56C281.709 49.26 282.219 48.912 282.675 48.516C283.131 48.12 283.497 47.694 283.773 47.238C284.049 46.782 284.187 46.32 284.187 45.852C284.187 45.504 284.025 45.33 283.701 45.33C283.509 45.33 283.257 45.378 282.945 45.474C282.633 45.57 282.309 45.696 281.973 45.852C281.637 46.008 281.319 46.182 281.019 46.374C280.527 46.698 280.107 47.04 279.759 47.4C279.411 47.76 279.051 48.132 278.679 48.516C278.607 48.588 278.511 48.624 278.391 48.624C278.271 48.624 278.157 48.594 278.049 48.534C277.941 48.462 277.887 48.366 277.887 48.246C277.887 48.15 277.929 48.054 278.013 47.958C278.205 47.718 278.403 47.37 278.607 46.914C278.811 46.458 279.009 45.954 279.201 45.402C279.405 44.85 279.597 44.31 279.777 43.782C279.957 43.242 280.125 42.768 280.281 42.36C280.473 41.844 280.629 41.352 280.749 40.884C280.869 40.416 280.989 40.008 281.109 39.66C281.169 39.48 281.295 39.39 281.487 39.39C281.619 39.39 281.745 39.438 281.865 39.534C281.997 39.618 282.063 39.732 282.063 39.876C282.063 39.888 282.057 39.912 282.045 39.948C282.045 39.972 282.045 39.996 282.045 40.02V40.038C281.865 40.554 281.655 41.112 281.415 41.712C281.175 42.3 280.893 42.984 280.569 43.764C280.257 44.544 279.891 45.462 279.471 46.518C279.723 46.29 280.005 46.062 280.317 45.834C280.629 45.594 280.989 45.378 281.397 45.186C281.733 45.018 282.123 44.856 282.567 44.7C283.011 44.532 283.395 44.448 283.719 44.448C284.211 44.448 284.559 44.616 284.763 44.952C284.967 45.276 285.069 45.63 285.069 46.014C285.069 46.566 284.895 47.118 284.547 47.67C284.211 48.222 283.761 48.732 283.197 49.2C282.633 49.668 282.015 50.07 281.343 50.406C280.671 50.73 280.005 50.958 279.345 51.09C279.009 51.162 278.667 51.198 278.319 51.198ZM287.649 50.658C287.577 50.658 287.505 50.658 287.433 50.658C287.361 50.646 287.289 50.634 287.217 50.622C286.725 50.562 286.341 50.328 286.065 49.92C285.801 49.5 285.669 49.032 285.669 48.516C285.669 48.18 285.735 47.826 285.867 47.454C286.011 47.07 286.233 46.722 286.533 46.41C286.833 46.086 287.181 45.828 287.577 45.636C287.973 45.444 288.375 45.348 288.783 45.348C288.987 45.348 289.179 45.372 289.359 45.42C289.551 45.468 289.647 45.564 289.647 45.708C289.647 45.804 289.593 45.9 289.485 45.996C289.389 46.08 289.257 46.104 289.089 46.068C289.041 46.056 288.963 46.05 288.855 46.05C288.567 46.05 288.273 46.128 287.973 46.284C287.673 46.44 287.403 46.65 287.163 46.914C286.923 47.166 286.749 47.448 286.641 47.76C286.557 48 286.515 48.24 286.515 48.48C286.515 48.852 286.599 49.17 286.767 49.434C286.947 49.698 287.151 49.83 287.379 49.83C287.439 49.842 287.493 49.848 287.541 49.848C287.601 49.848 287.655 49.848 287.703 49.848C288.231 49.848 288.735 49.704 289.215 49.416C289.707 49.116 290.085 48.792 290.349 48.444C290.481 48.24 290.571 48.06 290.619 47.904C290.667 47.736 290.691 47.598 290.691 47.49C290.691 47.25 290.619 47.088 290.475 47.004C290.331 46.92 290.199 46.884 290.079 46.896C289.887 46.92 289.701 46.95 289.521 46.986C289.341 47.01 289.185 47.052 289.053 47.112C288.981 47.136 288.927 47.148 288.891 47.148C288.771 47.148 288.669 47.1 288.585 47.004C288.513 46.908 288.477 46.806 288.477 46.698C288.477 46.506 288.567 46.38 288.747 46.32C288.915 46.26 289.113 46.206 289.341 46.158C289.569 46.11 289.803 46.074 290.043 46.05C290.091 46.038 290.133 46.032 290.169 46.032C290.205 46.032 290.247 46.032 290.295 46.032C290.727 46.032 291.063 46.164 291.303 46.428C291.543 46.68 291.663 46.992 291.663 47.364C291.663 47.592 291.609 47.838 291.501 48.102C291.393 48.366 291.219 48.618 290.979 48.858C290.763 49.134 290.487 49.41 290.151 49.686C289.815 49.962 289.437 50.196 289.017 50.388C288.597 50.568 288.141 50.658 287.649 50.658ZM294.469 50.604C294.133 50.604 293.803 50.532 293.479 50.388C293.167 50.244 292.909 50.046 292.705 49.794C292.501 49.542 292.399 49.254 292.399 48.93C292.399 48.45 292.525 48.03 292.777 47.67C293.029 47.31 293.347 47.004 293.731 46.752C294.127 46.5 294.529 46.308 294.937 46.176C295.333 46.044 295.765 45.978 296.233 45.978C296.725 45.978 297.199 46.068 297.655 46.248C298.123 46.416 298.453 46.71 298.645 47.13C298.741 46.818 298.813 46.512 298.861 46.212C298.909 45.9 298.933 45.63 298.933 45.402C298.933 45.018 298.855 44.724 298.699 44.52C298.555 44.316 298.291 44.214 297.907 44.214C297.751 44.214 297.571 44.274 297.367 44.394C297.163 44.502 296.965 44.646 296.773 44.826C296.701 44.898 296.647 44.946 296.611 44.97C296.587 44.994 296.521 45.006 296.413 45.006C296.293 45.006 296.197 44.964 296.125 44.88C296.065 44.796 296.035 44.7 296.035 44.592C296.035 44.448 296.089 44.322 296.197 44.214C296.305 44.106 296.425 43.986 296.557 43.854C296.689 43.722 296.857 43.608 297.061 43.512C297.277 43.404 297.547 43.35 297.871 43.35C298.543 43.35 299.035 43.506 299.347 43.818C299.659 44.13 299.815 44.64 299.815 45.348C299.815 45.696 299.767 46.056 299.671 46.428C299.587 46.8 299.485 47.196 299.365 47.616C299.293 47.88 299.191 48.18 299.059 48.516C298.939 48.84 298.783 49.164 298.591 49.488C298.399 49.812 298.165 50.088 297.889 50.316C297.805 50.388 297.715 50.424 297.619 50.424C297.499 50.424 297.397 50.382 297.313 50.298C297.229 50.214 297.187 50.118 297.187 50.01C297.187 49.902 297.241 49.794 297.349 49.686C297.481 49.578 297.619 49.404 297.763 49.164C297.919 48.924 298.063 48.624 298.195 48.264C298.159 47.772 297.925 47.412 297.493 47.184C297.073 46.956 296.605 46.842 296.089 46.842C295.789 46.842 295.501 46.878 295.225 46.95C294.925 47.034 294.625 47.178 294.325 47.382C294.025 47.574 293.773 47.802 293.569 48.066C293.377 48.33 293.281 48.606 293.281 48.894C293.281 49.122 293.395 49.326 293.623 49.506C293.863 49.686 294.145 49.776 294.469 49.776C294.745 49.776 294.961 49.77 295.117 49.758C295.285 49.746 295.441 49.71 295.585 49.65C295.741 49.578 295.939 49.452 296.179 49.272C296.287 49.2 296.377 49.164 296.449 49.164C296.545 49.164 296.623 49.194 296.683 49.254C296.743 49.314 296.773 49.392 296.773 49.488C296.773 49.62 296.707 49.734 296.575 49.83C296.167 50.166 295.807 50.382 295.495 50.478C295.195 50.562 294.853 50.604 294.469 50.604ZM301.492 50.712C301.384 50.712 301.282 50.67 301.186 50.586C301.102 50.49 301.06 50.334 301.06 50.118C301.06 50.07 301.06 50.022 301.06 49.974C301.072 49.914 301.084 49.854 301.096 49.794C301.204 49.266 301.342 48.708 301.51 48.12C301.69 47.532 301.87 46.98 302.05 46.464C302.23 45.936 302.362 45.522 302.446 45.222C302.506 45.03 302.59 44.892 302.698 44.808C302.818 44.724 302.938 44.682 303.058 44.682C303.19 44.682 303.298 44.724 303.382 44.808C303.478 44.88 303.526 44.982 303.526 45.114C303.526 45.222 303.49 45.342 303.418 45.474C303.346 45.606 303.256 45.816 303.148 46.104C303.052 46.392 302.956 46.68 302.86 46.968C302.764 47.256 302.68 47.472 302.608 47.616C303.028 47.208 303.406 46.872 303.742 46.608C304.078 46.344 304.522 46.086 305.074 45.834C305.314 45.714 305.626 45.654 306.01 45.654C306.286 45.654 306.562 45.708 306.838 45.816C307.114 45.924 307.342 46.116 307.522 46.392C307.702 46.668 307.792 47.058 307.792 47.562C307.792 47.754 307.684 47.85 307.468 47.85C307.384 47.85 307.294 47.814 307.198 47.742C307.114 47.67 307.042 47.55 306.982 47.382C306.898 47.106 306.766 46.89 306.586 46.734C306.418 46.566 306.196 46.482 305.92 46.482C305.752 46.482 305.56 46.518 305.344 46.59C305.08 46.674 304.75 46.836 304.354 47.076C303.958 47.304 303.55 47.592 303.13 47.94C302.722 48.288 302.344 48.684 301.996 49.128C301.996 49.212 301.978 49.308 301.942 49.416C301.918 49.524 301.906 49.644 301.906 49.776C301.906 49.8 301.918 49.86 301.942 49.956C301.966 50.052 301.978 50.148 301.978 50.244C301.978 50.376 301.924 50.49 301.816 50.586C301.72 50.67 301.612 50.712 301.492 50.712ZM311.795 50.838C311.135 50.838 310.559 50.724 310.067 50.496C309.587 50.268 309.209 49.974 308.933 49.614C308.669 49.242 308.537 48.846 308.537 48.426C308.537 48.21 308.573 47.988 308.645 47.76C308.729 47.532 308.855 47.316 309.023 47.112C309.239 46.836 309.509 46.536 309.833 46.212C310.169 45.888 310.547 45.582 310.967 45.294C311.399 45.006 311.873 44.772 312.389 44.592C312.905 44.4 313.457 44.304 314.045 44.304C314.477 44.304 314.771 44.34 314.927 44.412C315.095 44.484 315.209 44.58 315.269 44.7C315.329 44.808 315.401 44.916 315.485 45.024C315.629 44.568 315.797 44.088 315.989 43.584C316.181 43.08 316.367 42.606 316.547 42.162C316.727 41.718 316.871 41.358 316.979 41.082C317.051 40.926 317.135 40.74 317.231 40.524C317.339 40.296 317.429 40.098 317.501 39.93C317.585 39.75 317.627 39.66 317.627 39.66C317.711 39.456 317.867 39.354 318.095 39.354C318.263 39.354 318.419 39.414 318.563 39.534C318.707 39.654 318.779 39.798 318.779 39.966C318.779 40.086 318.731 40.212 318.635 40.344H318.617C318.617 40.344 318.563 40.404 318.455 40.524C318.347 40.632 318.227 40.77 318.095 40.938C317.975 41.106 317.885 41.262 317.825 41.406C317.681 41.766 317.501 42.192 317.285 42.684C317.081 43.164 316.871 43.692 316.655 44.268C316.439 44.844 316.247 45.432 316.079 46.032C315.923 46.62 315.827 47.202 315.791 47.778C315.779 47.862 315.737 47.928 315.665 47.976C315.593 48.024 315.509 48.048 315.413 48.048C315.281 48.048 315.161 48.018 315.053 47.958C314.945 47.886 314.903 47.79 314.927 47.67C314.987 47.502 315.023 47.334 315.035 47.166C315.059 46.986 315.071 46.818 315.071 46.662C315.071 46.326 315.017 46.038 314.909 45.798C314.813 45.546 314.657 45.39 314.441 45.33C314.345 45.294 314.243 45.27 314.135 45.258C314.027 45.246 313.919 45.24 313.811 45.24C313.427 45.24 313.037 45.33 312.641 45.51C312.245 45.678 311.867 45.9 311.507 46.176C311.159 46.44 310.841 46.716 310.553 47.004C310.265 47.292 310.037 47.556 309.869 47.796C309.701 48.024 309.617 48.27 309.617 48.534C309.617 48.846 309.767 49.146 310.067 49.434C310.367 49.71 310.883 49.878 311.615 49.938C311.675 49.95 311.735 49.956 311.795 49.956C311.855 49.956 311.921 49.956 311.993 49.956C312.485 49.956 312.995 49.896 313.523 49.776C314.063 49.644 314.537 49.494 314.945 49.326C315.269 49.194 315.557 49.038 315.809 48.858C316.061 48.678 316.283 48.504 316.475 48.336C316.571 48.252 316.673 48.21 316.781 48.21C316.889 48.21 316.979 48.252 317.051 48.336C317.135 48.408 317.177 48.492 317.177 48.588C317.177 48.708 317.123 48.816 317.015 48.912C316.823 49.08 316.577 49.284 316.277 49.524C315.989 49.752 315.641 49.95 315.233 50.118C314.753 50.31 314.195 50.478 313.559 50.622C312.923 50.766 312.335 50.838 311.795 50.838Z" fill="#4F46E5"/>
<path d="M7.858 58.638C7.738 58.638 7.636 58.596 7.552 58.512C7.468 58.44 7.438 58.326 7.462 58.17C7.534 57.774 7.582 57.498 7.606 57.342C7.642 57.198 7.666 57.09 7.678 57.018C7.702 56.946 7.726 56.844 7.75 56.712C7.786 56.58 7.828 56.334 7.876 55.974C7.972 55.398 8.038 54.864 8.074 54.372C8.11 53.868 8.134 53.406 8.146 52.986C7.69 53.034 7.258 53.082 6.85 53.13C6.454 53.178 6.01 53.292 5.518 53.472H5.5C5.308 53.544 5.122 53.646 4.942 53.778C4.762 53.898 4.546 54.006 4.294 54.102C4.222 54.126 4.162 54.138 4.114 54.138C3.97 54.138 3.862 54.078 3.79 53.958C3.73 53.826 3.712 53.7 3.736 53.58C3.652 53.712 3.568 53.826 3.484 53.922C3.28 54.222 3.1 54.486 2.944 54.714C2.8 54.93 2.626 55.188 2.422 55.488C2.23 55.764 2.062 56.07 1.918 56.406C1.774 56.73 1.618 57.03 1.45 57.306C1.366 57.426 1.258 57.486 1.126 57.486C0.994 57.486 0.874 57.432 0.766 57.324C0.658 57.216 0.604 57.09 0.604 56.946C0.604 56.862 0.628 56.778 0.676 56.694C0.856 56.418 1.018 56.184 1.162 55.992C1.318 55.788 1.486 55.554 1.666 55.29C1.882 54.978 2.062 54.714 2.206 54.498C2.362 54.282 2.536 54.03 2.728 53.742C2.956 53.406 3.16 53.112 3.34 52.86C3.532 52.608 3.718 52.356 3.898 52.104C4.09 51.84 4.294 51.546 4.51 51.222C4.702 50.922 4.852 50.64 4.96 50.376C5.08 50.1 5.206 49.83 5.338 49.566C5.482 49.302 5.686 49.038 5.95 48.774L5.968 48.756C6.244 48.48 6.52 48.156 6.796 47.784C7.072 47.4 7.27 47.076 7.39 46.812C7.618 46.548 7.87 46.416 8.146 46.416C8.47 46.416 8.74 46.596 8.956 46.956C9.004 47.076 9.034 47.19 9.046 47.298C9.058 47.406 9.064 47.514 9.064 47.622C9.064 47.79 9.052 47.952 9.028 48.108C9.016 48.264 9.01 48.42 9.01 48.576C9.022 48.972 9.028 49.326 9.028 49.638C9.04 49.938 9.046 50.256 9.046 50.592C9.046 50.748 9.046 50.91 9.046 51.078C9.046 51.246 9.04 51.426 9.028 51.618C9.028 51.666 9.022 51.732 9.01 51.816C9.01 51.9 9.01 51.96 9.01 51.996H9.19C9.334 51.996 9.442 52.032 9.514 52.104C9.586 52.176 9.622 52.26 9.622 52.356C9.622 52.452 9.586 52.548 9.514 52.644C9.442 52.728 9.328 52.782 9.172 52.806C9.136 52.818 9.1 52.83 9.064 52.842C9.028 52.842 8.986 52.854 8.938 52.878C8.914 53.13 8.89 53.388 8.866 53.652C8.842 53.904 8.812 54.186 8.776 54.498C8.728 54.966 8.686 55.386 8.65 55.758C8.626 56.118 8.59 56.49 8.542 56.874C8.506 57.246 8.44 57.702 8.344 58.242C8.32 58.374 8.26 58.47 8.164 58.53C8.068 58.602 7.966 58.638 7.858 58.638ZM5.23 51.618C4.99 52.002 4.774 52.308 4.582 52.536C4.39 52.764 4.192 53.016 3.988 53.292L4.042 53.238C4.27 53.154 4.468 53.064 4.636 52.968C4.816 52.86 5.032 52.782 5.284 52.734C5.284 52.734 5.44 52.698 5.752 52.626C6.064 52.554 6.442 52.47 6.886 52.374C7.342 52.266 7.774 52.176 8.182 52.104L8.2 51.492C8.2 51.384 8.2 51.276 8.2 51.168C8.212 51.06 8.218 50.964 8.218 50.88C8.218 50.496 8.206 50.148 8.182 49.836C8.17 49.524 8.158 49.128 8.146 48.648C8.17 48.48 8.188 48.324 8.2 48.18C8.212 48.036 8.218 47.904 8.218 47.784C8.218 47.592 8.2 47.46 8.164 47.388C8.14 47.388 8.098 47.394 8.038 47.406C7.99 47.406 7.942 47.43 7.894 47.478C7.678 47.622 7.486 47.844 7.318 48.144C7.162 48.444 6.952 48.792 6.688 49.188V49.17C6.388 49.614 6.148 50.016 5.968 50.376C5.788 50.724 5.542 51.138 5.23 51.618ZM13.3351 62.094C13.1791 62.094 13.0231 62.082 12.8671 62.058C12.7231 62.034 12.5791 62.004 12.4351 61.968C12.1831 61.896 11.9971 61.764 11.8771 61.572C11.7691 61.38 11.7151 61.182 11.7151 60.978C11.7151 60.81 11.7571 60.678 11.8411 60.582C11.9251 60.498 12.0271 60.456 12.1471 60.456C12.1831 60.456 12.2131 60.456 12.2371 60.456C12.2731 60.468 12.3091 60.48 12.3451 60.492C12.4291 60.528 12.5251 60.642 12.6331 60.834C12.7531 61.026 12.8731 61.152 12.9931 61.212C13.0291 61.224 13.0771 61.23 13.1371 61.23C13.3411 61.23 13.5691 61.14 13.8211 60.96C14.0851 60.78 14.2831 60.612 14.4151 60.456C14.9311 59.868 15.3271 59.286 15.6031 58.71C15.8791 58.134 16.0951 57.576 16.2511 57.036C16.4191 56.496 16.5811 55.992 16.7371 55.524C16.4731 55.764 16.1971 55.974 15.9091 56.154C15.6211 56.322 15.2731 56.46 14.8651 56.568C14.4691 56.676 13.9471 56.766 13.2991 56.838C13.2151 56.85 13.1371 56.856 13.0651 56.856C12.9931 56.856 12.9211 56.856 12.8491 56.856C12.2851 56.856 11.8111 56.748 11.4271 56.532C11.0431 56.304 10.7551 56.016 10.5631 55.668C10.3711 55.32 10.2751 54.948 10.2751 54.552C10.2751 53.964 10.4671 53.424 10.8511 52.932C11.0791 52.644 11.3671 52.338 11.7151 52.014C12.0631 51.678 12.4651 51.366 12.9211 51.078C13.3891 50.79 13.9051 50.556 14.4691 50.376C15.0451 50.196 15.6631 50.118 16.3231 50.142C16.6591 50.142 16.8991 50.202 17.0431 50.322C17.1991 50.43 17.2951 50.568 17.3311 50.736C17.3791 50.892 17.4031 51.054 17.4031 51.222C17.3911 51.402 17.3191 51.492 17.1871 51.492C17.0791 51.492 16.9471 51.45 16.7911 51.366C16.6351 51.282 16.4611 51.204 16.2691 51.132C15.5731 51.084 14.9131 51.18 14.2891 51.42C13.6771 51.66 13.1311 51.966 12.6511 52.338C12.1831 52.698 11.8171 53.058 11.5531 53.418C11.3371 53.706 11.2291 54.042 11.2291 54.426C11.2291 54.714 11.3011 54.996 11.4451 55.272C11.6011 55.536 11.8351 55.752 12.1471 55.92C12.4591 56.076 12.8491 56.136 13.3171 56.1C13.8931 56.052 14.3791 55.944 14.7751 55.776C15.1711 55.608 15.5191 55.398 15.8191 55.146C16.1191 54.894 16.3951 54.618 16.6471 54.318C16.8991 54.018 17.1691 53.718 17.4571 53.418C17.5291 53.346 17.6191 53.31 17.7271 53.31C17.8231 53.31 17.9131 53.352 17.9971 53.436C18.0811 53.508 18.1231 53.616 18.1231 53.76C18.1231 53.796 18.1231 53.838 18.1231 53.886C18.1231 53.922 18.1111 53.964 18.0871 54.012C18.0031 54.312 17.8891 54.72 17.7451 55.236C17.6011 55.74 17.4331 56.292 17.2411 56.892C17.0611 57.48 16.8511 58.05 16.6111 58.602C16.3591 59.166 16.0531 59.718 15.6931 60.258C15.3451 60.798 14.9851 61.266 14.6131 61.662H14.6311C14.4991 61.818 14.3131 61.926 14.0731 61.986C13.8451 62.058 13.5991 62.094 13.3351 62.094ZM22.2529 58.026C22.1569 58.026 22.0429 58.008 21.9109 57.972C21.1789 57.732 20.6449 57.336 20.3089 56.784C19.9729 56.22 19.8049 55.626 19.8049 55.002C19.8049 54.906 19.8049 54.816 19.8049 54.732C19.8169 54.636 19.8289 54.546 19.8409 54.462C19.9489 53.778 20.1769 53.172 20.5249 52.644C20.8849 52.116 21.2869 51.684 21.7309 51.348C22.1869 51 22.6009 50.778 22.9729 50.682C23.2129 50.622 23.4529 50.574 23.6929 50.538C23.9329 50.49 24.1669 50.466 24.3949 50.466C24.9709 50.466 25.4629 50.592 25.8709 50.844C26.2789 51.096 26.4829 51.51 26.4829 52.086C26.4829 52.41 26.3809 52.704 26.1769 52.968C25.9849 53.232 25.7389 53.46 25.4389 53.652C25.1509 53.832 24.8689 53.976 24.5929 54.084C24.1729 54.252 23.6929 54.378 23.1529 54.462C22.6249 54.546 22.1269 54.588 21.6589 54.588C21.3589 54.588 21.0829 54.57 20.8309 54.534V54.552C20.8309 54.6 20.8249 54.648 20.8129 54.696C20.8009 54.732 20.7949 54.774 20.7949 54.822C20.7829 54.87 20.7769 54.918 20.7769 54.966C20.7769 55.002 20.7769 55.038 20.7769 55.074C20.7769 55.446 20.8489 55.776 20.9929 56.064C21.1489 56.34 21.3289 56.58 21.5329 56.784C21.7369 56.976 21.9049 57.132 22.0369 57.252C22.2529 57.36 22.4029 57.462 22.4869 57.558C22.5829 57.666 22.6309 57.75 22.6309 57.81C22.6309 57.954 22.5049 58.026 22.2529 58.026ZM22.1449 53.778C22.5049 53.778 22.8829 53.754 23.2789 53.706C23.6749 53.646 24.0409 53.538 24.3769 53.382C24.6409 53.25 24.8869 53.076 25.1149 52.86C25.3429 52.632 25.4569 52.362 25.4569 52.05C25.4569 51.81 25.3609 51.63 25.1689 51.51C24.9769 51.39 24.7069 51.33 24.3589 51.33C23.9629 51.33 23.5309 51.402 23.0629 51.546C22.8949 51.594 22.6849 51.708 22.4329 51.888C22.1929 52.068 21.9469 52.314 21.6949 52.626C21.4429 52.926 21.2329 53.286 21.0649 53.706C21.2089 53.718 21.3709 53.736 21.5509 53.76C21.7429 53.772 21.9409 53.778 22.1449 53.778ZM33.4346 57.144C33.2546 57.144 33.0866 57.042 32.9306 56.838C32.7746 56.622 32.6966 56.352 32.6966 56.028C32.6966 55.824 32.7146 55.566 32.7506 55.254C32.7866 54.942 32.8406 54.63 32.9126 54.318C32.9846 53.994 33.0686 53.718 33.1646 53.49C33.3566 53.058 33.4526 52.716 33.4526 52.464C33.4526 52.152 33.3086 51.996 33.0206 51.996C32.9846 51.996 32.9426 51.996 32.8946 51.996C32.8466 51.996 32.7986 52.008 32.7506 52.032C32.5106 52.104 32.1866 52.266 31.7786 52.518C31.3706 52.758 30.9386 53.04 30.4826 53.364C30.0386 53.688 29.6186 54.012 29.2226 54.336C28.8266 54.66 28.5206 54.942 28.3046 55.182C28.0046 55.518 27.8066 55.776 27.7106 55.956C27.6146 56.136 27.5666 56.226 27.5666 56.226C27.4706 56.358 27.3626 56.424 27.2426 56.424C27.1346 56.424 27.0446 56.37 26.9726 56.262C26.9006 56.142 26.8826 55.986 26.9186 55.794C27.0866 54.81 27.2666 53.97 27.4586 53.274C27.6626 52.578 27.8966 51.978 28.1606 51.474C28.2686 51.282 28.4186 51.186 28.6106 51.186C28.7186 51.186 28.8146 51.228 28.8986 51.312C28.9826 51.384 29.0246 51.498 29.0246 51.654C29.0246 51.738 28.9886 51.9 28.9166 52.14C28.8566 52.38 28.7786 52.578 28.6826 52.734C28.5626 52.926 28.4606 53.148 28.3766 53.4C28.3046 53.64 28.2146 53.976 28.1066 54.408C28.2386 54.204 28.3526 54.06 28.4486 53.976C28.5446 53.88 28.6706 53.754 28.8266 53.598C29.3186 53.106 29.9006 52.662 30.5726 52.266C31.2566 51.858 31.9106 51.516 32.5346 51.24C32.6666 51.18 32.8346 51.12 33.0386 51.06C33.2426 51 33.4466 50.97 33.6506 50.97C33.8906 50.97 34.1066 51.036 34.2986 51.168C34.4906 51.3 34.5866 51.552 34.5866 51.924C34.5866 52.116 34.5506 52.35 34.4786 52.626C34.4186 52.902 34.3106 53.226 34.1546 53.598C33.9626 54.042 33.8366 54.504 33.7766 54.984C33.7286 55.464 33.7046 55.872 33.7046 56.208C33.7046 56.304 33.7046 56.4 33.7046 56.496C33.7166 56.58 33.7226 56.658 33.7226 56.73C33.7226 56.85 33.7046 56.946 33.6686 57.018C33.6326 57.102 33.5546 57.144 33.4346 57.144ZM37.9519 57.99C37.9039 57.99 37.8619 57.984 37.8259 57.972C37.7899 57.972 37.7479 57.966 37.6999 57.954C37.3639 57.87 37.0339 57.738 36.7099 57.558C36.3979 57.378 36.1399 57.114 35.9359 56.766C35.7319 56.406 35.6299 55.938 35.6299 55.362C35.6299 55.134 35.6479 54.888 35.6839 54.624C35.7439 54.204 35.8519 53.712 36.0079 53.148C36.1759 52.572 36.3739 51.972 36.6019 51.348H36.5839C36.5119 51.348 36.4459 51.36 36.3859 51.384C36.3259 51.408 36.2659 51.42 36.2059 51.42C36.0139 51.42 35.9179 51.306 35.9179 51.078C35.9179 50.946 35.9719 50.82 36.0799 50.7C36.1879 50.58 36.2899 50.52 36.3859 50.52L36.9259 50.502C37.2259 49.722 37.5259 48.984 37.8259 48.288C38.1379 47.58 38.4019 47.022 38.6179 46.614C38.6779 46.506 38.7619 46.428 38.8699 46.38C38.9899 46.32 39.1099 46.29 39.2299 46.29C39.3499 46.29 39.4519 46.32 39.5359 46.38C39.6319 46.428 39.6799 46.5 39.6799 46.596C39.6799 46.62 39.6679 46.668 39.6439 46.74L38.5279 49.17C38.4199 49.398 38.3179 49.614 38.2219 49.818C38.1379 50.022 38.0479 50.226 37.9519 50.43C38.1919 50.43 38.4379 50.436 38.6899 50.448C38.9539 50.46 39.2479 50.484 39.5719 50.52C39.6319 50.532 39.6919 50.574 39.7519 50.646C39.8119 50.718 39.8419 50.796 39.8419 50.88C39.8419 50.94 39.8179 51 39.7699 51.06C39.7339 51.108 39.6499 51.138 39.5179 51.15C39.2299 51.186 38.9119 51.21 38.5639 51.222C38.2159 51.222 37.9039 51.228 37.6279 51.24C37.3519 51.972 37.1299 52.638 36.9619 53.238C36.8059 53.838 36.6799 54.402 36.5839 54.93C36.5719 55.014 36.5599 55.098 36.5479 55.182C36.5479 55.266 36.5479 55.344 36.5479 55.416C36.5479 55.956 36.6919 56.358 36.9799 56.622C37.2679 56.886 37.5919 57.072 37.9519 57.18C38.1679 57.252 38.3179 57.324 38.4019 57.396C38.4979 57.48 38.5459 57.558 38.5459 57.63C38.5459 57.726 38.4859 57.81 38.3659 57.882C38.2579 57.954 38.1199 57.99 37.9519 57.99ZM40.039 57.702C39.955 57.702 39.859 57.696 39.751 57.684C39.655 57.672 39.553 57.654 39.445 57.63C39.289 57.594 39.211 57.48 39.211 57.288C39.211 57.18 39.253 57.084 39.337 57C39.421 56.904 39.541 56.868 39.697 56.892C39.829 56.904 40.039 56.874 40.327 56.802C40.627 56.73 40.957 56.634 41.317 56.514C41.845 56.322 42.277 56.118 42.613 55.902C42.949 55.686 43.225 55.434 43.441 55.146C43.669 54.858 43.783 54.582 43.783 54.318C43.783 54.198 43.759 54.084 43.711 53.976C43.663 53.856 43.573 53.742 43.441 53.634C43.237 53.454 42.991 53.286 42.703 53.13C42.415 52.974 42.133 52.812 41.857 52.644C41.581 52.464 41.347 52.266 41.155 52.05C40.975 51.822 40.885 51.546 40.885 51.222C40.885 50.934 40.987 50.688 41.191 50.484C41.395 50.268 41.629 50.094 41.893 49.962C42.169 49.818 42.403 49.716 42.595 49.656C42.787 49.596 42.979 49.554 43.171 49.53C43.363 49.494 43.555 49.476 43.747 49.476C43.975 49.476 44.191 49.506 44.395 49.566C44.611 49.614 44.815 49.704 45.007 49.836C45.115 49.908 45.193 49.992 45.241 50.088C45.289 50.184 45.313 50.28 45.313 50.376C45.313 50.508 45.271 50.628 45.187 50.736C45.115 50.832 45.013 50.88 44.881 50.88C44.785 50.88 44.659 50.832 44.503 50.736H44.521C44.257 50.544 43.951 50.448 43.603 50.448C43.411 50.448 43.237 50.472 43.081 50.52C42.829 50.58 42.583 50.658 42.343 50.754C42.103 50.85 41.953 51 41.893 51.204C41.857 51.36 41.947 51.534 42.163 51.726C42.391 51.906 42.673 52.092 43.009 52.284C43.345 52.464 43.657 52.644 43.945 52.824C44.221 52.98 44.443 53.19 44.611 53.454C44.779 53.718 44.863 54 44.863 54.3C44.863 54.672 44.725 55.032 44.449 55.38C44.005 55.92 43.543 56.34 43.063 56.64C42.595 56.94 42.067 57.186 41.479 57.378C41.155 57.486 40.885 57.564 40.669 57.612C40.453 57.672 40.243 57.702 40.039 57.702Z" fill="#626973"/>
<path d="M85.0513 46.2796C84.9295 46.5274 85.0315 46.827 85.2793 46.9489L89.3174 48.9349C89.5652 49.0567 89.8649 48.9546 89.9868 48.7068C90.1086 48.459 90.0065 48.1594 89.7587 48.0375L86.1693 46.2722L87.9346 42.6828C88.0565 42.435 87.9544 42.1354 87.7066 42.0135C87.4588 41.8916 87.1591 41.9937 87.0373 42.2415L85.0513 46.2796ZM102.5 101L102.037 100.811L102.5 101ZM147.333 87.5C147.333 88.9728 148.527 90.1667 150 90.1667C151.473 90.1667 152.667 88.9728 152.667 87.5C152.667 86.0272 151.473 84.8333 150 84.8333C148.527 84.8333 147.333 86.0272 147.333 87.5ZM85.5 46.5002C85.6612 46.9735 85.6611 46.9736 85.6612 46.9735C85.6615 46.9735 85.6617 46.9734 85.6622 46.9732C85.6632 46.9729 85.6649 46.9723 85.6673 46.9715C85.672 46.9699 85.6795 46.9674 85.6896 46.9641C85.7098 46.9574 85.7407 46.9473 85.7816 46.9343C85.8636 46.9081 85.9862 46.8699 86.1457 46.8228C86.4649 46.7284 86.9316 46.5983 87.5168 46.457C88.688 46.174 90.3299 45.8469 92.2109 45.6699C95.9884 45.3146 100.653 45.5724 104.423 47.9244C108.156 50.2537 111.113 54.7039 111.367 62.9686C111.622 71.2573 109.151 83.3377 102.037 100.811L102.5 101L102.963 101.189C110.099 83.6625 112.628 71.4305 112.367 62.9379C112.105 54.4215 109.032 49.6217 104.952 47.076C100.909 44.5531 95.9803 44.3109 92.1172 44.6743C90.1779 44.8567 88.4877 45.1936 87.282 45.4849C86.6788 45.6307 86.1958 45.7652 85.8623 45.8638C85.6956 45.913 85.5661 45.9533 85.4777 45.9816C85.4334 45.9957 85.3994 46.0068 85.3761 46.0145C85.3645 46.0183 85.3555 46.0213 85.3493 46.0234C85.3461 46.0245 85.3437 46.0253 85.3419 46.0259C85.3411 46.0262 85.3403 46.0264 85.3398 46.0266C85.3392 46.0268 85.3388 46.0269 85.5 46.5002ZM102.5 101L102.037 100.811C101.626 101.82 101.438 102.698 101.492 103.445C101.548 104.212 101.861 104.83 102.413 105.271C102.947 105.699 103.663 105.926 104.477 106.02C105.296 106.115 106.255 106.079 107.317 105.941C111.548 105.394 117.74 103.195 124.071 100.537C130.419 97.8728 136.96 94.7231 141.913 92.2413C144.389 91 146.47 89.9251 147.931 89.1604C148.662 88.778 149.238 88.4731 149.632 88.2637C149.829 88.1591 149.98 88.0782 150.082 88.0235C150.133 87.9962 150.172 87.9754 150.198 87.9614C150.211 87.9544 150.221 87.9491 150.227 87.9455C150.231 87.9437 150.233 87.9424 150.235 87.9415C150.236 87.941 150.236 87.9407 150.237 87.9404C150.237 87.9402 150.237 87.9401 150 87.5C149.763 87.0599 149.762 87.06 149.762 87.0602C149.762 87.0605 149.761 87.0608 149.76 87.0612C149.759 87.062 149.756 87.0633 149.753 87.0651C149.747 87.0685 149.737 87.0737 149.724 87.0806C149.699 87.0944 149.66 87.115 149.61 87.1421C149.508 87.1963 149.358 87.2767 149.162 87.3809C148.77 87.5893 148.196 87.8931 147.468 88.2743C146.01 89.0369 143.935 90.1091 141.465 91.3473C136.522 93.8244 130.003 96.963 123.684 99.6154C117.35 102.275 111.271 104.422 107.189 104.949C106.173 105.081 105.301 105.109 104.592 105.027C103.878 104.945 103.369 104.756 103.037 104.49C102.722 104.238 102.527 103.887 102.49 103.372C102.451 102.838 102.583 102.123 102.963 101.189L102.5 101Z" fill="black"/>
<path d="M68.4161 144.007C68.1439 144.053 67.9608 144.312 68.0071 144.584L68.7622 149.02C68.8085 149.292 69.0668 149.475 69.339 149.429C69.6112 149.383 69.7943 149.125 69.748 148.852L69.0768 144.909L73.0201 144.238C73.2923 144.191 73.4754 143.933 73.4291 143.661C73.3828 143.389 73.1245 143.206 72.8523 143.252L68.4161 144.007ZM149.833 122.46C149.833 123.933 151.027 125.127 152.5 125.127C153.973 125.127 155.167 123.933 155.167 122.46C155.167 120.987 153.973 119.793 152.5 119.793C151.027 119.793 149.833 120.987 149.833 122.46ZM123.161 144.031L123.457 144.433L152.796 122.863L152.5 122.46L152.204 122.057L122.865 143.628L123.161 144.031ZM68.5 144.5L68.2108 144.908C84.8037 156.674 107.069 156.483 123.457 144.433L123.161 144.031L122.865 143.628C106.824 155.422 85.0305 155.609 68.7892 144.092L68.5 144.5Z" fill="black"/>
<path d="M240.999 52.5271C241.014 52.2514 240.803 52.0157 240.527 52.0007L236.034 51.7565C235.758 51.7415 235.522 51.9529 235.507 52.2286C235.492 52.5044 235.704 52.74 235.979 52.755L239.974 52.9721L239.757 56.9662C239.742 57.242 239.953 57.4776 240.229 57.4926C240.504 57.5076 240.74 57.2962 240.755 57.0205L240.999 52.5271ZM207.5 52.5L207.933 52.25L207.5 52.5ZM186.386 42.4297C185.344 41.3883 183.656 41.3883 182.614 42.4297C181.573 43.4711 181.573 45.1595 182.614 46.2009C183.656 47.2423 185.344 47.2423 186.386 46.2009C187.427 45.1595 187.427 43.4711 186.386 42.4297ZM240.5 52.5C240.166 52.1278 240.166 52.1277 240.166 52.1278C240.166 52.1279 240.166 52.128 240.166 52.1282C240.165 52.1286 240.164 52.1293 240.163 52.1303C240.161 52.1323 240.157 52.1355 240.153 52.1398C240.143 52.1485 240.128 52.1616 240.108 52.1791C240.068 52.214 240.008 52.2661 239.929 52.3337C239.77 52.4688 239.535 52.6657 239.231 52.91C238.622 53.3987 237.739 54.0766 236.644 54.8303C234.45 56.3397 231.42 58.1425 228.054 59.3415C224.685 60.5415 221.019 61.1229 217.528 60.2417C214.055 59.3652 210.69 57.0246 207.933 52.25L207.5 52.5L207.067 52.75C209.94 57.7253 213.513 60.2598 217.284 61.2113C221.036 62.1584 224.916 61.521 228.39 60.2835C231.866 59.045 234.976 57.1916 237.21 55.6541C238.329 54.8843 239.232 54.1912 239.857 53.6896C240.169 53.4388 240.412 53.2357 240.577 53.0948C240.66 53.0243 240.723 52.9693 240.767 52.9316C240.788 52.9128 240.805 52.8982 240.816 52.8883C240.821 52.8833 240.826 52.8794 240.829 52.8768C240.83 52.8754 240.831 52.8744 240.832 52.8736C240.833 52.8732 240.833 52.8729 240.833 52.8727C240.834 52.8724 240.834 52.8722 240.5 52.5ZM207.5 52.5L207.933 52.25C203.643 44.8187 197.726 42.6975 192.879 42.4602C190.468 42.3422 188.329 42.6897 186.795 43.0655C186.027 43.2536 185.409 43.4494 184.98 43.599C184.765 43.6738 184.598 43.7371 184.483 43.7823C184.426 43.8049 184.381 43.8229 184.351 43.8356C184.336 43.8419 184.324 43.8469 184.315 43.8504C184.311 43.8522 184.308 43.8536 184.306 43.8547C184.304 43.8552 184.303 43.8556 184.303 43.8559C184.302 43.8561 184.302 43.8563 184.302 43.8564C184.301 43.8565 184.301 43.8566 184.5 44.3153C184.699 44.7739 184.699 44.774 184.699 44.7741C184.699 44.774 184.699 44.7741 184.699 44.774C184.699 44.774 184.699 44.7738 184.7 44.7736C184.701 44.7731 184.703 44.7722 184.706 44.771C184.712 44.7686 184.721 44.7647 184.734 44.7595C184.759 44.749 184.798 44.7332 184.849 44.7129C184.953 44.6722 185.108 44.6134 185.309 44.5432C185.712 44.4026 186.3 44.2164 187.033 44.0368C188.501 43.6772 190.54 43.3469 192.83 43.459C197.387 43.6821 202.97 45.6532 207.067 52.75L207.5 52.5Z" fill="#4F46E5"/>
<path d="M214.38 196.048C214.649 196.114 214.919 195.949 214.985 195.681L216.05 191.309C216.116 191.041 215.951 190.77 215.683 190.705C215.414 190.639 215.144 190.804 215.079 191.072L214.131 194.958L210.245 194.011C209.977 193.946 209.706 194.11 209.641 194.379C209.576 194.647 209.74 194.917 210.008 194.983L214.38 196.048ZM196 164.156L196.433 163.906L196 164.156ZM174.886 154.086C173.844 153.044 172.156 153.044 171.115 154.086C170.073 155.127 170.073 156.815 171.115 157.857C172.156 158.898 173.844 158.898 174.886 157.857C175.927 156.815 175.927 155.127 174.886 154.086ZM214.499 195.562C214.926 195.303 214.926 195.303 214.926 195.303C214.926 195.303 214.926 195.302 214.926 195.302C214.926 195.302 214.925 195.301 214.925 195.301C214.924 195.299 214.923 195.297 214.921 195.294C214.917 195.288 214.912 195.28 214.905 195.268C214.891 195.245 214.87 195.211 214.842 195.165C214.787 195.073 214.703 194.936 214.594 194.754C214.374 194.391 214.047 193.85 213.62 193.14C212.766 191.719 211.509 189.623 209.901 186.916C206.685 181.504 202.061 173.654 196.433 163.906L196 164.156L195.567 164.406C201.197 174.158 205.823 182.011 209.042 187.427C210.651 190.135 211.908 192.233 212.763 193.655C213.191 194.366 213.518 194.908 213.738 195.272C213.848 195.454 213.931 195.591 213.987 195.683C214.015 195.729 214.036 195.764 214.05 195.787C214.057 195.799 214.063 195.808 214.066 195.813C214.068 195.816 214.069 195.819 214.07 195.82C214.071 195.821 214.071 195.821 214.071 195.822C214.071 195.822 214.071 195.822 214.072 195.822C214.072 195.822 214.072 195.822 214.499 195.562ZM196 164.156L196.433 163.906C192.143 156.475 186.226 154.353 181.379 154.116C178.968 153.998 176.83 154.346 175.295 154.721C174.528 154.909 173.909 155.105 173.48 155.255C173.265 155.33 173.098 155.393 172.983 155.438C172.926 155.461 172.882 155.479 172.851 155.491C172.836 155.498 172.824 155.503 172.816 155.506C172.811 155.508 172.808 155.509 172.806 155.511C172.804 155.511 172.803 155.511 172.803 155.512C172.802 155.512 172.802 155.512 172.802 155.512C172.801 155.512 172.801 155.512 173 155.971C173.199 156.43 173.199 156.43 173.199 156.43C173.199 156.43 173.199 156.43 173.199 156.43C173.199 156.43 173.2 156.43 173.2 156.429C173.201 156.429 173.203 156.428 173.206 156.427C173.212 156.424 173.221 156.421 173.234 156.415C173.259 156.405 173.298 156.389 173.349 156.369C173.453 156.328 173.608 156.269 173.809 156.199C174.212 156.058 174.8 155.872 175.533 155.693C177.001 155.333 179.04 155.003 181.33 155.115C185.887 155.338 191.47 157.309 195.567 164.406L196 164.156Z" fill="black"/>
<path d="M25.476 136.386C25.104 136.386 24.762 136.314 24.45 136.17C24.15 136.038 23.964 135.81 23.892 135.486C23.892 135.282 23.928 135.126 24 135.018C24.072 134.91 24.156 134.856 24.252 134.856C24.468 134.856 24.642 135.036 24.774 135.396C24.846 135.576 25.086 135.666 25.494 135.666C25.698 135.666 25.938 135.63 26.214 135.558C26.49 135.498 26.778 135.402 27.078 135.27C27.402 135.114 27.774 134.916 28.194 134.676C28.626 134.424 29.04 134.13 29.436 133.794C29.844 133.446 30.18 133.05 30.444 132.606C30.708 132.15 30.84 131.646 30.84 131.094C30.84 130.626 30.732 130.23 30.516 129.906C30.312 129.582 30.048 129.282 29.724 129.006C29.412 128.718 29.094 128.406 28.77 128.07C28.446 127.734 28.176 127.314 27.96 126.81C27.912 126.69 27.876 126.57 27.852 126.45C27.828 126.33 27.816 126.216 27.816 126.108C27.816 125.76 27.906 125.436 28.086 125.136C28.278 124.836 28.5 124.584 28.752 124.38C29.1 124.092 29.49 123.9 29.922 123.804C30.354 123.708 30.792 123.66 31.236 123.66C31.332 123.66 31.428 123.66 31.524 123.66C31.62 123.66 31.71 123.666 31.794 123.678C32.046 123.69 32.226 123.768 32.334 123.912C32.454 124.056 32.526 124.2 32.55 124.344C32.586 124.476 32.604 124.548 32.604 124.56C32.652 124.644 32.676 124.722 32.676 124.794C32.676 124.998 32.55 125.1 32.298 125.1C32.154 125.1 32.016 125.052 31.884 124.956L31.29 124.506C31.242 124.47 31.182 124.452 31.11 124.452C31.038 124.44 30.954 124.434 30.858 124.434C30.63 124.434 30.366 124.476 30.066 124.56C29.766 124.632 29.538 124.734 29.382 124.866C29.226 125.01 29.106 125.184 29.022 125.388C28.95 125.58 28.914 125.778 28.914 125.982C28.914 126.15 28.944 126.312 29.004 126.468C29.136 126.864 29.352 127.218 29.652 127.53C29.964 127.842 30.288 128.16 30.624 128.484C30.972 128.796 31.266 129.15 31.506 129.546C31.746 129.93 31.866 130.386 31.866 130.914C31.866 131.442 31.752 131.94 31.524 132.408C31.296 132.876 30.996 133.308 30.624 133.704C30.264 134.088 29.874 134.436 29.454 134.748C29.034 135.048 28.632 135.306 28.248 135.522C27.864 135.738 27.54 135.9 27.276 136.008C27.036 136.116 26.754 136.206 26.43 136.278C26.106 136.35 25.788 136.386 25.476 136.386ZM35.2392 135.468C34.7712 135.468 34.3872 135.36 34.0872 135.144C33.7872 134.928 33.5592 134.658 33.4032 134.334C33.2592 133.998 33.1872 133.656 33.1872 133.308C33.1872 132.912 33.2772 132.528 33.4572 132.156C33.6372 131.772 33.8592 131.412 34.1232 131.076C34.3872 130.74 34.6452 130.44 34.8972 130.176C35.5332 129.516 36.1272 129.03 36.6792 128.718C37.2432 128.406 37.6932 128.25 38.0292 128.25C38.3652 128.25 38.6172 128.304 38.7852 128.412C38.9532 128.52 39.0672 128.652 39.1272 128.808C39.1992 128.964 39.2412 129.108 39.2532 129.24C39.2772 129.456 39.2472 129.636 39.1632 129.78C39.0792 129.912 38.9652 129.978 38.8212 129.978C38.6892 129.978 38.5572 129.918 38.4252 129.798C38.2932 129.678 38.1792 129.546 38.0832 129.402C37.7712 129.474 37.5012 129.546 37.2732 129.618C37.0452 129.678 36.8232 129.774 36.6072 129.906C36.4032 130.026 36.1632 130.206 35.8872 130.446C35.3952 130.89 34.9692 131.358 34.6092 131.85C34.2612 132.342 34.0872 132.87 34.0872 133.434C34.0872 134.202 34.4832 134.586 35.2752 134.586C35.7912 134.586 36.3252 134.454 36.8772 134.19C37.4292 133.914 37.9092 133.56 38.3172 133.128C38.4132 133.032 38.5212 132.984 38.6412 132.984C38.7372 132.984 38.8152 133.014 38.8752 133.074C38.9472 133.134 38.9832 133.212 38.9832 133.308C38.9832 133.416 38.9352 133.512 38.8392 133.596C38.2632 134.148 37.6872 134.598 37.1112 134.946C36.5472 135.294 35.9232 135.468 35.2392 135.468ZM45.2065 135.432C44.9425 135.432 44.7565 135.318 44.6485 135.09C44.5405 134.862 44.4865 134.592 44.4865 134.28C44.4865 133.896 44.5465 133.482 44.6665 133.038C44.7865 132.594 44.9065 132.234 45.0265 131.958C45.1945 131.562 45.3265 131.214 45.4225 130.914C45.5185 130.614 45.5665 130.374 45.5665 130.194C45.5665 129.978 45.5005 129.87 45.3685 129.87C45.2845 129.858 45.1105 129.912 44.8465 130.032C44.5825 130.152 44.3065 130.314 44.0185 130.518C43.8385 130.638 43.5985 130.818 43.2985 131.058C42.9985 131.286 42.6865 131.538 42.3625 131.814C42.0385 132.09 41.7505 132.36 41.4985 132.624C41.1625 132.972 40.9345 133.296 40.8145 133.596C40.7425 133.776 40.6225 133.866 40.4545 133.866C40.3465 133.866 40.2565 133.818 40.1845 133.722C40.1125 133.614 40.0885 133.452 40.1125 133.236C40.1725 132.84 40.2865 132.354 40.4545 131.778C40.6345 131.202 40.8385 130.584 41.0665 129.924C41.3065 129.252 41.5585 128.586 41.8225 127.926C42.0865 127.254 42.3445 126.63 42.5965 126.054C42.8605 125.478 43.0945 124.998 43.2985 124.614C43.4065 124.422 43.5565 124.326 43.7485 124.326C43.8565 124.326 43.9525 124.368 44.0365 124.452C44.1205 124.524 44.1625 124.632 44.1625 124.776C44.1625 124.824 44.1445 124.926 44.1085 125.082C44.0845 125.238 44.0425 125.4 43.9825 125.568C43.9345 125.736 43.8745 125.874 43.8025 125.982C43.6825 126.174 43.5385 126.372 43.3705 126.576C43.2025 126.78 43.0525 127.02 42.9205 127.296C42.6325 127.92 42.3985 128.454 42.2185 128.898C42.0385 129.33 41.8945 129.714 41.7865 130.05C41.6905 130.386 41.6065 130.692 41.5345 130.968C41.4625 131.244 41.3845 131.532 41.3005 131.832C41.3965 131.676 41.4865 131.55 41.5705 131.454C41.6545 131.358 41.7385 131.268 41.8225 131.184C42.0625 130.944 42.3505 130.698 42.6865 130.446C43.0225 130.194 43.3705 129.954 43.7305 129.726C44.1025 129.498 44.4505 129.318 44.7745 129.186C45.1105 129.042 45.3805 128.97 45.5845 128.97C45.8125 128.97 46.0225 129.048 46.2145 129.204C46.4065 129.348 46.5025 129.63 46.5025 130.05C46.5025 130.29 46.4605 130.584 46.3765 130.932C46.3045 131.268 46.1665 131.664 45.9625 132.12C45.7945 132.528 45.6445 132.966 45.5125 133.434C45.3925 133.89 45.3145 134.256 45.2785 134.532C45.3985 134.712 45.4585 134.91 45.4585 135.126C45.4585 135.33 45.3745 135.432 45.2065 135.432ZM49.6826 136.026C49.5866 136.026 49.4726 136.008 49.3406 135.972C48.6086 135.732 48.0746 135.336 47.7386 134.784C47.4026 134.22 47.2346 133.626 47.2346 133.002C47.2346 132.906 47.2346 132.816 47.2346 132.732C47.2466 132.636 47.2586 132.546 47.2706 132.462C47.3786 131.778 47.6066 131.172 47.9546 130.644C48.3146 130.116 48.7166 129.684 49.1606 129.348C49.6166 129 50.0306 128.778 50.4026 128.682C50.6426 128.622 50.8826 128.574 51.1226 128.538C51.3626 128.49 51.5966 128.466 51.8246 128.466C52.4006 128.466 52.8926 128.592 53.3006 128.844C53.7086 129.096 53.9126 129.51 53.9126 130.086C53.9126 130.41 53.8106 130.704 53.6066 130.968C53.4146 131.232 53.1686 131.46 52.8686 131.652C52.5806 131.832 52.2986 131.976 52.0226 132.084C51.6026 132.252 51.1226 132.378 50.5826 132.462C50.0546 132.546 49.5566 132.588 49.0886 132.588C48.7886 132.588 48.5126 132.57 48.2606 132.534V132.552C48.2606 132.6 48.2546 132.648 48.2426 132.696C48.2306 132.732 48.2246 132.774 48.2246 132.822C48.2126 132.87 48.2066 132.918 48.2066 132.966C48.2066 133.002 48.2066 133.038 48.2066 133.074C48.2066 133.446 48.2786 133.776 48.4226 134.064C48.5786 134.34 48.7586 134.58 48.9626 134.784C49.1666 134.976 49.3346 135.132 49.4666 135.252C49.6826 135.36 49.8326 135.462 49.9166 135.558C50.0126 135.666 50.0606 135.75 50.0606 135.81C50.0606 135.954 49.9346 136.026 49.6826 136.026ZM49.5746 131.778C49.9346 131.778 50.3126 131.754 50.7086 131.706C51.1046 131.646 51.4706 131.538 51.8066 131.382C52.0706 131.25 52.3166 131.076 52.5446 130.86C52.7726 130.632 52.8866 130.362 52.8866 130.05C52.8866 129.81 52.7906 129.63 52.5986 129.51C52.4066 129.39 52.1366 129.33 51.7886 129.33C51.3926 129.33 50.9606 129.402 50.4926 129.546C50.3246 129.594 50.1146 129.708 49.8626 129.888C49.6226 130.068 49.3766 130.314 49.1246 130.626C48.8726 130.926 48.6626 131.286 48.4946 131.706C48.6386 131.718 48.8006 131.736 48.9806 131.76C49.1726 131.772 49.3706 131.778 49.5746 131.778ZM57.8541 134.838C57.1941 134.838 56.6181 134.724 56.1261 134.496C55.6461 134.268 55.2681 133.974 54.9921 133.614C54.7281 133.242 54.5961 132.846 54.5961 132.426C54.5961 132.21 54.6321 131.988 54.7041 131.76C54.7881 131.532 54.9141 131.316 55.0821 131.112C55.2981 130.836 55.5681 130.536 55.8921 130.212C56.2281 129.888 56.6061 129.582 57.0261 129.294C57.4581 129.006 57.9321 128.772 58.4481 128.592C58.9641 128.4 59.5161 128.304 60.1041 128.304C60.5361 128.304 60.8301 128.34 60.9861 128.412C61.1541 128.484 61.2681 128.58 61.3281 128.7C61.3881 128.808 61.4601 128.916 61.5441 129.024C61.6881 128.568 61.8561 128.088 62.0481 127.584C62.2401 127.08 62.4261 126.606 62.6061 126.162C62.7861 125.718 62.9301 125.358 63.0381 125.082C63.1101 124.926 63.1941 124.74 63.2901 124.524C63.3981 124.296 63.4881 124.098 63.5601 123.93C63.6441 123.75 63.6861 123.66 63.6861 123.66C63.7701 123.456 63.9261 123.354 64.1541 123.354C64.3221 123.354 64.4781 123.414 64.6221 123.534C64.7661 123.654 64.8381 123.798 64.8381 123.966C64.8381 124.086 64.7901 124.212 64.6941 124.344H64.6761C64.6761 124.344 64.6221 124.404 64.5141 124.524C64.4061 124.632 64.2861 124.77 64.1541 124.938C64.0341 125.106 63.9441 125.262 63.8841 125.406C63.7401 125.766 63.5601 126.192 63.3441 126.684C63.1401 127.164 62.9301 127.692 62.7141 128.268C62.4981 128.844 62.3061 129.432 62.1381 130.032C61.9821 130.62 61.8861 131.202 61.8501 131.778C61.8381 131.862 61.7961 131.928 61.7241 131.976C61.6521 132.024 61.5681 132.048 61.4721 132.048C61.3401 132.048 61.2201 132.018 61.1121 131.958C61.0041 131.886 60.9621 131.79 60.9861 131.67C61.0461 131.502 61.0821 131.334 61.0941 131.166C61.1181 130.986 61.1301 130.818 61.1301 130.662C61.1301 130.326 61.0761 130.038 60.9681 129.798C60.8721 129.546 60.7161 129.39 60.5001 129.33C60.4041 129.294 60.3021 129.27 60.1941 129.258C60.0861 129.246 59.9781 129.24 59.8701 129.24C59.4861 129.24 59.0961 129.33 58.7001 129.51C58.3041 129.678 57.9261 129.9 57.5661 130.176C57.2181 130.44 56.9001 130.716 56.6121 131.004C56.3241 131.292 56.0961 131.556 55.9281 131.796C55.7601 132.024 55.6761 132.27 55.6761 132.534C55.6761 132.846 55.8261 133.146 56.1261 133.434C56.4261 133.71 56.9421 133.878 57.6741 133.938C57.7341 133.95 57.7941 133.956 57.8541 133.956C57.9141 133.956 57.9801 133.956 58.0521 133.956C58.5441 133.956 59.0541 133.896 59.5821 133.776C60.1221 133.644 60.5961 133.494 61.0041 133.326C61.3281 133.194 61.6161 133.038 61.8681 132.858C62.1201 132.678 62.3421 132.504 62.5341 132.336C62.6301 132.252 62.7321 132.21 62.8401 132.21C62.9481 132.21 63.0381 132.252 63.1101 132.336C63.1941 132.408 63.2361 132.492 63.2361 132.588C63.2361 132.708 63.1821 132.816 63.0741 132.912C62.8821 133.08 62.6361 133.284 62.3361 133.524C62.0481 133.752 61.7001 133.95 61.2921 134.118C60.8121 134.31 60.2541 134.478 59.6181 134.622C58.9821 134.766 58.3941 134.838 57.8541 134.838ZM66.4839 134.514C66.2799 134.514 66.0699 134.484 65.8539 134.424C65.6379 134.364 65.4219 134.274 65.2059 134.154C64.8099 133.926 64.5339 133.632 64.3779 133.272C64.2219 132.912 64.1439 132.528 64.1439 132.12C64.1439 131.928 64.1559 131.742 64.1799 131.562C64.2039 131.37 64.2399 131.178 64.2879 130.986C64.3839 130.59 64.5519 130.23 64.7919 129.906C65.0319 129.57 65.3019 129.288 65.6019 129.06C65.9019 128.832 66.1899 128.688 66.4659 128.628C66.5019 128.616 66.5499 128.61 66.6099 128.61C66.7779 128.61 66.9159 128.658 67.0239 128.754C67.1319 128.85 67.1859 128.958 67.1859 129.078C67.1859 129.222 67.1019 129.336 66.9339 129.42V129.438C66.6579 129.558 66.4119 129.684 66.1959 129.816C65.9919 129.936 65.8119 130.104 65.6559 130.32C65.4999 130.536 65.3559 130.848 65.2239 131.256C65.1519 131.472 65.1159 131.76 65.1159 132.12C65.1159 132.396 65.1519 132.66 65.2239 132.912C65.3079 133.152 65.4459 133.314 65.6379 133.398C65.8419 133.482 66.0579 133.524 66.2859 133.524C66.7779 133.524 67.2639 133.356 67.7439 133.02C68.2239 132.672 68.6499 132.312 69.0219 131.94C69.3579 131.604 69.6699 131.226 69.9579 130.806C70.2579 130.374 70.5099 129.978 70.7139 129.618C70.9179 129.246 71.0379 128.976 71.0739 128.808C71.1219 128.604 71.2539 128.502 71.4699 128.502C71.6019 128.502 71.7219 128.556 71.8299 128.664C71.9379 128.76 71.9679 128.892 71.9199 129.06C71.8479 129.312 71.7039 129.642 71.4879 130.05C71.2839 130.458 71.0319 130.884 70.7319 131.328C70.4439 131.76 70.1379 132.156 69.8139 132.516C69.5499 132.816 69.2439 133.122 68.8959 133.434C68.5479 133.734 68.1699 133.992 67.7619 134.208C67.3539 134.412 66.9279 134.514 66.4839 134.514ZM72.7277 135.522C72.5357 135.522 72.3437 135.444 72.1517 135.288C71.9717 135.144 71.8937 134.904 71.9177 134.568C71.9537 134.256 72.0377 133.842 72.1697 133.326C72.3137 132.798 72.4937 132.216 72.7097 131.58C72.9377 130.944 73.1777 130.29 73.4297 129.618C73.6937 128.934 73.9577 128.274 74.2217 127.638C74.4857 126.99 74.7377 126.408 74.9777 125.892C75.2177 125.364 75.4217 124.938 75.5897 124.614C75.6977 124.422 75.8477 124.326 76.0397 124.326C76.1477 124.326 76.2437 124.368 76.3277 124.452C76.4117 124.524 76.4537 124.632 76.4537 124.776C76.4537 124.824 76.4357 124.926 76.3997 125.082C76.3757 125.238 76.3337 125.4 76.2737 125.568C76.2257 125.736 76.1717 125.874 76.1117 125.982C75.9917 126.174 75.8477 126.372 75.6797 126.576C75.5117 126.78 75.3617 127.02 75.2297 127.296C74.9417 127.92 74.6537 128.58 74.3657 129.276C74.0777 129.96 73.8137 130.632 73.5737 131.292C73.3337 131.952 73.1357 132.546 72.9797 133.074C72.8357 133.602 72.7517 134.022 72.7277 134.334C72.7277 134.418 72.7637 134.508 72.8357 134.604C72.9197 134.7 72.9977 134.796 73.0697 134.892C73.1537 134.988 73.1957 135.084 73.1957 135.18C73.1957 135.276 73.1357 135.366 73.0157 135.45C72.9557 135.498 72.8597 135.522 72.7277 135.522ZM78.0361 136.026C77.9401 136.026 77.8261 136.008 77.6941 135.972C76.9621 135.732 76.4281 135.336 76.0921 134.784C75.7561 134.22 75.5881 133.626 75.5881 133.002C75.5881 132.906 75.5881 132.816 75.5881 132.732C75.6001 132.636 75.6121 132.546 75.6241 132.462C75.7321 131.778 75.9601 131.172 76.3081 130.644C76.6681 130.116 77.0701 129.684 77.5141 129.348C77.9701 129 78.3841 128.778 78.7561 128.682C78.9961 128.622 79.2361 128.574 79.4761 128.538C79.7161 128.49 79.9501 128.466 80.1781 128.466C80.7541 128.466 81.2461 128.592 81.6541 128.844C82.0621 129.096 82.2661 129.51 82.2661 130.086C82.2661 130.41 82.1641 130.704 81.9601 130.968C81.7681 131.232 81.5221 131.46 81.2221 131.652C80.9341 131.832 80.6521 131.976 80.3761 132.084C79.9561 132.252 79.4761 132.378 78.9361 132.462C78.4081 132.546 77.9101 132.588 77.4421 132.588C77.1421 132.588 76.8661 132.57 76.6141 132.534V132.552C76.6141 132.6 76.6081 132.648 76.5961 132.696C76.5841 132.732 76.5781 132.774 76.5781 132.822C76.5661 132.87 76.5601 132.918 76.5601 132.966C76.5601 133.002 76.5601 133.038 76.5601 133.074C76.5601 133.446 76.6321 133.776 76.7761 134.064C76.9321 134.34 77.1121 134.58 77.3161 134.784C77.5201 134.976 77.6881 135.132 77.8201 135.252C78.0361 135.36 78.1861 135.462 78.2701 135.558C78.3661 135.666 78.4141 135.75 78.4141 135.81C78.4141 135.954 78.2881 136.026 78.0361 136.026ZM77.9281 131.778C78.2881 131.778 78.6661 131.754 79.0621 131.706C79.4581 131.646 79.8241 131.538 80.1601 131.382C80.4241 131.25 80.6701 131.076 80.8981 130.86C81.1261 130.632 81.2401 130.362 81.2401 130.05C81.2401 129.81 81.1441 129.63 80.9521 129.51C80.7601 129.39 80.4901 129.33 80.1421 129.33C79.7461 129.33 79.3141 129.402 78.8461 129.546C78.6781 129.594 78.4681 129.708 78.2161 129.888C77.9761 130.068 77.7301 130.314 77.4781 130.626C77.2261 130.926 77.0161 131.286 76.8481 131.706C76.9921 131.718 77.1541 131.736 77.3341 131.76C77.5261 131.772 77.7241 131.778 77.9281 131.778Z" fill="#626973"/>
<path d="M218.385 208.287C218.217 208.287 218.055 208.227 217.899 208.107C217.743 207.999 217.665 207.801 217.665 207.513C217.665 207.477 217.665 207.435 217.665 207.387C217.665 207.351 217.671 207.309 217.683 207.261C217.947 205.772 218.301 204.404 218.745 203.156C219.201 201.908 219.669 200.798 220.149 199.826C220.629 198.854 221.037 198.044 221.373 197.396C221.469 197.216 221.595 197.084 221.751 197C221.919 196.904 222.075 196.856 222.219 196.856C222.435 196.856 222.561 196.94 222.597 197.108C222.837 197.012 223.071 196.946 223.299 196.91C223.467 196.886 223.635 196.868 223.803 196.856C223.983 196.832 224.163 196.82 224.343 196.82C224.811 196.82 225.249 196.886 225.657 197.018C226.077 197.138 226.419 197.354 226.683 197.666C226.947 197.978 227.079 198.404 227.079 198.944C227.079 199.556 226.887 200.084 226.503 200.528C226.119 200.96 225.615 201.35 224.991 201.698C224.379 202.034 223.719 202.376 223.011 202.724C222.843 202.76 222.621 202.826 222.345 202.922C222.081 203.018 221.895 203.066 221.787 203.066L221.805 203.084C221.829 203.18 221.931 203.342 222.111 203.57C222.303 203.798 222.525 204.05 222.777 204.326C223.041 204.602 223.317 204.872 223.605 205.136C223.893 205.4 224.157 205.628 224.397 205.82C224.637 206 224.817 206.114 224.937 206.162C225.213 206.246 225.405 206.336 225.513 206.432C225.621 206.516 225.675 206.594 225.675 206.666C225.675 206.738 225.627 206.798 225.531 206.846C225.435 206.894 225.321 206.918 225.189 206.918C224.973 206.918 224.679 206.816 224.307 206.612C223.935 206.396 223.545 206.132 223.137 205.82C222.729 205.496 222.357 205.172 222.021 204.848C221.685 204.512 221.445 204.23 221.301 204.002C221.253 203.882 221.163 203.804 221.031 203.768C220.899 203.72 220.773 203.66 220.653 203.588C220.533 203.516 220.473 203.384 220.473 203.192C220.473 202.928 220.551 202.736 220.707 202.616C220.875 202.484 221.079 202.394 221.319 202.346C221.559 202.286 221.799 202.244 222.039 202.22C222.279 202.184 222.477 202.13 222.633 202.058C223.749 201.542 224.643 201.008 225.315 200.456C225.987 199.904 226.281 199.352 226.197 198.8C226.197 198.548 226.089 198.326 225.873 198.134C225.657 197.942 225.369 197.792 225.009 197.684C224.661 197.564 224.277 197.504 223.857 197.504C223.641 197.504 223.413 197.522 223.173 197.559C223.041 197.559 222.939 197.606 222.867 197.702C222.795 197.786 222.705 197.882 222.597 197.99C222.501 198.098 222.339 198.194 222.111 198.278C222.039 198.302 221.985 198.314 221.949 198.314C221.733 198.686 221.493 199.142 221.229 199.682C220.965 200.222 220.695 200.792 220.419 201.392C220.143 201.98 219.891 202.55 219.663 203.102C219.435 203.654 219.249 204.134 219.105 204.542C219.045 204.71 218.985 204.932 218.925 205.208C218.865 205.472 218.811 205.754 218.763 206.054C218.715 206.354 218.679 206.624 218.655 206.864C218.631 207.092 218.619 207.255 218.619 207.351C218.619 207.423 218.667 207.501 218.763 207.585C218.871 207.681 218.925 207.783 218.925 207.891C218.925 207.999 218.859 208.101 218.727 208.197C218.631 208.257 218.517 208.287 218.385 208.287ZM229.094 208.089C228.998 208.089 228.884 208.071 228.752 208.035C228.02 207.795 227.486 207.399 227.15 206.846C226.814 206.282 226.646 205.688 226.646 205.064C226.646 204.968 226.646 204.878 226.646 204.794C226.658 204.698 226.67 204.608 226.682 204.524C226.79 203.84 227.018 203.234 227.366 202.706C227.726 202.178 228.128 201.746 228.572 201.41C229.028 201.062 229.442 200.84 229.814 200.744C230.054 200.684 230.294 200.636 230.534 200.6C230.774 200.552 231.008 200.528 231.236 200.528C231.812 200.528 232.304 200.654 232.712 200.906C233.12 201.158 233.324 201.572 233.324 202.148C233.324 202.472 233.222 202.766 233.018 203.03C232.826 203.294 232.58 203.522 232.28 203.714C231.992 203.894 231.71 204.038 231.434 204.146C231.014 204.314 230.534 204.44 229.994 204.524C229.466 204.608 228.968 204.65 228.5 204.65C228.2 204.65 227.924 204.632 227.672 204.596V204.614C227.672 204.662 227.666 204.71 227.654 204.758C227.642 204.794 227.636 204.836 227.636 204.884C227.624 204.932 227.618 204.98 227.618 205.028C227.618 205.064 227.618 205.1 227.618 205.136C227.618 205.508 227.69 205.838 227.834 206.126C227.99 206.402 228.17 206.642 228.374 206.846C228.578 207.039 228.746 207.195 228.878 207.315C229.094 207.423 229.244 207.525 229.328 207.621C229.424 207.729 229.472 207.813 229.472 207.873C229.472 208.017 229.346 208.089 229.094 208.089ZM228.986 203.84C229.346 203.84 229.724 203.816 230.12 203.768C230.516 203.708 230.882 203.6 231.218 203.444C231.482 203.312 231.728 203.138 231.956 202.922C232.184 202.694 232.298 202.424 232.298 202.112C232.298 201.872 232.202 201.692 232.01 201.572C231.818 201.452 231.548 201.392 231.2 201.392C230.804 201.392 230.372 201.464 229.904 201.608C229.736 201.656 229.526 201.77 229.274 201.95C229.034 202.13 228.788 202.376 228.536 202.688C228.284 202.988 228.074 203.348 227.906 203.768C228.05 203.78 228.212 203.798 228.392 203.822C228.584 203.834 228.782 203.84 228.986 203.84ZM233.489 211.688C233.297 211.688 233.111 211.611 232.931 211.455C232.739 211.299 232.661 211.053 232.697 210.717C232.721 210.405 232.805 209.985 232.949 209.457C233.093 208.941 233.273 208.365 233.489 207.729C233.705 207.092 233.945 206.438 234.209 205.766C234.473 205.082 234.737 204.422 235.001 203.786C235.265 203.138 235.517 202.556 235.757 202.04C235.997 201.512 236.201 201.086 236.369 200.762C236.477 200.57 236.627 200.474 236.819 200.474C236.939 200.474 237.041 200.516 237.125 200.6C237.209 200.672 237.251 200.786 237.251 200.942C237.251 201.038 237.215 201.194 237.143 201.41C237.071 201.614 236.981 201.788 236.873 201.932C236.705 202.148 236.525 202.418 236.333 202.742C236.141 203.054 235.961 203.384 235.793 203.732C236.417 202.856 237.071 202.172 237.755 201.68C238.439 201.188 239.183 200.828 239.987 200.6C240.107 200.564 240.221 200.54 240.329 200.528C240.437 200.516 240.539 200.51 240.635 200.51C241.127 200.51 241.475 200.678 241.679 201.014C241.895 201.35 242.003 201.71 242.003 202.094C242.003 202.514 241.913 202.862 241.733 203.138C241.409 203.798 241.031 204.344 240.599 204.776C240.167 205.196 239.699 205.544 239.195 205.82C238.703 206.084 238.187 206.33 237.647 206.558C237.383 206.678 237.149 206.762 236.945 206.81C236.753 206.846 236.585 206.864 236.441 206.864C236.225 206.864 236.075 206.816 235.991 206.72C235.907 206.624 235.865 206.516 235.865 206.396C235.865 206.228 235.913 206.072 236.009 205.928C236.105 205.784 236.195 205.724 236.279 205.748C236.363 205.76 236.465 205.778 236.585 205.802C236.705 205.826 236.831 205.838 236.963 205.838C237.275 205.838 237.539 205.784 237.755 205.676C238.103 205.496 238.463 205.292 238.835 205.064C239.219 204.836 239.591 204.542 239.951 204.182C240.323 203.81 240.647 203.336 240.923 202.76C240.995 202.556 241.031 202.358 241.031 202.166C241.031 201.962 240.977 201.788 240.869 201.644C240.773 201.5 240.605 201.428 240.365 201.428C239.969 201.428 239.465 201.608 238.853 201.968C238.241 202.316 237.599 202.808 236.927 203.444C236.255 204.08 235.619 204.818 235.019 205.658C234.755 206.33 234.509 206.99 234.281 207.639C234.065 208.287 233.891 208.863 233.759 209.367C233.627 209.883 233.549 210.261 233.525 210.501C233.513 210.633 233.585 210.771 233.741 210.915C233.897 211.059 233.975 211.203 233.975 211.347C233.975 211.443 233.915 211.533 233.795 211.617C233.735 211.665 233.633 211.688 233.489 211.688ZM244.584 206.72C244.512 206.72 244.44 206.72 244.368 206.72C244.296 206.708 244.224 206.696 244.152 206.684C243.66 206.624 243.276 206.39 243 205.982C242.736 205.562 242.604 205.094 242.604 204.578C242.604 204.242 242.67 203.888 242.802 203.516C242.946 203.132 243.168 202.784 243.468 202.472C243.768 202.148 244.116 201.89 244.512 201.698C244.908 201.506 245.31 201.41 245.718 201.41C245.922 201.41 246.114 201.434 246.294 201.482C246.486 201.53 246.582 201.626 246.582 201.771C246.582 201.866 246.528 201.962 246.42 202.058C246.324 202.142 246.192 202.166 246.024 202.13C245.976 202.118 245.898 202.112 245.79 202.112C245.502 202.112 245.208 202.19 244.908 202.346C244.608 202.502 244.338 202.712 244.098 202.976C243.858 203.228 243.684 203.51 243.576 203.822C243.492 204.062 243.45 204.302 243.45 204.542C243.45 204.914 243.534 205.232 243.702 205.496C243.882 205.76 244.086 205.892 244.314 205.892C244.374 205.904 244.428 205.91 244.476 205.91C244.536 205.91 244.59 205.91 244.638 205.91C245.166 205.91 245.67 205.766 246.15 205.478C246.642 205.178 247.02 204.854 247.284 204.506C247.416 204.302 247.506 204.122 247.554 203.966C247.602 203.798 247.626 203.66 247.626 203.552C247.626 203.312 247.554 203.15 247.41 203.066C247.266 202.982 247.134 202.946 247.014 202.958C246.822 202.982 246.636 203.012 246.456 203.048C246.276 203.072 246.12 203.114 245.988 203.174C245.916 203.198 245.862 203.21 245.826 203.21C245.706 203.21 245.604 203.162 245.52 203.066C245.448 202.97 245.412 202.868 245.412 202.76C245.412 202.568 245.502 202.442 245.682 202.382C245.85 202.322 246.048 202.268 246.276 202.22C246.504 202.172 246.738 202.136 246.978 202.112C247.026 202.1 247.068 202.094 247.104 202.094C247.14 202.094 247.182 202.094 247.23 202.094C247.662 202.094 247.998 202.226 248.238 202.49C248.478 202.742 248.598 203.054 248.598 203.426C248.598 203.654 248.544 203.9 248.436 204.164C248.328 204.428 248.154 204.68 247.914 204.92C247.698 205.196 247.422 205.472 247.086 205.748C246.75 206.024 246.372 206.258 245.952 206.45C245.532 206.63 245.076 206.72 244.584 206.72ZM250.288 206.774C250.18 206.774 250.078 206.732 249.982 206.648C249.898 206.552 249.856 206.396 249.856 206.18C249.856 206.132 249.856 206.084 249.856 206.036C249.868 205.976 249.88 205.916 249.892 205.856C250 205.328 250.138 204.77 250.306 204.182C250.486 203.594 250.666 203.042 250.846 202.526C251.026 201.998 251.158 201.584 251.242 201.284C251.302 201.092 251.386 200.954 251.494 200.87C251.614 200.786 251.734 200.744 251.854 200.744C251.986 200.744 252.094 200.786 252.178 200.87C252.274 200.942 252.322 201.044 252.322 201.176C252.322 201.284 252.286 201.404 252.214 201.536C252.142 201.668 252.052 201.878 251.944 202.166C251.848 202.454 251.752 202.742 251.656 203.03C251.56 203.318 251.476 203.534 251.404 203.678C251.824 203.27 252.202 202.934 252.538 202.67C252.874 202.406 253.318 202.148 253.87 201.896C254.11 201.776 254.422 201.716 254.806 201.716C255.082 201.716 255.358 201.77 255.634 201.878C255.91 201.986 256.138 202.178 256.318 202.454C256.498 202.73 256.588 203.12 256.588 203.624C256.588 203.816 256.48 203.912 256.264 203.912C256.18 203.912 256.09 203.876 255.994 203.804C255.91 203.732 255.838 203.612 255.778 203.444C255.694 203.168 255.562 202.952 255.382 202.796C255.214 202.628 254.992 202.544 254.716 202.544C254.548 202.544 254.356 202.58 254.14 202.652C253.876 202.736 253.546 202.898 253.15 203.138C252.754 203.366 252.346 203.654 251.926 204.002C251.518 204.35 251.14 204.746 250.792 205.19C250.792 205.274 250.774 205.37 250.738 205.478C250.714 205.586 250.702 205.706 250.702 205.838C250.702 205.862 250.714 205.922 250.738 206.018C250.762 206.114 250.774 206.21 250.774 206.306C250.774 206.438 250.72 206.552 250.612 206.648C250.516 206.732 250.408 206.774 250.288 206.774ZM260.015 208.053C259.967 208.053 259.925 208.047 259.889 208.035C259.853 208.035 259.811 208.029 259.763 208.017C259.427 207.933 259.097 207.801 258.773 207.621C258.461 207.441 258.203 207.177 257.999 206.828C257.795 206.468 257.693 206 257.693 205.424C257.693 205.196 257.711 204.95 257.747 204.687C257.807 204.266 257.915 203.774 258.071 203.21C258.239 202.634 258.437 202.034 258.665 201.41H258.647C258.575 201.41 258.509 201.422 258.449 201.446C258.389 201.47 258.329 201.482 258.269 201.482C258.077 201.482 257.981 201.368 257.981 201.14C257.981 201.008 258.035 200.882 258.143 200.762C258.251 200.642 258.353 200.582 258.449 200.582L258.989 200.564C259.289 199.784 259.589 199.046 259.889 198.35C260.201 197.642 260.465 197.084 260.681 196.676C260.741 196.568 260.825 196.49 260.933 196.442C261.053 196.382 261.173 196.352 261.293 196.352C261.413 196.352 261.515 196.382 261.599 196.442C261.695 196.49 261.743 196.562 261.743 196.658C261.743 196.682 261.731 196.73 261.707 196.802L260.591 199.232C260.483 199.46 260.381 199.676 260.285 199.88C260.201 200.084 260.111 200.288 260.015 200.492C260.255 200.492 260.501 200.498 260.753 200.51C261.017 200.522 261.311 200.546 261.635 200.582C261.695 200.594 261.755 200.636 261.815 200.708C261.875 200.78 261.905 200.858 261.905 200.942C261.905 201.002 261.881 201.062 261.833 201.122C261.797 201.17 261.713 201.2 261.581 201.212C261.293 201.248 260.975 201.272 260.627 201.284C260.279 201.284 259.967 201.29 259.691 201.302C259.415 202.034 259.193 202.7 259.025 203.3C258.869 203.9 258.743 204.464 258.647 204.992C258.635 205.076 258.623 205.16 258.611 205.244C258.611 205.328 258.611 205.406 258.611 205.478C258.611 206.018 258.755 206.42 259.043 206.684C259.331 206.948 259.655 207.135 260.015 207.243C260.231 207.315 260.381 207.387 260.465 207.459C260.561 207.543 260.609 207.621 260.609 207.693C260.609 207.789 260.549 207.873 260.429 207.945C260.321 208.017 260.183 208.053 260.015 208.053ZM262.103 207.765C262.019 207.765 261.923 207.759 261.815 207.747C261.719 207.735 261.617 207.717 261.509 207.693C261.353 207.657 261.275 207.543 261.275 207.351C261.275 207.243 261.317 207.147 261.401 207.062C261.485 206.966 261.605 206.93 261.761 206.954C261.893 206.966 262.103 206.936 262.391 206.864C262.691 206.792 263.021 206.696 263.381 206.576C263.909 206.384 264.341 206.18 264.677 205.964C265.013 205.748 265.289 205.496 265.505 205.208C265.733 204.92 265.847 204.644 265.847 204.38C265.847 204.26 265.823 204.146 265.775 204.038C265.727 203.918 265.637 203.804 265.505 203.696C265.301 203.516 265.055 203.348 264.767 203.192C264.479 203.036 264.197 202.874 263.921 202.706C263.645 202.526 263.411 202.328 263.219 202.112C263.039 201.884 262.949 201.608 262.949 201.284C262.949 200.996 263.051 200.75 263.255 200.546C263.459 200.33 263.693 200.156 263.957 200.024C264.233 199.88 264.467 199.778 264.659 199.718C264.851 199.658 265.043 199.616 265.235 199.592C265.427 199.556 265.619 199.538 265.811 199.538C266.039 199.538 266.255 199.568 266.459 199.628C266.675 199.676 266.879 199.766 267.071 199.898C267.179 199.97 267.257 200.054 267.305 200.15C267.353 200.246 267.377 200.342 267.377 200.438C267.377 200.57 267.335 200.69 267.251 200.798C267.179 200.894 267.077 200.942 266.945 200.942C266.849 200.942 266.723 200.894 266.567 200.798H266.585C266.321 200.606 266.015 200.51 265.667 200.51C265.475 200.51 265.301 200.534 265.145 200.582C264.893 200.642 264.647 200.72 264.407 200.816C264.167 200.912 264.017 201.062 263.957 201.266C263.921 201.422 264.011 201.596 264.227 201.788C264.455 201.968 264.737 202.154 265.073 202.346C265.409 202.526 265.721 202.706 266.009 202.886C266.285 203.042 266.507 203.252 266.675 203.516C266.843 203.78 266.927 204.062 266.927 204.362C266.927 204.734 266.789 205.094 266.513 205.442C266.069 205.982 265.607 206.402 265.127 206.702C264.659 207.002 264.131 207.249 263.543 207.441C263.219 207.549 262.949 207.627 262.733 207.675C262.517 207.735 262.307 207.765 262.103 207.765Z" fill="black"/>
<defs>
<filter id="filter0_dd_1890_20776" x="126.712" y="0.0848923" width="76.5755" height="207.576" filterUnits="userSpaceOnUse" color-interpolation-filters="sRGB">
<feFlood flood-opacity="0" result="BackgroundImageFix"/>
<feColorMatrix in="SourceAlpha" type="matrix" values="0 0 0 0 0 0 0 0 0 0 0 0 0 0 0 0 0 0 127 0" result="hardAlpha"/>
<feOffset/>
<feGaussianBlur stdDeviation="0.614388"/>
<feComposite in2="hardAlpha" operator="out"/>
<feColorMatrix type="matrix" values="0 0 0 0 0.568627 0 0 0 0 0.619608 0 0 0 0 0.670588 0 0 0 0.2 0"/>
<feBlend mode="normal" in2="BackgroundImageFix" result="effect1_dropShadow_1890_20776"/>
<feColorMatrix in="SourceAlpha" type="matrix" values="0 0 0 0 0 0 0 0 0 0 0 0 0 0 0 0 0 0 127 0" result="hardAlpha"/>
<feMorphology radius="2.45755" operator="erode" in="SourceAlpha" result="effect2_dropShadow_1890_20776"/>
<feOffset dy="7.37266"/>
<feGaussianBlur stdDeviation="7.37266"/>
<feComposite in2="hardAlpha" operator="out"/>
<feColorMatrix type="matrix" values="0 0 0 0 0.568627 0 0 0 0 0.619608 0 0 0 0 0.670588 0 0 0 0.12 0"/>
<feBlend mode="normal" in2="effect1_dropShadow_1890_20776" result="effect2_dropShadow_1890_20776"/>
<feBlend mode="normal" in="SourceGraphic" in2="effect2_dropShadow_1890_20776" result="shape"/>
</filter>
<clipPath id="clip0_1890_20776">
<rect width="52" height="183" fill="white" transform="translate(139 5)"/>
</clipPath>
<clipPath id="clip1_1890_20776">
<rect width="14.7453" height="14.7453" fill="white" transform="translate(158.046 75.6548)"/>
</clipPath>
<clipPath id="clip2_1890_20776">
<rect x="158.046" y="111.289" width="14.7453" height="14.7453" rx="3.07194" fill="white"/>
</clipPath>
</defs>
</svg>
