<svg width="48" height="46" viewBox="0 0 48 46" fill="none" xmlns="http://www.w3.org/2000/svg">
<path d="M39.3061 16.2122C39.3053 15.9873 39.3001 15.7637 39.2901 15.5411V2.85114L35.7818 6.35939C32.9105 2.84479 28.5425 0.599976 23.65 0.599976C18.5584 0.599976 14.0351 3.03026 11.1758 6.79395L16.9262 12.6049C17.4898 11.5626 18.2904 10.6675 19.2556 9.99136C20.2596 9.20792 21.6821 8.56736 23.6498 8.56736C23.8875 8.56736 24.071 8.59513 24.2058 8.64747C26.6438 8.8399 28.7571 10.1854 30.0014 12.1382L25.931 16.2087C31.0867 16.1885 36.9111 16.1766 39.3056 16.2113" fill="#1C3AA9"/>
<path d="M23.5595 0.600525C23.3346 0.601272 23.111 0.606461 22.8884 0.616541H10.1984L13.7067 4.12479C10.1921 6.9961 7.94727 11.3641 7.94727 16.2566C7.94727 21.3482 10.3776 25.8715 14.1412 28.7308L19.9522 22.9804C18.9099 22.4168 18.0148 21.6162 17.3387 20.651C16.5552 19.647 15.9146 18.2245 15.9146 16.2568C15.9146 16.0191 15.9424 15.8356 15.9948 15.7008C16.1872 13.2628 17.5327 11.1495 19.4855 9.90519L23.556 13.9756C23.5358 8.81991 23.5238 2.99553 23.5586 0.600973" fill="#4285F4"/>
<path d="M7.94727 16.2563C7.94801 16.4812 7.9532 16.7048 7.96328 16.9274V29.6174L11.4715 26.1091C14.3428 29.6237 18.7108 31.8685 23.6034 31.8685C28.6949 31.8685 33.2182 29.4382 36.0776 25.6746L30.3271 19.8636C29.7636 20.9059 28.963 21.801 27.9977 22.4771C26.9938 23.2606 25.5713 23.9011 23.6036 23.9011C23.3658 23.9011 23.1824 23.8734 23.0476 23.821C20.6095 23.6286 18.4962 22.2831 17.2519 20.3303L21.3224 16.2598C16.1666 16.28 10.3423 16.2919 7.94771 16.2572" fill="#ABABAB"/>
<path d="M10.589 37.9316C10.2077 37.9316 9.86578 38.0039 9.56331 38.1486C9.26085 38.2899 9.00443 38.4921 8.79402 38.7551C8.5869 39.0181 8.42746 39.337 8.31567 39.7118C8.20717 40.0833 8.15293 40.4992 8.15293 40.9594V42.2859C8.15293 42.7495 8.20717 43.167 8.31567 43.5385C8.42744 43.91 8.58524 44.2272 8.78909 44.4902C8.99293 44.7533 9.23948 44.9554 9.52877 45.0968C9.81807 45.2382 10.1435 45.3089 10.5052 45.3089C10.8767 45.3089 11.2022 45.2546 11.4816 45.1461C11.7643 45.0376 12.001 44.8815 12.1917 44.6777C12.3824 44.4705 12.5287 44.2207 12.6306 43.9281C12.7358 43.6355 12.7983 43.3035 12.818 42.9319H11.9057C11.8827 43.218 11.8432 43.4629 11.7873 43.6667C11.7314 43.8672 11.6493 44.0333 11.5408 44.1648C11.4356 44.293 11.2975 44.3883 11.1265 44.4508C10.9589 44.51 10.7517 44.5396 10.5052 44.5396C10.2422 44.5396 10.0186 44.482 9.83452 44.367C9.65042 44.2486 9.50084 44.0875 9.38578 43.8837C9.274 43.6798 9.19181 43.4415 9.13921 43.1686C9.08989 42.8958 9.06524 42.6015 9.06524 42.2859V40.9495C9.06524 40.6109 9.09483 40.3035 9.154 40.0274C9.21647 39.7512 9.31016 39.5162 9.43509 39.3222C9.56002 39.1282 9.71782 38.9786 9.90851 38.8734C10.0992 38.7649 10.326 38.7107 10.589 38.7107C10.8093 38.7107 10.9983 38.7435 11.1561 38.8093C11.3139 38.8718 11.4454 38.9704 11.5506 39.1052C11.6558 39.2367 11.7364 39.4044 11.7923 39.6082C11.8481 39.812 11.886 40.0553 11.9057 40.338H12.818C12.8016 39.9501 12.7407 39.6065 12.6355 39.3074C12.5303 39.0082 12.384 38.7567 12.1966 38.5529C12.0092 38.349 11.7807 38.1945 11.5112 38.0893C11.2449 37.9841 10.9375 37.9315 10.589 37.9315L10.589 37.9316ZM32.8591 37.9316C32.4778 37.9316 32.1359 38.0039 31.8334 38.1486C31.5309 38.2899 31.2745 38.4921 31.0641 38.7551C30.857 39.0181 30.6975 39.337 30.5857 39.7118C30.4773 40.0833 30.423 40.4992 30.423 40.9594V42.2859C30.423 42.7495 30.4773 43.167 30.5857 43.5385C30.6975 43.91 30.8553 44.2272 31.0592 44.4902C31.263 44.7533 31.5096 44.9554 31.7989 45.0968C32.0882 45.2382 32.4136 45.3089 32.7753 45.3089C33.1468 45.3089 33.4722 45.2546 33.7517 45.1461C34.0344 45.0376 34.2711 44.8815 34.4618 44.6777C34.6525 44.4705 34.7988 44.2207 34.9007 43.9281C35.0059 43.6355 35.0684 43.3035 35.0881 42.9319H34.1758C34.1528 43.218 34.1133 43.4629 34.0575 43.6667C34.0016 43.8672 33.9194 44.0333 33.8109 44.1648C33.7057 44.293 33.5676 44.3883 33.3966 44.4508C33.229 44.51 33.0218 44.5396 32.7753 44.5396C32.5123 44.5396 32.2887 44.482 32.1046 44.367C31.9205 44.2486 31.771 44.0875 31.6559 43.8837C31.5441 43.6798 31.4619 43.4415 31.4093 43.1686C31.36 42.8958 31.3354 42.6015 31.3354 42.2859V40.9495C31.3354 40.6109 31.365 40.3035 31.4241 40.0274C31.4866 39.7512 31.5803 39.5162 31.7052 39.3222C31.8301 39.1282 31.9879 38.9786 32.1786 38.8734C32.3693 38.7649 32.5961 38.7107 32.8591 38.7107C33.0794 38.7107 33.2684 38.7435 33.4262 38.8093C33.584 38.8718 33.7155 38.9704 33.8207 39.1052C33.9259 39.2367 34.0065 39.4044 34.0623 39.6082C34.1182 39.812 34.156 40.0553 34.1758 40.338H35.088C35.0716 39.9501 35.0108 39.6065 34.9056 39.3074C34.8004 39.0082 34.6541 38.7567 34.4667 38.5529C34.2793 38.349 34.0508 38.1945 33.7812 38.0893C33.515 37.9841 33.2076 37.9315 32.8591 37.9315L32.8591 37.9316ZM15.787 38.0302L13.4742 45.2102H14.4013L14.9585 43.3363H17.3847L17.9518 45.2102H18.8789L16.5612 38.0302H15.787ZM19.8552 38.0302V45.2102H20.7576V42.3993H22.1433C22.4885 42.3993 22.7942 42.3516 23.0605 42.2563C23.3268 42.1577 23.5504 42.0163 23.7312 41.8322C23.9153 41.6481 24.0534 41.4213 24.1454 41.1517C24.2407 40.8788 24.2884 40.5698 24.2884 40.2246C24.2884 39.9057 24.2408 39.6131 24.1454 39.3468C24.0534 39.0772 23.9169 38.8455 23.7361 38.6515C23.5553 38.4542 23.3301 38.3014 23.0605 38.1929C22.7942 38.0844 22.4885 38.0301 22.1433 38.0301L19.8552 38.0302ZM24.9788 38.0302V38.8094H26.8626V45.2102H27.765V38.8094H29.6537V38.0302H24.9788ZM36.3061 38.0302V45.2102H37.2085V41.8914H40.0983V45.2102H41.0056V38.0302H40.0983V41.1173H37.2085V38.0302H36.3061ZM44.428 38.0302L42.1152 45.2102H43.0423L43.5995 43.3363H46.0257L46.5928 45.2102H47.5199L45.2022 38.0302H44.428ZM20.7575 38.8094H22.1432C22.3635 38.8094 22.5509 38.8488 22.7054 38.9277C22.8632 39.0066 22.9914 39.1118 23.09 39.2433C23.1919 39.3748 23.2659 39.5277 23.3119 39.7019C23.3613 39.8729 23.3859 40.0504 23.3859 40.2345C23.3859 40.4384 23.3613 40.6257 23.3119 40.7967C23.2659 40.9644 23.1919 41.1107 23.09 41.2356C22.9914 41.3572 22.8632 41.4526 22.7054 41.5216C22.5509 41.5906 22.3635 41.6252 22.1432 41.6252H20.7575V38.8094ZM16.1715 39.2927L17.1528 42.5572H15.1951L16.1715 39.2927ZM44.8125 39.2927L45.7938 42.5572H43.8361L44.8125 39.2927ZM2.33464 39.7759C2.1078 39.7759 1.91218 39.8335 1.7478 39.9485C1.58671 40.0636 1.45192 40.2198 1.34344 40.417L1.32864 39.8745H0.480469V45.2102H1.35332V41.3933C1.43551 41.1664 1.55222 40.9873 1.70345 40.8557C1.85796 40.7242 2.05357 40.6585 2.29029 40.6585C2.3659 40.6585 2.4333 40.6618 2.49247 40.6683C2.55165 40.6717 2.61575 40.6798 2.68479 40.693L2.67986 39.8448C2.66671 39.8382 2.64534 39.8316 2.61575 39.8251C2.58945 39.8152 2.55986 39.8069 2.52699 39.8004C2.49411 39.7938 2.45959 39.7889 2.42343 39.7856C2.39055 39.779 2.36097 39.7757 2.33467 39.7757L2.33464 39.7759ZM5.26878 39.7759C5.01564 39.7759 4.77071 39.8203 4.53402 39.9091C4.29732 39.9978 4.08692 40.1441 3.90283 40.348C3.72201 40.5485 3.57572 40.8115 3.46394 41.137C3.35216 41.4592 3.29627 41.8553 3.29627 42.3254V42.9271C3.29627 43.3347 3.34394 43.6882 3.43928 43.9873C3.53462 44.2865 3.67105 44.5347 3.84857 44.732C4.02938 44.9259 4.248 45.0706 4.50444 45.1659C4.76087 45.2613 5.04853 45.3089 5.36744 45.3089C5.59757 45.3089 5.80304 45.2859 5.98385 45.2399C6.16795 45.1939 6.33068 45.1347 6.47205 45.0624C6.61342 44.9867 6.73506 44.9013 6.83697 44.8059C6.93889 44.7106 7.02601 44.612 7.09833 44.51L6.64466 43.9577C6.57233 44.0465 6.49507 44.1287 6.41289 44.2043C6.3307 44.2766 6.24029 44.3407 6.14166 44.3966C6.04304 44.4492 5.93454 44.4903 5.81619 44.5199C5.69784 44.5495 5.56469 44.5643 5.41676 44.5643C5.01241 44.5643 4.70172 44.4344 4.48474 44.1747C4.27105 43.915 4.1642 43.4991 4.1642 42.9271V42.8038H7.14273V42.2959C7.14273 41.8882 7.10821 41.5282 7.03917 41.2159C6.97013 40.9036 6.86 40.6406 6.70877 40.4269C6.55754 40.2132 6.36357 40.0521 6.12686 39.9436C5.89015 39.8318 5.60415 39.7759 5.26879 39.7759L5.26878 39.7759ZM5.26878 40.5255C5.45945 40.5255 5.61726 40.56 5.7422 40.6291C5.86713 40.6981 5.96575 40.7951 6.03808 40.92C6.1137 41.0449 6.16794 41.1945 6.20082 41.3688C6.23698 41.5397 6.25999 41.7288 6.26985 41.9359V42.0542H4.16911C4.18226 41.755 4.21842 41.5068 4.2776 41.3096C4.33677 41.1123 4.41403 40.9561 4.50937 40.8411C4.608 40.7228 4.72142 40.6406 4.84963 40.5945C4.97785 40.5485 5.11757 40.5255 5.26881 40.5255L5.26878 40.5255Z" fill="#A6A6A6"/>
</svg>
