<svg width="32" height="33" viewBox="0 0 32 33" fill="none" xmlns="http://www.w3.org/2000/svg">
<rect y="0.5" width="32" height="32" rx="16" fill="#EF4444"/>
<g clip-path="url(#clip0_1056_3066)">
<path d="M12.392 11.6563C11.9127 11.1771 11.1356 11.1771 10.6563 11.6563C10.1771 12.1356 10.1771 12.9127 10.6563 13.392L13.8794 16.6151L10.6564 19.8381C10.1771 20.3174 10.1771 21.0945 10.6564 21.5738C11.1356 22.053 11.9127 22.053 12.392 21.5738L15.6151 18.3507L18.8381 21.5737C19.3174 22.053 20.0944 22.053 20.5737 21.5737C21.053 21.0944 21.053 20.3174 20.5737 19.8381L17.3507 16.6151L20.5738 13.392C21.053 12.9127 21.053 12.1356 20.5738 11.6564C20.0945 11.1771 19.3174 11.1771 18.8381 11.6564L15.6151 14.8794L12.392 11.6563Z" fill="white"/>
</g>
<defs>
<clipPath id="clip0_1056_3066">
<rect x="7.91992" y="8.41992" width="16.16" height="16.16" rx="3" fill="white"/>
</clipPath>
</defs>
</svg>
