<svg width="123" height="105" viewBox="0 0 123 105" fill="none" xmlns="http://www.w3.org/2000/svg">
<path d="M40.904 0.887785C46.8474 0.560326 52.7155 0.972928 58.3772 2.93768C74.2852 8.4521 84.1745 19.5104 87.2035 35.9947C91.3753 58.7008 77.3109 81.2234 53.2951 86.1255C33.379 90.1893 13.7249 80.2738 5.00789 61.8837C4.44793 61.5824 4.25801 61.0257 4.01569 60.4887C2.69275 57.535 1.9003 54.4274 1.25521 51.2707C-0.0710055 42.8452 0.819682 34.6456 4.16959 26.816C8.64924 16.3537 16.1677 8.78938 26.6104 4.1853C27.8285 3.64827 29.0729 3.17345 30.3205 2.70846C33.2709 1.79485 36.2508 1.01224 39.342 0.740444C39.8758 0.691325 40.4095 0.540678 40.904 0.887785Z" fill="#10B981"/>
<path d="M112.851 10.3287C117.19 10.3156 120.638 13.7309 120.668 18.0796C120.694 22.2547 117.2 25.7454 112.933 25.8044C108.739 25.8633 105.064 22.2154 105.094 18.0174C105.12 13.8325 108.644 10.3417 112.851 10.3287Z" fill="#10B981"/>
<path d="M59.5091 26.6422C61.2479 25.8694 62.9572 25.7777 64.4636 27.1072C65.7505 28.2435 66.15 29.7105 65.7243 31.3871C65.5114 32.2287 64.9908 32.8738 64.3948 33.4697C56.6144 41.2862 48.8437 49.1092 41.0502 56.9093C39.0003 58.9592 36.993 58.933 34.8907 56.8602C31.7373 53.7493 28.6035 50.6155 25.4762 47.4752C23.6949 45.684 23.4001 43.585 24.6248 41.7709C25.8463 39.96 27.8798 39.5147 30.2473 40.5429C31.0627 40.6673 31.4131 41.3943 31.9272 41.892C33.6234 43.5359 35.3229 45.183 36.9308 46.912C37.7036 47.7404 38.162 47.6651 38.9283 46.8923C45.3039 40.4577 51.7221 34.0625 58.137 27.6672C58.5365 27.2677 58.8214 26.675 59.5058 26.6389L59.5091 26.6422Z" fill="#FEFEFE"/>
<rect x="53.1665" y="35.666" width="69.1404" height="69.1404" rx="34.5702" fill="white"/>
<path opacity="0.5" fill-rule="evenodd" clip-rule="evenodd" d="M92.1538 92.319H83.3205C74.9923 92.319 70.8283 92.319 68.241 89.7318C65.6538 87.1446 65.6538 82.9805 65.6538 74.6523V65.819C65.6538 57.4909 65.6538 53.3268 68.241 50.7396C70.8283 48.1523 75.0143 48.1523 83.3863 48.1523C84.7245 48.1523 85.7969 48.1523 86.6992 48.1891C86.6695 48.3657 86.654 48.5457 86.6534 48.7278L86.633 54.9871C86.6328 57.4098 86.6326 59.551 86.8646 61.2768C87.1162 63.1475 87.6936 65.018 89.2202 66.5445C90.7468 68.0711 92.6172 68.6486 94.4879 68.9001C96.2138 69.1321 98.3549 69.1319 100.778 69.1318L100.987 69.1317H109.726C109.82 70.3116 109.82 71.7596 109.82 73.6871V74.6523C109.82 82.9805 109.82 87.1446 107.233 89.7318C104.646 92.319 100.482 92.319 92.1538 92.319Z" fill="#4F46E5"/>
<path d="M84.5581 77.9617C85.1658 77.278 85.1042 76.2312 84.4205 75.6234C83.7368 75.0157 82.69 75.0773 82.0823 75.761L77.4313 80.9934L75.7247 79.0735C75.117 78.3898 74.0702 78.3282 73.3865 78.936C72.7028 79.5437 72.6412 80.5905 73.2489 81.2742L76.1934 84.5867C76.5077 84.9403 76.9582 85.1426 77.4313 85.1426C77.9044 85.1426 78.3549 84.9403 78.6692 84.5867L84.5581 77.9617Z" fill="#4F46E5"/>
<path d="M86.6527 48.7275L86.6323 54.9868C86.6321 57.4095 86.632 59.5507 86.864 61.2765C87.1155 63.1472 87.693 65.0177 89.2196 66.5442C90.7461 68.0708 92.6166 68.6483 94.4873 68.8998C96.2131 69.1318 98.3542 69.1316 100.777 69.1315L109.726 69.1314C109.753 69.475 109.773 69.8412 109.786 70.2354H109.82C109.82 69.6447 109.82 69.3493 109.798 69.0016C109.673 67.0261 108.852 64.7625 107.681 63.1665C107.475 62.8855 107.334 62.7169 107.052 62.3796C105.302 60.2848 102.998 57.6752 100.987 55.8812C99.1959 54.2844 96.7435 52.5374 94.6047 51.1089C92.7672 49.8816 91.8484 49.268 90.5886 48.8119C90.2546 48.691 89.8141 48.5574 89.4692 48.4725C88.6212 48.2638 87.7957 48.1912 86.6323 48.166L86.6527 48.7275Z" fill="#4F46E5"/>
</svg>
