<svg width="172" height="172" viewBox="0 0 172 172" fill="none" xmlns="http://www.w3.org/2000/svg">
<path d="M125.44 41.5124C125.92 44.4384 126.397 47.3644 126.88 50.2887C127.494 54.0038 128.11 57.7207 128.728 61.4358C128.899 62.4623 129.085 63.4888 129.249 64.5171C129.319 64.9581 129.585 65.1259 129.994 65.2044C135.373 66.2506 139.565 70.7262 140.166 76.0481C140.853 82.1304 136.962 87.7896 131.017 89.3517C124.942 90.9478 118.749 87.845 116.451 82.0554C114.075 76.0623 116.526 69.4051 122.24 66.4059C122.706 66.1613 122.881 65.9685 122.778 65.399C121.948 60.8002 121.162 56.1925 120.364 51.5883C120.191 50.5904 120.021 49.5924 119.852 48.5927C119.516 48.1981 119.513 47.6983 119.438 47.227C118.734 42.7478 117.918 38.2864 117.276 33.7965C117.211 33.3431 117.147 32.8932 117.217 32.4362C117.038 31.3579 116.762 30.2921 117.088 29.187C117.495 27.8106 118.588 26.868 119.889 26.818C121.514 26.7573 122.746 27.5428 123.24 29.0067C123.704 30.3795 123.788 31.8292 124.038 33.2449C124.526 35.9977 124.974 38.7559 125.436 41.5124H125.44Z" fill="#FEBE00"/>
<path d="M41.5767 54.0325C41.9927 49.4319 43.7262 45.3473 46.4005 41.6214C47.5823 39.9754 49.0409 38.5972 50.4923 37.2101C52.9899 35.282 55.6392 33.5932 58.6937 32.7184C69.1107 29.7335 78.2779 31.874 85.851 39.7451C89.0198 43.0371 90.7997 47.1539 91.7816 51.6063C91.844 51.8938 91.9083 52.1794 91.9708 52.4668C92.0851 53.9861 92.2797 55.4982 92.2743 57.0246C92.2707 58.0208 92.0351 58.2743 91.0657 58.2796C89.8606 58.285 88.6538 58.2903 87.4488 58.2796C86.6454 58.2725 86.3615 57.9761 86.2991 57.1692C86.2419 56.4551 86.408 55.7249 86.1455 55.0251C85.6956 53.2095 85.3582 51.3653 84.6459 49.6212C83.2731 46.2667 81.1968 43.4585 78.2619 41.3072C74.802 38.8489 70.9709 37.6582 66.7042 37.6528C62.1732 37.6457 58.1956 39.0792 54.7305 41.9089C51.8348 44.2725 49.871 47.3342 48.5892 50.8387C48.0626 52.2437 47.8162 53.7147 47.5484 55.1822C47.4574 55.4714 47.4734 55.7678 47.4752 56.0623C47.5002 60.8968 47.3502 65.7295 47.4199 70.5639C47.4252 70.9745 47.336 71.3048 47.0235 71.5637C45.158 73.1043 43.3424 74.695 41.832 76.6016C41.7963 76.6463 41.7446 76.6606 41.6428 76.6481C41.4625 76.5963 41.5268 76.4071 41.5268 76.2678C41.5232 68.934 41.5214 61.6002 41.5232 54.2682C41.5232 54.1843 41.5482 54.1111 41.5714 54.0343L41.5767 54.0325Z" fill="#BBBBBB"/>
<path d="M41.575 54.0325C41.584 59.1079 41.5947 64.1834 41.6018 69.2589C41.6054 71.669 41.6018 74.0791 41.6018 76.5945C43.055 74.5182 44.9152 72.999 46.763 71.4797C47.1575 71.1566 47.2575 70.8549 47.2575 70.3996C47.2486 65.592 47.2486 60.7861 47.2557 55.9784C47.2557 55.6678 47.1522 55.3303 47.3914 55.0483C47.6502 55.2625 47.6538 55.5696 47.6574 55.8624C47.6752 57.7708 47.8002 59.6899 47.6306 61.5841C47.3753 64.4298 47.5788 67.2719 47.5003 70.114C47.4949 70.3211 47.295 70.6924 47.7681 70.7192C48.8392 70.0605 49.8907 69.366 50.9869 68.7501C54.8448 66.5792 58.9919 65.3117 63.3908 64.8547C68.3074 64.3441 73.1151 64.81 77.7906 66.4614C77.937 66.8113 77.987 67.1791 77.9888 67.5557C77.9924 68.9982 77.9959 70.4407 77.987 71.8832C77.9852 72.2027 77.987 72.5277 77.7781 72.8008C77.3854 73.0989 77.0051 72.899 76.6374 72.749C73.3775 71.4262 69.973 70.7906 66.4739 70.9406C59.9524 71.2191 54.1361 73.3542 49.2427 77.7977C45.7811 80.9433 43.3442 84.7459 41.8607 89.1591C41.1144 91.3817 40.7556 93.6775 40.6628 96.0394C40.5128 99.892 41.1466 103.582 42.6105 107.131C43.3085 108.824 44.1637 110.437 45.2169 111.944C45.4044 112.214 45.7257 112.473 45.4651 112.873C43.5638 113.306 41.6697 113.763 39.7666 114.19C39.5559 114.236 39.3399 114.249 39.1507 114.11C37.1226 111.025 35.7819 107.64 35.0303 104.052C33.4057 96.3019 34.3394 88.8699 38.0581 81.827C38.9489 80.14 40.0683 78.6029 41.1305 77.0283C41.534 76.7873 41.4536 76.3909 41.4536 76.0196C41.4554 68.7162 41.459 61.4127 41.4608 54.111C41.5054 54.0932 41.5429 54.0664 41.5768 54.0325H41.575Z" fill="#BBBBBB"/>
<path d="M117.219 32.4346C117.632 33.37 117.564 34.3948 117.741 35.3731C118.189 37.8564 118.582 40.3486 118.978 42.8408C119.283 44.7546 119.562 46.6737 119.853 48.5911C117.83 48.9374 115.814 49.3302 113.785 49.6123C112.255 49.8247 110.869 48.6625 110.662 47.1361C110.444 45.5276 111.496 44.0458 113.056 43.7656C113.135 43.7513 113.217 43.762 113.297 43.7513C114.267 43.612 114.331 43.5174 114.143 42.5284C114.099 42.2927 114.058 42.0553 114.017 41.8196C113.919 41.0805 113.792 40.3432 113.729 39.6006C113.674 38.9543 113.215 39.2382 112.955 39.2721C111.951 39.4078 110.955 39.6024 109.959 39.788C108.445 40.0701 107.022 39.1168 106.658 37.5636C106.301 36.0408 107.238 34.3966 108.741 34.0859C111.3 33.5575 113.876 33.1094 116.443 32.622C116.705 32.572 116.962 32.4971 117.221 32.4346H117.219Z" fill="#FE9800"/>
<path d="M20.3653 120.247C21.5472 119.619 22.7522 119.21 24.1304 119.576C25.9639 120.062 27.3225 121.592 27.4189 123.384C27.5331 125.514 26.4959 127.163 24.6053 127.858C24.4071 127.931 24.2126 128.015 24.0162 128.094C21.2883 128.486 19.3227 126.89 18.814 124.984C18.3052 123.079 18.9443 121.529 20.3671 120.247H20.3653Z" fill="#8D8D8D"/>
<path d="M55.3164 149.756C55.5413 149.247 55.7234 148.715 56.1948 148.356C57.0785 147.685 58.0139 147.658 59.019 148.29C59.8456 148.81 60.208 149.866 59.9402 150.98C59.9099 151.109 59.8617 151.234 59.8206 151.361C59.0404 152.428 58.0264 152.809 56.8981 152.457C55.9055 152.146 55.3307 151.166 55.3164 149.758V149.756Z" fill="#8D8D8D"/>
<path d="M99.5325 93.733C102.773 93.5545 105.972 93.7794 109.059 94.8506C117.731 97.8569 123.123 103.886 124.774 112.873C127.049 125.252 119.381 137.531 106.288 140.203C95.43 142.419 84.7149 137.013 79.9625 126.987C79.6573 126.823 79.5537 126.519 79.4216 126.226C78.7004 124.616 78.2683 122.922 77.9167 121.201C77.1936 116.607 77.6792 112.137 79.5055 107.869C81.9477 102.165 86.0467 98.0408 91.7398 95.5307C92.404 95.238 93.0824 94.9791 93.7625 94.7256C95.3711 94.2275 96.9956 93.8008 98.6809 93.6527C98.9719 93.6259 99.2629 93.5438 99.5325 93.733Z" fill="#10B981"/>
<path d="M78.1062 121.169C78.5311 123.17 79.1166 125.119 79.9628 126.987C78.1223 127.56 76.3388 128.313 74.4446 128.715C63.4421 131.043 53.6482 128.585 45.1023 121.258C42.7189 119.214 40.7427 116.82 39.1484 114.112C40.9141 113.692 42.6779 113.264 44.4488 112.864C44.7827 112.789 45.1415 112.824 45.4896 112.81C45.9288 112.755 46.0841 113.121 46.293 113.378C49.3761 117.179 53.2001 119.946 57.7954 121.627C60.0751 122.461 62.437 122.888 64.8614 123.106C68.4212 123.427 71.865 122.916 75.2712 121.961C75.8675 121.793 76.4423 121.576 77.0225 121.361C77.3671 121.235 77.7081 121.029 78.1044 121.169H78.1062Z" fill="#A5A5A5"/>
<path d="M99.5323 93.7329C97.5685 93.9811 95.6315 94.3631 93.7356 94.938C93.1215 94.7684 93.2803 94.2007 93.2304 93.8133C92.9983 91.9637 92.5591 90.1678 91.9486 88.4129C90.8381 85.228 89.1261 82.4109 86.8945 79.8722C84.4916 77.1408 81.6012 75.1074 78.3771 73.4953C78.0647 73.3382 77.6291 73.2847 77.5684 72.8116C77.7754 72.658 77.7451 72.4331 77.7397 72.2224C77.7005 70.3693 77.8237 68.5163 77.6826 66.6649C77.6773 66.6007 77.7522 66.5293 77.7915 66.4614C81.5852 67.6379 84.9896 69.5553 88.0317 72.076C93.2411 76.3946 96.8205 81.7985 98.5861 88.3629C99.0592 90.1249 99.393 91.9137 99.5341 93.7365L99.5323 93.7329Z" fill="#A6A6A6"/>
<path d="M138.759 98.8799C141.124 98.8728 143.004 100.735 143.02 103.106C143.034 105.382 141.129 107.285 138.803 107.317C136.516 107.349 134.513 105.36 134.529 103.072C134.544 100.79 136.465 98.887 138.759 98.8799Z" fill="#10B981"/>
<path d="M122.232 77.3853C122.125 74.5003 124.61 71.7028 127.902 71.7868C131.01 71.8653 133.434 74.2808 133.438 77.4603C133.44 80.5702 130.864 83.182 127.761 83.1017C124.471 83.016 122.098 80.2488 122.232 77.3853Z" fill="#E3F5FE"/>
<path d="M77.567 72.8116C78.8006 73.5649 80.1324 74.1344 81.3553 74.9128C85.9327 77.8281 89.3318 81.7289 91.5009 86.7187C92.5881 89.2216 93.1844 91.8334 93.5486 94.5166C93.57 94.6809 93.5843 94.8362 93.736 94.938C91.0653 95.952 88.5266 97.2034 86.329 99.069C81.9569 102.781 79.1809 107.399 78.2025 113.092C77.7384 115.791 77.7348 118.471 78.1061 121.169C75.1123 122.388 72.0184 123.091 68.78 123.336C65.1684 123.609 61.6783 123.143 58.2791 122.018C53.8607 120.558 50.1188 118.018 47.0017 114.565C46.484 113.992 46.0716 113.328 45.4914 112.808C44.6345 111.391 43.7026 110.02 42.992 108.511C41.4317 105.196 40.5891 101.734 40.4391 98.0604C40.2035 92.3083 41.7727 87.1025 44.9755 82.3823C49.0922 76.3178 54.839 72.6527 61.9925 71.2173C67.134 70.1855 72.1648 70.6585 77.0296 72.6687C77.1992 72.7384 77.3885 72.7634 77.5688 72.8098L77.567 72.8116Z" fill="#8D8D8D"/>
<path d="M109.677 107.774C110.625 107.352 111.557 107.302 112.378 108.027C113.08 108.647 113.297 109.447 113.065 110.361C112.949 110.819 112.666 111.171 112.341 111.496C108.099 115.757 103.862 120.022 99.6135 124.275C98.496 125.392 97.4016 125.378 96.2555 124.248C94.5363 122.552 92.8278 120.844 91.1229 119.132C90.1517 118.155 89.991 117.011 90.6587 116.022C91.3246 115.034 92.4333 114.792 93.724 115.352C94.1685 115.42 94.3595 115.816 94.6398 116.088C95.5646 116.984 96.4911 117.882 97.3677 118.824C97.789 119.276 98.0389 119.235 98.4567 118.814C101.933 115.306 105.432 111.819 108.929 108.333C109.147 108.115 109.302 107.792 109.675 107.772L109.677 107.774Z" fill="#FEFEFE"/>
<path d="M109.676 107.774C105.973 111.464 102.26 115.142 98.5841 118.857C98.0592 119.387 97.7896 119.473 97.2451 118.882C96.1222 117.661 94.9047 116.525 93.7246 115.354C94.0888 115.102 94.1959 115.486 94.353 115.64C95.3724 116.632 96.3953 117.625 97.3683 118.662C97.7896 119.11 98.0306 119.08 98.452 118.655C101.93 115.143 105.427 111.651 108.933 108.168C109.121 107.983 109.235 107.535 109.674 107.772L109.676 107.774Z" fill="#10B981"/>
<path d="M64.0226 101.16C64.0226 99.8706 64.0084 98.5799 64.0298 97.2909C64.0369 96.8553 63.9423 96.5858 63.5263 96.3251C61.1377 94.8291 60.0915 91.9263 60.852 89.0681C61.5626 86.3991 64.0173 84.4157 66.7755 84.2783C69.6623 84.1354 72.4347 86.1135 73.3042 88.936C74.1879 91.8085 73.0257 94.8684 70.4371 96.3751C70.0604 96.5947 70.0122 96.8446 70.0122 97.216C70.0211 99.876 70.0389 102.534 70.0015 105.194C69.9729 107.188 68.1591 108.577 66.256 108.124C64.992 107.824 64.0691 106.587 64.0441 105.107C64.0226 103.791 64.0387 102.474 64.0387 101.158H64.0226V101.16Z" fill="#595959"/>
</svg>
