<svg width="17" height="20" viewBox="0 0 17 20" fill="none" xmlns="http://www.w3.org/2000/svg">
<path fill-rule="evenodd" clip-rule="evenodd" d="M6.43215 7.05089C6.43215 5.71734 7.45631 4.63628 8.71968 4.63628C9.98304 4.63628 11.0072 5.71734 11.0072 7.05089C11.0072 8.38444 9.98304 9.46549 8.71968 9.46549C7.45631 9.46549 6.43215 8.38444 6.43215 7.05089ZM8.71968 5.95334C8.14542 5.95334 7.67989 6.44473 7.67989 7.05089C7.67989 7.65705 8.14542 8.14844 8.71968 8.14844C9.29393 8.14844 9.75946 7.65705 9.75946 7.05089C9.75946 6.44473 9.29393 5.95334 8.71968 5.95334Z" fill="#626973"/>
<path fill-rule="evenodd" clip-rule="evenodd" d="M8.71968 9.90451C7.72501 9.90451 6.79367 10.1159 6.08791 10.4884C5.41947 10.8412 4.7685 11.4504 4.7685 12.3191L4.7684 12.374C4.76712 12.8221 4.76497 13.5766 5.44247 14.0943C5.75686 14.3345 6.17171 14.4877 6.68561 14.5853C7.20426 14.6838 7.86889 14.7337 8.71968 14.7337C9.57046 14.7337 10.2351 14.6838 10.7537 14.5853C11.2676 14.4877 11.6825 14.3345 11.9969 14.0943C12.6744 13.5766 12.6722 12.8221 12.671 12.374L12.6708 12.3191C12.6708 11.4504 12.0199 10.8412 11.3514 10.4884C10.6457 10.1159 9.71434 9.90451 8.71968 9.90451ZM6.01624 12.3191C6.01624 12.218 6.11012 11.9492 6.64592 11.6664C7.14441 11.4033 7.87672 11.2216 8.71968 11.2216C9.56263 11.2216 10.2949 11.4033 10.7934 11.6664C11.3292 11.9492 11.4231 12.218 11.4231 12.3191C11.4231 12.8499 11.3911 12.9313 11.2653 13.0274C11.1637 13.105 10.9547 13.2089 10.5328 13.2891C10.1156 13.3683 9.53255 13.4167 8.71968 13.4167C7.9068 13.4167 7.3237 13.3683 6.90655 13.2891C6.48465 13.2089 6.27562 13.105 6.1741 13.0274C6.04826 12.9313 6.01624 12.8499 6.01624 12.3191Z" fill="#626973"/>
<path fill-rule="evenodd" clip-rule="evenodd" d="M5.99411 0.949504C7.19521 0.515285 7.93982 0.246094 8.71968 0.246094C9.49953 0.246094 10.2441 0.515286 11.4452 0.949505L12.0503 1.16815C13.2826 1.61337 14.2335 1.95697 14.9143 2.24889C15.2572 2.39593 15.552 2.53836 15.7894 2.68388C16.0178 2.82393 16.247 2.9986 16.4027 3.23278C16.5566 3.46425 16.6362 3.7488 16.6862 4.02273C16.7382 4.30751 16.7696 4.64913 16.7898 5.04138C16.83 5.82023 16.83 6.88723 16.83 8.2712V9.67742C16.83 15.0344 12.9969 17.6027 10.7174 18.6538L10.6949 18.6642C10.4123 18.7945 10.1466 18.9171 9.8413 18.9996C9.519 19.0867 9.17656 19.1239 8.71968 19.1239C8.26279 19.1239 7.92035 19.0867 7.59804 18.9996C7.29277 18.9171 7.0271 18.7945 6.74445 18.6642L6.72191 18.6538C4.44245 17.6027 0.609375 15.0344 0.609375 9.67742V8.27128C0.609375 6.88738 0.609375 5.8202 0.649551 5.04138C0.669785 4.64913 0.701135 4.30751 0.753126 4.02273C0.803135 3.7488 0.882717 3.46425 1.03663 3.23278C1.19234 2.9986 1.42152 2.82393 1.64997 2.68388C1.88736 2.53836 2.18218 2.39593 2.5251 2.24889C3.20584 1.95697 4.1568 1.61337 5.389 1.16815L5.99411 0.949504ZM8.71968 1.56315C8.17255 1.56315 7.63427 1.74898 6.29126 2.23423L5.81478 2.40639C4.55656 2.86101 3.63896 3.19283 2.99471 3.4691C2.67314 3.60699 2.44014 3.72255 2.27659 3.82281C2.19585 3.8723 2.14021 3.91315 2.10306 3.94503C2.07155 3.97206 2.05955 3.98737 2.05783 3.9896C2.05622 3.99235 2.04588 4.0106 2.03132 4.05374C2.0147 4.10301 1.99627 4.17364 1.97832 4.27195C1.94199 4.47094 1.91446 4.74429 1.89544 5.11299C1.85734 5.85159 1.85711 6.8826 1.85711 8.29477V9.67742C1.85711 14.2214 5.07619 16.4577 7.22138 17.4468C7.53039 17.5893 7.70883 17.67 7.90748 17.7237C8.0972 17.7749 8.32872 17.8069 8.71968 17.8069C9.11063 17.8069 9.34215 17.7749 9.53187 17.7237C9.73052 17.67 9.90896 17.5893 10.218 17.4469C12.3632 16.4577 15.5822 14.2214 15.5822 9.67742V8.29477C15.5822 6.8826 15.582 5.85159 15.5439 5.11299C15.5249 4.74429 15.4974 4.47094 15.461 4.27195C15.4431 4.17364 15.4247 4.10301 15.408 4.05374C15.3935 4.01057 15.3831 3.99233 15.3815 3.98959C15.3798 3.98734 15.3678 3.97204 15.3363 3.94503C15.2991 3.91315 15.2435 3.8723 15.1628 3.82281C14.9992 3.72255 14.7662 3.60699 14.4446 3.4691C13.8004 3.19283 12.8828 2.86101 11.6246 2.40639L11.1481 2.23423C9.80509 1.74898 9.2668 1.56315 8.71968 1.56315Z" fill="#626973"/>
</svg>
