<svg width="20" height="20" viewBox="0 0 20 20" fill="none" xmlns="http://www.w3.org/2000/svg">
<path fill-rule="evenodd" clip-rule="evenodd" d="M9.13711 1.84571C4.87719 1.84571 1.42384 5.29906 1.42384 9.55898C1.42384 13.8189 4.87719 17.2723 9.13711 17.2723C13.397 17.2723 16.8504 13.8189 16.8504 9.55898C16.8504 5.29906 13.397 1.84571 9.13711 1.84571ZM0.101562 9.55898C0.101562 4.56879 4.14691 0.523438 9.13711 0.523438C14.1273 0.523438 18.1727 4.56879 18.1727 9.55898C18.1727 11.8161 17.345 13.8799 15.9767 15.4636L18.8605 18.3474C19.1187 18.6056 19.1187 19.0242 18.8605 19.2824C18.6023 19.5406 18.1837 19.5406 17.9255 19.2824L15.0417 16.3986C13.4581 17.7669 11.3942 18.5945 9.13711 18.5945C4.14691 18.5945 0.101562 14.5492 0.101562 9.55898Z" fill="#626973"/>
</svg>
