<svg width="17" height="20" viewBox="0 0 17 20" fill="none" xmlns="http://www.w3.org/2000/svg">
<path fill-rule="evenodd" clip-rule="evenodd" d="M6.43215 7.22472C6.43215 5.89117 7.45631 4.81011 8.71968 4.81011C9.98304 4.81011 11.0072 5.89117 11.0072 7.22472C11.0072 8.55827 9.98304 9.63932 8.71968 9.63932C7.45631 9.63932 6.43215 8.55827 6.43215 7.22472ZM8.71968 6.12717C8.14542 6.12717 7.67989 6.61856 7.67989 7.22472C7.67989 7.83088 8.14542 8.32226 8.71968 8.32226C9.29393 8.32226 9.75946 7.83088 9.75946 7.22472C9.75946 6.61856 9.29393 6.12717 8.71968 6.12717Z" fill="#626973"/>
<path fill-rule="evenodd" clip-rule="evenodd" d="M8.71968 10.0783C7.72501 10.0783 6.79367 10.2897 6.08791 10.6622C5.41947 11.015 4.7685 11.6242 4.7685 12.4929L4.7684 12.5478C4.76712 12.9959 4.76497 13.7505 5.44247 14.2681C5.75686 14.5083 6.17171 14.6615 6.68561 14.7591C7.20426 14.8576 7.86889 14.9076 8.71968 14.9076C9.57046 14.9076 10.2351 14.8576 10.7537 14.7591C11.2676 14.6615 11.6825 14.5083 11.9969 14.2681C12.6744 13.7505 12.6722 12.9959 12.671 12.5478L12.6708 12.4929C12.6708 11.6242 12.0199 11.015 11.3514 10.6622C10.6457 10.2897 9.71434 10.0783 8.71968 10.0783ZM6.01624 12.4929C6.01624 12.3918 6.11012 12.123 6.64592 11.8402C7.14441 11.5771 7.87672 11.3954 8.71968 11.3954C9.56263 11.3954 10.2949 11.5771 10.7934 11.8402C11.3292 12.123 11.4231 12.3918 11.4231 12.4929C11.4231 13.0237 11.3911 13.1051 11.2653 13.2012C11.1637 13.2788 10.9547 13.3828 10.5328 13.4629C10.1156 13.5421 9.53255 13.5905 8.71968 13.5905C7.9068 13.5905 7.3237 13.5421 6.90655 13.4629C6.48465 13.3828 6.27562 13.2788 6.1741 13.2012C6.04826 13.1051 6.01624 13.0237 6.01624 12.4929Z" fill="#626973"/>
<path fill-rule="evenodd" clip-rule="evenodd" d="M5.99411 1.12333C7.19521 0.689113 7.93982 0.419922 8.71968 0.419922C9.49953 0.419922 10.2441 0.689114 11.4452 1.12333L12.0503 1.34198C13.2826 1.7872 14.2335 2.1308 14.9143 2.42271C15.2572 2.56976 15.552 2.71219 15.7894 2.85771C16.0178 2.99776 16.247 3.17243 16.4027 3.4066C16.5566 3.63807 16.6362 3.92263 16.6862 4.19656C16.7382 4.48134 16.7696 4.82296 16.7898 5.2152C16.83 5.99406 16.83 7.06106 16.83 8.44503V9.85124C16.83 15.2082 12.9969 17.7766 10.7174 18.8276L10.6949 18.838C10.4123 18.9684 10.1466 19.0909 9.8413 19.1734C9.519 19.2605 9.17656 19.2977 8.71968 19.2977C8.26279 19.2977 7.92035 19.2605 7.59804 19.1734C7.29277 19.0909 7.0271 18.9684 6.74445 18.838L6.72191 18.8276C4.44245 17.7766 0.609375 15.2082 0.609375 9.85124V8.4451C0.609375 7.06121 0.609375 5.99403 0.649551 5.2152C0.669785 4.82296 0.701135 4.48134 0.753126 4.19656C0.803135 3.92263 0.882717 3.63807 1.03663 3.4066C1.19234 3.17243 1.42152 2.99776 1.64997 2.85771C1.88736 2.71219 2.18218 2.56976 2.5251 2.42271C3.20584 2.1308 4.1568 1.7872 5.389 1.34198L5.99411 1.12333ZM8.71968 1.73698C8.17255 1.73698 7.63427 1.9228 6.29126 2.40806L5.81478 2.58022C4.55656 3.03484 3.63896 3.36666 2.99471 3.64292C2.67314 3.78082 2.44014 3.89638 2.27659 3.99664C2.19585 4.04613 2.14021 4.08698 2.10306 4.11886C2.07155 4.14589 2.05955 4.16119 2.05783 4.16343C2.05622 4.16618 2.04588 4.18443 2.03132 4.22757C2.0147 4.27683 1.99627 4.34746 1.97832 4.44578C1.94199 4.64477 1.91446 4.91812 1.89544 5.28681C1.85734 6.02541 1.85711 7.05643 1.85711 8.46859V9.85124C1.85711 14.3952 5.07619 16.6315 7.22138 17.6207C7.53039 17.7632 7.70883 17.8438 7.90748 17.8975C8.0972 17.9488 8.32872 17.9807 8.71968 17.9807C9.11063 17.9807 9.34215 17.9488 9.53187 17.8975C9.73052 17.8438 9.90896 17.7632 10.218 17.6207C12.3632 16.6315 15.5822 14.3952 15.5822 9.85124V8.46859C15.5822 7.05643 15.582 6.02541 15.5439 5.28681C15.5249 4.91812 15.4974 4.64477 15.461 4.44578C15.4431 4.34746 15.4247 4.27683 15.408 4.22757C15.3935 4.18439 15.3831 4.16616 15.3815 4.16342C15.3798 4.16117 15.3678 4.14587 15.3363 4.11886C15.2991 4.08698 15.2435 4.04613 15.1628 3.99664C14.9992 3.89638 14.7662 3.78082 14.4446 3.64292C13.8004 3.36666 12.8828 3.03484 11.6246 2.58022L11.1481 2.40806C9.80509 1.9228 9.2668 1.73698 8.71968 1.73698Z" fill="#626973"/>
</svg>
