<svg width="116" height="107" viewBox="0 0 116 107" fill="none" xmlns="http://www.w3.org/2000/svg">
<path d="M38.0079 0.209942C43.6219 -0.0993723 49.1648 0.290367 54.5129 2.14625C69.5394 7.35511 78.8807 17.8007 81.7418 33.3715C85.6825 54.8194 72.3974 76.094 49.7123 80.7245C30.8998 84.5631 12.3348 75.197 4.10082 57.8259C3.57189 57.5414 3.39249 57.0155 3.1636 56.5082C1.91397 53.7182 1.16543 50.7828 0.55608 47.8011C-0.696643 39.8424 0.144691 32.0972 3.30898 24.7014C7.5404 14.8189 14.6423 7.6737 24.5063 3.32474C25.6569 2.81746 26.8323 2.36896 28.0108 1.92973C30.7977 1.06674 33.6125 0.327497 36.5324 0.0707656C37.0366 0.0243685 37.5408 -0.117931 38.0079 0.209942Z" fill="#10B981"/>
<path d="M105.968 9.12769C110.067 9.11532 113.324 12.3415 113.352 16.4492C113.377 20.3929 110.076 23.6902 106.046 23.7459C102.083 23.8016 98.613 20.3558 98.6408 16.3904C98.6655 12.4373 101.994 9.14006 105.968 9.12769Z" fill="#10B981"/>
<path d="M55.5823 24.5369C57.2248 23.8069 58.8394 23.7203 60.2622 24.9761C61.4778 26.0494 61.8552 27.4352 61.4531 29.0188C61.2521 29.8138 60.7602 30.4231 60.1973 30.9861C52.848 38.3694 45.5079 45.7589 38.1463 53.1268C36.21 55.0631 34.3139 55.0384 32.3281 53.0804C29.3494 50.1419 26.3892 47.1818 23.4353 44.2155C21.7526 42.5235 21.4742 40.5408 22.6311 38.8272C23.7848 37.1167 25.7056 36.696 27.942 37.6673C28.7122 37.7848 29.0431 38.4715 29.5288 38.9417C31.131 40.4944 32.7364 42.0503 34.2551 43.6835C34.9851 44.466 35.4181 44.3949 36.1419 43.6649C42.1643 37.5869 48.2268 31.546 54.2863 25.505C54.6636 25.1277 54.9328 24.5678 55.5792 24.5338L55.5823 24.5369Z" fill="#FEFEFE"/>
<rect x="48.8848" y="38.9428" width="67.1143" height="67.1143" rx="33.5571" fill="white"/>
<path fill-rule="evenodd" clip-rule="evenodd" d="M72.3843 58.4197H80.4302C84.223 58.4197 86.1194 58.4197 87.2977 59.598C88.476 60.7763 88.476 62.6727 88.476 66.4656V91.106H91.4932H100.545H102.556C103.389 91.106 104.065 91.7815 104.065 92.6146C104.065 93.4478 103.389 94.1232 102.556 94.1232H62.327C61.4938 94.1232 60.8184 93.4478 60.8184 92.6146C60.8184 91.7815 61.4938 91.106 62.327 91.106H64.3384V66.4656C64.3384 62.6727 64.3384 60.7763 65.5167 59.598C66.695 58.4197 68.5914 58.4197 72.3843 58.4197ZM68.8642 64.4541C68.8642 63.6209 69.5396 62.9455 70.3728 62.9455H82.4416C83.2748 62.9455 83.9502 63.6209 83.9502 64.4541C83.9502 65.2873 83.2748 65.9627 82.4416 65.9627H70.3728C69.5396 65.9627 68.8642 65.2873 68.8642 64.4541ZM68.8642 70.4885C68.8642 69.6553 69.5396 68.9799 70.3728 68.9799H82.4416C83.2748 68.9799 83.9502 69.6553 83.9502 70.4885C83.9502 71.3217 83.2748 71.9971 82.4416 71.9971H70.3728C69.5396 71.9971 68.8642 71.3217 68.8642 70.4885ZM68.8642 76.5229C68.8642 75.6897 69.5396 75.0143 70.3728 75.0143H82.4416C83.2748 75.0143 83.9502 75.6897 83.9502 76.5229C83.9502 77.3561 83.2748 78.0315 82.4416 78.0315H70.3728C69.5396 78.0315 68.8642 77.3561 68.8642 76.5229ZM76.4072 85.0716C77.2404 85.0716 77.9158 85.7471 77.9158 86.5802V91.106H74.8986V86.5802C74.8986 85.7471 75.574 85.0716 76.4072 85.0716Z" fill="#4F46E5"/>
<path opacity="0.5" d="M88.476 52.3853H92.4989C96.2918 52.3853 98.1882 52.3853 99.3665 53.5636C100.545 54.7419 100.545 56.6384 100.545 60.4312V91.1061H88.4761V66.4656C88.4761 62.6728 88.4761 60.7763 87.2978 59.598C86.146 58.4463 84.3081 58.4203 80.6836 58.4198V55.4025C80.8532 54.6236 81.1361 54.0359 81.6084 53.5636C82.7867 52.3853 84.6831 52.3853 88.476 52.3853Z" fill="#4F46E5"/>
</svg>
