<svg width="59" height="58" viewBox="0 0 59 58" fill="none" xmlns="http://www.w3.org/2000/svg">
<rect x="0.726562" y="0.327637" width="57.2909" height="57.2909" rx="28.6455" fill="#352DAC"/>
<path fill-rule="evenodd" clip-rule="evenodd" d="M29.373 42.4653C35.3344 42.4653 40.167 37.6327 40.167 31.6714C40.167 25.7101 35.3344 20.8774 29.373 20.8774C23.4117 20.8774 18.5791 25.7101 18.5791 31.6714C18.5791 37.6327 23.4117 42.4653 29.373 42.4653ZM29.373 27.6237C28.9898 27.6237 28.7334 28.0835 28.2207 29.0033L28.0881 29.2412C27.9424 29.5026 27.8695 29.6333 27.756 29.7195C27.6424 29.8057 27.5009 29.8377 27.218 29.9017L26.9604 29.96C25.9648 30.1853 25.467 30.2979 25.3486 30.6788C25.2301 31.0596 25.5695 31.4565 26.2482 32.2502L26.4238 32.4555C26.6167 32.6811 26.7131 32.7938 26.7565 32.9333C26.7999 33.0729 26.7853 33.2233 26.7562 33.5242L26.7296 33.7982C26.627 34.8572 26.5757 35.3867 26.8858 35.622C27.1958 35.8574 27.6619 35.6428 28.5941 35.2136L28.8353 35.1026C29.1002 34.9806 29.2326 34.9196 29.373 34.9196C29.5134 34.9196 29.6459 34.9806 29.9108 35.1026L30.152 35.2136C31.0841 35.6428 31.5502 35.8574 31.8603 35.622C32.1704 35.3867 32.1191 34.8572 32.0164 33.7982L31.9899 33.5242C31.9607 33.2233 31.9462 33.0729 31.9895 32.9333C32.0329 32.7938 32.1294 32.6811 32.3222 32.4555L32.4978 32.2502C33.1766 31.4565 33.516 31.0596 33.3975 30.6788C33.2791 30.2979 32.7813 30.1853 31.7857 29.96L31.5281 29.9017C31.2452 29.8377 31.1037 29.8057 30.9901 29.7195C30.8765 29.6333 30.8037 29.5026 30.658 29.2412L30.5254 29.0033C30.0127 28.0835 29.7563 27.6237 29.373 27.6237Z" fill="#F9FAFB"/>
<path d="M28.0239 15.4805H30.7224C33.2666 15.4805 34.5386 15.4805 35.329 16.2708C36.1082 17.05 36.1192 18.2975 36.1194 20.7705C34.1599 19.5552 31.8485 18.8536 29.3732 18.8536C26.8979 18.8536 24.5865 19.5552 22.627 20.7705C22.6271 18.2975 22.6381 17.05 23.4173 16.2708C24.2077 15.4805 25.4798 15.4805 28.0239 15.4805Z" fill="#F9FAFB"/>
</svg>
