<svg width="74" height="71" viewBox="0 0 74 71" fill="none" xmlns="http://www.w3.org/2000/svg">
<path fill-rule="evenodd" clip-rule="evenodd" d="M35.1887 45.8547C36.1894 44.854 37.8119 44.854 38.8126 45.8547L45.646 52.688C46.6467 53.6888 46.6467 55.3112 45.646 56.312C44.6452 57.3127 43.0227 57.3127 42.022 56.312L39.5632 53.8531V68.1667C39.5632 69.5819 38.4159 70.7292 37.0007 70.7292C35.5854 70.7292 34.4382 69.5819 34.4382 68.1667V53.8531L31.9793 56.312C30.9786 57.3127 29.3561 57.3127 28.3554 56.312C27.3546 55.3112 27.3546 53.6888 28.3554 52.688L35.1887 45.8547Z" fill="#A3A1F4"/>
<path d="M38.6276 5.8125C29.2315 5.8125 21.6663 13.332 21.6663 22.5441C21.6663 24.1232 21.8874 25.648 22.2997 27.0919C23.9985 27.5822 25.5887 28.3246 27.0255 29.275C28.2059 30.0558 28.5298 31.6457 27.749 32.826C26.9682 34.0064 25.3783 34.3303 24.198 33.5495C22.8969 32.6888 21.4178 32.0714 19.8261 31.7625C19.0682 31.6155 18.2829 31.538 17.4768 31.538C10.7764 31.538 5.39648 36.8979 5.39648 43.4461C5.39648 49.9942 10.7764 55.3542 17.4768 55.3542C18.8921 55.3542 20.0393 56.5014 20.0393 57.9167C20.0393 59.3319 18.8921 60.4792 17.4768 60.4792C8.00326 60.4792 0.271484 52.8817 0.271484 43.4461C0.271484 34.2066 7.68522 26.7296 16.8885 26.4228C16.6603 25.163 16.5413 23.8666 16.5413 22.5441C16.5413 10.4445 26.4584 0.6875 38.6276 0.6875C49.4177 0.6875 58.4313 8.35346 60.3413 18.5268C68.1993 21.8623 73.7298 29.5901 73.7298 38.6225C73.7298 49.1253 66.2552 57.8631 56.3282 59.986C54.9443 60.2819 53.5824 59.4 53.2865 58.016C52.9905 56.6321 53.8725 55.2703 55.2564 54.9743C62.9089 53.3378 68.6048 46.6177 68.6048 38.6225C68.6048 31.3221 63.8581 25.0855 57.2014 22.8092C55.4638 22.215 53.5948 21.8909 51.6435 21.8909C49.6529 21.8909 47.7479 22.2282 45.9806 22.8455C44.6445 23.3122 43.1831 22.6074 42.7164 21.2713C42.2497 19.9352 42.9545 18.4738 44.2906 18.0071C46.5943 17.2025 49.0703 16.7659 51.6435 16.7659C52.653 16.7659 53.6476 16.8331 54.6227 16.9634C52.2972 10.4807 46.028 5.8125 38.6276 5.8125Z" fill="#A3A1F4"/>
</svg>
