<svg width="150" height="136" viewBox="0 0 150 136" fill="none" xmlns="http://www.w3.org/2000/svg">
<path d="M48.285 0.266709C55.4171 -0.126242 62.4587 0.36888 69.2529 2.72659C88.3424 9.34389 100.21 22.6139 103.844 42.395C108.851 69.6423 91.9733 96.6695 63.1543 102.552C39.255 107.428 15.67 95.5299 5.20966 73.4617C4.53771 73.1002 4.3098 72.4322 4.01902 71.7878C2.43149 68.2434 1.48056 64.5143 0.706442 60.7262C-0.885011 50.6156 0.183814 40.7761 4.20371 31.3806C9.57928 18.8258 18.6014 9.74863 31.1327 4.22373C32.5944 3.57929 34.0877 3.00951 35.5848 2.45152C39.1253 1.35518 42.7011 0.41605 46.4106 0.0899003C47.0511 0.0309576 47.6916 -0.149819 48.285 0.266709Z" fill="#85C9FE"/>
<path d="M134.622 11.5957C139.828 11.58 143.966 15.6785 144.001 20.8969C144.033 25.907 139.84 30.0959 134.72 30.1666C129.686 30.2374 125.277 25.8599 125.313 20.8222C125.344 15.8003 129.572 11.6115 134.622 11.5957Z" fill="#85C9FE"/>
<path d="M52 73C53.6569 73 55 71.6569 55 70V46C55 44.3431 53.6569 43 52 43C50.3431 43 49 44.3431 49 46V70C49 71.6569 50.3431 73 52 73Z" fill="#F9FAFB"/>
<path d="M52 30C54.2091 30 56 31.7909 56 34C56 36.2091 54.2091 38 52 38C49.7909 38 48 36.2091 48 34C48 31.7909 49.7909 30 52 30Z" fill="#F9FAFB"/>
<rect x="59.0908" y="44.5454" width="90.9091" height="90.9091" rx="43.6364" fill="white"/>
<path d="M91.5081 63.3335C92.617 63.3335 93.516 64.198 93.516 65.2645V69.1598C95.2971 69.1266 97.2935 69.1266 99.5398 69.1266H110.249C112.495 69.1266 114.492 69.1266 116.273 69.1598V65.2645C116.273 64.198 117.172 63.3335 118.281 63.3335C119.39 63.3335 120.289 64.198 120.289 65.2645V69.3307C124.142 69.6274 126.672 70.3557 128.53 72.1431C130.389 73.9304 131.146 76.3633 131.455 80.0691L131.667 82.0002H80.7995H78.334V80.0691C78.6426 76.3633 79.3998 73.9304 81.2584 72.1431C83.1169 70.3557 85.6467 69.6274 89.5001 69.3307V65.2645C89.5001 64.198 90.3991 63.3335 91.5081 63.3335Z" fill="#4F46E5"/>
<path opacity="0.5" d="M131.667 95.3333V90C131.667 87.7625 131.658 83.7738 131.624 81.9998H78.3591C78.3247 83.7738 78.3334 87.7625 78.3334 90V95.3333C78.3334 105.39 78.3334 110.418 81.4576 113.542C84.5818 116.667 89.6101 116.667 99.6667 116.667H110.333C120.39 116.667 125.418 116.667 128.543 113.542C131.667 110.418 131.667 105.39 131.667 95.3333Z" fill="#4F46E5"/>
<path d="M121 103.333C121 104.806 119.806 106 118.334 106C116.861 106 115.667 104.806 115.667 103.333C115.667 101.861 116.861 100.667 118.334 100.667C119.806 100.667 121 101.861 121 103.333Z" fill="#4F46E5"/>
<path d="M121 92.6667C121 94.1394 119.806 95.3333 118.334 95.3333C116.861 95.3333 115.667 94.1394 115.667 92.6667C115.667 91.1939 116.861 90 118.334 90C119.806 90 121 91.1939 121 92.6667Z" fill="#4F46E5"/>
<path d="M107.666 103.333C107.666 104.806 106.472 106 105 106C103.527 106 102.333 104.806 102.333 103.333C102.333 101.861 103.527 100.667 105 100.667C106.472 100.667 107.666 101.861 107.666 103.333Z" fill="#4F46E5"/>
<path d="M107.666 92.6667C107.666 94.1394 106.472 95.3333 105 95.3333C103.527 95.3333 102.333 94.1394 102.333 92.6667C102.333 91.1939 103.527 90 105 90C106.472 90 107.666 91.1939 107.666 92.6667Z" fill="#4F46E5"/>
<path d="M94.3333 103.333C94.3333 104.806 93.1394 106 91.6667 106C90.1939 106 89 104.806 89 103.333C89 101.861 90.1939 100.667 91.6667 100.667C93.1394 100.667 94.3333 101.861 94.3333 103.333Z" fill="#4F46E5"/>
<path d="M94.3333 92.6667C94.3333 94.1394 93.1394 95.3333 91.6667 95.3333C90.1939 95.3333 89 94.1394 89 92.6667C89 91.1939 90.1939 90 91.6667 90C93.1394 90 94.3333 91.1939 94.3333 92.6667Z" fill="#4F46E5"/>
</svg>
